<svg width="110" height="110" viewBox="0 0 110 110" fill="none" xmlns="http://www.w3.org/2000/svg">
<path d="M103 15.4682C103 10.2911 98.3371 6.36534 93.2114 7.08534C80.6457 8.83391 67.7886 9.72534 54.7429 9.72534C41.6971 9.72534 29.1829 8.85105 16.7714 7.15391C11.6457 6.45105 7 10.3596 7 15.5368V94.4453C7 99.6225 11.6457 103.548 16.7714 102.828C29.1829 101.131 41.8686 100.24 54.7429 100.24C67.6171 100.24 80.6457 101.148 93.2114 102.88C98.3371 103.582 103 99.6568 103 94.4968V15.4682Z" fill="#0D9DDA"/>
<path d="M22.1371 70.2585C20.2 67.6699 18.5029 64.9613 16.9771 62.0642C12.6229 53.7499 9.72571 43.6185 7 28.6699V94.4471C7 99.6242 11.6457 103.55 16.7714 102.83C29.1829 101.133 41.8686 100.241 54.7429 100.241C67.6171 100.241 80.6457 101.15 93.2114 102.881H93.52C69.1771 97.0014 45.6229 94.5671 30.6057 79.7899C27.3486 76.5671 24.5543 73.4814 22.1371 70.2242V70.2585Z" fill="#05628A"/>
<path d="M25.4973 81.4844H84.4859" stroke="#023248" stroke-width="8.57143" stroke-linecap="round" stroke-linejoin="round"/>
<path d="M76.0173 90.0068C71.3373 90.0068 67.5144 86.1839 67.5144 81.4868C67.5144 76.7897 71.3201 72.9668 76.0173 72.9668C80.7144 72.9668 84.5201 76.7897 84.5201 81.4868C84.5201 86.1839 80.7144 90.0068 76.0173 90.0068Z" fill="white" stroke="#023248" stroke-width="8.57143" stroke-linecap="round" stroke-linejoin="round"/>
<path d="M25.4973 56.748H84.4859" stroke="#023248" stroke-width="8.57143" stroke-linecap="round" stroke-linejoin="round"/>
<path d="M41.3715 65.2705C36.6915 65.2705 32.8687 61.4476 32.8687 56.7505C32.8687 52.0533 36.6744 48.2305 41.3715 48.2305C46.0687 48.2305 49.8744 52.0533 49.8744 56.7505C49.8744 61.4476 46.0687 65.2705 41.3715 65.2705Z" fill="white" stroke="#023248" stroke-width="8.57143" stroke-linecap="round" stroke-linejoin="round"/>
<path d="M25.4973 32.0117H84.4859" stroke="#023248" stroke-width="8.57143" stroke-linecap="round" stroke-linejoin="round"/>
<path d="M62.5427 40.5127C57.8627 40.5127 54.0398 36.6898 54.0398 31.9927C54.0398 27.2955 57.8455 23.4727 62.5427 23.4727C67.2398 23.4727 71.0455 27.2955 71.0455 31.9927C71.0455 36.6898 67.2398 40.5127 62.5427 40.5127Z" fill="white" stroke="#023248" stroke-width="8.57143" stroke-linecap="round" stroke-linejoin="round"/>
<path d="M95.1142 12.2949C95.9713 12.1578 96.6742 12.5178 96.9656 13.0492C97.2228 13.4606 97.3428 13.9921 97.2228 14.5749C96.6742 17.1978 96.2456 20.0778 95.9713 23.0778C95.8685 24.2778 94.5656 24.9806 93.7428 24.1063C93.1942 23.5406 92.7485 22.8892 92.4056 22.1692C91.6856 20.8321 91.2742 19.9235 89.7656 19.0321C88.5828 18.3463 86.5771 18.2092 85.1028 18.1235C82.5314 18.0378 80.2342 17.4206 78.4513 16.4092C77.0285 15.6035 77.8171 13.9063 79.4456 13.8549C82.5313 13.7349 85.8056 13.4949 89.1999 13.1006C91.2228 12.8778 93.1942 12.6035 95.0971 12.2949H95.1142Z" fill="white"/>
</svg>
