<svg width="110" height="110" viewBox="0 0 110 110" fill="none" xmlns="http://www.w3.org/2000/svg">
<path d="M95.2508 24.6571L91.6508 25.4456C90.6736 23.5256 89.4393 21.7599 88.0165 20.2171L90.0051 17.1142C90.8622 15.7771 90.4679 13.9942 89.1308 13.1371L84.2965 10.0342C82.9593 9.17707 81.1765 9.57136 80.3193 10.9085L78.3479 13.9771C76.3422 13.3085 74.2165 12.9142 72.0565 12.8114L71.2851 9.26279C70.9422 7.70279 69.4165 6.72564 67.8565 7.0685L62.2336 8.28564C60.6736 8.6285 59.6965 10.1542 60.0393 11.7142L60.8108 15.2285C58.8565 16.2056 57.0908 17.4571 55.5136 18.8971L52.4965 16.9599C51.1593 16.1028 49.3765 16.4971 48.5193 17.8342L45.4165 22.6685C44.5593 24.0056 44.9536 25.7885 46.2908 26.6456L49.2736 28.5656C48.5879 30.6056 48.1936 32.7314 48.1079 34.9256L44.6622 35.6799C43.1022 36.0228 42.1251 37.5485 42.4679 39.1085L43.6851 44.7314C44.0279 46.2914 45.5536 47.2685 47.1136 46.9256L50.5593 46.1714C51.5536 48.1256 52.8051 49.9085 54.2622 51.4685L52.3422 54.4514C51.4851 55.7885 51.8793 57.5714 53.2165 58.4285L58.0508 61.5314C59.3879 62.3885 61.1708 61.9942 62.0279 60.6571L63.9651 57.6399C65.9879 58.3085 68.1308 58.7028 70.3079 58.7714L71.0793 62.2856C71.4222 63.8456 72.9479 64.8228 74.5079 64.4799L80.1308 63.2628C81.6908 62.9199 82.6679 61.3942 82.3251 59.8342L81.5536 56.2856C83.4908 55.3085 85.2393 54.0571 86.7993 52.6171L89.8679 54.5885C91.2051 55.4456 92.9879 55.0514 93.8451 53.7142L96.9479 48.8799C97.8051 47.5428 97.4108 45.7599 96.0736 44.9028L92.9708 42.9142C93.6222 40.9085 94.0165 38.7999 94.1022 36.6399L97.7022 35.8514C99.2622 35.5085 100.239 33.9828 99.8965 32.4228L98.6793 26.7999C98.3365 25.2399 96.8108 24.2628 95.2508 24.6056V24.6571Z" fill="#003249"/>
<path d="M73.6513 47.079C67.4285 48.4333 61.257 44.4733 59.9027 38.2504C58.5485 32.0276 62.5084 25.8561 68.7313 24.5019C74.9542 23.1476 81.1256 27.1076 82.4799 33.3304C83.8342 39.5533 79.8742 45.7247 73.6513 47.079ZM69.9485 30.1419C66.8285 30.8276 64.857 33.9133 65.5256 37.0161C66.2113 40.1361 69.297 42.1076 72.3999 41.439C75.5199 40.7533 77.4913 37.6676 76.8227 34.5647C76.1542 31.4619 73.0513 29.4733 69.9485 30.1419Z" fill="#05628A"/>
<path d="M69.9141 29.9366C66.6912 30.6394 64.6341 33.8451 65.3369 37.068C66.0398 40.2908 69.2455 42.348 72.4684 41.6451C75.6912 40.9423 77.7484 37.7366 77.0455 34.5137C76.3427 31.2908 73.137 29.2337 69.9141 29.9366Z" fill="white"/>
<path d="M82.0171 57.5191H77.1657C76.4457 54.7591 75.3657 52.1705 73.9429 49.7705L77.3714 46.3419C78.8457 44.8676 78.8457 42.4676 77.3714 40.9762L72.0057 35.6105C70.5314 34.1362 68.1314 34.1362 66.64 35.6105L63.2286 39.0219C60.8286 37.5991 58.2229 36.4848 55.4629 35.7648V30.9819C55.4629 28.8905 53.7657 27.1934 51.6743 27.1934H44.0971C42.0057 27.1934 40.3086 28.8905 40.3086 30.9819V35.7134C37.5143 36.4162 34.8914 37.5305 32.4571 38.9534L29.1143 35.6105C27.64 34.1362 25.24 34.1362 23.7486 35.6105L18.3829 40.9762C16.9086 42.4505 16.9086 44.8505 18.3829 46.3419L21.6914 49.6505C20.2514 52.0848 19.1371 54.7248 18.4 57.5191H13.7371C11.6971 57.5191 10 59.2162 10 61.3076V68.8848C10 70.9762 11.6971 72.6734 13.7886 72.6734H18.4514C19.1714 75.4677 20.2857 78.1077 21.7429 80.5419L18.4343 83.8505C16.96 85.3248 16.96 87.7248 18.4343 89.2162L23.8 94.5819C25.2743 96.0562 27.6743 96.0562 29.1657 94.5819L32.5086 91.2391C34.9257 92.6619 37.5657 93.7591 40.36 94.4791V99.2105C40.36 101.302 42.0571 102.999 44.1486 102.999H51.7257C53.8171 102.999 55.5143 101.302 55.5143 99.2105V94.4277C58.2743 93.7076 60.8971 92.5934 63.28 91.1705L66.6914 94.5819C68.1657 96.0562 70.5657 96.0562 72.0571 94.5819L77.4229 89.2162C78.8971 87.7419 78.8971 85.3419 77.4229 83.8505L73.9943 80.4219C75.4 78.0219 76.4971 75.4334 77.2171 72.6734H82.0686C84.16 72.6734 85.8571 70.9762 85.8571 68.8848V61.3076C85.8571 59.2162 84.16 57.5191 82.0686 57.5191H82.0171Z" fill="#159AD6"/>
<path d="M48.2463 41.0626C56.9891 38.5941 66.092 43.7026 68.5777 52.4798C68.7491 53.1141 68.8863 53.7312 68.9891 54.3655C69.2634 56.0455 67.172 56.4912 66.1777 55.1198C61.8748 49.2226 55.5834 45.1084 48.5891 43.5141C47.2348 43.2055 46.9091 41.4569 48.2634 41.0626H48.2463Z" fill="white"/>
<path d="M35.7829 87.9462C38.3543 89.5233 41.2001 90.7233 44.2001 91.4776V95.4204C44.2001 97.5119 45.8972 99.209 47.9886 99.209H55.1886C55.2915 99.209 55.3772 99.209 55.4801 99.2261C55.4801 101.318 53.7829 102.998 51.6915 102.998H44.1143C42.0229 102.998 40.3258 101.3 40.3258 99.209V94.4604C37.5486 93.7404 34.9258 92.6433 32.5086 91.2204L35.7829 87.9462ZM13.7029 65.0947C13.7029 67.1861 15.4001 68.8833 17.4915 68.8833H22.0515C23.0286 73.1176 24.8972 77.0262 27.4343 80.3862L25.1372 82.6833C23.6629 84.1576 23.6629 86.5576 25.1372 88.049L30.4001 93.3119L29.1315 94.5804C27.6572 96.0547 25.2572 96.0547 23.7658 94.5804L18.4001 89.2147C16.9258 87.7404 16.9258 85.3404 18.4001 83.849L21.7601 80.489C20.3372 78.0719 19.2401 75.449 18.5201 72.6719H13.7715C11.6801 72.6719 9.98291 70.9747 9.98291 68.8833V61.3062C9.98291 59.249 11.6286 57.569 13.6858 57.5176V65.0947H13.7029Z" fill="#07638B"/>
<path d="M47.7998 55.6152C42.5713 55.6152 38.3198 59.8667 38.3198 65.0952C38.3198 70.3238 42.5713 74.5752 47.7998 74.5752C53.0284 74.5752 57.2798 70.3238 57.2798 65.0952C57.2798 59.8667 53.0284 55.6152 47.7998 55.6152Z" fill="white"/>
<path d="M47.8008 55.7186C52.9779 55.7186 57.1779 59.9357 57.1779 65.0957C57.1779 70.2557 52.9608 74.4728 47.8008 74.4728C42.6408 74.4728 38.4236 70.2557 38.4236 65.0957C38.4236 59.9185 42.6408 55.7186 47.8008 55.7186ZM47.8008 49.9414C39.4351 49.9414 32.6465 56.7471 32.6465 65.0957C32.6465 73.4614 39.4522 80.25 47.8008 80.25C56.1493 80.25 62.9551 73.4443 62.9551 65.0957C62.9551 56.7471 56.1493 49.9414 47.8008 49.9414Z" fill="#003249"/>
</svg>
