<svg width="110" height="110" viewBox="0 0 110 110" fill="none" xmlns="http://www.w3.org/2000/svg">
<path d="M76.0406 103H32.892C31.1435 103 30.1492 101.011 31.1949 99.6056L34.1949 95.5941C38.8406 89.3713 42.1835 82.257 43.9835 74.697L45.2349 69.4684C45.4577 68.5084 46.3149 67.8398 47.292 67.8398H61.7263C62.7035 67.8398 63.5606 68.5084 63.7835 69.4684L65.1206 75.057C67.0063 82.9256 70.5378 90.3141 75.492 96.7256L77.7035 99.5884C78.7835 100.977 77.7892 103 76.0235 103H76.0406Z" fill="#90D0FE"/>
<path d="M43.52 75.0907C43.52 75.0907 43.6914 75.0907 43.76 75.0736C47.2228 74.4736 50.7885 74.165 54.44 74.165C58.0743 74.165 61.64 74.4736 65.1028 75.0736C65.1885 75.0736 65.2743 75.0907 65.36 75.0907C66.2 75.0907 66.8685 74.4221 66.8685 73.5821L63.1314 52.2907C63.1314 51.1078 62.0514 50.2336 60.9028 50.4221C57.5771 50.9707 57.92 51.2621 54.44 51.2621C50.96 51.2621 51.3714 50.9878 48.08 50.4393C46.9143 50.2507 45.8514 51.125 45.8514 52.3078L42.1143 73.685C42.1143 74.4564 42.7485 75.0907 43.52 75.0907Z" fill="#003249"/>
<path d="M67.1773 51.6426C66.8002 54.2654 66.183 56.8711 65.4287 59.4769C64.2116 58.9111 63.0802 58.4826 62.2916 58.3626C62.223 58.3626 63.183 65.9911 63.0973 65.9911C63.6116 66.5397 62.8402 67.2254 62.6173 67.7911C62.5659 67.9111 62.6687 68.0997 62.6173 68.2026C71.7887 69.2997 74.2573 74.3226 78.183 78.2654C78.4059 78.7283 79.7773 80.0826 79.863 77.6483C80.0002 73.6197 81.8859 56.014 67.1602 51.6426H67.1773Z" fill="#003249"/>
<path d="M41.8401 51.6426C42.2172 54.2654 42.8344 56.8711 43.5887 59.4769C44.8058 58.9111 45.9372 58.4826 46.7258 58.3626C46.7944 58.3626 45.8344 65.9911 45.9201 65.9911C45.4058 66.5397 46.1772 67.2254 46.4001 67.7911C46.4515 67.9111 46.3487 68.0997 46.4001 68.2026C37.2287 69.2997 34.7601 74.3226 30.8344 78.2654C30.6115 78.7283 29.2401 80.0826 29.1544 77.6483C29.0172 73.6197 27.1315 56.014 41.8572 51.6426H41.8401Z" fill="#003249"/>
<path d="M68.6857 21.8796C66.2171 16.8567 62.4457 11.3881 57.4571 7.90814C55.6914 6.67385 53.2742 6.67385 51.5085 7.90814C46.52 11.371 42.7485 16.8567 40.28 21.8796C35.1714 32.2853 34.4857 43.891 35.9771 54.691C36.68 59.7996 38.1371 64.9081 39.8171 69.931L39.9028 69.9824C46.3142 67.7539 62.3771 67.0853 69.0457 69.9824L69.1657 69.931C70.8457 64.9253 72.3028 59.7996 73.0057 54.691C74.4971 43.891 73.8114 32.2853 68.7028 21.8796H68.6857Z" fill="#0D9DDA"/>
<path d="M54.4918 38.5099C58.8659 38.5099 62.4118 34.964 62.4118 30.5899C62.4118 26.2158 58.8659 22.6699 54.4918 22.6699C50.1177 22.6699 46.5718 26.2158 46.5718 30.5899C46.5718 34.964 50.1177 38.5099 54.4918 38.5099Z" fill="#003249"/>
<path d="M54.4911 35.3016C57.0948 35.3016 59.2054 33.191 59.2054 30.5873C59.2054 27.9837 57.0948 25.873 54.4911 25.873C51.8875 25.873 49.7769 27.9837 49.7769 30.5873C49.7769 33.191 51.8875 35.3016 54.4911 35.3016Z" fill="#90D0FE"/>
<path d="M35.9947 54.708C36.6975 59.8166 38.1375 65.028 39.8004 70.0509C39.869 70.0509 39.989 69.9823 40.0575 69.948C44.9604 68.3023 55.1775 67.5309 62.7547 68.4909C57.1147 66.1595 46.8118 58.9937 43.1775 47.5766C39.5433 36.1595 40.1775 28.068 42.8004 17.4395C41.8575 18.9309 41.0175 20.4223 40.2975 21.8966C35.189 32.3023 34.5033 43.908 35.9947 54.708Z" fill="#05628A"/>
<path d="M66.1315 24.6771C63.9372 17.5285 57.7658 9.69421 53.5144 10.7742C50.9258 11.4428 52.6744 13.4142 53.6172 13.8942C57.6801 15.9514 61.7258 19.9114 64.9829 24.9171C65.6172 25.8942 66.4744 25.7742 66.1315 24.6771Z" fill="white"/>
<path d="M54.8171 79.1027C52.2114 79.1027 52.2114 52.9941 54.8171 52.9941C57.4228 52.9941 57.4228 79.1027 54.8171 79.1027Z" fill="#003249"/>
<path d="M48.6803 97.6664C48.406 97.6664 48.1146 97.5807 47.8746 97.3921L42.6632 93.3293C42.3546 93.0893 42.166 92.7121 42.166 92.3007C42.166 91.8893 42.3546 91.5293 42.6632 91.2721L47.8746 87.2093C48.4403 86.7636 49.2632 86.8664 49.7089 87.4321C50.1546 87.9979 50.0517 88.8207 49.486 89.2664L45.5946 92.3007L49.486 95.335C50.0517 95.7807 50.1546 96.6036 49.7089 97.1693C49.4517 97.495 49.0746 97.6664 48.6803 97.6664Z" fill="#003249"/>
<path d="M60.3375 97.6664C59.9432 97.6664 59.566 97.495 59.3089 97.1693C58.8632 96.6036 58.966 95.7807 59.5318 95.335L63.4232 92.3007L59.5318 89.2664C58.966 88.8207 58.8632 87.9979 59.3089 87.4321C59.7546 86.8664 60.5775 86.7636 61.1432 87.2093L66.3546 91.2721C66.6632 91.5121 66.8518 91.8893 66.8518 92.3007C66.8518 92.7121 66.6632 93.0721 66.3546 93.3293L61.1432 97.3921C60.9032 97.5807 60.6289 97.6664 60.3375 97.6664Z" fill="#003249"/>
<path d="M52.6922 99.1939C52.555 99.1939 52.435 99.1768 52.2979 99.1254C51.6122 98.9025 51.235 98.1825 51.4579 97.4968L55.0236 86.3025C55.2465 85.6168 55.9665 85.2397 56.6522 85.4625C57.3379 85.6854 57.715 86.4054 57.4922 87.0911L53.9265 98.2854C53.755 98.834 53.2407 99.1939 52.6922 99.1939Z" fill="#003249"/>
</svg>
