<svg width="110" height="110" viewBox="0 0 110 110" fill="none" xmlns="http://www.w3.org/2000/svg">
<path d="M15.0923 74.7676H94.9078" stroke="#023248" stroke-width="5" stroke-linecap="round" stroke-linejoin="round"/>
<path d="M55 71.3867V78.1477" stroke="#023248" stroke-width="5" stroke-linecap="round" stroke-linejoin="round"/>
<path d="M22.3601 105.897L27.2708 93.1465" stroke="#023248" stroke-width="5" stroke-linecap="round" stroke-linejoin="round"/>
<path d="M87.607 105.897L82.6799 93.1465" stroke="#023248" stroke-width="5" stroke-linecap="round" stroke-linejoin="round"/>
<path d="M92.305 95.4612C92.2559 95.2642 92.2068 95.0673 92.1413 94.8704L66.7038 25.7832C66.7038 25.7832 59.616 28.4417 55.0818 30.1155L44.1309 25.7832L43.8199 26.4068L43.3779 25.7996L17.9404 94.8868C17.9404 94.8868 17.924 94.9853 17.9077 95.0181C17.7276 95.5104 17.613 96.0355 17.613 96.5278C17.613 97.3483 17.9404 98.1196 19.0699 98.6776L25.4047 100.909L25.8303 101.073L29.8898 102.649C30.2008 102.731 30.4627 102.747 30.7083 102.764C30.8065 102.764 30.9047 102.764 30.9865 102.764C31.0848 102.764 31.1666 102.747 31.2485 102.731C31.2485 102.731 31.2485 102.731 31.2648 102.731C32.116 102.518 32.6235 101.812 32.9672 100.975C33.0163 100.86 33.0654 100.762 33.1145 100.647L55.2291 41.6191L76.9181 100.548C77.4255 101.943 78.2113 103.19 80.1919 102.665L84.5461 100.975L90.9955 98.694C92.5996 97.9227 92.6488 96.7083 92.2886 95.494L92.305 95.4612Z" fill="#159AD6"/>
<path d="M43.3779 25.7988L17.9404 94.886C17.9404 94.886 17.924 94.9845 17.9077 95.0173C17.7276 95.5096 17.613 96.0347 17.613 96.527C17.613 97.3475 17.9404 98.1188 19.0699 98.6768L25.4047 100.909L25.8303 101.073L29.8898 102.648C30.2008 102.73 30.4627 102.747 30.7083 102.763C30.8065 102.763 30.9047 102.763 30.9865 102.763C31.0848 102.763 31.1666 102.747 31.2485 102.73C31.2485 102.73 31.2485 102.73 31.2648 102.73C32.116 102.517 32.6235 101.811 32.9672 100.974C33.0163 100.859 33.0654 100.761 33.1145 100.646L55.2291 41.6183L43.3779 25.8481V25.7988Z" fill="#07638B"/>
<path d="M54.8855 44.8841C63.3924 44.8841 70.2887 37.9705 70.2887 29.4421C70.2887 20.9136 63.3924 14 54.8855 14C46.3785 14 39.4822 20.9136 39.4822 29.4421C39.4822 37.9705 46.3785 44.8841 54.8855 44.8841Z" fill="#023248"/>
<path d="M53.1339 17.2493C59.0268 15.4114 65.1652 19.2185 66.8348 25.7662C66.9494 26.2421 67.0476 26.7016 67.1131 27.1775C67.2931 28.4247 65.8854 28.7529 65.2143 27.7355C62.4152 22.5662 59.8452 19.9078 53.3467 19.0708C52.43 18.8411 52.2172 17.5283 53.1175 17.2493H53.1339Z" fill="white"/>
<path d="M54.8854 34.4153C57.6246 34.4153 59.8452 32.1891 59.8452 29.443C59.8452 26.6969 57.6246 24.4707 54.8854 24.4707C52.1461 24.4707 49.9255 26.6969 49.9255 29.443C49.9255 32.1891 52.1461 34.4153 54.8854 34.4153Z" fill="#159AD6"/>
</svg>
