<svg width="110" height="110" viewBox="0 0 110 110" fill="none" xmlns="http://www.w3.org/2000/svg">
<path d="M54.5715 15.5714C63.9486 15.5714 71.56 23.2 71.56 32.56V69.1429H37.5829V32.56C37.5829 23.1829 45.2115 15.5714 54.5715 15.5714ZM54.5715 7C40.4629 7 29.0115 18.4514 29.0115 32.56V77.7143H80.1315V32.56C80.1315 18.4343 68.68 7 54.5715 7Z" fill="#023248"/>
<path d="M93.16 93.1426C93.16 99.074 87.8457 103.6 81.9486 102.931C72.9829 101.92 63.8457 101.405 54.6057 101.405C45.3657 101.405 36.1943 101.92 27.2114 102.948C21.3143 103.617 16 99.1083 16 93.1597V45.5883C16 39.6569 21.3143 35.1312 27.2114 35.7997C36.1771 36.8112 45.2971 37.3255 54.5543 37.3255C63.8114 37.3255 72.9657 36.8112 81.9486 35.7826C87.8457 35.114 93.16 39.6226 93.16 45.5712V93.1426Z" fill="#0D9DDA"/>
<path d="M16.2228 46.6699C17.6457 73.4813 18.2628 99.3499 62.1657 101.51C59.6628 101.441 57.1428 101.39 54.6228 101.39C45.3657 101.39 36.2114 101.904 27.2285 102.933C21.3314 103.601 16.0171 99.0928 16.0171 93.1442V48.7099C16.0171 48.0071 16.0857 47.3214 16.2399 46.6699H16.2228Z" fill="#05628A"/>
<path d="M54.5885 73.2219C60.7993 73.2219 65.8342 68.187 65.8342 61.9762C65.8342 55.7653 60.7993 50.7305 54.5885 50.7305C48.3777 50.7305 43.3428 55.7653 43.3428 61.9762C43.3428 68.187 48.3777 73.2219 54.5885 73.2219Z" fill="#0D9DDA"/>
<path d="M64.2056 85.7024C64.3942 87.0224 63.2114 88.1367 61.8914 87.9481C59.5085 87.5881 57.0914 87.3995 54.6056 87.3995C52.1199 87.3995 49.6856 87.5881 47.2856 87.9481C45.9656 88.1538 44.7656 87.0224 44.9714 85.7024L49.6171 66.2281C49.7714 65.1652 50.7656 64.4452 51.8456 64.5652C53.7828 64.8052 52.5828 64.9252 54.5885 64.9252C56.5942 64.9252 55.4114 64.8052 57.3485 64.5652C58.4114 64.4281 59.4228 65.1652 59.5771 66.2281L64.2056 85.7024Z" fill="#0D9DDA"/>
<path d="M85.0001 42.8281C85.8573 42.691 86.5601 43.051 86.8516 43.5824C87.1087 43.9938 87.2287 44.5253 87.1087 45.091C86.5601 47.7138 86.1316 50.5767 85.8573 53.5767C85.7544 54.7767 84.4516 55.4796 83.6287 54.6053C83.0801 54.0396 82.6344 53.371 82.2916 52.6681C81.5716 51.331 81.1773 50.4224 79.6687 49.5481C78.4687 48.8624 76.463 48.7253 74.9887 48.6396C72.4344 48.5367 70.1201 47.9367 68.3544 46.9253C66.9316 46.1196 67.7201 44.4224 69.3487 44.371C72.4344 44.251 75.7259 44.011 79.103 43.6167C81.1259 43.3938 83.0973 43.1195 85.0173 42.811L85.0001 42.8281Z" fill="white"/>
<path d="M51.4171 84.6918C51.4171 84.6918 51.3656 84.6918 51.3485 84.6918C50.0628 84.6746 48.8456 84.0746 48.0571 83.0632L39.9828 72.8118C38.5256 70.9604 38.8342 68.2518 40.7028 66.7946C42.5542 65.3375 45.2628 65.6461 46.7199 67.5146L51.5371 73.6346L66.8285 55.5318C68.3542 53.7146 71.0628 53.4918 72.8628 55.0175C74.6628 56.5432 74.9028 59.2518 73.3771 61.0518L54.6914 83.1661C53.8685 84.1261 52.6856 84.6918 51.4171 84.6918Z" fill="white"/>
</svg>
