<svg width="110" height="110" viewBox="0 0 110 110" fill="none" xmlns="http://www.w3.org/2000/svg">
<path d="M55.1545 7C50.9031 7 47.4231 10.4286 47.4231 14.6971C47.4231 18.9486 50.8517 22.4286 55.1202 22.4286C59.3888 22.4286 62.8517 19 62.8517 14.7314C62.8517 10.48 59.406 7 55.1545 7Z" fill="#0D9DDA"/>
<path d="M79.1373 13.5142C75.4515 11.3713 70.7201 12.6228 68.5944 16.3085C66.4515 19.9942 67.703 24.7256 71.3887 26.8513C75.0744 28.9942 79.8058 27.7428 81.9315 24.057C84.0744 20.3713 82.823 15.6399 79.1373 13.5142Z" fill="#04E1CB"/>
<path d="M96.6398 31.12C94.5313 27.4343 89.7998 26.1485 86.1141 28.2571C82.4284 30.3657 81.1427 35.0971 83.2513 38.7828C85.3598 42.4685 90.0913 43.7543 93.777 41.6457C97.4627 39.5371 98.7484 34.8057 96.6398 31.12Z" fill="#FF538A"/>
<path d="M90.7771 48.88C90.2114 50.0629 89.9028 51.4 89.8857 52.8057C89.8857 57.76 93.7428 61.8057 98.6285 62.0629C97.6 62.56 96.4514 62.8343 95.2343 62.8343C90.9828 62.8343 87.5371 59.3543 87.5543 55.1029C87.5543 52.5314 88.8228 50.2686 90.76 48.88H90.7771Z" fill="#C66A1E"/>
<path d="M103 55.1543C103 50.9029 99.5715 47.4229 95.303 47.4229C91.0515 47.4229 87.5715 50.8514 87.5715 55.12C87.5715 59.3714 91.0001 62.8514 95.2687 62.8514C99.5373 62.8514 103 59.4229 103 55.1543Z" fill="#FE9339"/>
<path d="M96.486 79.1371C98.6288 75.4514 97.3774 70.72 93.6917 68.5943C90.006 66.4514 85.2745 67.7028 83.1488 71.3886C81.006 75.0743 82.2574 79.8057 85.9431 81.9314C89.6288 84.0743 94.3603 82.8228 96.486 79.1371Z" fill="#41B658"/>
<path d="M78.8629 96.6399C82.5486 94.5314 83.8343 89.8 81.7258 86.1142C79.6172 82.4285 74.8858 81.1428 71.2001 83.2514C67.5143 85.3599 66.2286 90.0914 68.3372 93.7771C70.4458 97.4628 75.1772 98.7485 78.8629 96.6399Z" fill="#90D0FE"/>
<path d="M54.8456 103C59.097 103 62.577 99.5714 62.577 95.3028C62.577 91.0514 59.1484 87.5714 54.8799 87.5714C50.6284 87.5714 47.1484 91 47.1484 95.2686C47.1484 99.5371 50.577 103 54.8456 103Z" fill="#481A54"/>
<path d="M30.8628 96.4856C34.5485 98.6285 39.2799 97.377 41.4057 93.6913C43.5314 90.0056 42.2971 85.2742 38.6114 83.1485C34.9257 81.0056 30.1942 82.257 28.0685 85.9428C25.9257 89.6285 27.1771 94.3599 30.8628 96.4856Z" fill="#91DB8B"/>
<path d="M13.3599 78.88C15.4685 82.5657 20.1999 83.8514 23.8856 81.7428C27.5713 79.6343 28.857 74.9029 26.7485 71.2171C24.6399 67.5314 19.9085 66.2457 16.2228 68.3543C12.537 70.4629 11.2513 75.1943 13.3599 78.88Z" fill="#032D60"/>
<path d="M7 54.8457C7 59.0971 10.4286 62.5771 14.6971 62.5771C18.9486 62.5771 22.4286 59.1486 22.4286 54.88C22.4286 50.6114 19 47.1486 14.7314 47.1486C10.48 47.1486 7 50.5943 7 54.8457Z" fill="#7526E3"/>
<path d="M13.5143 30.8629C11.3715 34.5486 12.6229 39.28 16.3086 41.4057C19.9943 43.5314 24.7257 42.2972 26.8515 38.6114C28.9772 34.9257 27.7429 30.1943 24.0572 28.0686C20.3715 25.9429 15.64 27.1772 13.5143 30.8629Z" fill="#7F8CED"/>
<path d="M31.1373 13.36C27.4516 15.4686 26.1659 20.2 28.2744 23.8857C30.383 27.5714 35.1144 28.8572 38.8002 26.7486C42.4859 24.64 43.7716 19.9086 41.663 16.2229C39.5544 12.5372 34.823 11.2514 31.1373 13.36Z" fill="#FCC003"/>
<path d="M75.9658 14.1315C78.1087 13.943 80.6801 16.6001 81.023 18.3658C81.143 19.0001 80.6458 19.6687 79.9601 18.4344C79.1201 16.9258 77.303 15.743 75.7601 15.0401C75.3144 14.8344 75.2801 14.2172 75.7601 14.1487C75.8287 14.1487 75.9144 14.1315 75.983 14.1144L75.9658 14.1315Z" fill="white"/>
<path d="M90.5029 29.5429C92.6458 29.3543 95.2172 32.0115 95.5601 33.7772C95.6801 34.4115 95.1829 35.08 94.4972 33.8458C93.6572 32.3372 91.8401 31.1543 90.2972 30.4515C89.8515 30.2458 89.8172 29.6286 90.2972 29.56C90.3658 29.56 90.4515 29.5429 90.5201 29.5258L90.5029 29.5429Z" fill="white"/>
<path d="M95.8003 49.3085C97.9431 49.12 100.515 51.7771 100.857 53.5428C100.977 54.1771 100.48 54.8457 99.7946 53.6114C98.9546 52.1028 97.1374 50.92 95.5946 50.2171C95.1489 50.0114 95.1146 49.3942 95.5946 49.3257C95.6631 49.3257 95.7489 49.3085 95.8174 49.2914L95.8003 49.3085Z" fill="white"/>
<path d="M55.5828 8.62859C57.7256 8.44002 60.297 11.0972 60.6399 12.8629C60.7599 13.4972 60.2628 14.1657 59.577 12.9314C58.737 11.4229 56.9199 10.24 55.377 9.53716C54.9313 9.33145 54.897 8.71431 55.377 8.64574C55.4456 8.64574 55.5313 8.62859 55.5999 8.61145L55.5828 8.62859Z" fill="white"/>
<path d="M35.4226 14.2343C37.5655 14.0457 40.1369 16.7029 40.4798 18.4686C40.5998 19.1029 40.1026 19.7714 39.4169 18.5372C38.5769 17.0286 36.7597 15.8457 35.2169 15.1429C34.7712 14.9372 34.7369 14.32 35.2169 14.2514C35.2855 14.2514 35.3712 14.2343 35.4397 14.2172L35.4226 14.2343Z" fill="white"/>
<path d="M20.6287 28.96C22.7715 28.7714 25.3429 31.4286 25.6858 33.1943C25.8058 33.8286 25.3087 34.4972 24.6229 33.2629C23.7829 31.7543 21.9658 30.5714 20.4229 29.8686C19.9772 29.6629 19.9429 29.0457 20.4229 28.9772C20.4915 28.9772 20.5772 28.96 20.6458 28.9429L20.6287 28.96Z" fill="white"/>
<path d="M14.8684 49.0514C17.0113 48.8629 19.5827 51.52 19.9255 53.2857C20.0455 53.92 19.5484 54.5886 18.8627 53.3543C18.0227 51.8457 16.2055 50.6629 14.6627 49.96C14.217 49.7543 14.1827 49.1372 14.6627 49.0686C14.7313 49.0686 14.817 49.0514 14.8855 49.0343L14.8684 49.0514Z" fill="white"/>
<path d="M20.5085 69.1943C22.6514 69.0057 25.2228 71.6628 25.5657 73.4286C25.6857 74.0628 25.1885 74.7314 24.5028 73.4971C23.6628 71.9886 21.8457 70.8057 20.3028 70.1028C19.8571 69.8971 19.8228 69.28 20.3028 69.2114C20.3714 69.2114 20.4571 69.1943 20.5257 69.1771L20.5085 69.1943Z" fill="white"/>
<path d="M35.2 84.5886C37.3428 84.4 39.9142 87.0571 40.2571 88.8228C40.3771 89.4571 39.88 90.1257 39.1942 88.8914C38.3542 87.3828 36.5371 86.2 34.9942 85.4971C34.5485 85.2914 34.5142 84.6743 34.9942 84.6057C35.0628 84.6057 35.1485 84.5886 35.2171 84.5714L35.2 84.5886Z" fill="white"/>
<path d="M55.3257 90.2115C57.4685 90.0229 60.04 92.68 60.3828 94.4458C60.5028 95.08 60.0057 95.7486 59.32 94.5143C58.48 93.0058 56.6628 91.8229 55.12 91.1201C54.6743 90.9143 54.64 90.2972 55.12 90.2286C55.1885 90.2286 55.2743 90.2115 55.3428 90.1943L55.3257 90.2115Z" fill="white"/>
<path d="M75.1943 84.1257C77.3372 83.9371 79.9086 86.5942 80.2515 88.3599C80.3715 88.9942 79.8743 89.6628 79.1886 88.4285C78.3486 86.9199 76.5315 85.7371 74.9886 85.0342C74.5429 84.8285 74.5086 84.2114 74.9886 84.1428C75.0572 84.1428 75.1429 84.1257 75.2115 84.1085L75.1943 84.1257Z" fill="white"/>
<path d="M89.9541 69.4172C92.097 69.2286 94.6684 71.8857 95.0112 73.6515C95.1312 74.2857 94.6341 74.9543 93.9484 73.72C93.1084 72.2114 91.2912 71.0286 89.7484 70.3257C89.3027 70.12 89.2684 69.5029 89.7484 69.4343C89.817 69.4343 89.9027 69.4172 89.9712 69.4L89.9541 69.4172Z" fill="white"/>
<g opacity="0.2" style="mix-blend-mode:multiply">
<path d="M50.9715 11.8686C50.9715 10.2743 51.4686 8.78287 52.3086 7.54858C49.4458 8.68001 47.4229 11.44 47.4058 14.6972C47.4058 18.9486 50.8343 22.4286 55.1029 22.4286C57.76 22.4286 60.1086 21.0914 61.4972 19.0514C60.6229 19.3943 59.6629 19.6 58.6686 19.6C54.4172 19.6 50.9715 16.12 50.9715 11.8686Z" fill="#444444"/>
</g>
<path d="M71.3716 26.8515C74.8859 28.8915 79.3431 27.8115 81.5888 24.5201C79.4802 25.3429 77.0288 25.2572 74.9202 24.0401C71.2345 21.8972 69.9831 17.1658 72.1259 13.4972C72.2288 13.3258 72.3488 13.2058 72.4516 13.0515C70.8745 13.6687 69.4688 14.7658 68.5602 16.3258C66.4174 20.0115 67.6688 24.7429 71.3545 26.8687L71.3716 26.8515Z" fill="#01C3B3"/>
<path opacity="0.8" d="M86.817 35.9715C85.3084 33.3315 85.5484 30.16 87.1598 27.7943C86.7998 27.9315 86.457 28.0686 86.1141 28.2572C82.4284 30.3657 81.1427 35.0972 83.2513 38.7829C85.3598 42.4686 90.0913 43.7543 93.777 41.6457C94.8227 41.0457 95.6455 40.2229 96.2798 39.2972C92.7827 40.6515 88.7198 39.3143 86.7998 35.9715H86.817Z" fill="#E3066A"/>
<path d="M89.8858 52.8057C89.8858 51.4171 90.2115 50.08 90.7601 48.8971C90.4858 49.1028 90.2286 49.3085 89.9886 49.5314C89.8858 49.6342 89.7829 49.7371 89.6972 49.84C89.4401 50.0971 89.2172 50.3885 88.9943 50.68C88.9429 50.7657 88.8915 50.8342 88.8401 50.92C88.6343 51.2457 88.4458 51.5714 88.2915 51.9314C88.2401 52.0342 88.2058 52.1199 88.1543 52.2228C88.0001 52.6171 87.8629 53.0114 87.7772 53.44C87.7601 53.5428 87.7429 53.6285 87.7258 53.7314C87.6401 54.1771 87.5886 54.6228 87.5886 55.0857C87.5886 55.0857 87.5886 55.0857 87.5886 55.1028C87.5886 59.3542 91.0172 62.8171 95.2686 62.8342C95.2686 62.8342 95.2686 62.8342 95.2858 62.8342C95.7658 62.8342 96.2115 62.7828 96.6743 62.6971C96.7601 62.6971 96.8286 62.68 96.9143 62.6628C97.3258 62.5771 97.7372 62.44 98.1315 62.2857C98.2343 62.2514 98.3372 62.2 98.4229 62.1657C98.4915 62.1314 98.5429 62.0971 98.6115 62.0628C93.7429 61.7885 89.8858 57.7428 89.9029 52.8057H89.8858Z" fill="#F38303"/>
<path d="M89.5088 79.103C85.8231 76.9601 84.5717 72.2287 86.7146 68.5601C86.8174 68.3887 86.9374 68.2687 87.0403 68.1144C85.4631 68.7315 84.0574 69.8287 83.1488 71.3887C81.006 75.0744 82.2574 79.8058 85.9431 81.9315C89.4574 83.9715 93.9145 82.8915 96.1603 79.6001C94.0517 80.4229 91.6003 80.3372 89.4917 79.1201L89.5088 79.103Z" fill="#3BA755"/>
<path opacity="0.2" d="M71.9029 90.9657C70.3943 88.3257 70.6343 85.1543 72.2458 82.7886C71.8858 82.9257 71.5429 83.0629 71.2001 83.2514C67.5143 85.36 66.2286 90.0914 68.3372 93.7771C70.4458 97.4629 75.1772 98.7486 78.8629 96.64C79.9086 96.04 80.7315 95.2171 81.3658 94.2914C77.8686 95.6457 73.8058 94.3086 71.8858 90.9657H71.9029Z" fill="#0D9DDA"/>
<path d="M50.7142 92.44C50.7142 90.8457 51.2113 89.3543 52.0513 88.12C49.1884 89.2514 47.1656 92.0114 47.1484 95.2686C47.1484 99.52 50.577 103 54.8456 103C57.5027 103 59.8513 101.663 61.2399 99.6229C60.3656 99.9657 59.4056 100.171 58.4113 100.171C54.1599 100.171 50.7142 96.6914 50.7142 92.44Z" fill="#2E0039"/>
<path opacity="0.7" d="M34.4285 93.6744C30.7428 91.5315 29.4914 86.8001 31.6342 83.1315C31.7371 82.9601 31.8571 82.8401 31.9599 82.6858C30.3828 83.3029 28.9771 84.4001 28.0685 85.9601C25.9257 89.6458 27.1771 94.3772 30.8628 96.5029C34.3771 98.5429 38.8342 97.4629 41.0799 94.1715C38.9714 94.9944 36.5199 94.9086 34.4114 93.6915L34.4285 93.6744Z" fill="#45C65A"/>
<path d="M16.9085 76.0514C15.4 73.4114 15.6399 70.24 17.2514 67.8743C16.8914 68.0114 16.5485 68.1486 16.2057 68.3371C12.5199 70.4457 11.2342 75.1771 13.3428 78.8628C15.4514 82.5486 20.1828 83.8343 23.8685 81.7257C24.9142 81.1257 25.7371 80.3028 26.3714 79.3771C22.8742 80.7314 18.8114 79.3943 16.8914 76.0514H16.9085Z" fill="#03234D"/>
<path d="M21.0914 59.2171C20.2171 59.5599 19.2571 59.7657 18.2629 59.7657C14.0114 59.7657 10.5657 56.2857 10.5657 52.0342C10.5657 50.4399 11.0629 48.9485 11.9029 47.7142C9.04 48.8285 7 51.6057 7 54.8457C7 59.0971 10.4286 62.5771 14.6971 62.5771C17.3543 62.5771 19.7029 61.2399 21.0914 59.1999V59.2171Z" fill="#5A1BA9"/>
<path opacity="0.2" d="M16.2913 41.4229C19.8056 43.4629 24.2627 42.3829 26.5085 39.0915C24.3999 39.9144 21.9485 39.8286 19.8399 38.6115C16.1542 36.4686 14.9027 31.7372 17.0456 28.0686C17.1485 27.8972 17.2685 27.7772 17.3713 27.6229C15.7942 28.2401 14.3885 29.3372 13.4799 30.8972C11.337 34.5829 12.5885 39.3144 16.2742 41.4401L16.2913 41.4229Z" fill="#3A49DA"/>
<path d="M31.8402 21.0571C30.3316 18.4171 30.5716 15.2457 32.183 12.88C31.823 13.0171 31.4802 13.1543 31.1373 13.3429C27.4516 15.4514 26.1659 20.1829 28.2744 23.8686C30.383 27.5543 35.1144 28.84 38.8002 26.7314C39.8459 26.1314 40.6687 25.3086 41.303 24.3829C37.8059 25.7371 33.743 24.4 31.823 21.0571H31.8402Z" fill="#E4A201"/>
</svg>
