<svg width="110" height="110" viewBox="0 0 110 110" fill="none" xmlns="http://www.w3.org/2000/svg">
<path d="M99.8494 24.5143C101.433 16.5757 96.2809 8.85667 88.3424 7.27327C80.4038 5.68988 72.6848 10.8417 71.1014 18.7803C69.518 26.7188 74.6698 34.4379 82.6084 36.0213C90.5469 37.6047 98.266 32.4528 99.8494 24.5143Z" fill="#023248"/>
<path d="M55.0286 103.001C80.4495 103.001 101.057 82.3928 101.057 56.9719C101.057 31.5511 80.4495 10.9434 55.0286 10.9434C29.6077 10.9434 9 31.5511 9 56.9719C9 82.3928 29.6077 103.001 55.0286 103.001Z" fill="#0D9BD8"/>
<path d="M19.1657 28.1562C14.4686 44.9734 17.6743 63.3162 29.4343 77.1162C42.6171 92.5791 63.12 98.3391 82.4057 93.9505C74.7429 99.642 65.2629 103.002 54.9943 103.002C29.5886 103.002 9 82.4134 9 57.0077C9 46.0877 12.8057 36.0591 19.1657 28.1734V28.1562Z" fill="#056288"/>
<path d="M63.8228 21.47C74.4514 18.47 85.4914 24.6758 88.5085 35.3386C88.7314 36.0929 88.8856 36.8643 89.0228 37.6358C89.3485 39.6586 86.8113 40.2072 85.6113 38.5443C80.3999 31.3786 72.7542 26.3729 64.2342 24.4358C62.5885 24.0586 62.1942 21.9329 63.8228 21.47Z" fill="white"/>
<path d="M33.9632 91.8966C34.0633 86.4346 29.7167 81.9257 24.2547 81.8256C18.7928 81.7254 14.2838 86.0721 14.1837 91.5341C14.0836 96.996 18.4302 101.505 23.8922 101.605C29.3542 101.705 33.8631 97.3585 33.9632 91.8966Z" fill="#023248"/>
<path d="M35.1083 54.5545H56.5711H74.9654C76.1997 54.5545 77.2626 53.9374 77.7254 52.8745C78.1883 51.7945 78.1883 50.5774 77.4169 49.6517L68.2112 37.3774C66.9769 35.8517 64.5254 35.8517 63.3083 37.3774L56.7083 46.1203L48.4283 32.9374C47.8112 32.0117 46.9026 31.5488 45.8226 31.5488C44.7426 31.5488 43.834 32.0117 43.2169 32.9374L32.4854 49.806C31.8683 50.7317 31.8683 51.9488 32.3312 52.8745C32.9483 53.9545 34.0112 54.5545 35.0912 54.5545H35.1083Z" fill="white"/>
<path d="M36.3599 63.8633H73.7141" stroke="white" stroke-width="8.57143" stroke-linecap="round" stroke-linejoin="round"/>
<path d="M42.3599 77.5938H67.7142" stroke="white" stroke-width="8.57143" stroke-linecap="round" stroke-linejoin="round"/>
</svg>
