<svg width="110" height="110" viewBox="0 0 110 110" fill="none" xmlns="http://www.w3.org/2000/svg">
<g clip-path="url(#clip0_595_2876)">
<path d="M67.6536 20.2276C67.8869 13.159 62.3458 7.23974 55.2772 7.00649C48.2087 6.77323 42.2894 12.3143 42.0561 19.3829C41.8229 26.4514 47.364 32.3707 54.4325 32.604C61.5011 32.8372 67.4204 27.2961 67.6536 20.2276Z" fill="#023248"/>
<path d="M34.2528 86.9541C34.486 79.8856 28.9449 73.9663 21.8763 73.7331C14.8078 73.4998 8.88851 79.0409 8.65525 86.1095C8.422 93.178 13.9631 99.0973 21.0317 99.3305C28.1002 99.5638 34.0195 94.0227 34.2528 86.9541Z" fill="#023248"/>
<path d="M101.529 86.9385C101.762 79.87 96.221 73.9507 89.1525 73.7174C82.0839 73.4842 76.1646 79.0253 75.9314 86.0938C75.6981 93.1624 81.2392 99.0817 88.3078 99.3149C95.3763 99.5482 101.296 94.0071 101.529 86.9385Z" fill="#023248"/>
<path d="M54.0408 99.2101C74.7184 99.2101 91.4808 82.4476 91.4808 61.7701C91.4808 41.0925 74.7184 24.3301 54.0408 24.3301C33.3633 24.3301 16.6008 41.0925 16.6008 61.7701C16.6008 82.4476 33.3633 99.2101 54.0408 99.2101Z" fill="#00AAF0"/>
<path d="M55.0866 19.8027C32.1152 19.8027 13.498 38.4199 13.498 61.4085C13.498 84.397 32.1152 102.997 55.0866 102.997C78.058 102.997 96.6752 84.3799 96.6752 61.4085C96.6752 38.437 78.058 19.8027 55.0866 19.8027ZM53.6123 75.6542C51.3838 75.6542 49.2238 75.7227 47.1152 75.8427C46.618 72.8084 46.258 69.4142 46.1038 65.677H64.0866C63.9323 69.4999 63.5552 72.9456 63.0409 76.0142C60.0238 75.7742 56.8695 75.637 53.6123 75.637V75.6542ZM61.0695 84.4656C59.0466 90.877 56.5266 94.2542 55.1038 94.2542C53.6809 94.2542 51.1266 90.8427 49.0866 84.3284C50.5609 84.2599 52.0695 84.2256 53.6123 84.2256C56.1838 84.2256 58.6695 84.3113 61.0695 84.4656ZM46.1038 57.1227C46.258 53.3856 46.618 49.9913 47.1152 46.957C49.2066 47.077 51.3838 47.1456 53.6123 47.1456C56.938 47.1456 60.0923 47.0085 63.0409 46.7685C63.5552 49.8542 63.9152 53.2999 64.0866 57.1227H46.1038ZM53.6123 38.5742C52.0695 38.5742 50.5609 38.5399 49.0866 38.4713C51.1266 31.957 53.6638 28.5456 55.1038 28.5456C56.5438 28.5456 59.0466 31.9056 61.0695 38.317C58.7038 38.4713 56.218 38.5742 53.6295 38.5742H53.6123ZM67.3438 30.757C70.6523 32.0942 73.7038 33.9285 76.3952 36.2085C74.458 36.6199 72.2123 37.0313 69.7266 37.3913C69.0409 34.9913 68.2523 32.7799 67.3609 30.757H67.3438ZM40.3609 37.7513C37.7895 37.4427 35.4238 37.0656 33.2809 36.6542C36.0923 34.1856 39.298 32.1627 42.8295 30.757C41.8866 32.8656 41.0638 35.2142 40.3609 37.7513ZM38.578 46.1513C38.0295 49.6827 37.6866 53.3685 37.5323 57.1056H22.378C22.9952 52.3913 24.6066 47.9856 27.0066 44.1113C30.1438 44.8313 34.0695 45.5856 38.578 46.1513ZM37.5323 65.6942C37.6866 69.4313 38.0295 73.117 38.578 76.6484C34.0695 77.2313 30.1438 77.9856 27.0066 78.6884C24.6066 74.8142 22.9952 70.4085 22.378 65.6942H37.5323ZM40.3609 85.0484C41.0638 87.5856 41.8866 89.917 42.8295 92.0427C39.298 90.6199 36.0923 88.6142 33.2809 86.1456C35.4238 85.7513 37.7895 85.3742 40.3609 85.0484ZM69.7266 85.357C72.1438 85.6999 74.3723 86.0942 76.4466 86.5399C73.7552 88.837 70.6866 90.6884 67.3438 92.0427C68.2523 90.0199 69.0409 87.7742 69.7266 85.357ZM71.5438 76.9742C72.1266 73.3399 72.4866 69.5342 72.6581 65.677H87.8123C87.1609 70.6313 85.4295 75.2427 82.8409 79.2542C79.6352 78.397 75.8295 77.6084 71.5609 76.9742H71.5438ZM72.6581 57.1227C72.5038 53.2656 72.1266 49.4427 71.5438 45.8084C76.1895 45.1056 80.0295 44.2484 82.8066 43.5285C85.4123 47.557 87.1609 52.1684 87.7952 57.1227H72.6409H72.6581Z" fill="#007BAE"/>
<path d="M70.4978 100.033C70.035 100.222 69.555 100.41 69.075 100.582C69.555 100.41 70.0178 100.222 70.4978 100.033Z" fill="#007BAE"/>
<path d="M78.4694 95.7988C78.4694 95.7988 78.3322 95.8845 78.2637 95.936C78.3322 95.8845 78.4008 95.8503 78.4694 95.7988Z" fill="#007BAE"/>
<path d="M73.4806 98.7109C73.1721 98.8652 72.8635 99.0024 72.5549 99.1395C72.8635 99.0024 73.1721 98.8481 73.4806 98.7109Z" fill="#007BAE"/>
<path d="M64.5663 101.902C63.8977 102.057 63.2463 102.194 62.5605 102.314C63.2291 102.194 63.8977 102.057 64.5663 101.902Z" fill="#007BAE"/>
<path d="M61.6523 102.484C60.7437 102.622 59.8351 102.742 58.9094 102.827C59.8351 102.742 60.7437 102.639 61.6523 102.484Z" fill="#007BAE"/>
<path d="M13.4979 61.3746C13.4979 61.3746 13.4979 61.3746 13.4979 61.3917C13.4979 84.3631 32.115 102.98 55.0864 102.98C55.0864 102.98 55.0864 102.98 55.1036 102.98C32.1321 102.98 13.4979 84.346 13.4807 61.3574L13.4979 61.3746Z" fill="#007BAE"/>
<path d="M19.395 40.0479C19.5322 39.8251 19.6693 39.6022 19.8064 39.3965C19.6693 39.6193 19.5322 39.8251 19.395 40.0479Z" fill="#007BAE"/>
<path d="M21.6238 36.7051C21.6924 36.6022 21.7781 36.4993 21.8466 36.3965C21.7609 36.4993 21.6924 36.6022 21.6238 36.7051Z" fill="#007BAE"/>
<path d="M62.5609 102.314C62.2523 102.366 61.9609 102.434 61.6523 102.469C61.9609 102.417 62.2523 102.366 62.5609 102.314Z" fill="#00618B"/>
<path d="M16.9436 44.8128C17.1493 44.35 17.355 43.8871 17.5607 43.4414C17.3379 43.8871 17.1493 44.35 16.9436 44.8128Z" fill="#00618B"/>
<path d="M79.9435 94.8043C79.9435 94.8043 79.892 94.8043 79.8749 94.8043C79.412 95.1471 78.9492 95.4728 78.4863 95.7985C78.9835 95.4728 79.4806 95.1471 79.9606 94.7871L79.9435 94.8043Z" fill="#00618B"/>
<path d="M69.075 100.58C68.6635 100.734 68.235 100.872 67.8064 101.009C68.235 100.872 68.6464 100.734 69.075 100.58Z" fill="#00618B"/>
<path d="M65.6124 101.645C65.2696 101.73 64.9096 101.816 64.5496 101.902C64.9096 101.816 65.2524 101.747 65.6124 101.645Z" fill="#00618B"/>
<path d="M19.8064 39.3965C20.3893 38.4708 20.9893 37.5794 21.6235 36.7051C20.9893 37.5794 20.3721 38.4708 19.8064 39.3965Z" fill="#00618B"/>
<path d="M15.6924 48.0728C15.881 47.5414 16.0695 47.0099 16.2581 46.4785C16.0524 47.0099 15.8638 47.5242 15.6924 48.0728Z" fill="#00618B"/>
<path d="M14.0637 54.5527C14.1151 54.2441 14.1666 53.9355 14.2351 53.627C14.1837 53.9355 14.1151 54.2441 14.0637 54.5527Z" fill="#00618B"/>
<path d="M22.7035 35.2496C22.4121 35.6096 22.1378 36.0039 21.8635 36.381C22.1207 36.021 22.4121 35.6781 22.6864 35.3353C22.6864 35.301 22.6864 35.2667 22.7035 35.2324V35.2496Z" fill="#00618B"/>
<path d="M18.5208 41.5765C18.795 41.0622 19.1036 40.5479 19.395 40.0508C19.0865 40.5479 18.795 41.0622 18.5208 41.5765Z" fill="#00618B"/>
<path d="M14.9893 50.336C15.2464 49.4274 15.5207 48.536 15.8293 47.6445C15.5207 48.5188 15.2464 49.4274 14.9893 50.336Z" fill="#007BAE"/>
<path d="M17.4065 43.7895C17.8008 42.9324 18.2294 42.0924 18.6922 41.2695C18.2294 42.0924 17.8179 42.9324 17.4065 43.7895Z" fill="#007BAE"/>
<path d="M68.0293 100.941C67.1379 101.233 66.2465 101.507 65.3379 101.73C66.2465 101.49 67.155 101.233 68.0293 100.941Z" fill="#007BAE"/>
<path d="M15.9836 47.1988C16.3265 46.2731 16.6865 45.3817 17.0979 44.4902C16.7036 45.3817 16.3265 46.2902 15.9836 47.1988Z" fill="#007BAE"/>
<path d="M13.6868 57.5182C13.7896 56.4897 13.9268 55.4611 14.0811 54.4668C13.9096 55.4782 13.7725 56.4897 13.6868 57.5182Z" fill="#007BAE"/>
<path d="M58.1723 102.879C57.1609 102.947 56.1495 102.999 55.1038 102.999C56.1323 102.999 57.1609 102.947 58.1723 102.879Z" fill="#007BAE"/>
<path d="M79.5322 95.0605C78.9151 95.5063 78.2808 95.9348 77.6465 96.3634C78.2808 95.952 78.9151 95.5234 79.5322 95.0605Z" fill="#007BAE"/>
<path d="M76.9436 96.793C76.1893 97.2558 75.4351 97.7015 74.6465 98.113C75.4179 97.7015 76.1893 97.2558 76.9436 96.793Z" fill="#007BAE"/>
<path d="M13.4979 61.396C13.4979 84.3675 32.115 102.985 55.0864 102.985C32.115 102.985 13.4807 84.3503 13.4807 61.3789L13.4979 61.396Z" fill="#007BAE"/>
<path d="M20.8867 37.7533C21.3667 37.0676 21.8639 36.399 22.3781 35.7305C21.8639 36.3819 21.3667 37.0676 20.8867 37.7533Z" fill="#007BAE"/>
<path d="M19.0693 40.601C19.5322 39.8124 20.0122 39.0238 20.5093 38.2695C19.9951 39.0238 19.5151 39.8124 19.0693 40.601Z" fill="#007BAE"/>
<path d="M79.8922 94.8043C79.8922 94.8043 79.8922 94.8043 79.8751 94.8043C79.7551 94.89 79.6351 94.9757 79.5322 95.0443C79.6522 94.9585 79.7894 94.8728 79.8922 94.7871V94.8043Z" fill="#07638B"/>
<path d="M65.338 101.73C65.1837 101.765 65.0122 101.799 64.8408 101.85C64.9951 101.816 65.1665 101.782 65.338 101.73Z" fill="#07638B"/>
<path d="M74.6467 98.1152C74.4238 98.2352 74.2009 98.3552 73.9609 98.4581C74.1838 98.3381 74.4067 98.2352 74.6467 98.1152Z" fill="#07638B"/>
<path d="M68.7495 100.686C68.5095 100.771 68.2695 100.857 68.0295 100.926C68.2695 100.84 68.5095 100.771 68.7495 100.686Z" fill="#07638B"/>
<path d="M77.6293 96.3477C77.4065 96.5019 77.1665 96.6391 76.9436 96.7934C77.1836 96.6562 77.4065 96.5019 77.6293 96.3477Z" fill="#07638B"/>
<path d="M58.8238 102.83C58.6009 102.847 58.3781 102.864 58.1724 102.882C58.3952 102.882 58.6181 102.847 58.8238 102.83Z" fill="#07638B"/>
<path d="M22.6865 35.3027C22.5836 35.4399 22.4808 35.5942 22.3779 35.7313C22.4808 35.5942 22.5836 35.4742 22.6865 35.337C22.6865 35.337 22.6865 35.3199 22.6865 35.3027Z" fill="#07638B"/>
<path d="M18.6924 41.2838C18.8124 41.0609 18.9495 40.8381 19.0867 40.6152C18.9495 40.8381 18.8295 41.0609 18.6924 41.2838Z" fill="#07638B"/>
<path d="M17.0981 44.4924C17.201 44.2524 17.3039 44.0295 17.4067 43.8066C17.3039 44.0295 17.201 44.2695 17.0981 44.4924Z" fill="#07638B"/>
<path d="M42.8296 92.046C42.2467 90.7431 41.7324 89.3374 41.2353 87.8631C40.1039 87.0917 39.0067 86.2688 37.9267 85.3945C36.2981 85.6345 34.721 85.8745 33.281 86.1488C36.0924 88.6174 39.2982 90.6402 42.8296 92.046Z" fill="#009CDD"/>
<path d="M27.0064 78.6915C28.1207 78.4344 29.355 78.1773 30.6579 77.9373C27.7093 74.1487 25.4464 70.0173 23.835 65.6973H22.395C23.0122 70.4116 24.6236 74.8173 27.0236 78.6915H27.0064Z" fill="#009CDD"/>
<path d="M14.8523 50.8331C14.9037 50.6617 14.9552 50.5074 14.9894 50.3359C14.938 50.5074 14.8866 50.6617 14.8523 50.8331Z" fill="#07638B"/>
<path d="M41.1666 87.8102C41.6638 89.2674 42.2638 90.7417 42.8466 92.0445C39.3152 90.6217 36.1095 88.6159 33.298 86.1474C34.738 85.8731 36.3152 85.6331 37.9438 85.3931C35.818 83.6616 33.8123 81.7416 31.978 79.5816C31.5152 79.0331 31.0866 78.4845 30.658 77.9188C29.3552 78.1759 28.1209 78.4331 27.0066 78.6731C24.6066 74.7988 22.9952 70.3931 22.378 65.6788H23.818C20.218 56.0102 19.8752 45.3817 22.6695 35.3359C22.5666 35.4559 22.4638 35.5931 22.3609 35.7302C21.8466 36.3817 21.3495 37.0674 20.8695 37.7531C20.7495 37.9245 20.6295 38.0959 20.5095 38.2674C19.9952 39.0217 19.5152 39.8102 19.0695 40.5988C18.9323 40.8217 18.8123 41.0445 18.6752 41.2674C18.2123 42.0902 17.8009 42.9302 17.3895 43.7874C17.2866 44.0102 17.1838 44.2502 17.0809 44.4731C16.6866 45.3645 16.3095 46.2559 15.9666 47.1817C15.9152 47.3359 15.8638 47.4902 15.8123 47.6445C15.5038 48.5188 15.2295 49.4274 14.9723 50.3359C14.9209 50.5074 14.8695 50.6616 14.8352 50.8331C14.578 51.8102 14.3723 52.8045 14.1838 53.7988C14.1495 54.0216 14.098 54.2445 14.0638 54.4674C13.8923 55.4788 13.7552 56.4902 13.6695 57.5188C13.6523 57.7074 13.6352 57.8959 13.6352 58.0845C13.5495 59.1816 13.498 60.2788 13.498 61.3931C13.498 84.3645 32.1323 102.999 55.1038 102.999C56.1323 102.999 57.1609 102.947 58.1723 102.879C58.3952 102.879 58.618 102.845 58.8238 102.827C59.8009 102.742 60.7609 102.622 61.7209 102.467C61.9095 102.433 62.1152 102.399 62.3038 102.365C63.1609 102.21 64.0009 102.039 64.8409 101.833C64.9952 101.799 65.1666 101.765 65.338 101.713C66.2466 101.49 67.1552 101.216 68.0295 100.925C68.2695 100.839 68.5095 100.77 68.7495 100.685C69.6238 100.376 70.498 100.05 71.338 99.6902C71.4923 99.6217 71.6466 99.5531 71.8009 99.4845C72.5381 99.1588 73.258 98.8159 73.978 98.4559C74.2009 98.3359 74.4238 98.2331 74.6638 98.1131C75.4352 97.7017 76.2066 97.2559 76.9609 96.7931C77.2009 96.6559 77.4238 96.5016 77.6466 96.3474C78.2809 95.9359 78.9152 95.5074 79.5323 95.0445C79.6523 94.9588 79.7723 94.8731 79.8752 94.8045C66.4695 97.8559 52.3609 95.4045 41.1666 87.8102Z" fill="#07638B"/>
<path d="M58.0177 25.8055C67.8749 22.4969 78.5377 27.8455 81.8634 37.7198C82.1034 38.4227 82.292 39.1427 82.4463 39.8455C82.8406 41.7484 80.492 42.3655 79.2749 40.8569C74.0463 34.3598 66.6234 30.0055 58.532 28.5655C56.9549 28.2912 56.5091 26.3027 58.0177 25.7884V25.8055Z" fill="white"/>
</g>
<defs>
<clipPath id="clip0_595_2876">
<rect width="92.8971" height="96" fill="white" transform="translate(8.64648 7)"/>
</clipPath>
</defs>
</svg>
