<svg width="110" height="110" viewBox="0 0 110 110" fill="none" xmlns="http://www.w3.org/2000/svg">
<g clip-path="url(#clip0_61_2069)">
<path d="M84.2114 71.8002C84.2114 82.4116 71.1314 91.0002 55 91.0002C38.8686 91.0002 25.7886 82.3945 25.7886 71.8002V42.983H84.2114V71.8002Z" fill="#05628A"/>
<path d="M64.0514 38.183C70.5829 43.2744 77.2857 47.8687 84.2114 51.983V61.0344C72.7429 66.7944 61.8229 75.5373 51.1257 83.8516C49.6857 84.9658 47.8 84.9658 46.36 83.8516C39.6229 78.623 32.8 72.1773 25.7886 67.9601V43.8744C28.36 42.0573 30.9143 40.1716 33.4343 38.2001H64.0514V38.183Z" fill="#084968"/>
<path d="M9.34837 48.949C6.19409 47.6804 6.21123 43.0175 9.36551 41.749C23.7312 36.0061 37.6684 28.8232 50.9198 20.2004C53.4055 18.589 56.5941 18.589 59.0798 20.2004C72.3312 28.8232 86.2684 36.0061 100.634 41.7318C103.788 42.9832 103.806 47.6461 100.651 48.9318C86.2855 54.7604 72.3655 62.029 59.1141 70.7547C56.6112 72.4004 53.3712 72.4004 50.8855 70.7547C37.6341 62.029 23.7141 54.7604 9.34837 48.9318V48.949Z" fill="#05628A"/>
<path d="M92.0973 43.36C92.8001 43.72 93.1944 44.2857 93.2973 44.8172C93.5201 46.0686 91.9259 47.2686 90.7259 47.7314C88.8401 48.4686 86.8687 49.3429 84.8801 50.3543C83.9544 50.8172 82.8573 50.2 83.1144 49.2057C83.303 48.4686 83.6287 47.7657 84.0573 47.1314C84.7087 46.1714 85.1373 45.0057 84.4344 44.08C84.263 43.84 84.023 43.6343 83.783 43.4629C82.1201 42.3143 80.8001 40.9429 79.9087 39.5372C78.9144 37.9429 80.6801 36.8457 82.2744 37.8572C84.2459 39.1086 86.3373 40.3429 88.5487 41.56C89.7316 42.2114 90.8973 42.8286 92.0459 43.3943L92.0973 43.36Z" fill="white"/>
<path d="M15.3655 83.2172C12.9998 83.2172 11.0798 81.2972 11.0798 78.9315V52.9772C11.0798 48.4858 14.4227 44.6286 18.8627 43.9772L55.5655 38.6458C57.897 38.2858 60.0741 39.9315 60.417 42.2629C60.7598 44.6115 59.1313 46.7715 56.7998 47.1143L20.097 52.4458C19.8398 52.4801 19.6513 52.7029 19.6513 52.9601V78.9143C19.6513 81.2801 17.7313 83.2001 15.3655 83.2001V83.2172Z" fill="#1AB9FF"/>
<path d="M8.14844 61.8573C8.14844 65.8345 11.3713 69.0574 15.3484 69.0574C19.3256 69.0574 22.5484 65.8345 22.5484 61.8573C22.5484 57.8802 19.3256 54.6573 15.3484 54.6573C11.3713 54.6573 8.14844 57.8802 8.14844 61.8573Z" fill="#1AB9FF"/>
</g>
<defs>
<clipPath id="clip0_61_2069">
<rect width="96" height="72.0171" fill="white" transform="translate(7 19.0001)"/>
</clipPath>
</defs>
</svg>
