<svg width="110" height="110" viewBox="0 0 110 110" fill="none" xmlns="http://www.w3.org/2000/svg">
<g clip-path="url(#clip0_595_3000)">
<path d="M40.3608 11.5664C41.0173 27.7305 48.1065 40.2844 56.7875 40.2844" stroke="#003349" stroke-width="8.20513" stroke-linecap="round" stroke-linejoin="round"/>
<path d="M76.9723 28.8617C65.0749 30.5191 62.4164 31.3725 55.7374 31.3232C49.7313 31.274 45.0051 30.5356 33.2554 28.9274C28.3979 28.2709 24 31.9633 24 36.8535V95.2084C24 100.082 28.3979 103.775 33.239 103.118C44.9887 101.51 47.04 100.673 54.6872 100.673C63.1877 100.673 65.0749 101.526 76.9723 103.184C77.0708 103.184 77.1692 103.184 77.2677 103.184C77.2185 103.167 77.1856 103.2 77.1364 103.184C81.9118 103.758 86.2441 100.033 86.2441 95.192V36.7879C86.2441 31.8976 81.8297 28.2053 76.9887 28.8781L76.9723 28.8617Z" fill="#0E99D5"/>
<path d="M24 36.8359V89.9559V86.2308V95.2072C24 100.097 28.3979 103.79 33.239 103.133C44.9887 101.525 47.04 100.688 54.6872 100.688C63.1877 100.688 65.0749 101.542 76.9723 103.199C77.0708 103.199 77.1692 103.199 77.2677 103.199C61.6779 95.6503 53.3087 95.1744 40.5251 94.8134C38.7364 94.7641 35.6021 93.6483 34.0923 91.4821C28.4144 83.4082 24 36.8359 24 36.8359Z" fill="#07638B"/>
<path d="M79.0893 52.3103C79.7129 53.3934 81.4196 52.9995 81.4852 51.2272C81.6165 47.8303 81.6165 38.657 81.5837 36.1462C81.7314 35.1944 81.3211 34.4067 80.7139 34.0785C80.2708 33.8159 79.6965 33.7011 79.0893 33.8159C76.2011 34.4231 75.479 34.4395 72.3119 35.1944C70.9826 35.3093 70.2278 36.737 71.1796 37.6395C71.8031 38.2303 75.3478 37.9841 76.316 39.6416C77.0708 40.9544 77.4155 43.3667 77.6616 45.0077C77.6616 45.0077 78.4657 51.2108 79.0893 52.2939V52.3103Z" fill="white"/>
<path d="M43.7251 85.8359H65.7805" stroke="#003349" stroke-width="8.20513" stroke-linecap="round" stroke-linejoin="round"/>
<path d="M71.9505 53.2305H37.571C35.6496 53.2305 34.092 54.7881 34.092 56.7094V73.1033C34.092 75.0247 35.6496 76.5823 37.571 76.5823H71.9505C73.8719 76.5823 75.4295 75.0247 75.4295 73.1033V56.7094C75.4295 54.7881 73.8719 53.2305 71.9505 53.2305Z" fill="white"/>
<path d="M53.637 40.2684C62.318 40.2684 69.4236 27.5176 70.0636 11.3535" stroke="#003349" stroke-width="8.20513" stroke-linecap="round" stroke-linejoin="round"/>
</g>
<defs>
<clipPath id="clip0_595_3000">
<rect width="62.2277" height="96" fill="white" transform="translate(24 7.25)"/>
</clipPath>
</defs>
</svg>
