<svg width="110" height="110" viewBox="0 0 110 110" fill="none" xmlns="http://www.w3.org/2000/svg">
<g clip-path="url(#clip0_595_3057)">
<path d="M54.52 73.9996C57.3314 73.9996 59.6457 75.1653 60.0743 76.6739C61.2743 80.9938 63.5371 85.1081 66.6914 88.9653C68.4057 91.0567 65.7485 93.5767 61.5485 93.5767H36.9485C32.7485 93.5767 30.0914 91.0739 31.8057 88.9653C34.96 85.1081 37.2057 80.9767 38.4057 76.6739C38.8343 75.1653 41.1485 73.9824 43.96 73.9824H54.5371L54.52 73.9996Z" fill="#159AD6"/>
<path d="M60.0742 76.6723C59.6456 75.1638 57.3313 73.998 54.5199 73.998H44.0113C41.1999 73.998 39.0399 74.2552 38.6285 75.7809C38.5428 76.0723 38.1999 77.3923 38.0628 77.7695C37.3085 80.0495 36.4342 82.0038 35.217 84.078C41.6799 82.4838 52.6685 81.4723 61.7713 81.2152C61.0856 79.7238 60.5199 78.2152 60.0913 76.6723H60.0742Z" fill="#07638B"/>
<path d="M74.0114 29.9576C65.9028 30.9005 57.64 31.3976 49.2743 31.3976C40.9085 31.3976 32.6457 30.9176 24.5371 29.9576C21.9828 29.6662 19.72 31.6376 19.72 34.1919V60.8148C19.72 63.3862 21.9828 65.3576 24.5371 65.0491C32.6457 64.1062 40.9085 63.6091 49.2743 63.6091C57.64 63.6091 65.9028 64.0891 74.0114 65.0491C76.5657 65.3405 78.8285 63.3691 78.8285 60.8148V34.1919C78.8285 31.6205 76.5657 29.6491 74.0114 29.9576Z" fill="#94CCEE"/>
<path d="M48.4688 53.1843C48.6917 53.1843 48.9145 53.1843 49.1374 53.1843C52.7717 53.0129 55.6517 50.0301 55.6517 46.3615C55.6517 42.5901 52.5831 39.5215 48.8117 39.5215C45.0403 39.5215 41.9717 42.5901 41.9717 46.3615C41.9717 50.0129 44.8517 52.9958 48.4688 53.1843Z" fill="#003349"/>
<path d="M56.68 56.4241C56.6629 56.4241 56.6286 56.407 56.5943 56.3898C54.9829 55.5155 53.2172 54.9155 51.3486 54.6241C51.2114 54.607 51.0572 54.5898 50.92 54.5727C50.4914 54.5213 50.0457 54.4698 49.6 54.4527C49.5143 54.4527 49.4286 54.4355 49.3257 54.4355C49.1543 54.4355 48.9829 54.4355 48.8114 54.4355C48.64 54.4355 48.4686 54.4355 48.2972 54.4355C48.2114 54.4355 48.1257 54.4527 48.0229 54.4527C47.5772 54.4698 47.1314 54.5213 46.7029 54.5727C46.5657 54.5898 46.4114 54.607 46.2743 54.6241C44.4057 54.9155 42.64 55.5155 41.0286 56.3898C41.0114 56.3898 40.9772 56.407 40.9429 56.4241C35.9714 59.1327 32.5257 64.327 32.3372 70.3784V70.2241H65.3029V69.5384V70.3955C65.1143 64.327 61.6514 59.1498 56.68 56.4413V56.4241Z" fill="#003349"/>
<path d="M48.3145 56.4415C48.6402 56.4415 48.9659 56.4415 49.2745 56.4415C54.5202 56.2015 58.703 51.8815 58.703 46.5672C58.703 41.0986 54.2802 36.6758 48.8116 36.6758C43.343 36.6758 38.9202 41.0986 38.9202 46.5672C38.9202 51.8644 43.0859 56.1672 48.3145 56.4244V56.4415Z" fill="#003349"/>
<path d="M83.8343 15.8821C72.5714 17.7335 61.0171 18.7107 49.2229 18.7107C37.4286 18.7107 25.8743 17.7507 14.6286 15.8821C10.6686 15.2307 7 18.2307 7 22.2421V72.7964C7 76.8078 10.6686 79.7907 14.6286 79.1392C25.8914 77.2878 37.4457 76.3107 49.24 76.3107C61.0343 76.3107 72.5886 77.2707 83.8514 79.1392C87.8114 79.7907 91.48 76.7907 91.48 72.7964V22.2421C91.48 18.2307 87.8114 15.2478 83.8514 15.8992L83.8343 15.8821ZM78.8286 60.8307C78.8286 63.4021 76.5657 65.3735 74.0114 65.065C65.9029 64.1221 57.64 63.625 49.2743 63.625C40.9086 63.625 32.6457 64.105 24.5371 65.065C21.9829 65.3564 19.72 63.385 19.72 60.8307V34.2078C19.72 31.6364 21.9829 29.665 24.5371 29.9735C32.6457 30.9164 40.9086 31.4135 49.2743 31.4135C57.64 31.4135 65.9029 30.9335 74.0114 29.9735C76.5657 29.6821 78.8286 31.6535 78.8286 34.2078V60.8307Z" fill="#159AD6"/>
<path d="M87.2457 20.9383C87.3314 20.3383 87.0743 19.8583 86.7143 19.6697C86.44 19.4983 86.08 19.4297 85.7029 19.5154C83.92 19.8926 81.9829 20.184 79.9429 20.3554C79.12 20.424 78.6572 21.2983 79.24 21.864C79.6343 22.224 83.3886 22.0697 83.9886 23.0983C84.4514 23.9211 84.5543 26.7326 84.6057 27.744C84.6057 28.0011 84.64 28.2583 84.6572 28.4983C84.6572 28.5326 84.6572 28.5668 84.6572 28.6011C84.8114 29.9897 85.1886 31.2411 85.7543 32.2354C86.3029 33.1954 87.1943 32.664 87.2286 31.5668C87.3143 29.4583 87.0229 22.224 87.2286 20.9211L87.2457 20.9383Z" fill="white"/>
<path d="M103 50.509C103 47.9547 100.703 46.0347 98.1657 46.3776C91.96 47.2347 81.5029 47.2519 75.3657 46.4119C72.8457 46.069 70.5486 47.989 70.5486 50.5433V89.3547C70.5486 91.909 72.8457 93.829 75.3657 93.4862C81.4857 92.6462 91.96 92.6633 98.1657 93.5205C100.686 93.8633 103 91.9433 103 89.389V50.509Z" fill="#003349"/>
<path d="M97.9943 54.7635C97.9943 53.0321 96.4343 51.7121 94.7029 51.9521C90.4857 52.5349 83.3543 52.5521 79.1886 51.9692C77.4743 51.7292 75.9143 53.0492 75.9143 54.7806V81.1978C75.9143 82.9292 77.4743 84.2492 79.1886 84.0092C83.3543 83.4435 90.4857 83.4435 94.7029 84.0264C96.4172 84.2664 97.9943 82.9464 97.9943 81.2149V54.7464V54.7635Z" fill="#07638B"/>
<path d="M95.3714 56.391C95.4572 55.8938 95.2343 55.4824 94.9257 55.3281C94.7029 55.191 94.3943 55.1224 94.0857 55.191C92.5943 55.4995 90.9486 55.7567 89.2343 55.911C88.5486 55.9795 88.1543 56.7167 88.6514 57.1795C88.9772 57.4881 92.1486 57.351 92.6457 58.2253C93.04 58.911 93.1086 61.2938 93.16 62.1338C93.16 62.3567 93.1772 62.5624 93.2114 62.7681C93.2114 62.8024 93.2114 62.8367 93.2114 62.8538C93.3314 64.0195 93.6572 65.0652 94.1372 65.9052C94.6 66.711 95.3372 66.2652 95.3886 65.3395C95.4572 63.5738 95.2172 57.4881 95.3886 56.391H95.3714Z" fill="white"/>
<path d="M86.7826 90.7941C88.1081 90.7941 89.1826 89.7196 89.1826 88.3941C89.1826 87.0687 88.1081 85.9941 86.7826 85.9941C85.4571 85.9941 84.3826 87.0687 84.3826 88.3941C84.3826 89.7196 85.4571 90.7941 86.7826 90.7941Z" fill="#159AD6"/>
</g>
<defs>
<clipPath id="clip0_595_3057">
<rect width="96" height="77.7771" fill="white" transform="translate(7 15.7969)"/>
</clipPath>
</defs>
</svg>
