<svg width="110" height="110" viewBox="0 0 110 110" fill="none" xmlns="http://www.w3.org/2000/svg">
<g clip-path="url(#clip0_61_2095)">
<path d="M94.2911 97.3199C94.2911 99.8399 92.1311 101.828 89.5939 101.674C78.1596 100.937 31.8568 100.937 20.4225 101.674C17.8853 101.846 15.7253 99.8571 15.7253 97.3199V79.0799C15.7253 76.5599 17.8853 74.5714 20.4225 74.7256C31.8568 75.4628 43.3939 75.8571 54.9996 75.8571C66.6053 75.8571 78.1596 75.4799 89.5768 74.7256C92.1139 74.5542 94.2739 76.5428 94.2739 79.0799V97.3199H94.2911Z" fill="#194E31"/>
<path d="M103 16.3543C103 11.7772 98.8171 8.36573 94.3086 9.10288C81.4514 11.2286 68.2514 12.3257 54.7943 12.3257C41.4914 12.3257 28.4286 11.2457 15.6914 9.17145C11.1829 8.4343 7 11.8457 7 16.4229V86.7086C7 91.2686 11.1829 94.6972 15.6914 93.96C28.4114 91.8857 41.4743 90.8057 54.7943 90.8057C68.1143 90.8057 81.4514 91.9029 94.3086 94.0286C98.8171 94.7657 103 91.3543 103 86.7772V16.3543Z" fill="#3BA755"/>
<path d="M95.8857 13.8516C96.7428 13.7144 97.4457 14.0744 97.7542 14.6058C98.0114 15.0173 98.1314 15.5658 98.0114 16.1316C97.4628 18.7716 97.0342 21.6516 96.7599 24.6687C96.6571 25.8687 95.3542 26.5887 94.5142 25.6973C93.9657 25.1316 93.5199 24.463 93.1771 23.7601C92.4571 22.4058 92.0457 21.4973 90.5371 20.623C89.3371 19.9373 87.3314 19.8001 85.8399 19.7144C83.2685 19.6287 80.9371 19.0116 79.1542 18.0001C77.7314 17.1944 78.5199 15.4973 80.1485 15.4287C83.2514 15.3087 86.5428 15.0516 89.9542 14.6744C91.9942 14.4516 93.9657 14.1773 95.8857 13.8687V13.8516Z" fill="white"/>
<path d="M7 16.423C7 11.8459 11.1829 8.43446 15.6914 9.1716C16.7886 9.34303 17.8857 9.51446 18.9829 9.68589C18.88 11.3659 18.8286 13.0802 18.8286 14.7945C18.8286 53.0916 46.0514 85.0459 82.2057 92.3487C73.2057 91.3373 64.0686 90.8059 54.7943 90.8059C41.4914 90.8059 28.4286 91.8859 15.6914 93.9602C11.1829 94.6802 7 91.2687 7 86.7087V16.423Z" fill="#2E844A"/>
<path d="M31.5142 70.2683C29.6456 70.2683 28.1199 68.7426 28.1199 66.874V39.7197C28.1199 37.8512 29.6456 36.3254 31.5142 36.3254C33.3827 36.3254 34.9084 37.8512 34.9084 39.7197V66.874C34.9084 68.7426 33.3827 70.2683 31.5142 70.2683Z" fill="#0C2912"/>
<path d="M45.1087 56.691H17.9373C16.0687 56.691 14.543 55.1653 14.543 53.2968C14.543 51.4282 16.0687 49.9025 17.9373 49.9025H45.0915C46.9601 49.9025 48.4858 51.4282 48.4858 53.2968C48.4858 55.1653 46.9601 56.691 45.0915 56.691H45.1087Z" fill="#0C2912"/>
<path d="M21.9139 66.2912C21.0396 66.2912 20.1825 65.9655 19.5139 65.2969C18.1939 63.9769 18.1939 61.8169 19.5139 60.4969L38.7139 41.2969C40.0339 39.9769 42.1939 39.9769 43.5139 41.2969C44.8339 42.6169 44.8339 44.7769 43.5139 46.0969L24.3139 65.2969C23.6454 65.9655 22.7882 66.2912 21.9139 66.2912Z" fill="#0C2912"/>
<path d="M41.1315 66.2912C40.2572 66.2912 39.4001 65.9655 38.7315 65.2969L19.5315 46.0969C18.2115 44.7769 18.2115 42.6169 19.5315 41.2969C20.8515 39.9769 23.0115 39.9769 24.3315 41.2969L43.5315 60.4969C44.8515 61.8169 44.8515 63.9769 43.5315 65.2969C42.8629 65.9655 42.0058 66.2912 41.1315 66.2912Z" fill="#0C2912"/>
<path d="M31.5311 61.7826C36.2177 61.7826 40.0168 57.9834 40.0168 53.2969C40.0168 48.6103 36.2177 44.8112 31.5311 44.8112C26.8446 44.8112 23.0454 48.6103 23.0454 53.2969C23.0454 57.9834 26.8446 61.7826 31.5311 61.7826Z" fill="#3BA755"/>
<path d="M31.5314 65.1769C24.9828 65.1769 19.6514 59.8454 19.6514 53.2969C19.6514 46.7483 24.9828 41.4169 31.5314 41.4169C38.0799 41.4169 43.4114 46.7483 43.4114 53.2969C43.4114 59.8454 38.0799 65.1769 31.5314 65.1769ZM31.5314 48.2054C28.7199 48.2054 26.4399 50.4854 26.4399 53.2969C26.4399 56.1083 28.7199 58.3883 31.5314 58.3883C34.3428 58.3883 36.6228 56.1083 36.6228 53.2969C36.6228 50.4854 34.3428 48.2054 31.5314 48.2054Z" fill="#0C2912"/>
<path d="M65.5769 43.7487C65.5769 44.6058 64.8398 45.2916 63.9826 45.223C60.0912 44.9658 59.8512 44.9658 55.9598 45.223C55.1026 45.2744 54.3655 44.6058 54.3655 43.7487V37.543C54.3655 36.6858 55.1026 36.0001 55.9598 36.0687C59.8512 36.3258 60.0912 36.3258 63.9826 36.0687C64.8398 36.0173 65.5769 36.6858 65.5769 37.543V43.7487Z" fill="#0C2912"/>
<path d="M80.0796 43.7487C80.0796 44.6058 79.3425 45.2916 78.4853 45.223C74.5939 44.9658 74.3539 44.9658 70.4625 45.223C69.6053 45.2744 68.8682 44.6058 68.8682 43.7487V37.543C68.8682 36.6858 69.6053 36.0001 70.4625 36.0687C74.3539 36.3258 74.5939 36.3258 78.4853 36.0687C79.3425 36.0173 80.0796 36.6858 80.0796 37.543V43.7487Z" fill="#0C2912"/>
<path d="M94.5654 43.7487C94.5654 44.6058 93.8283 45.2916 92.9711 45.223C89.0797 44.9658 88.8397 44.9658 84.9483 45.223C84.0911 45.2744 83.354 44.6058 83.354 43.7487V37.543C83.354 36.6858 84.0911 36.0001 84.9483 36.0687C88.8397 36.3258 89.0797 36.3258 92.9711 36.0687C93.8283 36.0173 94.5654 36.6858 94.5654 37.543V43.7487Z" fill="#0C2912"/>
<path d="M65.5767 56.3999C65.5767 57.2571 64.8395 57.9428 63.9824 57.8742C60.091 57.6171 59.8509 57.6171 55.9595 57.8742C55.1024 57.9257 54.3652 57.2571 54.3652 56.3999V50.1942C54.3652 49.3371 55.1024 48.6514 55.9595 48.7199C59.8509 48.9771 60.091 48.9771 63.9824 48.7199C64.8395 48.6685 65.5767 49.3371 65.5767 50.1942V56.3999Z" fill="#0C2912"/>
<path d="M80.0796 56.3999C80.0796 57.2571 79.3425 57.9428 78.4853 57.8742C74.5939 57.6171 74.3539 57.6171 70.4625 57.8742C69.6053 57.9257 68.8682 57.2571 68.8682 56.3999V50.1942C68.8682 49.3371 69.6053 48.6514 70.4625 48.7199C74.3539 48.9771 74.5939 48.9771 78.4853 48.7199C79.3425 48.6685 80.0796 49.3371 80.0796 50.1942V56.3999Z" fill="#0C2912"/>
<path d="M94.5654 56.3999C94.5654 57.2571 93.8283 57.9428 92.9711 57.8742C89.0797 57.6171 88.8397 57.6171 84.9483 57.8742C84.0911 57.9257 83.354 57.2571 83.354 56.3999V50.1942C83.354 49.3371 84.0911 48.6514 84.9483 48.7199C88.8397 48.9771 89.0797 48.9771 92.9711 48.7199C93.8283 48.6685 94.5654 49.3371 94.5654 50.1942V56.3999Z" fill="#0C2912"/>
<path d="M65.5767 69.0517C65.5767 69.9088 64.8395 70.5945 63.9824 70.526C60.091 70.2688 59.8509 70.2688 55.9595 70.526C55.1024 70.5774 54.3652 69.9088 54.3652 69.0517V62.846C54.3652 61.9888 55.1024 61.3031 55.9595 61.3717C59.8509 61.6288 60.091 61.6288 63.9824 61.3717C64.8395 61.3202 65.5767 61.9888 65.5767 62.846V69.0517Z" fill="#0C2912"/>
<path d="M80.0796 69.0517C80.0796 69.9088 79.3425 70.5945 78.4853 70.526C74.5939 70.2688 74.3539 70.2688 70.4625 70.526C69.6053 70.5774 68.8682 69.9088 68.8682 69.0517V62.846C68.8682 61.9888 69.6053 61.3031 70.4625 61.3717C74.3539 61.6288 74.5939 61.6288 78.4853 61.3717C79.3425 61.3202 80.0796 61.9888 80.0796 62.846V69.0517Z" fill="#0C2912"/>
<path d="M94.5654 69.0517C94.5654 69.9088 93.8283 70.5945 92.9711 70.526C89.0797 70.2688 88.8397 70.2688 84.9483 70.526C84.0911 70.5774 83.354 69.9088 83.354 69.0517V62.846C83.354 61.9888 84.0911 61.3031 84.9483 61.3717C88.8397 61.6288 89.0797 61.6288 92.9711 61.3717C93.8283 61.3202 94.5654 61.9888 94.5654 62.846V69.0517Z" fill="#0C2912"/>
</g>
<defs>
<clipPath id="clip0_61_2095">
<rect width="96" height="92.6743" fill="white" transform="translate(7 9)"/>
</clipPath>
</defs>
</svg>
