<svg width="110" height="110" viewBox="0 0 110 110" fill="none" xmlns="http://www.w3.org/2000/svg">
<g clip-path="url(#clip0_61_1974)">
<path d="M76.6265 11C91.2257 11 103.065 22.8395 103.065 37.4387V37.4727V37.5068C103.065 45.6156 99.4196 52.8555 93.6788 57.7106C80.8002 69.5671 69.1821 82.7864 59.0632 97.1301H59.0462C57.1042 99.1572 53.8845 99.1572 51.9425 97.1471L50.9885 96.1591C41.0229 82.1902 29.6434 69.3116 17.0544 57.7106C11.3135 52.8555 7.66797 45.5985 7.66797 37.5068C7.66797 33.1799 8.70712 29.0744 10.564 25.4629C14.942 16.9283 23.8344 11.0852 34.1066 11.0852H34.4473C42.999 11.1874 50.5797 15.361 55.3325 21.7663C60.1535 15.2247 67.8875 11 76.6265 11Z" fill="#CB65FF"/>
<mask id="mask0_61_1974" style="mask-type:luminance" maskUnits="userSpaceOnUse" x="7" y="11" width="97" height="88">
<path d="M76.6265 11C91.2257 11 103.065 22.8395 103.065 37.4387V37.4727V37.5068C103.065 45.6156 99.4196 52.8555 93.6788 57.7106C80.8002 69.5671 69.1821 82.7864 59.0632 97.1301H59.0462C57.1042 99.1572 53.8845 99.1572 51.9425 97.1471L50.9885 96.1591C41.0229 82.1902 29.6434 69.3116 17.0544 57.7106C11.3135 52.8555 7.66797 45.5985 7.66797 37.5068C7.66797 33.1799 8.70712 29.0744 10.564 25.4629C14.942 16.9283 23.8344 11.0852 34.1066 11.0852H34.4473C42.999 11.1874 50.5797 15.361 55.3325 21.7663C60.1535 15.2247 67.8875 11 76.6265 11Z" fill="white"/>
</mask>
<g mask="url(#mask0_61_1974)">
<path d="M15.436 44.9003C8.41752 35.6842 12.8467 23.947 14.1584 20.1992C12.7615 21.8005 11.535 23.5722 10.564 25.4801C8.70712 29.0916 7.66797 33.1801 7.66797 37.524C7.66797 45.6328 11.3135 52.8898 17.0544 57.7278C29.6434 69.3288 41.0229 82.2074 50.9885 96.1763L51.9425 97.1643C53.8845 99.1745 57.1042 99.1745 59.0462 97.1643H59.0632C61.2267 94.081 63.4753 91.0657 65.7751 88.1186C67.666 85.6826 69.5739 83.2977 71.55 80.9298C71.8567 80.572 53.1179 94.3535 15.436 44.9003Z" fill="#BA01FF"/>
<path d="M74.2076 18.7512C83.6111 16.4514 93.0826 22.2434 95.3994 31.6638C95.7231 32.9926 95.8934 34.3043 95.9105 35.616C95.9445 37.8136 93.1678 38.0691 91.9583 36.2122C87.6995 29.7048 81.2091 25.0031 73.8499 22.9418C71.7375 22.3456 71.1242 19.637 73.2196 19.0067C73.5432 18.9045 73.8669 18.8193 74.2076 18.7341V18.7512Z" fill="white"/>
<path d="M60.2213 77.8121C60.2213 77.8121 60.068 77.8121 59.9998 77.8121C58.2963 77.7269 56.8142 76.6366 56.218 75.0353L45.2473 45.7688L40.0346 56.1944C39.3191 57.6424 37.837 58.5623 36.2016 58.5623H7.27584C4.90794 58.5623 3 56.6543 3 54.2864C3 51.9185 4.90794 50.0106 7.27584 50.0106H33.5612L41.9766 33.1628C42.7432 31.6466 44.3956 30.7608 46.031 30.8119C47.7345 30.8971 49.2165 31.9873 49.8128 33.5887L60.7664 62.8381L65.9792 52.3785C66.6947 50.9305 68.1767 50.0106 69.8121 50.0106H102.707C105.075 50.0106 106.983 51.9185 106.983 54.2864C106.983 56.6543 105.075 58.5623 102.707 58.5623H72.4526L64.0372 75.4442C63.3047 76.8922 61.8226 77.8121 60.2043 77.8121H60.2213Z" fill="#3A49DA"/>
</g>
</g>
<defs>
<clipPath id="clip0_61_1974">
<rect width="97" height="88" fill="white" transform="translate(7 11)"/>
</clipPath>
</defs>
</svg>
