<svg width="110" height="110" viewBox="0 0 110 110" fill="none" xmlns="http://www.w3.org/2000/svg">
<g clip-path="url(#clip0_595_3086)">
<path d="M55.4836 7C73.9294 7 88.8779 21.1943 88.8779 38.7143C88.8779 47.44 85.1751 55.3257 79.1751 61.0686C74.7694 65.9543 71.2551 71.6629 68.9408 77.9543H41.9922C39.5751 71.4229 35.9065 65.5086 31.2436 60.52C25.5694 54.8286 22.0894 47.1486 22.0894 38.7143C22.0894 21.1943 37.0379 7 55.4836 7Z" fill="#0D9BD8"/>
<path d="M60.0778 16.4968C68.2549 14.491 76.5006 19.531 78.5063 27.7425C78.7806 28.891 78.9349 30.0396 78.952 31.1882C78.9863 33.1082 76.5692 33.3139 75.5235 31.7196C71.8206 26.0625 66.1806 21.9653 59.7692 20.1825C57.9178 19.6682 57.3863 17.3196 59.2206 16.7539C59.4949 16.6682 59.7863 16.5825 60.0778 16.5139V16.4968Z" fill="white"/>
<path d="M48.8322 7.63281C40.0036 13.2385 34.6036 23.1985 34.6036 34.5471C34.6036 52.0671 49.5522 66.2614 67.9979 66.2614C70.6722 66.2614 73.2265 65.97 75.6608 65.4042C72.8836 69.2271 70.6036 73.4443 68.9408 77.97H41.9922C39.5751 71.4385 35.9065 65.5242 31.2436 60.5357C25.5694 54.8271 22.0894 47.1471 22.0894 38.7128C22.0894 23.3528 33.5751 10.5471 48.8322 7.63281Z" fill="#05628A"/>
<path d="M63.318 49.0676C61.7923 48.2276 59.9237 47.6105 58.038 46.9762C57.0608 46.6505 55.7237 46.2048 54.6951 45.7762C54.5751 45.7248 54.5065 45.6048 54.5065 45.4848C54.5065 45.3648 54.5751 45.2448 54.7808 45.159C55.7923 44.7305 56.5123 44.4219 63.3351 42.0048C66.2323 40.9762 67.0208 39.2276 66.798 37.9419C66.5751 36.6219 65.358 35.7305 63.7465 35.7305C60.8494 35.7305 52.1237 39.3476 50.8723 40.0505C47.7523 41.7648 47.1008 43.959 47.1008 45.5019C47.1008 47.0448 47.7523 49.239 50.8723 50.9533C52.4151 51.8105 54.2837 52.4276 56.1008 53.0276C56.9751 53.319 58.4323 53.799 59.4951 54.2448C59.6151 54.2962 59.6837 54.4162 59.6837 54.5362C59.6837 54.6562 59.6151 54.7762 59.4951 54.8276C58.4494 55.2733 57.0608 55.7362 56.1008 56.0448L55.0551 56.3876C53.7351 56.8333 51.7294 57.519 51.5923 59.9019V73.119H58.638V62.0962C58.6894 61.9933 58.9123 61.7705 59.1865 61.6848C60.5923 61.2048 62.0665 60.6733 63.3351 59.9705C66.4551 58.2562 67.1065 56.0619 67.1065 54.519C67.1065 52.9762 66.4551 50.7819 63.3351 49.0676H63.318Z" fill="#023248"/>
<path d="M72.1638 82.1367C74.4609 82.1367 76.3295 84.0053 76.3295 86.3024V90.4681C76.3295 92.7653 74.4609 94.6339 72.1638 94.6339H67.278C65.5638 99.5024 60.918 102.982 55.4666 102.982C50.0152 102.982 45.3695 99.5024 43.6552 94.6339H38.7695C36.4723 94.6339 34.6038 92.7653 34.6038 90.4681V86.3024C34.6038 84.0053 36.4723 82.1367 38.7695 82.1367H72.1638Z" fill="#023248"/>
<path d="M38.7866 82.1182C36.4894 82.1182 34.6208 80.2497 34.6208 77.9525V73.7868C34.6208 71.4897 36.4894 69.6211 38.7866 69.6211H72.1809C74.478 69.6211 76.3466 71.4897 76.3466 73.7868V77.9525C76.3466 80.2497 74.478 82.1182 72.1809 82.1182H38.7866Z" fill="#023248"/>
</g>
<defs>
<clipPath id="clip0_595_3086">
<rect width="66.7714" height="96" fill="white" transform="translate(22.0894 7)"/>
</clipPath>
</defs>
</svg>
