<svg width="110" height="110" viewBox="0 0 110 110" fill="none" xmlns="http://www.w3.org/2000/svg">
<g clip-path="url(#clip0_595_3108)">
<path d="M12.4514 88.024C12.76 88.024 13.0857 87.9897 13.3943 87.9383C26.8343 85.6068 40.6686 84.3897 54.7771 84.3897C68.8857 84.3897 82.6857 85.6068 96.1257 87.9383C96.4686 87.9897 96.7943 88.024 97.1371 88.024C100.377 88.024 103 85.4011 103 82.1611V28.3668C103 23.8068 98.8171 20.4125 94.3257 21.1497C81.4514 23.2754 68.2514 24.3897 54.7771 24.3897C41.3029 24.3897 28.3943 23.3097 15.6571 21.2183C11.1657 20.4811 7 23.8925 7 28.4354V82.5725C7 85.5897 9.45143 88.024 12.4514 88.024Z" fill="#0D9DDA"/>
<path d="M7 46.7266V82.5723C7 85.5894 9.45143 88.0237 12.4514 88.0237C12.76 88.0237 13.0857 87.9894 13.3943 87.938C26.8343 85.6066 40.6686 84.3894 54.7771 84.3894C67.12 84.3894 79.24 85.3151 91.0857 87.1151C38.5086 74.738 14.0629 85.7437 7 46.7266Z" fill="#05628A"/>
<path d="M93.3829 29.1898C94.3943 29.0355 95.2172 29.4641 95.56 30.0983C95.8343 30.5612 95.9714 31.1783 95.8343 31.8126C95.2 34.8469 94.7029 38.1555 94.3943 41.6355C94.2743 43.0241 92.7829 43.8298 91.8057 42.8183C91.1714 42.1498 90.6572 41.3955 90.2629 40.5726C89.44 39.0126 88.96 37.9669 87.2114 36.9555C85.8229 36.1498 83.4914 36.0126 81.7772 35.9098C81.3314 35.9098 80.9029 35.8583 80.4743 35.8241C80.4057 35.8241 80.3543 35.8241 80.2857 35.8069C77.92 35.5498 75.7943 34.8983 74.0972 33.9383C72.4514 33.0126 73.36 31.0412 75.2457 30.9726C78.8286 30.8355 82.6172 30.5441 86.5429 30.0983C88.8914 29.8412 91.1714 29.5155 93.3829 29.1726V29.1898Z" fill="white"/>
<path d="M49.7027 42.9043C46.497 39.6986 41.3027 39.6986 38.1141 42.9043L36.0056 45.0129L33.897 42.9043C30.7256 39.9043 25.7713 39.9043 22.5998 42.9043C19.3084 46.0243 19.1884 51.2186 22.3084 54.4929L35.1998 67.3843C35.4227 67.6071 35.7141 67.7271 36.0056 67.7271C36.3141 67.7271 36.6056 67.6071 36.8113 67.3843L49.7027 54.4929C52.9084 51.2871 52.9084 46.0929 49.7027 42.9043Z" fill="white"/>
<path d="M66.6919 52.6562H88.5148" stroke="#023248" stroke-width="8.57143" stroke-miterlimit="10" stroke-linecap="round"/>
<path d="M59.0288 67.0234H88.5145" stroke="#023248" stroke-width="8.57143" stroke-miterlimit="10" stroke-linecap="round"/>
</g>
<defs>
<clipPath id="clip0_595_3108">
<rect width="96" height="66.9771" fill="white" transform="translate(7 21.0469)"/>
</clipPath>
</defs>
</svg>
