<svg width="110" height="110" viewBox="0 0 110 110" fill="none" xmlns="http://www.w3.org/2000/svg">
<path d="M33.2384 51.1758C34.8669 51.1758 36.1525 52.5643 36.0496 54.2099C35.5697 61.5979 35.5697 66.0891 36.0496 73.46C36.1525 75.0885 34.8669 76.4941 33.2384 76.4941H21.462C19.8336 76.4941 18.5479 75.1056 18.6508 73.46C19.1308 66.0719 19.1308 61.5808 18.6508 54.2099C18.5479 52.5814 19.8336 51.1758 21.462 51.1758H33.2384Z" fill="#023248"/>
<path d="M57.7682 51.1758C59.3966 51.1758 60.6823 52.5643 60.5794 54.2099C60.0995 61.5979 60.0995 66.0891 60.5794 73.46C60.6823 75.0885 59.3966 76.4941 57.7682 76.4941H45.9918C44.3634 76.4941 43.0777 75.1056 43.1806 73.46C43.6605 66.0719 43.6605 61.5808 43.1806 54.2099C43.0777 52.5814 44.3634 51.1758 45.9918 51.1758H57.7682Z" fill="#023248"/>
<path d="M70.4362 99.2936C70.4362 101.608 68.3106 103.339 66.0307 102.945C57.4427 101.453 48.6148 100.682 39.5982 100.682C30.5817 100.682 21.7537 101.453 13.1657 102.945C10.8858 103.339 8.76025 101.608 8.76025 99.2936V62.4046C8.76025 60.0905 10.8858 58.3591 13.1657 58.7534C21.7537 60.2447 57.4427 60.2447 66.0307 58.7534C68.3106 58.3591 70.4362 60.0905 70.4362 62.4046V99.2936Z" fill="#0D9BD8"/>
<path d="M66.0477 58.7344L37.421 80.2472L13.1826 58.7344" fill="#0D9BD8"/>
<path d="M63.922 7.00195C65.5504 7.00195 66.8361 8.39043 66.7332 10.036C66.2533 17.4241 66.2533 21.9153 66.7332 29.2862C66.8361 30.9147 65.5504 32.3203 63.922 32.3203H52.1456C50.5172 32.3203 49.2315 30.9318 49.3344 29.2862C49.8143 21.8981 49.8143 17.407 49.3344 10.036C49.2315 8.40757 50.5172 7.00195 52.1456 7.00195L63.922 7.00195Z" fill="#023248"/>
<path d="M88.4518 7.00195C90.0802 7.00195 91.3659 8.39043 91.263 10.036C90.783 17.4241 90.783 21.9153 91.263 29.2862C91.3659 30.9147 90.0802 32.3203 88.4518 32.3203H76.6754C75.0469 32.3203 73.7613 30.9318 73.8642 29.2862C74.3441 21.8981 74.3441 17.407 73.8642 10.036C73.7613 8.40757 75.0469 7.00195 76.6754 7.00195L88.4518 7.00195Z" fill="#023248"/>
<path d="M96.7319 14.5601C88.1439 16.0514 52.4549 16.0514 43.8668 14.5601C41.587 14.1658 39.4614 15.8971 39.4614 18.2112V18.4341C39.7871 21.571 43.8154 54.1917 74.5505 58.7514H73.9677H96.7148C98.9946 59.1457 101.12 57.4144 101.12 55.1002V18.2284C101.12 15.9142 98.9946 14.1829 96.7148 14.5772L96.7319 14.5601Z" fill="#0D9BD8"/>
<path d="M39.478 18.4351V55.1012C39.478 57.4154 41.3808 58.7524 43.8834 58.7524H74.5843C43.832 54.1756 39.8037 21.5549 39.4952 18.418L39.478 18.4351Z" fill="#05628A"/>
<path d="M8.87988 62.1641V99.0531C8.87988 99.3787 8.87988 99.8073 8.93131 100.287C9.44556 102.07 11.2454 103.27 13.1825 102.944C21.7705 101.453 30.5984 100.682 39.615 100.682C40.9006 100.682 42.1862 100.733 43.4547 100.767L43.5919 100.682C12.5139 95.3162 8.87988 62.1641 8.87988 62.1641Z" fill="#05628A"/>
<path d="M79.9325 35.4395H73.6072C73.6072 35.4395 75.1157 32.7997 76.3327 30.417C76.9841 29.1314 77.8069 27.1258 78.424 25.583C78.8526 24.4859 78.0469 23.3203 76.8641 23.3203H65.7048C64.9849 23.3203 64.3164 23.6117 63.8193 24.0917C63.5107 24.3831 63.2879 24.7431 63.1336 25.1373C61.5908 29.2342 59.6024 33.1597 57.3054 36.828C57.1683 37.0508 57.0826 37.2737 57.0654 37.4965C56.9797 38.0279 57.1683 38.5764 57.5282 38.9536C57.8368 39.2793 58.2653 39.5021 58.7625 39.5021H65.1049L62.4651 48.2787C62.4308 48.3987 62.4136 48.5186 62.3965 48.6386C62.3794 48.9986 62.4993 49.3414 62.6879 49.6157C62.825 49.8043 62.9965 49.9414 63.2022 50.0614C63.4079 50.1643 63.6478 50.2328 63.8878 50.2328C64.1792 50.2328 64.4706 50.13 64.7278 49.9928C64.8992 49.89 65.0706 49.77 65.1906 49.6157C65.3106 49.4786 65.4477 49.3414 65.5849 49.1872C65.6363 49.1357 65.6877 49.0843 65.7391 49.0329C65.842 48.93 65.9448 48.8272 66.0477 48.7243C66.1162 48.6558 66.1677 48.6044 66.2362 48.5358C66.3391 48.4501 66.4248 48.3472 66.5276 48.2615C66.5962 48.193 66.6648 48.1244 66.7505 48.0558C66.8533 47.9701 66.9391 47.8844 67.0419 47.7987C67.6076 47.2673 68.1561 46.7873 68.5161 46.4445C72.5615 42.7247 76.607 40.1706 80.5496 37.9936C81.7838 37.308 81.321 35.4395 79.9153 35.4395H79.9325Z" fill="white"/>
<path d="M75.887 24.8278C76.1784 24.8278 76.3841 24.9649 76.4526 25.1535C76.5212 25.2906 76.5212 25.462 76.4526 25.6506C76.1612 26.4734 75.8184 27.4333 75.3556 28.3418C75.1841 28.6847 74.7556 28.7018 74.5842 28.5818C74.4128 28.4618 74.3613 28.2904 74.2756 28.0504C74.1042 27.5876 74.3099 27.1248 73.8471 26.7819C73.4871 26.5077 72.8529 26.3877 72.3729 26.2848C71.5501 26.1477 70.8301 25.8563 70.2988 25.462C69.8702 25.1363 70.1959 24.6221 70.7273 24.6735C71.7387 24.7592 72.8014 24.8278 73.9157 24.8449C74.5842 24.8449 75.2356 24.8449 75.8527 24.8449L75.887 24.8278Z" fill="white"/>
<path d="M96.1996 17.6619C96.7652 17.5762 97.2281 17.8162 97.4166 18.1762C97.5709 18.4333 97.6395 18.7762 97.5709 19.1361C97.2109 20.8332 96.9367 22.6845 96.7653 24.6215C96.6967 25.3929 95.8567 25.8557 95.3253 25.29C94.9825 24.9129 94.674 24.5015 94.4683 24.0387C94.0054 23.1644 93.7483 22.5816 92.7712 22.0159C91.9998 21.5703 90.6971 21.4846 89.7371 21.4331C89.4972 21.4331 89.2572 21.3988 89.0172 21.3817C88.9829 21.3817 88.9486 21.3817 88.9143 21.3817C87.5944 21.2446 86.4116 20.8675 85.4689 20.3361C84.5603 19.8218 85.0575 18.7247 86.1031 18.6733C88.1087 18.5876 90.2171 18.4333 92.4113 18.1933C93.714 18.0391 94.9997 17.8676 96.2339 17.6791L96.1996 17.6619Z" fill="white"/>
<path d="M65.4989 62.1815C66.0646 62.0958 66.5274 62.3358 66.716 62.6957C66.8702 62.9529 66.9388 63.2957 66.8702 63.6557C66.5103 65.3527 66.236 67.204 66.0646 69.141C65.996 69.9124 65.1561 70.3752 64.6247 69.8095C64.2818 69.4324 63.9733 69.021 63.7676 68.5582C63.3048 67.684 63.0476 67.1012 62.0705 66.5355C61.2992 66.0898 59.9964 66.0041 59.0365 65.9527C58.7965 65.9527 58.5565 65.9184 58.3165 65.9012C58.2822 65.9012 58.2479 65.9012 58.2137 65.9012C56.8937 65.7641 55.711 65.387 54.7682 64.8556C53.8597 64.3413 54.3568 63.2443 55.4024 63.1928C57.408 63.1071 59.5164 62.9529 61.7106 62.7129C63.0133 62.5586 64.299 62.3872 65.5332 62.1986L65.4989 62.1815Z" fill="white"/>
</svg>
