<svg width="110" height="110" viewBox="0 0 110 110" fill="none" xmlns="http://www.w3.org/2000/svg">
<g clip-path="url(#clip0_61_1928)">
<path d="M59.8001 70.638C59.8001 68.5809 61.5315 66.9523 63.5887 66.9523C63.6915 66.9523 63.7944 66.9523 63.8801 66.9523C75.8972 66.9523 87.2972 64.2266 97.4458 59.3409C99.9487 58.1409 102.983 59.8894 102.983 62.6666V88.5523C102.983 91.3294 99.9487 93.078 97.4458 91.878C87.2972 87.0094 75.9144 84.2837 63.9144 84.2837C63.7944 84.2837 63.6915 84.2837 63.5715 84.2837C61.5144 84.2837 59.783 82.6551 59.783 80.598V70.6209L59.8001 70.638Z" fill="#7F8CED"/>
<path d="M23.92 49.9637C33.2647 49.9637 40.84 42.3883 40.84 33.0437C40.84 23.699 33.2647 16.1237 23.92 16.1237C14.5753 16.1237 7 23.699 7 33.0437C7 42.3883 14.5753 49.9637 23.92 49.9637Z" fill="#03234D"/>
<path d="M62.2001 50.2035C74.1294 50.2035 83.8001 40.5329 83.8001 28.6035C83.8001 16.6742 74.1294 7.00354 62.2001 7.00354C50.2707 7.00354 40.6001 16.6742 40.6001 28.6035C40.6001 40.5329 50.2707 50.2035 62.2001 50.2035Z" fill="#03234D"/>
<path d="M79.36 47.8035C79.0171 47.7864 78.6571 47.8035 78.3143 47.8721C67.6171 49.7235 56.6286 50.6835 45.4 50.6835C34.1714 50.6835 23.1829 49.7235 12.4857 47.8721C12.3143 47.8378 12.1429 47.8207 11.9714 47.8035C11.9714 47.8035 11.9714 47.8207 11.9714 47.8378C9.34857 47.6664 7 49.7064 7 52.415V98.3407C7 101.221 9.64 103.381 12.4857 102.884C23.1829 101.032 34.1714 100.072 45.4 100.072C50.8 100.072 56.1314 100.312 61.4114 100.741C61.8571 100.775 62.3029 100.809 62.7314 100.861C65.1143 101.066 67.4971 101.324 69.8629 101.632C70.2057 101.684 70.5486 101.735 70.8914 101.769C73.3771 102.095 75.8457 102.455 78.2971 102.884C78.6571 102.952 79 102.969 79.3429 102.952C81.76 102.832 83.7657 100.861 83.7657 98.3407V52.415C83.7657 49.895 81.7429 47.9235 79.3429 47.8035H79.36Z" fill="#8E9BEF"/>
<path d="M12.0914 51.8494C12.0057 50.4951 11.9714 49.1579 11.9886 47.8379C9.34857 47.6665 7 49.7065 7 52.4151V98.3408C7 101.221 9.64 103.381 12.4857 102.884C23.1829 101.032 34.1714 100.072 45.4 100.072C50.8 100.072 56.1314 100.312 61.4114 100.741C60.88 100.689 60.3657 100.638 59.8343 100.604C33.1429 93.5236 13.6171 74.9065 12.0914 51.8494Z" fill="#7F8CED"/>
<path d="M63.2113 15.352C70.0171 14.8892 75.9142 20.0149 76.3942 26.8377C76.5313 28.912 73.9942 29.1349 72.8285 27.4206C70.3085 23.7692 66.9485 20.7349 63.0228 18.6092C61.4113 17.7349 61.3942 15.472 63.2285 15.352H63.2113Z" fill="white"/>
<path d="M22.343 22.3463C27.7259 21.9691 32.4059 26.032 32.7659 31.432C32.903 33.4377 30.4516 33.6606 29.2516 32.032C27.2973 29.4091 24.863 27.1806 22.0859 25.4663C20.6287 24.5749 20.6287 22.4663 22.343 22.3463Z" fill="white"/>
<path d="M74.1828 55.0892C74.8685 54.9864 75.4685 55.1578 75.8971 55.4664C76.4628 55.8607 76.8742 56.6149 76.8057 57.4892C76.8057 60.5921 76.8057 63.9521 76.8057 67.4149C76.8742 68.8035 75.52 69.8321 74.4228 68.9578C74.0971 68.7007 73.7885 68.4264 73.5142 68.1349C73.5142 68.1349 73.4971 68.1178 73.48 68.1007C73.1885 67.7921 72.9142 67.4664 72.6742 67.1064C71.5428 65.6664 70.5657 64.2778 68.7142 63.2149C66.5542 61.9635 62.6285 61.9121 61.0857 61.7064C58.7371 61.4492 56.6285 60.7978 54.9314 59.8378C53.2857 58.9121 54.1942 56.9407 56.08 56.8721C59.6628 56.7349 63.4514 56.4435 67.3771 55.9978C69.7257 55.7407 72.0057 55.4149 74.2171 55.0721L74.1828 55.0892Z" fill="white"/>
<path d="M78.3139 102.918C78.6739 102.987 79.0168 103.004 79.3596 102.987C79.0168 103.004 78.6568 102.987 78.3139 102.918Z" fill="#BA01FF"/>
<path d="M78.2969 47.8892C78.6569 47.8206 78.9997 47.8035 79.3426 47.8206C78.9997 47.8035 78.6397 47.8206 78.2969 47.8892Z" fill="#BA01FF"/>
<path d="M69.8629 101.649C67.4972 101.341 65.1143 101.101 62.7314 100.878C65.1143 101.084 67.4972 101.341 69.8629 101.649Z" fill="#BA01FF"/>
<path d="M62.7314 100.895C62.2857 100.861 61.8399 100.809 61.4114 100.775C61.8571 100.809 62.3028 100.843 62.7314 100.895Z" fill="#D17DFE"/>
<path d="M79.3599 47.8208C81.777 47.9408 83.7827 49.9122 83.7827 52.4322V98.3751C83.7827 100.895 81.7599 102.867 79.3599 102.987C81.777 102.867 83.7999 100.895 83.7999 98.3751V52.4322C83.7999 49.9122 81.777 47.9408 79.3599 47.8208Z" fill="#D17DFE"/>
<path d="M70.9085 101.803C70.5656 101.752 70.2227 101.701 69.8799 101.666C70.2227 101.718 70.5656 101.769 70.9085 101.803Z" fill="#D17DFE"/>
<path d="M12.4855 47.8894C12.314 47.8551 12.1426 47.8379 11.9712 47.8208C11.9712 47.8208 11.9712 47.8379 11.9712 47.8551C12.1426 47.8551 12.314 47.8551 12.4855 47.8894Z" fill="#D17DFE"/>
</g>
<defs>
<clipPath id="clip0_61_1928">
<rect width="96" height="95.9829" fill="white" transform="translate(7 7.00354)"/>
</clipPath>
</defs>
</svg>
