<svg width="110" height="110" viewBox="0 0 110 110" fill="none" xmlns="http://www.w3.org/2000/svg">
<path d="M59.7645 59.8363C61.8372 59.8363 63.4781 61.5808 63.4781 63.6535C63.4781 63.7571 63.4781 63.8608 63.4781 63.9471C63.4781 76.0551 66.2244 87.5412 71.147 97.7838C72.3561 100.306 70.5943 103.363 67.7962 103.363H41.7149C38.9167 103.363 37.155 100.306 38.364 97.7838C43.2694 87.5585 46.0157 76.0896 46.0157 63.999C46.0157 63.878 46.0157 63.7744 46.0157 63.6535C46.0157 61.5808 47.6566 59.8363 49.7293 59.8363H59.7818H59.7645Z" fill="#194E31"/>
<path d="M101.322 81.0986C92.53 71.4952 84.2738 61.4081 76.5876 50.8719C76.8294 50.8719 65.6196 32.4768 60.4379 22.8906C60.2652 22.5797 60.0752 22.2861 59.8506 21.9925C57.5189 19.0907 53.0971 19.0907 50.7481 21.9925L47.6563 25.827C47.3109 26.2588 47 26.7078 46.7409 27.1915C38.6401 41.6485 29.5376 55.4491 19.5541 68.5589C17.0669 71.4952 14.5451 74.4142 11.9543 77.2642C10.7279 78.6114 9.5016 79.9414 8.25799 81.2714C6.25439 83.4131 6.28894 86.7467 8.36163 88.8194C9.77796 90.2357 11.8852 90.7366 13.8024 90.1666C26.8258 86.3149 40.6092 84.2595 54.8935 84.2595C69.1777 84.2595 82.7366 86.2976 95.6736 90.0803C97.6254 90.6503 99.7499 90.1494 101.184 88.6985C103.273 86.6085 103.308 83.2577 101.322 81.0814V81.0986Z" fill="#41B658"/>
<path d="M76.605 50.8719C76.605 50.8719 64.8079 30.9223 60.4553 22.8906C60.2826 22.5797 60.0926 22.2861 59.868 21.9925C57.5363 19.0907 53.1145 19.0907 50.7655 21.9925L47.6737 25.827C47.3283 26.2588 47.0174 26.7078 46.7583 27.1915C38.6575 41.6485 29.555 55.4491 19.5715 68.5589C17.0843 71.4952 14.5625 74.4142 11.9717 77.2642C11.9717 77.2642 28.5532 65.2771 42.8547 59.3181C63.1325 50.8547 76.605 50.8719 76.605 50.8719Z" fill="#2E844A"/>
<path d="M50.9208 8.46817C52.9071 6.01549 56.6552 6.01549 58.6415 8.46817C70.1622 22.6661 82.892 35.8449 96.6581 47.8492C98.6962 49.6283 98.8344 52.7546 96.9172 54.6718C95.6908 55.8982 93.8945 56.33 92.2363 55.8291C80.4048 52.3055 67.865 50.4228 54.8761 50.4228C41.8873 50.4228 29.1921 52.3401 17.2914 55.8982C15.6332 56.3991 13.8196 55.9673 12.5933 54.7409C10.6761 52.8237 10.8142 49.6801 12.8524 47.9011C26.653 35.8795 39.3828 22.6834 50.9208 8.48545V8.46817Z" fill="#41B658"/>
<path d="M59.2292 25.326C59.2811 23.3915 61.5956 22.8388 62.8564 24.307C67.7273 29.9205 72.8054 35.3786 78.0734 40.6467C79.1443 41.7175 78.5916 43.4966 77.0889 43.5139C67.3473 43.6348 59.3502 35.7931 59.2292 25.9997C59.2292 25.7751 59.2292 25.5506 59.2292 25.3433V25.326Z" fill="white"/>
<path d="M70.1104 61.3563C70.1622 59.4218 72.4767 58.8691 73.7376 60.3372C78.6084 65.9508 83.6865 71.4088 88.9545 76.6769C90.0254 77.7478 89.4727 79.5269 87.97 79.5441C78.2284 79.6651 70.2313 71.8234 70.1104 62.0299C70.1104 61.8054 70.1104 61.5809 70.1104 61.3736V61.3563Z" fill="white"/>
</svg>
