<svg width="110" height="110" viewBox="0 0 110 110" fill="none" xmlns="http://www.w3.org/2000/svg">
<g clip-path="url(#clip0_595_3136)">
<path d="M37 49.6504C37 49.6504 34.3943 57.9475 34.36 58.479C33.7943 65.8333 28.8743 88.6332 10.84 93.5361C8.57714 94.1532 7 96.039 7 98.199V102.142C7 102.605 7.36 102.999 7.84 102.999C11.8857 103.05 29.6286 102.056 36.9486 81.2275L37 49.6504Z" fill="#05628A"/>
<path d="M67.4963 64.7363H76.0677C76.4449 64.7363 76.8049 64.9078 77.0106 65.1992L102.811 101.576C103.239 102.211 102.725 102.999 101.868 102.999H93.2963C92.9192 102.999 92.5592 102.828 92.3535 102.536L66.5535 66.1592C66.1249 65.5249 66.6392 64.7363 67.4963 64.7363Z" fill="#0D9DDA"/>
<path d="M34.3262 66.5352H43.4633V101.095C43.4633 102.141 42.6062 102.998 41.5605 102.998H36.229C35.1833 102.998 34.3262 102.141 34.3262 101.095V66.5352Z" fill="#05628A"/>
<path d="M68.2002 66.5352H77.3373V101.095C77.3373 102.141 76.4802 102.998 75.4345 102.998H70.1031C69.0573 102.998 68.2002 102.141 68.2002 101.095V66.5352Z" fill="#0D9DDA"/>
<path d="M72.9662 27.9983C67.3262 28.7868 61.5833 29.1811 55.7205 29.1811C49.8576 29.1811 44.269 28.7868 38.6976 28.0325C36.4005 27.724 34.3262 29.4725 34.3262 31.7868V35.9525V72.4154V81.0211C34.3262 83.3354 36.4176 85.084 38.6976 84.7754C44.269 84.0211 49.9433 83.6268 55.7205 83.6268C61.4976 83.6268 67.3262 84.0383 72.9662 84.8097C75.2633 85.1354 77.3547 83.3697 77.3547 81.0554V31.7525C77.3547 29.4383 75.2633 27.6897 72.9662 27.9983Z" fill="#0D9DDA"/>
<path d="M53.3542 8.09676C54.6399 6.63962 57.0742 6.63962 58.3599 8.09676C65.8342 16.5482 74.0971 24.3996 83.0285 31.5482C84.3485 32.611 84.4342 34.4796 83.2 35.611C82.4114 36.331 81.2285 36.5882 80.1657 36.2968C72.4857 34.2053 64.3599 33.0739 55.9257 33.0739C47.4914 33.0739 39.2628 34.2225 31.5314 36.331C30.4514 36.6225 29.2685 36.3653 28.4799 35.6453C27.2285 34.4968 27.3314 32.6282 28.6514 31.5653C37.5999 24.3996 45.8628 16.5482 53.3542 8.07962V8.09676Z" fill="#023248"/>
<path d="M45.4683 40.5488C47.0454 40.4116 48.6397 40.3088 50.234 40.223C51.2111 40.1716 52.034 40.9773 52.034 41.9545V57.6059C52.034 58.583 51.2111 59.3888 50.234 59.3373C48.6397 59.2688 47.0625 59.1488 45.4683 59.0116C44.5768 58.943 43.8911 58.1888 43.8911 57.2802V42.2459C43.8911 41.3545 44.5768 40.6002 45.4683 40.5145V40.5488Z" fill="white"/>
<path d="M67.7884 42.2635V57.2978C67.7884 58.1892 67.1027 58.9435 66.2112 59.0292C64.6341 59.1663 63.0398 59.2692 61.4455 59.3549C60.4684 59.4063 59.6455 58.6006 59.6455 57.6235V41.972C59.6455 40.9949 60.4684 40.1892 61.4455 40.2406C63.0398 40.3092 64.6169 40.4292 66.2112 40.5663C67.1027 40.6349 67.7884 41.3892 67.7884 42.2978V42.2635Z" fill="white"/>
<path d="M34.3426 37.8746V60.7089L32.5254 77.5774L32.0454 82.566C32.0454 84.606 36.434 85.1031 38.7311 84.8289C44.3026 84.1603 49.9768 83.8174 55.754 83.8174C61.5311 83.8174 65.3368 83.8517 68.234 84.2289C68.2683 84.2289 56.6968 83.4746 48.434 79.8917C43.8397 77.9031 41.4226 74.3374 40.154 71.2689C37.7711 65.4917 36.5711 56.3031 34.3426 37.8574V37.8746Z" fill="#05628A"/>
<path d="M55.7881 76.7716C58.8462 76.7716 61.3253 74.2925 61.3253 71.2344C61.3253 68.1763 58.8462 65.6973 55.7881 65.6973C52.73 65.6973 50.251 68.1763 50.251 71.2344C50.251 74.2925 52.73 76.7716 55.7881 76.7716Z" fill="#023248"/>
<path d="M56.0796 15.7784C56.0796 14.167 58.051 13.6356 59.1824 14.8356C63.5196 19.4127 68.0282 23.8527 72.6739 28.1213C73.6167 28.9956 73.1882 30.5041 71.8853 30.5556C66.0224 28.9956 58.4967 23.0641 56.0796 16.3441C56.0796 16.1556 56.0796 15.967 56.0796 15.7956V15.7784Z" fill="white"/>
</g>
<defs>
<clipPath id="clip0_595_3136">
<rect width="95.9657" height="96" fill="white" transform="translate(7 7)"/>
</clipPath>
</defs>
</svg>
