<svg width="110" height="110" viewBox="0 0 110 110" fill="none" xmlns="http://www.w3.org/2000/svg">
<g clip-path="url(#clip0_444_2705)">
<path d="M12.4514 102.758C12.76 102.758 13.0857 102.724 13.3943 102.672C26.8343 100.341 40.6686 99.1235 54.7771 99.1235C68.8857 99.1235 82.6857 100.341 96.1257 102.672C96.4686 102.724 96.7943 102.758 97.1371 102.758C100.377 102.758 103 100.135 103 96.8949V14.3864C103 9.82636 98.8171 6.43207 94.3257 7.16922C81.4514 9.29493 68.2514 10.4092 54.7771 10.4092C41.3029 10.4092 28.3943 9.32922 15.6571 7.23779C11.1657 6.50064 7 9.91207 7 14.4549V97.3064C7 100.324 9.45143 102.758 12.4514 102.758Z" fill="#0D9DDA"/>
<path d="M25.9086 76.3041C12.2971 61.2527 9.64 46.6299 7 32.7441V97.3041C7 100.321 9.45143 102.756 12.4514 102.756C12.76 102.756 13.0857 102.721 13.3943 102.67C26.8343 100.338 40.6686 99.1213 54.7771 99.1213C67.12 99.1213 79.24 100.047 91.0857 101.847C67.3943 96.2927 43 95.1956 25.9086 76.3041Z" fill="#05628A"/>
<path d="M93.3829 15.2093C94.3943 15.055 95.2172 15.4836 95.56 16.1179C95.8343 16.5807 95.9714 17.1979 95.8343 17.8322C95.2 20.8664 94.7029 24.175 94.3943 27.655C94.2743 29.0436 92.7829 29.8493 91.8057 28.8379C91.1714 28.1693 90.6572 27.415 90.2629 26.5922C89.44 25.0322 88.96 23.9864 87.2114 22.975C85.8229 22.1693 83.4914 22.0322 81.7772 21.9293C81.3314 21.9293 80.9029 21.8779 80.4743 21.8436C80.4057 21.8436 80.3543 21.8436 80.2857 21.8264C77.92 21.5693 75.7943 20.9179 74.0972 19.9579C72.4514 19.0322 73.36 17.0607 75.2457 16.9922C78.8286 16.855 82.6172 16.5636 86.5429 16.1179C88.8914 15.8607 91.1714 15.535 93.3829 15.1922V15.2093Z" fill="white"/>
<path d="M67.7886 65.8984H70.9257C74.4915 65.8984 77.3886 68.7956 77.3886 72.3613V77.967C77.3886 81.5327 74.4915 84.4299 70.9257 84.4299H67.7886C65.9543 84.4299 64.4629 82.9384 64.4629 81.1041V69.2241C64.4629 67.3899 65.9543 65.8984 67.7886 65.8984Z" fill="#EAF5FE"/>
<path d="M42.0918 84.4121H38.9546C35.3889 84.4121 32.4918 81.515 32.4918 77.9493V72.3435C32.4918 68.7778 35.3889 65.8807 38.9546 65.8807H42.0918C43.9261 65.8807 45.4175 67.3721 45.4175 69.2064V81.0864C45.4175 82.9207 43.9261 84.4121 42.0918 84.4121Z" fill="#EAF5FE"/>
<path d="M89.097 69.4142C88.617 68.9171 88.257 68.3 88.257 67.6143V67.5628C88.257 64.58 85.8741 62.1628 82.9084 62.0771V54.98C82.9084 39.5685 70.377 27.0371 54.9655 27.0371C39.5541 27.0371 27.0227 39.5685 27.0227 54.98V62.0771C24.0227 62.1114 21.5884 64.5457 21.5884 67.5628V67.6143C21.5884 68.3171 21.2284 68.9171 20.7484 69.4142C18.2284 72.0371 18.2284 78.2771 20.7484 80.9C21.2284 81.3971 21.5884 82.0143 21.5884 82.7V82.7514C21.5884 85.7857 24.0398 88.2371 27.0741 88.2371H36.1255C39.1598 88.2371 41.6113 85.7857 41.6113 82.7514V67.58C41.6113 64.5457 39.1598 62.0942 36.1255 62.0942H35.577V55.0142C35.577 44.3343 44.2684 35.6428 54.9484 35.6428C65.6284 35.6428 74.3198 44.3343 74.3198 55.0142V62.0942H73.6855C70.6513 62.0942 68.1998 64.5457 68.1998 67.58V82.7514C68.1998 85.7857 70.6513 88.2371 73.6855 88.2371H82.737C85.7713 88.2371 88.2227 85.7857 88.2227 82.7514V82.7C88.2227 81.9971 88.5827 81.3971 89.0627 80.9C91.5827 78.2771 91.5827 72.0371 89.0627 69.4142H89.097Z" fill="#023248"/>
</g>
<defs>
<clipPath id="clip0_444_2705">
<rect width="96" height="95.6914" fill="white" transform="translate(7 7.06445)"/>
</clipPath>
</defs>
</svg>
