<svg width="110" height="110" viewBox="0 0 110 110" fill="none" xmlns="http://www.w3.org/2000/svg">
<g clip-path="url(#clip0_691_2797)">
<path d="M55 103C81.5097 103 103 81.5097 103 55C103 28.4903 81.5097 7 55 7C28.4903 7 7 28.4903 7 55C7 81.5097 28.4903 103 55 103Z" fill="#0D9DDA"/>
<path d="M64.4286 16.668C73.8915 13.9937 83.7487 19.5308 86.4229 29.028C86.6115 29.7137 86.7658 30.3822 86.8686 31.068C87.1601 32.8851 84.8972 33.3651 83.8172 31.8737C79.1715 25.4794 72.3658 21.0394 64.7715 19.308C63.2972 18.9651 62.9544 17.0794 64.4115 16.668H64.4286Z" fill="white"/>
<path d="M26.1486 77.1997C25.7371 76.7026 25.3257 76.2055 24.9143 75.7083C24.8286 75.8283 24.7429 75.9483 24.6571 76.0512C24.7429 75.9312 24.8114 75.8112 24.8971 75.6912C24.8971 75.6912 24.8971 75.6912 24.8971 75.674C14.2514 62.234 11.0114 45.0397 14.6971 28.874C11.6629 33.5197 9.43429 38.7312 8.16571 44.3026C8.14857 44.4055 8.11429 44.5083 8.09714 44.6112C7.85714 45.6912 7.65143 46.7883 7.48 47.9026V47.9369C7.32571 48.9655 7.22286 50.0112 7.13714 51.0569C7.12 51.2797 7.10286 51.5197 7.08571 51.7426C7.05143 52.8397 7 53.9197 7 55.0169C7 67.5826 11.8343 78.9997 19.7371 87.554L19.8743 86.8683C19.8743 86.8683 19.8743 86.8169 19.8914 86.7997C19.8914 86.8169 19.8914 86.8512 19.8914 86.8683L19.7543 87.5712C21.2114 89.1483 22.7714 90.6397 24.4343 92.0112C24.4514 92.0112 24.4686 92.0455 24.4857 92.0626C25.0343 92.5255 25.6171 92.9712 26.1829 93.3997C26.2343 93.434 26.2857 93.4683 26.3371 93.5026C26.9029 93.914 27.4686 94.3254 28.0343 94.7197C28.1029 94.7712 28.1714 94.8226 28.2571 94.874C28.8229 95.2512 29.3886 95.6112 29.9714 95.9712C30.0571 96.0226 30.16 96.0912 30.2457 96.1426C30.8114 96.4855 31.3943 96.8112 31.96 97.1369C32.0629 97.2055 32.1829 97.2569 32.2857 97.3083C32.8514 97.6169 33.4343 97.9083 34.0171 98.1997C34.1371 98.2683 34.2743 98.3197 34.3943 98.3883C34.96 98.6626 35.5429 98.9197 36.1429 99.1769C36.28 99.2455 36.4343 99.2969 36.5714 99.3655C37.1543 99.6055 37.7371 99.8454 38.32 100.051C38.4743 100.103 38.6457 100.171 38.8 100.223C39.3829 100.428 39.9657 100.634 40.5657 100.823C40.7371 100.874 40.9257 100.925 41.0971 100.977C41.68 101.148 42.2629 101.32 42.8457 101.474C43.0343 101.525 43.24 101.577 43.4457 101.611C44.0286 101.748 44.6114 101.885 45.1943 102.005C45.4171 102.057 45.64 102.091 45.8629 102.125C46.4286 102.228 47.0114 102.348 47.5943 102.434C47.8343 102.468 48.0914 102.503 48.3486 102.537C48.8971 102.623 49.4629 102.691 50.0286 102.743C50.3371 102.777 50.6457 102.794 50.9543 102.811C51.4686 102.845 51.9657 102.897 52.4971 102.931C53.0629 102.965 53.6286 102.965 54.1943 102.983C54.4686 102.983 54.7257 103 55 103C56.1314 103 57.2629 102.948 58.3771 102.863C58.6 102.863 58.8229 102.828 59.0629 102.811C61.36 102.623 63.6057 102.263 65.7829 101.765C65.9029 101.731 66.0057 101.714 66.1257 101.68C71.9371 100.291 77.3543 97.8569 82.1371 94.5655C61.8229 99.4512 40.0857 93.5026 26.1657 77.1826L26.1486 77.1997Z" fill="#05628A"/>
<path d="M55.8059 34.6001C57.4516 33.6916 58.3088 31.8401 57.9488 30.0059C57.5716 28.1716 56.063 26.783 54.1945 26.5944C49.823 26.1316 46.6688 23.2173 46.5659 23.1316C44.8688 21.4859 42.1773 21.5373 40.5316 23.2173C38.8688 24.9144 38.903 27.623 40.6002 29.2859C40.6688 29.3544 40.823 29.5087 41.063 29.7144C29.3716 34.7887 22.103 47.2687 24.2116 60.4001C25.5488 68.7487 30.4688 76.0173 37.7202 80.3716C38.4059 80.783 39.1773 80.9887 39.9316 80.9887C41.3888 80.9887 42.8116 80.2516 43.6002 78.9144C44.8173 76.8916 44.1659 74.2516 42.1259 73.0344C37.0516 69.983 33.6059 64.8916 32.6802 59.0459C31.3602 50.8344 35.2688 42.983 41.9373 38.8687C41.8516 40.6344 42.863 42.3316 44.5773 43.0344C45.1088 43.2573 45.6573 43.3601 46.1888 43.3601C47.8859 43.3601 49.4802 42.3487 50.1659 40.6859C51.6745 37.0001 55.7888 34.6516 55.823 34.6344L55.8059 34.6001Z" fill="white"/>
<path d="M85.8059 49.6176C84.4687 41.2862 79.5487 34.0005 72.2973 29.6462C70.2744 28.4291 67.6344 29.0805 66.4173 31.1034C65.2001 33.1262 65.8516 35.7662 67.8744 36.9834C72.9487 40.0348 76.3944 45.1262 77.3201 50.9719C78.6401 59.1834 74.7316 67.0348 68.063 71.1491C68.1487 69.3834 67.1373 67.6862 65.423 66.9834C63.2287 66.0919 60.7259 67.1376 59.8344 69.3319C58.3259 73.0176 54.2116 75.3662 54.1773 75.3834C52.5316 76.2919 51.6744 78.1434 52.0344 79.9776C52.3944 81.8119 53.9201 83.2005 55.7887 83.3891C60.143 83.8519 63.2973 86.7662 63.4173 86.8519C64.2401 87.6576 65.3201 88.0519 66.4001 88.0519C67.4801 88.0519 68.6287 87.6234 69.4687 86.7662C71.1316 85.0691 71.0973 82.3605 69.4001 80.6976C69.3316 80.6291 69.1773 80.4748 68.9373 80.2691C80.6287 75.1948 87.8973 62.7148 85.7887 49.5834L85.8059 49.6176Z" fill="white"/>
</g>
<defs>
<clipPath id="clip0_691_2797">
<rect width="96" height="96" fill="white" transform="translate(7 7)"/>
</clipPath>
</defs>
</svg>
