<svg width="110" height="110" viewBox="0 0 110 110" fill="none" xmlns="http://www.w3.org/2000/svg">
<path d="M14.0802 53.6859C19.3945 62.6517 28.0517 76.0916 37.6517 78.5602C56.3545 83.3774 91.1031 45.6117 101.389 33.9031C104.372 28.4345 103.206 21.4402 98.2688 17.2574C95.8517 15.2174 92.7831 14.0859 89.6288 14.0859C85.6688 14.0859 81.9317 15.8174 79.3945 18.8345L68.1831 32.1202L44.3888 60.2859L31.1545 42.6288C28.6345 39.2688 24.6231 37.2631 20.4231 37.2631C18.3317 37.2631 16.3259 37.7602 14.4917 38.6688C12.5545 43.5545 11.2174 48.7831 14.1145 53.6688L14.0802 53.6859ZM17.8859 41.2059C22.9945 39.8859 28.2059 42.9717 29.5088 48.0802C29.9031 49.6402 28.0174 50.1545 26.8688 49.0231C24.4345 46.5888 21.4517 44.7717 18.1774 43.7088C16.8402 43.2802 16.4974 41.5488 17.8688 41.2059H17.8859Z" fill="#0D9DDA"/>
<path d="M18.1769 43.7084C21.4512 44.7713 24.434 46.6055 26.8683 49.0227C27.9998 50.1541 29.9026 49.6227 29.5083 48.0798C28.1883 42.9713 22.994 39.8855 17.8855 41.2055C16.514 41.5655 16.8398 43.2798 18.194 43.7084H18.1769Z" fill="white"/>
<path d="M37.6512 78.5595C28.0512 76.0909 19.394 62.6509 14.0797 53.6852C11.1826 48.7995 12.5197 43.5709 14.4569 38.6852C13.7197 39.0452 13.0169 39.4566 12.3483 39.9538C6.43403 44.3766 5.23403 52.7938 9.67403 58.7081L33.0055 89.8395C35.474 93.1309 39.2283 95.0852 43.3426 95.2052C43.4626 95.2052 43.5998 95.2052 43.7369 95.2052C47.6969 95.2052 51.4169 93.4738 53.9712 90.4566L85.034 53.6852L99.8455 36.1481C100.445 35.4452 100.96 34.6909 101.388 33.9023C91.1026 45.6109 56.3712 83.3766 37.6512 78.5595Z" fill="#05628A"/>
</svg>
