<svg width="110" height="110" viewBox="0 0 110 110" fill="none" xmlns="http://www.w3.org/2000/svg">
<path d="M59.0461 42.9324L56.9546 41.1495C48.8803 35.3038 39.726 30.1438 29.3203 25.8066C28.8403 26.5781 28.6003 27.4866 28.7032 28.4466C28.7375 28.7895 28.7718 29.1495 28.806 29.4924C28.8575 30.0581 28.926 30.6409 28.9775 31.2066C29.0632 32.1666 29.1489 33.1266 29.2175 34.0866C29.2518 34.6524 29.3032 35.2009 29.3375 35.7666C29.406 36.7952 29.4575 37.8238 29.4918 38.8524C29.5089 39.3152 29.5432 39.7781 29.5603 40.2409C29.6118 41.7152 29.6289 43.1895 29.646 44.6466C29.646 44.6466 29.646 44.6809 29.646 44.6981C29.646 44.8352 29.646 44.9724 29.646 45.1266C29.646 46.4295 29.6289 47.7324 29.5775 49.0352C29.5775 49.1724 29.5775 49.2924 29.5775 49.4295C29.5775 49.7895 29.5432 50.1324 29.526 50.4924C29.4918 51.4695 29.4403 52.4295 29.3718 53.4066C29.3375 53.9552 29.3032 54.4866 29.2518 55.0181C29.1832 55.9438 29.0975 56.8524 29.0118 57.7781C28.9603 58.3095 28.9089 58.8409 28.8403 59.3723C28.806 59.6638 28.7889 59.9552 28.7546 60.2466C28.5489 62.0466 29.5775 63.7266 31.2403 64.4295C31.326 64.4638 31.4289 64.5152 31.5146 64.5495C32.4232 64.9266 33.3489 65.3381 34.2746 65.7666C34.4289 65.8352 34.5832 65.9209 34.7375 65.9895C35.646 66.4181 36.5546 66.8638 37.4803 67.3438C37.5832 67.3952 37.686 67.4466 37.7718 67.4981C38.4746 67.8581 39.1946 68.2352 39.9146 68.6295C40.1889 68.7838 40.4632 68.9381 40.7375 69.0924C40.9432 69.1952 41.1318 69.3152 41.3375 69.4181C42.3146 69.9666 43.3089 70.5495 44.3203 71.1324C44.4746 71.2352 44.646 71.3209 44.8003 71.4238C45.7775 72.0066 46.7546 72.6066 47.7318 73.2238C47.8346 73.2924 47.9375 73.3438 48.0403 73.4124C49.0861 74.0638 50.1318 74.7323 51.1775 75.4352C51.3832 75.5723 51.5889 75.7095 51.7946 75.8466C52.8403 76.5323 53.886 77.2352 54.9318 77.9381C55.086 78.0409 55.2575 78.1609 55.4289 78.2638C56.4575 78.9666 57.486 79.6695 58.5318 80.3895C58.6003 80.4409 58.6689 80.4752 58.7375 80.5266C59.4403 81.0066 60.2289 81.2466 61.0346 81.2466V47.0638C61.0346 46.8409 61.086 46.6352 61.1032 46.4124C60.9318 45.0066 60.2289 43.8752 59.0632 42.9324H59.0461Z" fill="#05628A"/>
<path d="M92.9542 25.8398C82.4285 30.2798 73.017 35.4056 64.977 41.3713L63.1428 42.9313C61.977 43.8913 61.2742 45.0056 61.1027 46.4113C61.0685 46.6341 61.0342 46.8227 61.0342 47.0627V81.2456C61.0342 81.2456 61.137 81.2456 61.1885 81.2456C62.0285 81.2284 62.8513 80.937 63.5542 80.4056C70.0342 75.4856 76.8228 71.2684 83.9028 67.737C86.5942 66.3313 89.1999 65.097 91.7028 64.1027C92.9885 63.2284 93.657 61.6513 93.3828 60.057C91.857 51.3141 91.5313 41.1998 93.4856 28.5141C93.6399 27.5541 93.417 26.6284 92.9542 25.8398Z" fill="#023248"/>
<path d="M92.9029 25.7718C92.4571 25.069 91.8229 24.5032 91.0171 24.1604C90.6571 24.0061 90.3143 23.8518 89.9714 23.6975C89.7486 23.6118 89.5429 23.509 89.32 23.4061C88.9943 23.269 88.6686 23.1147 88.3429 22.9775C87.4 22.5661 86.4571 22.1375 85.5486 21.709C85.0514 21.469 84.5371 21.2461 84.04 21.0061C83.0114 20.509 82.0171 20.0118 81.0229 19.4975C81.0229 19.4975 81.0229 19.4975 81.0057 19.4975C80.8686 19.429 80.7314 19.3604 80.5943 19.2918C80.3714 19.1718 80.1486 19.069 79.9257 18.949C78.5886 18.2461 77.2857 17.5432 76.0171 16.8061C75.8286 16.7032 75.64 16.5832 75.4514 16.4804C75.3829 16.4461 75.3314 16.4118 75.2629 16.3775C75.2629 16.3775 75.2629 16.3775 75.2457 16.3775C74.2514 15.7947 73.2571 15.2118 72.2971 14.5947C72.0229 14.4232 71.7657 14.2518 71.5086 14.0804C71.3543 13.9775 71.2171 13.8918 71.0629 13.789C70.2743 13.2747 69.5028 12.7604 68.7314 12.2461C68.3028 11.9547 67.8743 11.6461 67.4629 11.3547C66.7257 10.8232 66.0057 10.2918 65.3028 9.76039C65.0971 9.6061 64.8914 9.43467 64.6686 9.28039C64.4971 9.14325 64.3257 9.02325 64.1543 8.8861C63.9829 8.74896 63.8114 8.62896 63.64 8.49182C62.2 7.34325 60.16 7.29182 58.7029 8.4061C58.4971 8.56039 58.2743 8.71467 58.0514 8.8861C57.9314 8.97182 57.8286 9.05753 57.7086 9.14325C57.4 9.3661 57.0914 9.6061 56.7829 9.82896C56.0457 10.3775 55.2914 10.909 54.5371 11.4404C54.2286 11.6461 53.9371 11.8518 53.6286 12.0575C53.4914 12.1604 53.3543 12.2461 53.2171 12.349C52.4286 12.8804 51.6229 13.4118 50.8 13.9261C50.4228 14.1661 50.0629 14.4061 49.6857 14.6461C49.6514 14.6632 49.6171 14.6975 49.5657 14.7147C48.52 15.3661 47.4571 16.0004 46.3943 16.6347C46.24 16.7204 46.0857 16.8232 45.9143 16.9261C45.88 16.9261 45.8629 16.9604 45.8286 16.9775C44.56 17.7147 43.2743 18.4175 41.9714 19.1204C41.5943 19.3261 41.2 19.5147 40.8229 19.7204C39.88 20.2004 38.9371 20.6975 37.9771 21.1604C37.48 21.4004 36.9829 21.6404 36.5029 21.8632C35.6114 22.2747 34.72 22.7032 33.8286 23.0975C33.3143 23.3375 32.7829 23.5604 32.2686 23.7832C31.9257 23.9375 31.6 24.0747 31.2743 24.229C30.4857 24.5547 29.8686 25.1204 29.4229 25.8061C29.4229 25.8061 29.4229 25.8061 29.4229 25.8232C39.8286 30.1604 48.9829 35.3204 57.0571 41.1661L59.1486 42.949C60.3143 43.909 61.0171 45.0232 61.1886 46.429C61.36 45.0232 62.0629 43.8918 63.2286 42.949L65.0629 41.389C73.1029 35.4232 82.5143 30.2975 93.04 25.8575C93.04 25.8404 93.0057 25.8061 92.9886 25.789L92.9029 25.7718Z" fill="#0D9DDA"/>
<path d="M12.5029 18.7776C12.3315 15.5719 14.1486 12.8462 16.4629 12.8462C18.7772 12.8462 20.5943 15.5719 20.4229 18.7776L18.3143 78.4862C18.2458 79.8233 17.44 80.8519 16.48 80.8519C15.52 80.8519 14.7143 79.8233 14.6458 78.4862L12.5029 18.7776Z" fill="#0D9DDA"/>
<path d="M9.48544 20.5947C8.85115 20.5947 8.23401 20.3547 7.73686 19.8918C6.75972 18.9318 6.74258 17.3547 7.70258 16.3775C10.6854 13.3261 13.4797 9.93182 13.8226 8.97182C14.0969 7.61753 15.3997 6.77753 16.7369 7.05182C18.0911 7.3261 18.9483 8.68039 18.674 10.0175C18.1769 12.4861 13.8226 17.2347 11.2683 19.8404C10.7883 20.3375 10.1369 20.5947 9.48544 20.5947Z" fill="#0D9DDA"/>
<path d="M23.4056 20.5941C22.7542 20.5941 22.1199 20.337 21.6228 19.8398C19.0685 17.2341 14.7142 12.4856 14.2171 10.017C13.9428 8.6627 14.8171 7.35984 16.1714 7.08555C17.5256 6.79412 18.8285 7.68555 19.1028 9.03984C19.4114 9.93127 22.2056 13.3084 25.1885 16.3598C26.1485 17.337 26.1314 18.9141 25.1542 19.8741C24.6742 20.3541 24.0399 20.577 23.4056 20.577V20.5941Z" fill="#0D9DDA"/>
<path d="M90.9146 89.5947C94.1203 89.4233 96.846 91.2404 96.846 93.5547C96.846 95.869 94.1203 97.6861 90.9146 97.5147L31.206 95.4061C29.8689 95.3376 28.8403 94.5318 28.8403 93.5718C28.8403 92.6118 29.8689 91.8061 31.206 91.7376L90.9146 89.629V89.5947Z" fill="#0D9DDA"/>
<path d="M100.171 95.8352C99.9997 95.8352 99.8454 95.8352 99.674 95.7838C97.2054 95.2867 92.4568 90.9324 89.8511 88.3781C88.874 87.4181 88.8568 85.841 89.8168 84.8638C90.7768 83.8867 92.354 83.8695 93.3311 84.8295C96.3311 87.761 99.7768 90.6067 100.737 90.9324C102.091 91.2067 102.914 92.5095 102.657 93.8467C102.417 95.0295 101.354 95.8352 100.188 95.8352H100.171Z" fill="#0D9DDA"/>
<path d="M91.5831 103C90.9317 103 90.2974 102.742 89.8002 102.245C88.8402 101.268 88.8574 99.6909 89.8345 98.7309C92.4402 96.1767 97.1888 91.8224 99.6574 91.3252C101.012 91.0509 102.315 91.9252 102.589 93.2795C102.863 94.6338 101.989 95.9367 100.635 96.2109C99.7602 96.5195 96.3145 99.3652 93.3145 102.297C92.8345 102.777 92.2002 103 91.566 103H91.5831Z" fill="#0D9DDA"/>
<path d="M62.1658 17.0794C61.703 15.5537 63.383 14.5251 64.7373 15.348C70.0001 18.5023 75.3658 21.4508 80.8515 24.228C81.9658 24.7937 81.983 26.3365 80.8173 26.7308C80.1315 27.0737 64.943 25.2394 62.3373 17.6108C62.2858 17.4394 62.2173 17.268 62.1658 17.0965V17.0794Z" fill="white"/>
</svg>
