<svg width="110" height="110" viewBox="0 0 110 110" fill="none" xmlns="http://www.w3.org/2000/svg">
<path d="M66.8353 91.5145H66.8189L27.1389 91.334C24.8743 91.334 23.0527 89.4797 23.0527 87.2151C23.0527 84.9504 24.8907 83.1289 27.1553 83.1289H27.1717L66.8517 83.3094C69.1163 83.3094 70.9379 85.1638 70.9379 87.4284C70.9379 89.693 69.0999 91.5145 66.8353 91.5145Z" fill="#05628A"/>
<path d="M52.8869 58.7438H52.8705L11.3362 58.5469C9.07154 58.5305 7.25 56.6926 7.25 54.428C7.25 52.1633 9.08795 50.3418 11.3526 50.3418H11.369L52.9033 50.5387C55.1679 50.5387 56.9895 52.3931 56.9895 54.6577C56.9895 56.9223 55.1515 58.7438 52.8869 58.7438Z" fill="#05628A"/>
<path d="M60.7474 75.2368H60.7146L19.1802 74.9415C16.9156 74.9415 15.0941 73.0707 15.1105 70.8061C15.1269 68.5579 16.9648 66.7363 19.213 66.7363H19.2458L60.7802 67.0317C63.0448 67.0317 64.8664 68.9025 64.8499 71.1671C64.8335 73.4153 62.9956 75.2368 60.7474 75.2368Z" fill="#05628A"/>
<path d="M60.7476 42.2528L19.2132 42.1543C16.9486 42.1543 15.1107 40.3164 15.1271 38.0354C15.1271 35.7708 16.965 33.9492 19.2296 33.9492L60.764 34.0477C63.0286 34.0477 64.8665 35.8856 64.8501 38.1667C64.8501 40.4313 63.0122 42.2528 60.7476 42.2528Z" fill="#05628A"/>
<path d="M68.7718 25.9403H68.7554L27.221 25.7598C24.9564 25.7598 23.1185 23.9055 23.1349 21.6408C23.1349 19.3762 24.9728 17.5547 27.2374 17.5547H27.2538L68.7882 17.7352C71.0528 17.7352 72.8908 19.5896 72.8744 21.8542C72.8744 24.1188 71.0364 25.9403 68.7718 25.9403Z" fill="#0D9DDA"/>
<path d="M66.3106 91.5313C86.7117 91.5313 103.25 74.9929 103.25 54.5918C103.25 34.1907 86.7117 17.6523 66.3106 17.6523C45.9095 17.6523 29.3711 34.1907 29.3711 54.5918C29.3711 74.9929 45.9095 91.5313 66.3106 91.5313Z" fill="#0D9DDA"/>
<path d="M37.5431 31.4707C33.7687 44.9763 36.3452 59.6799 45.7811 70.7569C56.3493 83.163 72.8087 87.7907 88.2836 84.2625C82.1462 88.8246 74.5318 91.5322 66.2939 91.5322C45.9123 91.5322 29.3872 75.0071 29.3872 54.6256C29.3872 45.8625 32.4395 37.8051 37.5431 31.4871V31.4707Z" fill="#05628A"/>
<path d="M73.3831 26.1036C81.9 23.6913 90.778 28.68 93.1903 37.2297C93.3708 37.8369 93.5021 38.4605 93.6005 39.0677C93.8631 40.6923 91.8282 41.1354 90.86 39.8061C86.6754 34.0461 80.538 30.042 73.7113 28.4831C72.3821 28.1877 72.0867 26.4646 73.3831 26.1036Z" fill="white"/>
<path d="M59.878 70.4119H59.8124C58.5816 70.3955 57.4165 69.8211 56.6616 68.8529L48.0955 57.9893C46.7006 56.217 46.996 53.6242 48.7847 52.2293C50.557 50.8345 53.1498 51.1299 54.5447 52.9186L59.9929 59.8273L76.5673 40.217C78.0278 38.494 80.6206 38.2642 82.3437 39.7247C84.0667 41.1852 84.2965 43.7781 82.836 45.5011L63.0288 68.9514C62.2411 69.8704 61.1088 70.4119 59.8944 70.4119H59.878Z" fill="white"/>
</svg>
