<svg width="343" height="119" viewBox="0 0 343 119" fill="none" xmlns="http://www.w3.org/2000/svg">
<path d="M9.52 16.04H8.72V11H9.56C12.12 11 13.36 9.71995 13.36 7.83995C13.36 6.11995 12.48 5.03995 10.72 5.03995C9.28 5.03995 8.2 6.15995 8.08 7.75995H2.76C3.16 2.63995 6.8 -5.10216e-05 10.72 -5.10216e-05C15 -5.10216e-05 18.68 3.63995 18.68 7.99995C18.68 10.2 17.92 11.9599 16.12 13.24C19.2 14.5599 20.8 17.36 20.8 20.88C20.8 26.52 16.28 30.8 10.64 30.8C5.28 30.8 1.04 26.88 0.640004 21.28H5.96C6.24 23.88 8.24 25.76 10.76 25.76C13.32 25.76 15.48 23.48 15.48 20.96C15.48 18.08 13.4 16.04 9.52 16.04ZM31.5428 30.2H24.4228V0.599951H31.5028C36.5428 0.599951 41.4228 1.71995 44.3028 4.99995C47.7428 8.87995 48.1828 13.4399 48.1828 15.12C48.1828 19.64 46.6228 23.2 44.3428 25.68C41.4628 28.8 37.8628 30.2 31.5428 30.2ZM29.9028 25.08H31.6628C35.5828 25.08 38.4228 24.04 40.1828 22.16C42.1028 20.12 42.7028 17.44 42.7028 15.4799C42.7028 13.04 41.8228 10.64 40.1028 8.75995C38.3028 6.79995 35.5428 5.71995 31.5028 5.71995H29.9028V25.08ZM78.5216 30.2H64.0016V0.599951H69.4816V25.08H78.5216V30.2ZM86.1788 5.47995H80.8588V0.599951H86.1788V5.47995ZM86.1788 30.2H80.8588V7.99995H86.1788V30.2ZM95.1081 30.2H90.2281V0.599951H95.5481V9.99995C97.3081 8.23995 99.9081 7.23995 102.468 7.23995C108.948 7.23995 113.628 12.84 113.628 18.76C113.628 25 109.548 30.92 102.588 30.92C99.3881 30.92 97.2281 29.96 95.1081 27.52V30.2ZM101.908 26.04C105.668 26.04 108.308 23.08 108.308 19.04C108.308 15.16 105.548 12.12 101.788 12.12C98.1881 12.12 95.2281 15.16 95.2281 18.8C95.2281 22.8 97.9481 26.04 101.908 26.04ZM122.594 30.2H117.274V7.99995H122.154V9.95995H122.234C123.634 7.87995 124.794 7.23995 127.314 7.23995H127.434V12.4C124.234 12.5199 122.594 14.24 122.594 17.56V30.2ZM150.993 30.2H146.113V27.44C144.353 29.52 141.073 30.92 138.313 30.92C132.073 30.92 127.553 25.68 127.553 18.96C127.553 12.5199 132.233 7.23995 138.673 7.23995C141.793 7.23995 144.873 9.07995 146.033 10.8H146.113V7.99995H150.993V30.2ZM139.473 26.04C143.353 26.04 145.953 22.84 145.953 19.04C145.953 15.16 143.273 12.12 139.433 12.12C135.713 12.12 132.873 15.24 132.873 19.2C132.873 22.92 135.713 26.04 139.473 26.04ZM160.719 30.2H155.399V7.99995H160.279V9.95995H160.359C161.759 7.87995 162.919 7.23995 165.439 7.23995H165.559V12.4C162.359 12.5199 160.719 14.24 160.719 17.56V30.2ZM176.553 37.6H170.833L174.913 28.16L166.793 7.99995H172.873L177.913 22.24L183.273 7.99995H189.313L176.553 37.6Z" fill="#001E5B"/>
<path d="M18.52 52.4399H12.92V52.4C12.76 50.4799 11.68 49.1199 9.6 49.1199C7.88 49.1199 6.56 50.36 6.56 52.1199C6.56 54.04 7.84 55.16 10.36 55.8799C16.6 57.7199 19.24 60.52 19.24 65.36C19.24 71.16 15.04 74.8 9.64001 74.8C4.48 74.8 0.320004 71.08 4.27663e-06 65.72H5.76C6.04 68.16 7.48 69.68 9.68 69.68C11.92 69.68 13.76 68.04 13.76 65.92C13.76 63.76 12.32 62.48 9.96 61.64C5.28 59.96 1.08 58.64 1.08 52.4399C1.08 47.4 5.08 43.9999 9.76 43.9999C14.32 43.9999 18.24 47.4399 18.52 52.4399ZM45.8369 74.2H40.9569V71.44C39.1969 73.52 35.9169 74.92 33.1569 74.92C26.9169 74.92 22.3969 69.68 22.3969 62.96C22.3969 56.5199 27.0769 51.24 33.5169 51.24C36.6369 51.24 39.7169 53.08 40.8769 54.8H40.9569V52H45.8369V74.2ZM34.3169 70.04C38.1969 70.04 40.7969 66.84 40.7969 63.04C40.7969 59.16 38.1169 56.12 34.2769 56.12C30.5569 56.12 27.7169 59.24 27.7169 63.2C27.7169 66.92 30.5569 70.04 34.3169 70.04ZM55.2031 74.2H49.8831V44.6H55.2031V74.2ZM81.4125 65.48H64.1725C64.5725 67.44 67.0125 70.04 70.2925 70.04C72.4925 70.04 74.3325 69.16 75.4125 67.2H81.0125C79.5725 71.68 75.0125 74.92 70.2925 74.92C63.6125 74.92 58.5725 69.72 58.5725 63.16C58.5725 56.6 63.4925 51.24 70.2525 51.24C76.6925 51.24 81.7325 56.32 81.7325 62.8C81.7325 63.64 81.6125 64.52 81.4125 65.48ZM64.0125 61.2H76.2925C75.7725 57.9999 73.5725 56.12 70.2525 56.12C67.3325 56.12 64.8525 57.8 64.0125 61.2ZM99.1584 58.04H93.9584C93.6784 56.88 93.0784 56.12 91.8384 56.12C90.7184 56.12 89.7984 56.92 89.7984 58.04C89.7984 59.08 90.2384 59.56 93.4384 60.48C98.6384 62 99.7584 64.32 99.7584 67.16C99.7584 71.6 96.3584 74.92 91.9984 74.92C87.8384 74.92 83.9984 72.52 83.6784 67.2H89.1184C89.5584 69.24 90.5184 70.04 92.0384 70.04C93.4384 70.04 94.4384 69.08 94.4384 67.8C94.4384 66.24 93.2784 65.76 90.2384 64.76C85.7984 63.36 84.4784 60.88 84.4784 58.12C84.4784 54.2 87.9184 51.24 91.9184 51.24C95.6384 51.24 98.9584 53.9599 99.1584 58.04ZM136.267 74.2H131.387V71.44C129.627 73.52 126.347 74.92 123.587 74.92C117.347 74.92 112.827 69.68 112.827 62.96C112.827 56.5199 117.507 51.24 123.947 51.24C127.067 51.24 130.147 53.08 131.307 54.8H131.387V52H136.267V74.2ZM124.747 70.04C128.627 70.04 131.227 66.84 131.227 63.04C131.227 59.16 128.547 56.12 124.707 56.12C120.987 56.12 118.147 59.24 118.147 63.2C118.147 66.92 120.987 70.04 124.747 70.04ZM160.033 74.2H154.713V63.04C154.713 58.52 153.233 56.12 150.233 56.12C148.593 56.12 145.633 57.2 145.633 62.08V74.2H140.313V52H145.233V53.92C146.993 52.2 148.793 51.24 151.353 51.24C154.233 51.24 160.033 53.0399 160.033 61.08V74.2ZM186.857 74.2H181.977V71.48H181.897C180.457 73.72 177.737 74.92 174.817 74.92C168.617 74.92 163.497 69.72 163.497 63.12C163.497 56.08 169.057 51.24 174.937 51.24C177.617 51.24 179.577 52 181.537 53.9599V44.6H186.857V74.2ZM175.377 70.04C178.977 70.04 181.937 66.88 181.937 63.08C181.937 59.4 179.097 56.12 175.337 56.12C171.977 56.12 168.817 59.24 168.817 62.92C168.817 66.84 171.697 70.04 175.377 70.04ZM218.754 52.4399H213.154V52.4C212.994 50.4799 211.914 49.1199 209.834 49.1199C208.114 49.1199 206.794 50.36 206.794 52.1199C206.794 54.04 208.074 55.16 210.594 55.8799C216.834 57.7199 219.474 60.52 219.474 65.36C219.474 71.16 215.274 74.8 209.874 74.8C204.714 74.8 200.554 71.08 200.234 65.72H205.994C206.274 68.16 207.714 69.68 209.914 69.68C212.154 69.68 213.994 68.04 213.994 65.92C213.994 63.76 212.554 62.48 210.194 61.64C205.514 59.96 201.314 58.64 201.314 52.4399C201.314 47.4 205.314 43.9999 209.994 43.9999C214.554 43.9999 218.474 47.4399 218.754 52.4399ZM245.631 65.48H228.391C228.791 67.44 231.231 70.04 234.511 70.04C236.711 70.04 238.551 69.16 239.631 67.2H245.231C243.791 71.68 239.231 74.92 234.511 74.92C227.831 74.92 222.791 69.72 222.791 63.16C222.791 56.6 227.711 51.24 234.471 51.24C240.911 51.24 245.951 56.32 245.951 62.8C245.951 63.64 245.831 64.52 245.631 65.48ZM228.231 61.2H240.511C239.991 57.9999 237.791 56.12 234.471 56.12C231.551 56.12 229.071 57.8 228.231 61.2ZM254.977 74.2H249.657V52H254.537V53.9599H254.617C256.017 51.88 257.177 51.24 259.697 51.24H259.817V56.4C256.617 56.5199 254.977 58.24 254.977 61.56V74.2ZM273.971 74.2H269.811L260.851 52H266.611L271.971 66.72H272.091L277.131 52H282.971L273.971 74.2ZM290.554 49.4799H285.234V44.6H290.554V49.4799ZM290.554 74.2H285.234V52H290.554V74.2ZM311.123 66.96H317.123C315.243 72.04 311.083 74.92 306.003 74.92C299.443 74.92 294.203 69.52 294.203 63C294.203 56.6 299.443 51.24 305.963 51.24C310.963 51.24 315.403 54.24 317.123 59.36H311.123C309.963 57.28 308.403 56.12 305.963 56.12C302.203 56.12 299.523 59.12 299.523 63.08C299.523 67.04 302.403 70.04 306.203 70.04C308.403 70.04 310.003 68.76 311.123 66.96ZM342.389 65.48H325.149C325.549 67.44 327.989 70.04 331.269 70.04C333.469 70.04 335.309 69.16 336.389 67.2H341.989C340.549 71.68 335.989 74.92 331.269 74.92C324.589 74.92 319.549 69.72 319.549 63.16C319.549 56.6 324.469 51.24 331.229 51.24C337.669 51.24 342.709 56.32 342.709 62.8C342.709 63.64 342.589 64.52 342.389 65.48ZM324.989 61.2H337.269C336.749 57.9999 334.549 56.12 331.229 56.12C328.309 56.12 325.829 57.8 324.989 61.2ZM15.76 102.04H10.56C10.28 100.88 9.68 100.12 8.44 100.12C7.32 100.12 6.4 100.92 6.4 102.04C6.4 103.08 6.84 103.56 10.04 104.48C15.24 106 16.36 108.32 16.36 111.16C16.36 115.6 12.96 118.92 8.6 118.92C4.44 118.92 0.600004 116.52 0.280004 111.2H5.72C6.16 113.24 7.12 114.04 8.64 114.04C10.04 114.04 11.04 113.08 11.04 111.8C11.04 110.24 9.88 109.76 6.84 108.76C2.4 107.36 1.08 104.88 1.08 102.12C1.08 98.2 4.52 95.24 8.52 95.24C12.24 95.24 15.56 97.9599 15.76 102.04ZM38.8972 118.2H34.0172V115.96H33.9372C32.4572 118 30.5772 118.92 28.5372 118.92C23.2172 118.92 19.1372 116.12 19.1372 109.04V96H24.4572V107.48C24.4572 111.8 25.8972 114.04 29.0972 114.04C32.1772 114.04 33.5772 111.4 33.5772 107.52V96H38.8972V118.2ZM47.8816 118.2H43.0016V88.6H48.3216V98C50.0816 96.24 52.6816 95.24 55.2416 95.24C61.7216 95.24 66.4016 100.84 66.4016 106.76C66.4016 113 62.3216 118.92 55.3616 118.92C52.1616 118.92 50.0016 117.96 47.8816 115.52V118.2ZM54.6816 114.04C58.4416 114.04 61.0816 111.08 61.0816 107.04C61.0816 103.16 58.3216 100.12 54.5616 100.12C50.9616 100.12 48.0016 103.16 48.0016 106.8C48.0016 110.8 50.7216 114.04 54.6816 114.04ZM83.7678 102.04H78.5678C78.2878 100.88 77.6878 100.12 76.4478 100.12C75.3278 100.12 74.4078 100.92 74.4078 102.04C74.4078 103.08 74.8478 103.56 78.0478 104.48C83.2478 106 84.3678 108.32 84.3678 111.16C84.3678 115.6 80.9678 118.92 76.6078 118.92C72.4478 118.92 68.6078 116.52 68.2878 111.2H73.7278C74.1678 113.24 75.1278 114.04 76.6478 114.04C78.0478 114.04 79.0478 113.08 79.0478 111.8C79.0478 110.24 77.8878 109.76 74.8478 108.76C70.4078 107.36 69.0878 104.88 69.0878 102.12C69.0878 98.2 72.5278 95.24 76.5278 95.24C80.2478 95.24 83.5678 97.9599 83.7678 102.04ZM109.225 109.48H91.985C92.385 111.44 94.825 114.04 98.105 114.04C100.305 114.04 102.145 113.16 103.225 111.2H108.825C107.385 115.68 102.825 118.92 98.105 118.92C91.425 118.92 86.385 113.72 86.385 107.16C86.385 100.6 91.305 95.24 98.065 95.24C104.505 95.24 109.545 100.32 109.545 106.8C109.545 107.64 109.425 108.52 109.225 109.48ZM91.825 105.2H104.105C103.585 102 101.385 100.12 98.065 100.12C95.145 100.12 92.665 101.8 91.825 105.2ZM119.491 118.2H114.171V100.72H111.571V96H114.171V88.6H119.491V96H122.691V100.72H119.491V118.2ZM138.963 102.04H133.763C133.483 100.88 132.883 100.12 131.643 100.12C130.523 100.12 129.603 100.92 129.603 102.04C129.603 103.08 130.043 103.56 133.243 104.48C138.443 106 139.563 108.32 139.563 111.16C139.563 115.6 136.163 118.92 131.803 118.92C127.643 118.92 123.803 116.52 123.483 111.2H128.923C129.363 113.24 130.323 114.04 131.843 114.04C133.243 114.04 134.243 113.08 134.243 111.8C134.243 110.24 133.083 109.76 130.043 108.76C125.603 107.36 124.283 104.88 124.283 102.12C124.283 98.2 127.723 95.24 131.723 95.24C135.443 95.24 138.763 97.9599 138.963 102.04Z" fill="#066AFE"/>
</svg>
