<svg width="303" height="82" viewBox="0 0 303 82" fill="none" xmlns="http://www.w3.org/2000/svg">
<path d="M8.88 16.0402H8.08001V11.0002H8.92001C11.48 11.0002 12.72 9.72019 12.72 7.84019C12.72 6.12019 11.84 5.04019 10.08 5.04019C8.64001 5.04019 7.56001 6.16019 7.44001 7.76019H2.12C2.52001 2.64019 6.16001 0.000193119 10.08 0.000193119C14.36 0.000193119 18.04 3.64019 18.04 8.0002C18.04 10.2002 17.28 11.9602 15.48 13.2402C18.56 14.5602 20.16 17.3602 20.16 20.8802C20.16 26.5202 15.64 30.8002 10 30.8002C4.64001 30.8002 0.400005 26.8802 4.91738e-06 21.2802H5.32001C5.60001 23.8802 7.60001 25.7602 10.12 25.7602C12.68 25.7602 14.84 23.4802 14.84 20.9602C14.84 18.0802 12.76 16.0402 8.88 16.0402ZM30.9028 30.2002H23.7828V0.600195H30.8628C35.9028 0.600195 40.7828 1.72019 43.6628 5.00019C47.1028 8.88019 47.5428 13.4402 47.5428 15.1202C47.5428 19.6402 45.9828 23.2002 43.7028 25.6802C40.8228 28.8002 37.2228 30.2002 30.9028 30.2002ZM29.2628 25.0802H31.0228C34.9428 25.0802 37.7828 24.0402 39.5428 22.1602C41.4628 20.1202 42.0628 17.4402 42.0628 15.4802C42.0628 13.0402 41.1828 10.6402 39.4628 8.76019C37.6628 6.80019 34.9028 5.72019 30.8628 5.72019H29.2628V25.0802ZM77.8816 30.2002H63.3616V0.600195H68.8416V25.0802H77.8816V30.2002ZM85.5388 5.48019H80.2188V0.600195H85.5388V5.48019ZM85.5388 30.2002H80.2188V8.0002H85.5388V30.2002ZM94.4681 30.2002H89.5881V0.600195H94.9081V10.0002C96.6681 8.24019 99.2681 7.2402 101.828 7.2402C108.308 7.2402 112.988 12.8402 112.988 18.7602C112.988 25.0002 108.908 30.9202 101.948 30.9202C98.7481 30.9202 96.5881 29.9602 94.4681 27.5202V30.2002ZM101.268 26.0402C105.028 26.0402 107.668 23.0802 107.668 19.0402C107.668 15.1602 104.908 12.1202 101.148 12.1202C97.5481 12.1202 94.5881 15.1602 94.5881 18.8002C94.5881 22.8002 97.3081 26.0402 101.268 26.0402ZM121.954 30.2002H116.634V8.0002H121.514V9.96019H121.594C122.994 7.88019 124.154 7.2402 126.674 7.2402H126.794V12.4002C123.594 12.5202 121.954 14.2402 121.954 17.5602V30.2002ZM150.353 30.2002H145.473V27.4402C143.713 29.5202 140.433 30.9202 137.673 30.9202C131.433 30.9202 126.913 25.6802 126.913 18.9602C126.913 12.5202 131.593 7.2402 138.033 7.2402C141.153 7.2402 144.233 9.0802 145.393 10.8002H145.473V8.0002H150.353V30.2002ZM138.833 26.0402C142.713 26.0402 145.313 22.8402 145.313 19.0402C145.313 15.1602 142.633 12.1202 138.793 12.1202C135.073 12.1202 132.233 15.2402 132.233 19.2002C132.233 22.9202 135.073 26.0402 138.833 26.0402ZM160.079 30.2002H154.759V8.0002H159.639V9.96019H159.719C161.119 7.88019 162.279 7.2402 164.799 7.2402H164.919V12.4002C161.719 12.5202 160.079 14.2402 160.079 17.5602V30.2002ZM175.913 37.6002H170.193L174.273 28.1602L166.153 8.0002H172.233L177.273 22.2402L182.633 8.0002H188.673L175.913 37.6002Z" fill="#001E5B"/>
<path d="M7.24001 74.2002H1.76001V44.6002H7.24001V74.2002ZM31.9709 74.2002H26.6509V63.0402C26.6509 58.5202 25.1709 56.1202 22.1709 56.1202C20.5309 56.1202 17.5709 57.2002 17.5709 62.0802V74.2002H12.2509V52.0002H17.1709V53.9202C18.9309 52.2002 20.7309 51.2402 23.2909 51.2402C26.1709 51.2402 31.9709 53.0402 31.9709 61.0802V74.2002ZM58.7953 74.2002H53.9153V71.4802H53.8353C52.3953 73.7202 49.6753 74.9202 46.7553 74.9202C40.5553 74.9202 35.4353 69.7202 35.4353 63.1202C35.4353 56.0802 40.9953 51.2402 46.8753 51.2402C49.5553 51.2402 51.5153 52.0002 53.4753 53.9602V44.6002H58.7953V74.2002ZM47.3153 70.0402C50.9153 70.0402 53.8753 66.8802 53.8753 63.0802C53.8753 59.4002 51.0353 56.1202 47.2753 56.1202C43.9153 56.1202 40.7553 59.2402 40.7553 62.9202C40.7553 66.8402 43.6353 70.0402 47.3153 70.0402ZM82.2416 74.2002H77.3616V71.9602H77.2816C75.8016 74.0002 73.9216 74.9202 71.8816 74.9202C66.5616 74.9202 62.4816 72.1202 62.4816 65.0402V52.0002H67.8016V63.4802C67.8016 67.8002 69.2416 70.0402 72.4416 70.0402C75.5216 70.0402 76.9216 67.4002 76.9216 63.5202V52.0002H82.2416V74.2002ZM100.706 58.0402H95.5059C95.2259 56.8802 94.6259 56.1202 93.3859 56.1202C92.2659 56.1202 91.3459 56.9202 91.3459 58.0402C91.3459 59.0802 91.7859 59.5602 94.9859 60.4802C100.186 62.0002 101.306 64.3202 101.306 67.1602C101.306 71.6002 97.9059 74.9202 93.5459 74.9202C89.3859 74.9202 85.5459 72.5202 85.2259 67.2002H90.6659C91.1059 69.2402 92.0659 70.0402 93.5859 70.0402C94.9859 70.0402 95.9859 69.0802 95.9859 67.8002C95.9859 66.2402 94.8259 65.7602 91.7859 64.7602C87.3459 63.3602 86.0259 60.8802 86.0259 58.1202C86.0259 54.2002 89.4659 51.2402 93.4659 51.2402C97.1859 51.2402 100.506 53.9602 100.706 58.0402ZM110.843 74.2002H105.523V56.7202H102.923V52.0002H105.523V44.6002H110.843V52.0002H114.043V56.7202H110.843V74.2002ZM121.915 74.2002H116.595V52.0002H121.475V53.9602H121.555C122.955 51.8802 124.115 51.2402 126.635 51.2402H126.755V56.4002C123.555 56.5202 121.915 58.2402 121.915 61.5602V74.2002ZM137.749 81.6002H132.029L136.109 72.1602L127.989 52.0002H134.069L139.109 66.2402L144.469 52.0002H150.509L137.749 81.6002ZM178.323 58.0402H173.123C172.843 56.8802 172.243 56.1202 171.003 56.1202C169.883 56.1202 168.963 56.9202 168.963 58.0402C168.963 59.0802 169.403 59.5602 172.603 60.4802C177.803 62.0002 178.923 64.3202 178.923 67.1602C178.923 71.6002 175.523 74.9202 171.163 74.9202C167.003 74.9202 163.163 72.5202 162.843 67.2002H168.283C168.723 69.2402 169.683 70.0402 171.203 70.0402C172.603 70.0402 173.603 69.0802 173.603 67.8002C173.603 66.2402 172.443 65.7602 169.403 64.7602C164.963 63.3602 163.643 60.8802 163.643 58.1202C163.643 54.2002 167.083 51.2402 171.083 51.2402C174.803 51.2402 178.123 53.9602 178.323 58.0402ZM201.46 74.2002H196.58V71.9602H196.5C195.02 74.0002 193.14 74.9202 191.1 74.9202C185.78 74.9202 181.7 72.1202 181.7 65.0402V52.0002H187.02V63.4802C187.02 67.8002 188.46 70.0402 191.66 70.0402C194.74 70.0402 196.14 67.4002 196.14 63.5202V52.0002H201.46V74.2002ZM210.445 74.2002H205.565V44.6002H210.885V54.0002C212.645 52.2402 215.245 51.2402 217.805 51.2402C224.285 51.2402 228.965 56.8402 228.965 62.7602C228.965 69.0002 224.885 74.9202 217.925 74.9202C214.725 74.9202 212.565 73.9602 210.445 71.5202V74.2002ZM217.245 70.0402C221.005 70.0402 223.645 67.0802 223.645 63.0402C223.645 59.1602 220.885 56.1202 217.125 56.1202C213.525 56.1202 210.565 59.1602 210.565 62.8002C210.565 66.8002 213.285 70.0402 217.245 70.0402ZM246.331 58.0402H241.131C240.851 56.8802 240.251 56.1202 239.011 56.1202C237.891 56.1202 236.971 56.9202 236.971 58.0402C236.971 59.0802 237.411 59.5602 240.611 60.4802C245.811 62.0002 246.931 64.3202 246.931 67.1602C246.931 71.6002 243.531 74.9202 239.171 74.9202C235.011 74.9202 231.171 72.5202 230.851 67.2002H236.291C236.731 69.2402 237.691 70.0402 239.211 70.0402C240.611 70.0402 241.611 69.0802 241.611 67.8002C241.611 66.2402 240.451 65.7602 237.411 64.7602C232.971 63.3602 231.651 60.8802 231.651 58.1202C231.651 54.2002 235.091 51.2402 239.091 51.2402C242.811 51.2402 246.131 53.9602 246.331 58.0402ZM271.788 65.4802H254.548C254.948 67.4402 257.388 70.0402 260.668 70.0402C262.868 70.0402 264.708 69.1602 265.788 67.2002H271.388C269.948 71.6802 265.388 74.9202 260.668 74.9202C253.988 74.9202 248.948 69.7202 248.948 63.1602C248.948 56.6002 253.868 51.2402 260.628 51.2402C267.068 51.2402 272.108 56.3202 272.108 62.8002C272.108 63.6402 271.988 64.5202 271.788 65.4802ZM254.388 61.2002H266.668C266.148 58.0002 263.948 56.1202 260.628 56.1202C257.708 56.1202 255.228 57.8002 254.388 61.2002ZM282.054 74.2002H276.734V56.7202H274.134V52.0002H276.734V44.6002H282.054V52.0002H285.254V56.7202H282.054V74.2002ZM301.526 58.0402H296.326C296.046 56.8802 295.446 56.1202 294.206 56.1202C293.086 56.1202 292.166 56.9202 292.166 58.0402C292.166 59.0802 292.606 59.5602 295.806 60.4802C301.006 62.0002 302.126 64.3202 302.126 67.1602C302.126 71.6002 298.726 74.9202 294.366 74.9202C290.206 74.9202 286.366 72.5202 286.046 67.2002H291.486C291.926 69.2402 292.886 70.0402 294.406 70.0402C295.806 70.0402 296.806 69.0802 296.806 67.8002C296.806 66.2402 295.646 65.7602 292.606 64.7602C288.166 63.3602 286.846 60.8802 286.846 58.1202C286.846 54.2002 290.286 51.2402 294.286 51.2402C298.006 51.2402 301.326 53.9602 301.526 58.0402Z" fill="#066AFE"/>
</svg>
