<svg width="160" height="27" viewBox="0 0 160 27" fill="none" xmlns="http://www.w3.org/2000/svg">
<rect width="111.211" height="26.2113" rx="6.08451" fill="#EAF5FE"/>
<path d="M11.788 18.6057H8.6438V7.63078H11.2392C12.7075 7.63078 13.6567 7.9274 14.2499 8.53547C14.8283 9.12871 15.1249 9.79611 15.1249 10.5377C15.1249 11.472 14.7245 12.1542 13.894 12.614C15.1843 13.0886 15.7775 13.9636 15.7775 15.3429C15.7775 16.9446 14.7097 18.6057 11.788 18.6057ZM10.6756 11.9021H11.3875C12.5592 11.9021 13.0931 11.472 13.0931 10.7156C13.0931 9.95925 12.4999 9.52915 11.5655 9.52915H10.6756V11.9021ZM10.6756 16.7073H11.7435C12.9893 16.7073 13.7457 16.2476 13.7457 15.2539C13.7457 14.3196 12.9151 13.8005 11.788 13.8005H10.6756V16.7073ZM23.0162 18.6057H17.1135V7.63078H23.0162V9.52915H19.1453V12.2136H22.853V14.1119H19.1453V16.7073H23.0162V18.6057ZM29.965 18.6057H28.3039L24.0326 7.63078H26.1682L29.1048 15.9806H29.1344L32.0858 7.63078H34.2215L29.965 18.6057ZM45.8471 13.1479C45.8471 16.2624 43.2962 18.8282 40.1075 18.8282C37.0968 18.8282 34.3679 16.4256 34.3679 13.1479C34.3679 10.1076 36.7705 7.40832 40.1075 7.40832C43.311 7.40832 45.8471 9.98891 45.8471 13.1479ZM40.1075 16.9298C42.2283 16.9298 43.8153 15.1501 43.8153 13.1331C43.8153 11.0864 42.2135 9.30668 40.0927 9.30668C38.0608 9.30668 36.3998 11.0567 36.3998 13.1331C36.3998 15.1649 38.0163 16.9298 40.1075 16.9298ZM53.5906 18.6057H51.5588V7.63078H54.8957C57.3429 7.63078 58.5738 9.08422 58.5738 11.0271C58.5738 13.0441 57.2984 14.4234 54.9106 14.4234H53.5906V18.6057ZM53.5906 12.525H54.3025C56.186 12.525 56.542 11.828 56.542 11.0271C56.542 10.1669 56.1564 9.52915 54.3173 9.52915H53.5906V12.525ZM70.7585 13.1479C70.7585 16.2624 68.2076 18.8282 65.0189 18.8282C62.0082 18.8282 59.2793 16.4256 59.2793 13.1479C59.2793 10.1076 61.682 7.40832 65.0189 7.40832C68.2224 7.40832 70.7585 9.98891 70.7585 13.1479ZM65.0189 16.9298C67.1398 16.9298 68.7267 15.1501 68.7267 13.1331C68.7267 11.0864 67.1249 9.30668 65.0041 9.30668C62.9723 9.30668 61.3112 11.0567 61.3112 13.1331C61.3112 15.1649 62.9278 16.9298 65.0189 16.9298ZM79.6251 18.6057H77.1632L74.2563 14.4085H74.2267V18.6057H72.1948V7.63078H75.9174C78.0827 7.63078 79.5213 9.17321 79.5213 11.0567C79.5213 12.0801 78.9874 14.1119 76.6441 14.5569L79.6251 18.6057ZM74.2267 12.881H75.5763C76.7183 12.881 77.4895 12.2729 77.4895 11.1902C77.4895 10.1224 76.6293 9.52915 75.5763 9.52915H74.2267V12.881ZM84.2332 18.6057H82.2013V9.52915H80.1695V7.63078H86.2798V9.52915H84.2332V18.6057ZM96.1218 18.6057H93.8823L92.7107 15.773H88.7805L87.6088 18.6057H85.3694L89.9373 7.63078H91.5242L96.1218 18.6057ZM91.984 13.8598L90.7382 10.4932H90.7085L89.4627 13.8598H91.984ZM102.695 18.6057H97.3118V7.63078H99.3436V16.7073H102.695V18.6057Z" fill="#066AFE"/>
<rect x="117.211" width="42.2113" height="26.2113" rx="6.08451" fill="#F9F0FF"/>
<path d="M134.843 18.6057H132.499L129.859 14.809L127.294 18.6057H124.876L128.658 13.1331L124.876 7.63078H127.294L129.859 11.4572L132.499 7.63078H134.843L131.046 13.1331L134.843 18.6057ZM140.503 18.6057H138.472V14.5569L134.868 7.63078H137.092L139.48 12.6733L141.883 7.63078H144.122L140.503 14.5569V18.6057ZM151.228 18.6057H144.376V16.9446L148.573 9.52915H144.599V7.63078H150.946V9.39567L146.779 16.7073H151.228V18.6057Z" fill="#D17DFE"/>
</svg>
