<svg width="160" height="27" viewBox="0 0 160 27" fill="none" xmlns="http://www.w3.org/2000/svg">
<rect width="111.211" height="26.2113" rx="6.08451" fill="#EAF5FE"/>
<path d="M11.788 18.6055H8.6438V7.63054H11.2392C12.7075 7.63054 13.6567 7.92716 14.2499 8.53523C14.8283 9.12847 15.1249 9.79586 15.1249 10.5374C15.1249 11.4718 14.7245 12.154 13.894 12.6138C15.1843 13.0883 15.7775 13.9634 15.7775 15.3427C15.7775 16.9444 14.7097 18.6055 11.788 18.6055ZM10.6756 11.9019H11.3875C12.5592 11.9019 13.0931 11.4718 13.0931 10.7154C13.0931 9.959 12.4999 9.5289 11.5655 9.5289H10.6756V11.9019ZM10.6756 16.7071H11.7435C12.9893 16.7071 13.7457 16.2473 13.7457 15.2537C13.7457 14.3193 12.9151 13.8002 11.788 13.8002H10.6756V16.7071ZM23.0162 18.6055H17.1135V7.63054H23.0162V9.5289H19.1453V12.2133H22.853V14.1117H19.1453V16.7071H23.0162V18.6055ZM29.965 18.6055H28.3039L24.0326 7.63054H26.1682L29.1048 15.9804H29.1344L32.0858 7.63054H34.2215L29.965 18.6055ZM45.8471 13.1477C45.8471 16.2622 43.2962 18.8279 40.1075 18.8279C37.0968 18.8279 34.3679 16.4253 34.3679 13.1477C34.3679 10.1073 36.7705 7.40807 40.1075 7.40807C43.311 7.40807 45.8471 9.98867 45.8471 13.1477ZM40.1075 16.9296C42.2283 16.9296 43.8153 15.1498 43.8153 13.1328C43.8153 11.0862 42.2135 9.30644 40.0927 9.30644C38.0608 9.30644 36.3998 11.0565 36.3998 13.1328C36.3998 15.1647 38.0163 16.9296 40.1075 16.9296ZM53.5906 18.6055H51.5588V7.63054H54.8957C57.3429 7.63054 58.5738 9.08398 58.5738 11.0268C58.5738 13.0438 57.2984 14.4231 54.9106 14.4231H53.5906V18.6055ZM53.5906 12.5248H54.3025C56.186 12.5248 56.542 11.8277 56.542 11.0268C56.542 10.1666 56.1564 9.5289 54.3173 9.5289H53.5906V12.5248ZM70.7585 13.1477C70.7585 16.2622 68.2076 18.8279 65.0189 18.8279C62.0082 18.8279 59.2793 16.4253 59.2793 13.1477C59.2793 10.1073 61.682 7.40807 65.0189 7.40807C68.2224 7.40807 70.7585 9.98867 70.7585 13.1477ZM65.0189 16.9296C67.1398 16.9296 68.7267 15.1498 68.7267 13.1328C68.7267 11.0862 67.1249 9.30644 65.0041 9.30644C62.9723 9.30644 61.3112 11.0565 61.3112 13.1328C61.3112 15.1647 62.9278 16.9296 65.0189 16.9296ZM79.6251 18.6055H77.1632L74.2563 14.4083H74.2267V18.6055H72.1948V7.63054H75.9174C78.0827 7.63054 79.5213 9.17296 79.5213 11.0565C79.5213 12.0798 78.9874 14.1117 76.6441 14.5566L79.6251 18.6055ZM74.2267 12.8807H75.5763C76.7183 12.8807 77.4895 12.2726 77.4895 11.19C77.4895 10.1221 76.6293 9.5289 75.5763 9.5289H74.2267V12.8807ZM84.2332 18.6055H82.2013V9.5289H80.1695V7.63054H86.2798V9.5289H84.2332V18.6055ZM96.1218 18.6055H93.8823L92.7107 15.7728H88.7805L87.6088 18.6055H85.3694L89.9373 7.63054H91.5242L96.1218 18.6055ZM91.984 13.8596L90.7382 10.4929H90.7085L89.4627 13.8596H91.984ZM102.695 18.6055H97.3118V7.63054H99.3436V16.7071H102.695V18.6055Z" fill="#066AFE"/>
<rect x="117.211" width="42.2113" height="26.2113" rx="6.08451" fill="#F9F0FF"/>
<path d="M134.843 18.6055H132.499L129.859 14.8087L127.294 18.6055H124.876L128.658 13.1328L124.876 7.63054H127.294L129.859 11.4569L132.499 7.63054H134.843L131.046 13.1328L134.843 18.6055ZM140.503 18.6055H138.472V14.5566L134.868 7.63054H137.092L139.48 12.6731L141.883 7.63054H144.122L140.503 14.5566V18.6055ZM151.228 18.6055H144.376V16.9444L148.573 9.5289H144.599V7.63054H150.946V9.39543L146.779 16.7071H151.228V18.6055Z" fill="#D17DFE"/>
</svg>
