<svg width="112" height="27" viewBox="0 0 112 27" fill="none" xmlns="http://www.w3.org/2000/svg">
<rect width="111.211" height="26.2113" rx="6.08451" fill="#EAF5FE"/>
<path d="M11.788 18.6057H8.6438V7.63072H11.2392C12.7075 7.63072 13.6567 7.92734 14.2499 8.53541C14.8283 9.12865 15.1249 9.79605 15.1249 10.5376C15.1249 11.4719 14.7245 12.1542 13.894 12.6139C15.1843 13.0885 15.7775 13.9636 15.7775 15.3428C15.7775 16.9446 14.7097 18.6057 11.788 18.6057ZM10.6756 11.902H11.3875C12.5592 11.902 13.0931 11.4719 13.0931 10.7156C13.0931 9.95919 12.4999 9.52909 11.5655 9.52909H10.6756V11.902ZM10.6756 16.7073H11.7435C12.9893 16.7073 13.7457 16.2475 13.7457 15.2538C13.7457 14.3195 12.9151 13.8004 11.788 13.8004H10.6756V16.7073ZM23.0162 18.6057H17.1135V7.63072H23.0162V9.52909H19.1453V12.2135H22.853V14.1119H19.1453V16.7073H23.0162V18.6057ZM29.965 18.6057H28.3039L24.0326 7.63072H26.1682L29.1048 15.9806H29.1344L32.0858 7.63072H34.2215L29.965 18.6057ZM45.8471 13.1478C45.8471 16.2624 43.2962 18.8281 40.1075 18.8281C37.0968 18.8281 34.3679 16.4255 34.3679 13.1478C34.3679 10.1075 36.7705 7.40826 40.1075 7.40826C43.311 7.40826 45.8471 9.98885 45.8471 13.1478ZM40.1075 16.9298C42.2283 16.9298 43.8153 15.15 43.8153 13.133C43.8153 11.0863 42.2135 9.30662 40.0927 9.30662C38.0608 9.30662 36.3998 11.0567 36.3998 13.133C36.3998 15.1649 38.0163 16.9298 40.1075 16.9298ZM53.5906 18.6057H51.5588V7.63072H54.8957C57.3429 7.63072 58.5738 9.08416 58.5738 11.027C58.5738 13.044 57.2984 14.4233 54.9106 14.4233H53.5906V18.6057ZM53.5906 12.5249H54.3025C56.186 12.5249 56.542 11.8279 56.542 11.027C56.542 10.1668 56.1564 9.52909 54.3173 9.52909H53.5906V12.5249ZM70.7585 13.1478C70.7585 16.2624 68.2076 18.8281 65.0189 18.8281C62.0082 18.8281 59.2793 16.4255 59.2793 13.1478C59.2793 10.1075 61.682 7.40826 65.0189 7.40826C68.2224 7.40826 70.7585 9.98885 70.7585 13.1478ZM65.0189 16.9298C67.1398 16.9298 68.7267 15.15 68.7267 13.133C68.7267 11.0863 67.1249 9.30662 65.0041 9.30662C62.9723 9.30662 61.3112 11.0567 61.3112 13.133C61.3112 15.1649 62.9278 16.9298 65.0189 16.9298ZM79.6251 18.6057H77.1632L74.2563 14.4085H74.2267V18.6057H72.1948V7.63072H75.9174C78.0827 7.63072 79.5213 9.17314 79.5213 11.0567C79.5213 12.08 78.9874 14.1119 76.6441 14.5568L79.6251 18.6057ZM74.2267 12.8809H75.5763C76.7183 12.8809 77.4895 12.2728 77.4895 11.1902C77.4895 10.1223 76.6293 9.52909 75.5763 9.52909H74.2267V12.8809ZM84.2332 18.6057H82.2013V9.52909H80.1695V7.63072H86.2798V9.52909H84.2332V18.6057ZM96.1218 18.6057H93.8823L92.7107 15.7729H88.7805L87.6088 18.6057H85.3694L89.9373 7.63072H91.5242L96.1218 18.6057ZM91.984 13.8597L90.7382 10.4931H90.7085L89.4627 13.8597H91.984ZM102.695 18.6057H97.3118V7.63072H99.3436V16.7073H102.695V18.6057Z" fill="#066AFE"/>
</svg>
