<svg width="160" height="27" viewBox="0 0 160 27" fill="none" xmlns="http://www.w3.org/2000/svg">
<rect width="111.211" height="26.2113" rx="6.08451" fill="#EAF5FE"/>
<path d="M11.7879 18.6056H8.64376V7.63066H11.2392C12.7075 7.63066 13.6566 7.92728 14.2499 8.53535C14.8283 9.12859 15.1249 9.79598 15.1249 10.5375C15.1249 11.4719 14.7245 12.1541 13.8939 12.6139C15.1842 13.0885 15.7775 13.9635 15.7775 15.3428C15.7775 16.9445 14.7096 18.6056 11.7879 18.6056ZM10.6756 11.902H11.3875C12.5591 11.902 13.0931 11.4719 13.0931 10.7155C13.0931 9.95913 12.4998 9.52903 11.5655 9.52903H10.6756V11.902ZM10.6756 16.7072H11.7434C12.9892 16.7072 13.7456 16.2475 13.7456 15.2538C13.7456 14.3194 12.9151 13.8004 11.7879 13.8004H10.6756V16.7072ZM23.0161 18.6056H17.1134V7.63066H23.0161V9.52903H19.1453V12.2134H22.853V14.1118H19.1453V16.7072H23.0161V18.6056ZM29.9649 18.6056H28.3039L24.0325 7.63066H26.1682L29.1047 15.9805H29.1344L32.0858 7.63066H34.2214L29.9649 18.6056ZM45.8471 13.1478C45.8471 16.2623 43.2961 18.8281 40.1075 18.8281C37.0968 18.8281 34.3679 16.4254 34.3679 13.1478C34.3679 10.1074 36.7705 7.4082 40.1075 7.4082C43.311 7.4082 45.8471 9.98879 45.8471 13.1478ZM40.1075 16.9297C42.2283 16.9297 43.8152 15.15 43.8152 13.133C43.8152 11.0863 42.2135 9.30656 40.0926 9.30656C38.0608 9.30656 36.3997 11.0566 36.3997 13.133C36.3997 15.1648 38.0163 16.9297 40.1075 16.9297ZM53.5906 18.6056H51.5587V7.63066H54.8957C57.3428 7.63066 58.5738 9.0841 58.5738 11.027C58.5738 13.044 57.2983 14.4233 54.9105 14.4233H53.5906V18.6056ZM53.5906 12.5249H54.3025C56.186 12.5249 56.5419 11.8278 56.5419 11.027C56.5419 10.1668 56.1563 9.52903 54.3173 9.52903H53.5906V12.5249ZM70.7585 13.1478C70.7585 16.2623 68.2076 18.8281 65.0189 18.8281C62.0082 18.8281 59.2793 16.4254 59.2793 13.1478C59.2793 10.1074 61.6819 7.4082 65.0189 7.4082C68.2224 7.4082 70.7585 9.98879 70.7585 13.1478ZM65.0189 16.9297C67.1397 16.9297 68.7266 15.15 68.7266 13.133C68.7266 11.0863 67.1249 9.30656 65.0041 9.30656C62.9722 9.30656 61.3111 11.0566 61.3111 13.133C61.3111 15.1648 62.9277 16.9297 65.0189 16.9297ZM79.6251 18.6056H77.1632L74.2563 14.4084H74.2266V18.6056H72.1948V7.63066H75.9173C78.0827 7.63066 79.5213 9.17308 79.5213 11.0566C79.5213 12.08 78.9874 14.1118 76.6441 14.5567L79.6251 18.6056ZM74.2266 12.8808H75.5762C76.7182 12.8808 77.4894 12.2728 77.4894 11.1901C77.4894 10.1223 76.6292 9.52903 75.5762 9.52903H74.2266V12.8808ZM84.2331 18.6056H82.2013V9.52903H80.1694V7.63066H86.2798V9.52903H84.2331V18.6056ZM96.1218 18.6056H93.8823L92.7107 15.7729H88.7804L87.6088 18.6056H85.3693L89.9373 7.63066H91.5242L96.1218 18.6056ZM91.9839 13.8597L90.7381 10.493H90.7085L89.4627 13.8597H91.9839ZM102.695 18.6056H97.3117V7.63066H99.3436V16.7072H102.695V18.6056Z" fill="#066AFE"/>
<rect x="117.211" width="42.2113" height="26.2113" rx="6.08451" fill="#F9F0FF"/>
<path d="M134.843 18.6056H132.499L129.859 14.8089L127.294 18.6056H124.876L128.658 13.133L124.876 7.63066H127.294L129.859 11.4571L132.499 7.63066H134.843L131.046 13.133L134.843 18.6056ZM140.503 18.6056H138.472V14.5567L134.868 7.63066H137.092L139.48 12.6732L141.883 7.63066H144.122L140.503 14.5567V18.6056ZM151.228 18.6056H144.376V16.9445L148.573 9.52903H144.599V7.63066H150.946V9.39555L146.779 16.7072H151.228V18.6056Z" fill="#D17DFE"/>
</svg>
