<svg width="112" height="27" viewBox="0 0 112 27" fill="none" xmlns="http://www.w3.org/2000/svg">
<rect width="111.211" height="26.2113" rx="6.08451" fill="#EAF5FE"/>
<path d="M11.788 18.6056H8.64381V7.63066H11.2392C12.7075 7.63066 13.6567 7.92728 14.2499 8.53535C14.8283 9.12859 15.1249 9.79598 15.1249 10.5375C15.1249 11.4719 14.7245 12.1541 13.894 12.6139C15.1843 13.0885 15.7775 13.9635 15.7775 15.3428C15.7775 16.9445 14.7097 18.6056 11.788 18.6056ZM10.6757 11.902H11.3875C12.5592 11.902 13.0931 11.4719 13.0931 10.7155C13.0931 9.95913 12.4999 9.52903 11.5655 9.52903H10.6757V11.902ZM10.6757 16.7072H11.7435C12.9893 16.7072 13.7457 16.2475 13.7457 15.2538C13.7457 14.3194 12.9151 13.8004 11.788 13.8004H10.6757V16.7072ZM23.0162 18.6056H17.1135V7.63066H23.0162V9.52903H19.1453V12.2134H22.853V14.1118H19.1453V16.7072H23.0162V18.6056ZM29.965 18.6056H28.3039L24.0326 7.63066H26.1682L29.1048 15.9805H29.1344L32.0858 7.63066H34.2215L29.965 18.6056ZM45.8471 13.1478C45.8471 16.2623 43.2962 18.8281 40.1075 18.8281C37.0968 18.8281 34.3679 16.4254 34.3679 13.1478C34.3679 10.1074 36.7705 7.4082 40.1075 7.4082C43.311 7.4082 45.8471 9.98879 45.8471 13.1478ZM40.1075 16.9297C42.2283 16.9297 43.8153 15.15 43.8153 13.133C43.8153 11.0863 42.2135 9.30656 40.0927 9.30656C38.0608 9.30656 36.3998 11.0566 36.3998 13.133C36.3998 15.1648 38.0163 16.9297 40.1075 16.9297ZM53.5906 18.6056H51.5588V7.63066H54.8957C57.3429 7.63066 58.5738 9.0841 58.5738 11.027C58.5738 13.044 57.2984 14.4233 54.9106 14.4233H53.5906V18.6056ZM53.5906 12.5249H54.3025C56.186 12.5249 56.542 11.8278 56.542 11.027C56.542 10.1668 56.1564 9.52903 54.3173 9.52903H53.5906V12.5249ZM70.7585 13.1478C70.7585 16.2623 68.2076 18.8281 65.0189 18.8281C62.0082 18.8281 59.2793 16.4254 59.2793 13.1478C59.2793 10.1074 61.682 7.4082 65.0189 7.4082C68.2224 7.4082 70.7585 9.98879 70.7585 13.1478ZM65.0189 16.9297C67.1398 16.9297 68.7267 15.15 68.7267 13.133C68.7267 11.0863 67.1249 9.30656 65.0041 9.30656C62.9723 9.30656 61.3112 11.0566 61.3112 13.133C61.3112 15.1648 62.9278 16.9297 65.0189 16.9297ZM79.6251 18.6056H77.1632L74.2563 14.4084H74.2267V18.6056H72.1948V7.63066H75.9174C78.0827 7.63066 79.5213 9.17308 79.5213 11.0566C79.5213 12.08 78.9874 14.1118 76.6441 14.5567L79.6251 18.6056ZM74.2267 12.8808H75.5763C76.7183 12.8808 77.4895 12.2728 77.4895 11.1901C77.4895 10.1223 76.6293 9.52903 75.5763 9.52903H74.2267V12.8808ZM84.2332 18.6056H82.2013V9.52903H80.1695V7.63066H86.2799V9.52903H84.2332V18.6056ZM96.1218 18.6056H93.8824L92.7107 15.7729H88.7805L87.6088 18.6056H85.3694L89.9373 7.63066H91.5242L96.1218 18.6056ZM91.984 13.8597L90.7382 10.493H90.7085L89.4627 13.8597H91.984ZM102.695 18.6056H97.3118V7.63066H99.3436V16.7072H102.695V18.6056Z" fill="#066AFE"/>
</svg>
