<svg width="167" height="23" viewBox="0 0 167 23" fill="none" xmlns="http://www.w3.org/2000/svg">
<path d="M21.75 22.2002H17.22L14.85 16.4702H6.89999L4.52999 22.2002H-6.70739e-06L9.23999 0.000195026H12.45L21.75 22.2002ZM13.38 12.6002L10.86 5.79019H10.8L8.27999 12.6002H13.38ZM38.317 22.2002H34.657V20.5202H34.597C33.487 22.0502 32.077 22.7402 30.547 22.7402C26.557 22.7402 23.497 20.6402 23.497 15.3302V5.5502H27.487V14.1602C27.487 17.4002 28.567 19.0802 30.967 19.0802C33.277 19.0802 34.327 17.1002 34.327 14.1902V5.5502H38.317V22.2002ZM46.5553 22.2002H42.5653V9.0902H40.6153V5.5502H42.5653V0.000195026H46.5553V5.5502H48.9553V9.0902H46.5553V22.2002ZM58.6094 22.7402C53.7194 22.7402 49.7294 18.6902 49.7294 13.8902C49.7294 9.0902 53.5994 4.9802 58.6094 4.9802C63.6494 4.9802 67.4294 9.03019 67.4294 13.8302C67.4294 18.8102 63.7094 22.7402 58.6094 22.7402ZM58.6094 19.0802C61.4294 19.0802 63.4394 16.6802 63.4394 13.9202C63.4394 11.1902 61.3994 8.64019 58.5794 8.64019C55.9094 8.64019 53.7194 11.1002 53.7194 13.8902C53.7194 16.6802 55.7594 19.0802 58.6094 19.0802ZM94.7789 22.2002H90.7889V12.8402C90.7889 10.2002 89.7689 8.64019 87.7589 8.64019C86.4089 8.64019 84.2789 9.27019 84.2789 13.0802V22.2002H80.2889V12.8402C80.2889 10.3502 79.1789 8.64019 76.9889 8.64019C74.8589 8.64019 73.7789 9.9902 73.7789 13.7102V22.2002H69.7889V5.5502H73.4489V6.96019H73.5089C74.3189 5.6702 75.9089 4.9802 77.8589 4.9802C79.8689 4.9802 81.5789 5.91019 82.6589 7.59019C84.0089 5.70019 85.7789 4.9802 88.0289 4.9802C91.5689 4.9802 94.7789 7.0802 94.7789 12.1802V22.2002ZM106.012 22.7402C101.122 22.7402 97.1318 18.6902 97.1318 13.8902C97.1318 9.0902 101.002 4.9802 106.012 4.9802C111.052 4.9802 114.832 9.03019 114.832 13.8302C114.832 18.8102 111.112 22.7402 106.012 22.7402ZM106.012 19.0802C108.832 19.0802 110.842 16.6802 110.842 13.9202C110.842 11.1902 108.802 8.64019 105.982 8.64019C103.312 8.64019 101.122 11.1002 101.122 13.8902C101.122 16.6802 103.162 19.0802 106.012 19.0802ZM122.141 22.2002H118.151V9.0902H116.201V5.5502H118.151V0.000195026H122.141V5.5502H124.541V9.0902H122.141V22.2002ZM130.145 3.66019H126.155V0.000195026H130.145V3.66019ZM130.145 22.2002H126.155V5.5502H130.145V22.2002ZM141.702 22.2002H138.582L131.862 5.5502H136.182L140.202 16.5902H140.292L144.072 5.5502H148.452L141.702 22.2002ZM166.62 15.6602H153.69C153.99 17.1302 155.82 19.0802 158.28 19.0802C159.93 19.0802 161.31 18.4202 162.12 16.9502H166.32C165.24 20.3102 161.82 22.7402 158.28 22.7402C153.27 22.7402 149.49 18.8402 149.49 13.9202C149.49 9.00019 153.18 4.9802 158.25 4.9802C163.08 4.9802 166.86 8.79019 166.86 13.6502C166.86 14.2802 166.77 14.9402 166.62 15.6602ZM153.57 12.4502H162.78C162.39 10.0502 160.74 8.64019 158.25 8.64019C156.06 8.64019 154.2 9.90019 153.57 12.4502Z" fill="#001E5B"/>
</svg>
