<svg width="164" height="24" viewBox="0 0 164 24" fill="none" xmlns="http://www.w3.org/2000/svg">
<path d="M17.07 16.47H21.84C20.13 20.46 15.9 23.1 11.58 23.1C5.4 23.1 -4.21703e-06 17.94 -4.21703e-06 11.46C-4.21703e-06 5.28002 5.16 2.2769e-05 11.49 2.2769e-05C15.9 2.2769e-05 20.13 2.55002 21.96 6.78002H17.28C15.69 4.95002 13.83 3.84002 11.34 3.84002C7.32 3.84002 4.11 7.59002 4.11 11.52C4.11 15.51 7.41 19.26 11.49 19.26C13.56 19.26 15.24 18.51 17.07 16.47ZM32.0182 23.19C27.1282 23.19 23.1382 19.14 23.1382 14.34C23.1382 9.54002 27.0082 5.43002 32.0182 5.43002C37.0582 5.43002 40.8382 9.48002 40.8382 14.28C40.8382 19.26 37.1182 23.19 32.0182 23.19ZM32.0182 19.53C34.8382 19.53 36.8482 17.13 36.8482 14.37C36.8482 11.64 34.8082 9.09002 31.9882 9.09002C29.3182 9.09002 27.1282 11.55 27.1282 14.34C27.1282 17.13 29.1682 19.53 32.0182 19.53ZM68.1877 22.65H64.1977V13.29C64.1977 10.65 63.1777 9.09002 61.1677 9.09002C59.8177 9.09002 57.6877 9.72002 57.6877 13.53V22.65H53.6977V13.29C53.6977 10.8 52.5877 9.09002 50.3977 9.09002C48.2677 9.09002 47.1877 10.44 47.1877 14.16V22.65H43.1977V6.00002H46.8577V7.41002H46.9177C47.7277 6.12002 49.3177 5.43002 51.2677 5.43002C53.2777 5.43002 54.9877 6.36002 56.0677 8.04002C57.4177 6.15002 59.1877 5.43002 61.4377 5.43002C64.9777 5.43002 68.1877 7.53002 68.1877 12.63V22.65ZM96.4005 22.65H92.4105V13.29C92.4105 10.65 91.3905 9.09002 89.3805 9.09002C88.0305 9.09002 85.9005 9.72002 85.9005 13.53V22.65H81.9105V13.29C81.9105 10.8 80.8005 9.09002 78.6105 9.09002C76.4805 9.09002 75.4005 10.44 75.4005 14.16V22.65H71.4105V6.00002H75.0705V7.41002H75.1305C75.9405 6.12002 77.5305 5.43002 79.4805 5.43002C81.4905 5.43002 83.2005 6.36002 84.2805 8.04002C85.6305 6.15002 87.4005 5.43002 89.6505 5.43002C93.1905 5.43002 96.4005 7.53002 96.4005 12.63V22.65ZM116.063 16.11H103.133C103.433 17.58 105.263 19.53 107.723 19.53C109.373 19.53 110.753 18.87 111.563 17.4H115.763C114.683 20.76 111.263 23.19 107.723 23.19C102.713 23.19 98.9334 19.29 98.9334 14.37C98.9334 9.45002 102.623 5.43002 107.693 5.43002C112.523 5.43002 116.303 9.24002 116.303 14.1C116.303 14.73 116.213 15.39 116.063 16.11ZM103.013 12.9H112.223C111.833 10.5 110.183 9.09002 107.693 9.09002C105.503 9.09002 103.643 10.35 103.013 12.9ZM123.073 22.65H119.083V6.00002H122.743V7.47002H122.803C123.853 5.91002 124.723 5.43002 126.613 5.43002H126.703V9.30002C124.303 9.39002 123.073 10.68 123.073 13.17V22.65ZM139.782 17.22H144.282C142.872 21.03 139.752 23.19 135.942 23.19C131.022 23.19 127.092 19.14 127.092 14.25C127.092 9.45002 131.022 5.43002 135.912 5.43002C139.662 5.43002 142.992 7.68002 144.282 11.52H139.782C138.912 9.96002 137.742 9.09002 135.912 9.09002C133.092 9.09002 131.082 11.34 131.082 14.31C131.082 17.28 133.242 19.53 136.092 19.53C137.742 19.53 138.942 18.57 139.782 17.22ZM163.231 16.11H150.301C150.601 17.58 152.431 19.53 154.891 19.53C156.541 19.53 157.921 18.87 158.731 17.4H162.931C161.851 20.76 158.431 23.19 154.891 23.19C149.881 23.19 146.101 19.29 146.101 14.37C146.101 9.45002 149.791 5.43002 154.861 5.43002C159.691 5.43002 163.471 9.24002 163.471 14.1C163.471 14.73 163.381 15.39 163.231 16.11ZM150.181 12.9H159.391C159.001 10.5 157.351 9.09002 154.861 9.09002C152.671 9.09002 150.811 10.35 150.181 12.9Z" fill="#001E5B"/>
</svg>
