<svg width="247" height="24" viewBox="0 0 247 24" fill="none" xmlns="http://www.w3.org/2000/svg">
<path d="M17.07 16.4699H21.84C20.13 20.4599 15.9 23.0999 11.58 23.0999C5.39998 23.0999 -1.94758e-05 17.9399 -1.94758e-05 11.4599C-1.94758e-05 5.2799 5.15998 -9.93013e-05 11.49 -9.93013e-05C15.9 -9.93013e-05 20.13 2.5499 21.96 6.7799H17.28C15.69 4.9499 13.83 3.8399 11.34 3.8399C7.31998 3.8399 4.10998 7.5899 4.10998 11.5199C4.10998 15.5099 7.40998 19.2599 11.49 19.2599C13.56 19.2599 15.24 18.5099 17.07 16.4699ZM32.0182 23.1899C27.1282 23.1899 23.1382 19.1399 23.1382 14.3399C23.1382 9.5399 27.0082 5.4299 32.0182 5.4299C37.0582 5.4299 40.8382 9.4799 40.8382 14.2799C40.8382 19.2599 37.1182 23.1899 32.0182 23.1899ZM32.0182 19.5299C34.8382 19.5299 36.8482 17.1299 36.8482 14.3699C36.8482 11.6399 34.8082 9.0899 31.9882 9.0899C29.3182 9.0899 27.1282 11.5499 27.1282 14.3399C27.1282 17.1299 29.1682 19.5299 32.0182 19.5299ZM68.1876 22.6499H64.1976V13.2899C64.1976 10.6499 63.1776 9.0899 61.1676 9.0899C59.8176 9.0899 57.6876 9.7199 57.6876 13.5299V22.6499H53.6976V13.2899C53.6976 10.7999 52.5876 9.0899 50.3976 9.0899C48.2676 9.0899 47.1876 10.4399 47.1876 14.1599V22.6499H43.1976V5.9999H46.8576V7.4099H46.9176C47.7276 6.1199 49.3176 5.4299 51.2676 5.4299C53.2776 5.4299 54.9876 6.3599 56.0676 8.0399C57.4176 6.1499 59.1876 5.4299 61.4376 5.4299C64.9776 5.4299 68.1876 7.5299 68.1876 12.6299V22.6499ZM96.4005 22.6499H92.4105V13.2899C92.4105 10.6499 91.3905 9.0899 89.3805 9.0899C88.0305 9.0899 85.9005 9.7199 85.9005 13.5299V22.6499H81.9105V13.2899C81.9105 10.7999 80.8005 9.0899 78.6105 9.0899C76.4805 9.0899 75.4005 10.4399 75.4005 14.1599V22.6499H71.4105V5.9999H75.0705V7.4099H75.1305C75.9405 6.1199 77.5305 5.4299 79.4805 5.4299C81.4905 5.4299 83.2005 6.3599 84.2805 8.0399C85.6305 6.1499 87.4005 5.4299 89.6505 5.4299C93.1905 5.4299 96.4005 7.5299 96.4005 12.6299V22.6499ZM114.323 22.6499H110.663V20.9699H110.603C109.493 22.4999 108.083 23.1899 106.553 23.1899C102.563 23.1899 99.5034 21.0899 99.5034 15.7799V5.9999H103.493V14.6099C103.493 17.8499 104.573 19.5299 106.973 19.5299C109.283 19.5299 110.333 17.5499 110.333 14.6399V5.9999H114.323V22.6499ZM132.402 22.6499H128.412V14.2799C128.412 10.8899 127.302 9.0899 125.052 9.0899C123.822 9.0899 121.602 9.8999 121.602 13.5599V22.6499H117.612V5.9999H121.302V7.4399C122.622 6.1499 123.972 5.4299 125.892 5.4299C128.052 5.4299 132.402 6.7799 132.402 12.8099V22.6499ZM139.56 4.1099H135.57V0.449902H139.56V4.1099ZM139.56 22.6499H135.57V5.9999H139.56V22.6499ZM154.987 17.2199H159.487C158.077 21.0299 154.957 23.1899 151.147 23.1899C146.227 23.1899 142.297 19.1399 142.297 14.2499C142.297 9.4499 146.227 5.4299 151.117 5.4299C154.867 5.4299 158.197 7.6799 159.487 11.5199H154.987C154.117 9.9599 152.947 9.0899 151.117 9.0899C148.297 9.0899 146.287 11.3399 146.287 14.3099C146.287 17.2799 148.447 19.5299 151.297 19.5299C152.947 19.5299 154.147 18.5699 154.987 17.2199ZM178.766 22.6499H175.106V20.5799C173.786 22.1399 171.326 23.1899 169.256 23.1899C164.576 23.1899 161.186 19.2599 161.186 14.2199C161.186 9.3899 164.696 5.4299 169.526 5.4299C171.866 5.4299 174.176 6.8099 175.046 8.0999H175.106V5.9999H178.766V22.6499ZM170.126 19.5299C173.036 19.5299 174.986 17.1299 174.986 14.2799C174.986 11.3699 172.976 9.0899 170.096 9.0899C167.306 9.0899 165.176 11.4299 165.176 14.3999C165.176 17.1899 167.306 19.5299 170.126 19.5299ZM186.751 22.6499H182.761V9.5399H180.811V5.9999H182.761V0.449902H186.751V5.9999H189.151V9.5399H186.751V22.6499ZM194.755 4.1099H190.765V0.449902H194.755V4.1099ZM194.755 22.6499H190.765V5.9999H194.755V22.6499ZM206.012 23.1899C201.122 23.1899 197.132 19.1399 197.132 14.3399C197.132 9.5399 201.002 5.4299 206.012 5.4299C211.052 5.4299 214.832 9.4799 214.832 14.2799C214.832 19.2599 211.112 23.1899 206.012 23.1899ZM206.012 19.5299C208.832 19.5299 210.842 17.1299 210.842 14.3699C210.842 11.6399 208.802 9.0899 205.982 9.0899C203.312 9.0899 201.122 11.5499 201.122 14.3399C201.122 17.1299 203.162 19.5299 206.012 19.5299ZM231.982 22.6499H227.992V14.2799C227.992 10.8899 226.882 9.0899 224.632 9.0899C223.402 9.0899 221.182 9.8999 221.182 13.5599V22.6499H217.192V5.9999H220.882V7.4399C222.202 6.1499 223.552 5.4299 225.472 5.4299C227.632 5.4299 231.982 6.7799 231.982 12.8099V22.6499ZM245.74 10.5299H241.84C241.63 9.6599 241.18 9.0899 240.25 9.0899C239.41 9.0899 238.72 9.6899 238.72 10.5299C238.72 11.3099 239.05 11.6699 241.45 12.3599C245.35 13.4999 246.19 15.2399 246.19 17.3699C246.19 20.6999 243.64 23.1899 240.37 23.1899C237.25 23.1899 234.37 21.3899 234.13 17.3999H238.21C238.54 18.9299 239.26 19.5299 240.4 19.5299C241.45 19.5299 242.2 18.8099 242.2 17.8499C242.2 16.6799 241.33 16.3199 239.05 15.5699C235.72 14.5199 234.73 12.6599 234.73 10.5899C234.73 7.6499 237.31 5.4299 240.31 5.4299C243.1 5.4299 245.59 7.4699 245.74 10.5299Z" fill="#001E5B"/>
</svg>
