<svg width="253" height="24" viewBox="0 0 253 24" fill="none" xmlns="http://www.w3.org/2000/svg">
<path d="M17.07 16.4699H21.84C20.13 20.4599 15.9 23.0999 11.58 23.0999C5.39998 23.0999 -1.94758e-05 17.9399 -1.94758e-05 11.4599C-1.94758e-05 5.2799 5.15998 -9.93013e-05 11.49 -9.93013e-05C15.9 -9.93013e-05 20.13 2.5499 21.96 6.7799H17.28C15.69 4.9499 13.83 3.8399 11.34 3.8399C7.31998 3.8399 4.10998 7.5899 4.10998 11.5199C4.10998 15.5099 7.40998 19.2599 11.49 19.2599C13.56 19.2599 15.24 18.5099 17.07 16.4699ZM32.0182 23.1899C27.1282 23.1899 23.1382 19.1399 23.1382 14.3399C23.1382 9.5399 27.0082 5.4299 32.0182 5.4299C37.0582 5.4299 40.8382 9.4799 40.8382 14.2799C40.8382 19.2599 37.1182 23.1899 32.0182 23.1899ZM32.0182 19.5299C34.8382 19.5299 36.8482 17.1299 36.8482 14.3699C36.8482 11.6399 34.8082 9.0899 31.9882 9.0899C29.3182 9.0899 27.1282 11.5499 27.1282 14.3399C27.1282 17.1299 29.1682 19.5299 32.0182 19.5299ZM57.9876 22.6499H53.9976V14.2799C53.9976 10.8899 52.8876 9.0899 50.6376 9.0899C49.4076 9.0899 47.1876 9.8999 47.1876 13.5599V22.6499H43.1976V5.9999H46.8876V7.4399C48.2076 6.1499 49.5576 5.4299 51.4776 5.4299C53.6376 5.4299 57.9876 6.7799 57.9876 12.8099V22.6499ZM71.7459 10.5299H67.8459C67.6359 9.6599 67.1859 9.0899 66.2559 9.0899C65.4159 9.0899 64.7259 9.6899 64.7259 10.5299C64.7259 11.3099 65.0559 11.6699 67.4559 12.3599C71.3559 13.4999 72.1959 15.2399 72.1959 17.3699C72.1959 20.6999 69.6459 23.1899 66.3759 23.1899C63.2559 23.1899 60.3759 21.3899 60.1359 17.3999H64.2159C64.5459 18.9299 65.2659 19.5299 66.4059 19.5299C67.4559 19.5299 68.2059 18.8099 68.2059 17.8499C68.2059 16.6799 67.3359 16.3199 65.0559 15.5699C61.7259 14.5199 60.7359 12.6599 60.7359 10.5899C60.7359 7.6499 63.3159 5.4299 66.3159 5.4299C69.1059 5.4299 71.5959 7.4699 71.7459 10.5299ZM89.0988 22.6499H85.4388V20.9699H85.3788C84.2688 22.4999 82.8588 23.1899 81.3288 23.1899C77.3388 23.1899 74.2788 21.0899 74.2788 15.7799V5.9999H78.2688V14.6099C78.2688 17.8499 79.3488 19.5299 81.7488 19.5299C84.0588 19.5299 85.1088 17.5499 85.1088 14.6399V5.9999H89.0988V22.6499ZM117.377 22.6499H113.387V13.2899C113.387 10.6499 112.367 9.0899 110.357 9.0899C109.007 9.0899 106.877 9.7199 106.877 13.5299V22.6499H102.887V13.2899C102.887 10.7999 101.777 9.0899 99.5871 9.0899C97.4571 9.0899 96.3771 10.4399 96.3771 14.1599V22.6499H92.3871V5.9999H96.0471V7.4099H96.1071C96.9171 6.1199 98.5071 5.4299 100.457 5.4299C102.467 5.4299 104.177 6.3599 105.257 8.0399C106.607 6.1499 108.377 5.4299 110.627 5.4299C114.167 5.4299 117.377 7.5299 117.377 12.6299V22.6499ZM137.04 16.1099H124.11C124.41 17.5799 126.24 19.5299 128.7 19.5299C130.35 19.5299 131.73 18.8699 132.54 17.3999H136.74C135.66 20.7599 132.24 23.1899 128.7 23.1899C123.69 23.1899 119.91 19.2899 119.91 14.3699C119.91 9.4499 123.6 5.4299 128.67 5.4299C133.5 5.4299 137.28 9.2399 137.28 14.0999C137.28 14.7299 137.19 15.3899 137.04 16.1099ZM123.99 12.8999H133.2C132.81 10.4999 131.16 9.0899 128.67 9.0899C126.48 9.0899 124.62 10.3499 123.99 12.8999ZM144.049 22.6499H140.059V5.9999H143.719V7.4699H143.779C144.829 5.9099 145.699 5.4299 147.589 5.4299H147.679V9.2999C145.279 9.3899 144.049 10.6799 144.049 13.1699V22.6499ZM180.697 11.3399V11.6999C180.697 14.6699 179.527 17.6099 177.157 19.8299C174.817 22.0199 171.847 23.0999 168.937 23.0999C162.757 23.0999 156.997 18.3599 156.997 11.5499C156.997 5.2199 162.367 -9.93013e-05 168.817 -9.93013e-05C173.077 -9.93013e-05 177.997 2.6099 179.587 6.9599H174.667C173.377 5.0099 171.037 3.8399 168.727 3.8399C164.437 3.8399 161.107 7.3499 161.107 11.5799C161.107 15.2399 163.927 19.2599 168.937 19.2599C171.697 19.2599 174.217 17.7299 175.507 15.1799H166.207V11.3399H180.697ZM191.012 23.1899C186.122 23.1899 182.132 19.1399 182.132 14.3399C182.132 9.5399 186.002 5.4299 191.012 5.4299C196.052 5.4299 199.832 9.4799 199.832 14.2799C199.832 19.2599 196.112 23.1899 191.012 23.1899ZM191.012 19.5299C193.832 19.5299 195.842 17.1299 195.842 14.3699C195.842 11.6399 193.802 9.0899 190.982 9.0899C188.312 9.0899 186.122 11.5499 186.122 14.3399C186.122 17.1299 188.162 19.5299 191.012 19.5299ZM210.202 23.1899C205.312 23.1899 201.322 19.1399 201.322 14.3399C201.322 9.5399 205.192 5.4299 210.202 5.4299C215.242 5.4299 219.022 9.4799 219.022 14.2799C219.022 19.2599 215.302 23.1899 210.202 23.1899ZM210.202 19.5299C213.022 19.5299 215.032 17.1299 215.032 14.3699C215.032 11.6399 212.992 9.0899 210.172 9.0899C207.502 9.0899 205.312 11.5499 205.312 14.3399C205.312 17.1299 207.352 19.5299 210.202 19.5299ZM238.301 22.6499H234.641V20.6099H234.581C233.501 22.2899 231.461 23.1899 229.271 23.1899C224.621 23.1899 220.781 19.2899 220.781 14.3399C220.781 9.0599 224.951 5.4299 229.361 5.4299C231.371 5.4299 232.841 5.9999 234.311 7.4699V0.449902H238.301V22.6499ZM229.691 19.5299C232.391 19.5299 234.611 17.1599 234.611 14.3099C234.611 11.5499 232.481 9.0899 229.661 9.0899C227.141 9.0899 224.771 11.4299 224.771 14.1899C224.771 17.1299 226.931 19.5299 229.691 19.5299ZM251.746 10.5299H247.846C247.636 9.6599 247.186 9.0899 246.256 9.0899C245.416 9.0899 244.726 9.6899 244.726 10.5299C244.726 11.3099 245.056 11.6699 247.456 12.3599C251.356 13.4999 252.196 15.2399 252.196 17.3699C252.196 20.6999 249.646 23.1899 246.376 23.1899C243.256 23.1899 240.376 21.3899 240.136 17.3999H244.216C244.546 18.9299 245.266 19.5299 246.406 19.5299C247.456 19.5299 248.206 18.8099 248.206 17.8499C248.206 16.6799 247.336 16.3199 245.056 15.5699C241.726 14.5199 240.736 12.6599 240.736 10.5899C240.736 7.6499 243.316 5.4299 246.316 5.4299C249.106 5.4299 251.596 7.4699 251.746 10.5299Z" fill="#001E5B"/>
</svg>
