<svg width="224" height="24" viewBox="0 0 224 24" fill="none" xmlns="http://www.w3.org/2000/svg">
<path d="M17.07 16.4699H21.84C20.13 20.4599 15.9 23.0999 11.58 23.0999C5.4 23.0999 -4.21703e-06 17.9399 -4.21703e-06 11.4599C-4.21703e-06 5.2799 5.16 -9.93013e-05 11.49 -9.93013e-05C15.9 -9.93013e-05 20.13 2.5499 21.96 6.7799H17.28C15.69 4.9499 13.83 3.8399 11.34 3.8399C7.32 3.8399 4.11 7.5899 4.11 11.5199C4.11 15.5099 7.41 19.2599 11.49 19.2599C13.56 19.2599 15.24 18.5099 17.07 16.4699ZM32.0182 23.1899C27.1282 23.1899 23.1382 19.1399 23.1382 14.3399C23.1382 9.5399 27.0082 5.4299 32.0182 5.4299C37.0582 5.4299 40.8382 9.4799 40.8382 14.2799C40.8382 19.2599 37.1182 23.1899 32.0182 23.1899ZM32.0182 19.5299C34.8382 19.5299 36.8482 17.1299 36.8482 14.3699C36.8482 11.6399 34.8082 9.0899 31.9882 9.0899C29.3182 9.0899 27.1282 11.5499 27.1282 14.3399C27.1282 17.1299 29.1682 19.5299 32.0182 19.5299ZM57.9877 22.6499H53.9977V14.2799C53.9977 10.8899 52.8877 9.0899 50.6377 9.0899C49.4077 9.0899 47.1877 9.8999 47.1877 13.5599V22.6499H43.1977V5.9999H46.8877V7.4399C48.2077 6.1499 49.5577 5.4299 51.4777 5.4299C53.6377 5.4299 57.9877 6.7799 57.9877 12.8099V22.6499ZM66.1359 22.6499H62.1459V9.5399H60.1959V5.9999H62.1459V0.449902H66.1359V5.9999H68.5359V9.5399H66.1359V22.6499ZM86.9501 22.6499H83.2901V20.5799C81.9701 22.1399 79.5101 23.1899 77.4401 23.1899C72.7601 23.1899 69.3701 19.2599 69.3701 14.2199C69.3701 9.3899 72.8801 5.4299 77.7101 5.4299C80.0501 5.4299 82.3601 6.8099 83.2301 8.0999H83.2901V5.9999H86.9501V22.6499ZM78.3101 19.5299C81.2201 19.5299 83.1701 17.1299 83.1701 14.2799C83.1701 11.3699 81.1601 9.0899 78.2801 9.0899C75.4901 9.0899 73.3601 11.4299 73.3601 14.3999C73.3601 17.1899 75.4901 19.5299 78.3101 19.5299ZM102.165 17.2199H106.665C105.255 21.0299 102.135 23.1899 98.3248 23.1899C93.4048 23.1899 89.4748 19.1399 89.4748 14.2499C89.4748 9.4499 93.4048 5.4299 98.2948 5.4299C102.045 5.4299 105.375 7.6799 106.665 11.5199H102.165C101.295 9.9599 100.125 9.0899 98.2948 9.0899C95.4748 9.0899 93.4648 11.3399 93.4648 14.3099C93.4648 17.2799 95.6248 19.5299 98.4748 19.5299C100.125 19.5299 101.325 18.5699 102.165 17.2199ZM114.124 22.6499H110.134V9.5399H108.184V5.9999H110.134V0.449902H114.124V5.9999H116.524V9.5399H114.124V22.6499ZM143.047 16.4699H147.817C146.107 20.4599 141.877 23.0999 137.557 23.0999C131.377 23.0999 125.977 17.9399 125.977 11.4599C125.977 5.2799 131.137 -9.93013e-05 137.467 -9.93013e-05C141.877 -9.93013e-05 146.107 2.5499 147.937 6.7799H143.257C141.667 4.9499 139.807 3.8399 137.317 3.8399C133.297 3.8399 130.087 7.5899 130.087 11.5199C130.087 15.5099 133.387 19.2599 137.467 19.2599C139.537 19.2599 141.217 18.5099 143.047 16.4699ZM166.425 16.1099H153.495C153.795 17.5799 155.625 19.5299 158.085 19.5299C159.735 19.5299 161.115 18.8699 161.925 17.3999H166.125C165.045 20.7599 161.625 23.1899 158.085 23.1899C153.075 23.1899 149.295 19.2899 149.295 14.3699C149.295 9.4499 152.985 5.4299 158.055 5.4299C162.885 5.4299 166.665 9.2399 166.665 14.0999C166.665 14.7299 166.575 15.3899 166.425 16.1099ZM153.375 12.8999H162.585C162.195 10.4999 160.545 9.0899 158.055 9.0899C155.865 9.0899 154.005 10.3499 153.375 12.8999ZM183.964 22.6499H179.974V14.2799C179.974 10.8899 178.864 9.0899 176.614 9.0899C175.384 9.0899 173.164 9.8999 173.164 13.5599V22.6499H169.174V5.9999H172.864V7.4399C174.184 6.1499 175.534 5.4299 177.454 5.4299C179.614 5.4299 183.964 6.7799 183.964 12.8099V22.6499ZM192.112 22.6499H188.122V9.5399H186.172V5.9999H188.122V0.449902H192.112V5.9999H194.512V9.5399H192.112V22.6499ZM212.597 16.1099H199.667C199.967 17.5799 201.797 19.5299 204.257 19.5299C205.907 19.5299 207.287 18.8699 208.097 17.3999H212.297C211.217 20.7599 207.797 23.1899 204.257 23.1899C199.247 23.1899 195.467 19.2899 195.467 14.3699C195.467 9.4499 199.157 5.4299 204.227 5.4299C209.057 5.4299 212.837 9.2399 212.837 14.0999C212.837 14.7299 212.747 15.3899 212.597 16.1099ZM199.547 12.8999H208.757C208.367 10.4999 206.717 9.0899 204.227 9.0899C202.037 9.0899 200.177 10.3499 199.547 12.8999ZM219.606 22.6499H215.616V5.9999H219.276V7.4699H219.336C220.386 5.9099 221.256 5.4299 223.146 5.4299H223.236V9.2999C220.836 9.3899 219.606 10.6799 219.606 13.1699V22.6499Z" fill="#032D60"/>
</svg>
