<svg width="265" height="24" viewBox="0 0 265 24" fill="none" xmlns="http://www.w3.org/2000/svg">
<path d="M17.07 16.47H21.84C20.13 20.46 15.9 23.1 11.58 23.1C5.39998 23.1 -1.94758e-05 17.94 -1.94758e-05 11.46C-1.94758e-05 5.28002 5.15998 2.2769e-05 11.49 2.2769e-05C15.9 2.2769e-05 20.13 2.55002 21.96 6.78002H17.28C15.69 4.95002 13.83 3.84002 11.34 3.84002C7.31998 3.84002 4.10998 7.59002 4.10998 11.52C4.10998 15.51 7.40998 19.26 11.49 19.26C13.56 19.26 15.24 18.51 17.07 16.47ZM38.7082 22.65H35.0482V20.97H34.9882C33.8782 22.5 32.4682 23.19 30.9382 23.19C26.9482 23.19 23.8882 21.09 23.8882 15.78V6.00002H27.8782V14.61C27.8782 17.85 28.9582 19.53 31.3582 19.53C33.6682 19.53 34.7182 17.55 34.7182 14.64V6.00002H38.7082V22.65ZM52.5565 10.53H48.6565C48.4465 9.66002 47.9965 9.09002 47.0665 9.09002C46.2265 9.09002 45.5365 9.69002 45.5365 10.53C45.5365 11.31 45.8665 11.67 48.2665 12.36C52.1665 13.5 53.0065 15.24 53.0065 17.37C53.0065 20.7 50.4565 23.19 47.1865 23.19C44.0665 23.19 41.1865 21.39 40.9465 17.4H45.0265C45.3565 18.93 46.0765 19.53 47.2165 19.53C48.2665 19.53 49.0165 18.81 49.0165 17.85C49.0165 16.68 48.1465 16.32 45.8665 15.57C42.5365 14.52 41.5465 12.66 41.5465 10.59C41.5465 7.65002 44.1265 5.43002 47.1265 5.43002C49.9165 5.43002 52.4065 7.47002 52.5565 10.53ZM60.1594 22.65H56.1694V9.54002H54.2194V6.00002H56.1694V0.450024H60.1594V6.00002H62.5594V9.54002H60.1594V22.65ZM72.2135 23.19C67.3235 23.19 63.3335 19.14 63.3335 14.34C63.3335 9.54002 67.2035 5.43002 72.2135 5.43002C77.2535 5.43002 81.0335 9.48002 81.0335 14.28C81.0335 19.26 77.3135 23.19 72.2135 23.19ZM72.2135 19.53C75.0335 19.53 77.0435 17.13 77.0435 14.37C77.0435 11.64 75.0035 9.09002 72.1835 9.09002C69.5135 9.09002 67.3235 11.55 67.3235 14.34C67.3235 17.13 69.3635 19.53 72.2135 19.53ZM108.383 22.65H104.393V13.29C104.393 10.65 103.373 9.09002 101.363 9.09002C100.013 9.09002 97.8829 9.72002 97.8829 13.53V22.65H93.8929V13.29C93.8929 10.8 92.7829 9.09002 90.5929 9.09002C88.4629 9.09002 87.3829 10.44 87.3829 14.16V22.65H83.3929V6.00002H87.0529V7.41002H87.1129C87.9229 6.12002 89.5129 5.43002 91.4629 5.43002C93.4729 5.43002 95.183 6.36002 96.2629 8.04002C97.6129 6.15002 99.3829 5.43002 101.633 5.43002C105.173 5.43002 108.383 7.53002 108.383 12.63V22.65ZM128.046 16.11H115.116C115.416 17.58 117.246 19.53 119.706 19.53C121.356 19.53 122.736 18.87 123.546 17.4H127.746C126.666 20.76 123.246 23.19 119.706 23.19C114.696 23.19 110.916 19.29 110.916 14.37C110.916 9.45002 114.606 5.43002 119.676 5.43002C124.506 5.43002 128.286 9.24002 128.286 14.1C128.286 14.73 128.196 15.39 128.046 16.11ZM114.996 12.9H124.206C123.816 10.5 122.166 9.09002 119.676 9.09002C117.486 9.09002 115.626 10.35 114.996 12.9ZM135.055 22.65H131.065V6.00002H134.725V7.47002H134.785C135.835 5.91002 136.705 5.43002 138.595 5.43002H138.685V9.30002C136.285 9.39002 135.055 10.68 135.055 13.17V22.65ZM161.443 6.33002H157.243V6.30002C157.123 4.86002 156.313 3.84002 154.753 3.84002C153.463 3.84002 152.473 4.77002 152.473 6.09002C152.473 7.53002 153.433 8.37002 155.323 8.91002C160.003 10.29 161.983 12.39 161.983 16.02C161.983 20.37 158.833 23.1 154.783 23.1C150.913 23.1 147.793 20.31 147.553 16.29H151.873C152.083 18.12 153.163 19.26 154.813 19.26C156.493 19.26 157.873 18.03 157.873 16.44C157.873 14.82 156.793 13.86 155.023 13.23C151.513 11.97 148.363 10.98 148.363 6.33002C148.363 2.55002 151.363 2.2769e-05 154.873 2.2769e-05C158.293 2.2769e-05 161.233 2.58002 161.443 6.33002ZM179.099 22.65H175.439V20.97H175.379C174.269 22.5 172.859 23.19 171.329 23.19C167.339 23.19 164.279 21.09 164.279 15.78V6.00002H168.269V14.61C168.269 17.85 169.349 19.53 171.749 19.53C174.059 19.53 175.109 17.55 175.109 14.64V6.00002H179.099V22.65ZM194.567 17.22H199.067C197.657 21.03 194.537 23.19 190.727 23.19C185.807 23.19 181.877 19.14 181.877 14.25C181.877 9.45002 185.807 5.43002 190.697 5.43002C194.447 5.43002 197.777 7.68002 199.067 11.52H194.567C193.697 9.96002 192.527 9.09002 190.697 9.09002C187.877 9.09002 185.867 11.34 185.867 14.31C185.867 17.28 188.027 19.53 190.877 19.53C192.527 19.53 193.727 18.57 194.567 17.22ZM213.757 17.22H218.257C216.847 21.03 213.727 23.19 209.917 23.19C204.997 23.19 201.067 19.14 201.067 14.25C201.067 9.45002 204.997 5.43002 209.887 5.43002C213.637 5.43002 216.967 7.68002 218.257 11.52H213.757C212.887 9.96002 211.717 9.09002 209.887 9.09002C207.067 9.09002 205.057 11.34 205.057 14.31C205.057 17.28 207.217 19.53 210.067 19.53C211.717 19.53 212.917 18.57 213.757 17.22ZM237.206 16.11H224.276C224.576 17.58 226.406 19.53 228.866 19.53C230.516 19.53 231.896 18.87 232.706 17.4H236.906C235.826 20.76 232.406 23.19 228.866 23.19C223.856 23.19 220.076 19.29 220.076 14.37C220.076 9.45002 223.766 5.43002 228.836 5.43002C233.666 5.43002 237.446 9.24002 237.446 14.1C237.446 14.73 237.356 15.39 237.206 16.11ZM224.156 12.9H233.366C232.976 10.5 231.326 9.09002 228.836 9.09002C226.646 9.09002 224.786 10.35 224.156 12.9ZM250.515 10.53H246.615C246.405 9.66002 245.955 9.09002 245.025 9.09002C244.185 9.09002 243.495 9.69002 243.495 10.53C243.495 11.31 243.825 11.67 246.225 12.36C250.125 13.5 250.965 15.24 250.965 17.37C250.965 20.7 248.415 23.19 245.145 23.19C242.025 23.19 239.145 21.39 238.905 17.4H242.985C243.315 18.93 244.035 19.53 245.175 19.53C246.225 19.53 246.975 18.81 246.975 17.85C246.975 16.68 246.105 16.32 243.825 15.57C240.495 14.52 239.505 12.66 239.505 10.59C239.505 7.65002 242.085 5.43002 245.085 5.43002C247.875 5.43002 250.365 7.47002 250.515 10.53ZM263.728 10.53H259.828C259.618 9.66002 259.168 9.09002 258.238 9.09002C257.398 9.09002 256.708 9.69002 256.708 10.53C256.708 11.31 257.038 11.67 259.438 12.36C263.338 13.5 264.178 15.24 264.178 17.37C264.178 20.7 261.628 23.19 258.358 23.19C255.238 23.19 252.358 21.39 252.118 17.4H256.198C256.528 18.93 257.248 19.53 258.388 19.53C259.438 19.53 260.188 18.81 260.188 17.85C260.188 16.68 259.318 16.32 257.038 15.57C253.708 14.52 252.718 12.66 252.718 10.59C252.718 7.65002 255.298 5.43002 258.298 5.43002C261.088 5.43002 263.578 7.47002 263.728 10.53Z" fill="#001E5B"/>
</svg>
