<svg width="205" height="24" viewBox="0 0 205 24" fill="none" xmlns="http://www.w3.org/2000/svg">
<path d="M17.07 16.47H21.84C20.13 20.46 15.9 23.1 11.58 23.1C5.39998 23.1 -1.94758e-05 17.94 -1.94758e-05 11.46C-1.94758e-05 5.27999 5.15998 -7.7486e-06 11.49 -7.7486e-06C15.9 -7.7486e-06 20.13 2.54999 21.96 6.77999H17.28C15.69 4.94999 13.83 3.83999 11.34 3.83999C7.31998 3.83999 4.10998 7.58999 4.10998 11.52C4.10998 15.51 7.40998 19.26 11.49 19.26C13.56 19.26 15.24 18.51 17.07 16.47ZM38.7082 22.65H35.0482V20.97H34.9882C33.8782 22.5 32.4682 23.19 30.9382 23.19C26.9482 23.19 23.8882 21.09 23.8882 15.78V5.99999H27.8782V14.61C27.8782 17.85 28.9582 19.53 31.3582 19.53C33.6682 19.53 34.7182 17.55 34.7182 14.64V5.99999H38.7082V22.65ZM52.5565 10.53H48.6565C48.4465 9.65999 47.9965 9.08999 47.0665 9.08999C46.2265 9.08999 45.5365 9.68999 45.5365 10.53C45.5365 11.31 45.8665 11.67 48.2665 12.36C52.1665 13.5 53.0065 15.24 53.0065 17.37C53.0065 20.7 50.4565 23.19 47.1865 23.19C44.0665 23.19 41.1865 21.39 40.9465 17.4H45.0265C45.3565 18.93 46.0765 19.53 47.2165 19.53C48.2665 19.53 49.0165 18.81 49.0165 17.85C49.0165 16.68 48.1465 16.32 45.8665 15.57C42.5365 14.52 41.5465 12.66 41.5465 10.59C41.5465 7.64999 44.1265 5.42999 47.1265 5.42999C49.9165 5.42999 52.4065 7.46999 52.5565 10.53ZM60.1594 22.65H56.1694V9.53999H54.2194V5.99999H56.1694V0.449994H60.1594V5.99999H62.5594V9.53999H60.1594V22.65ZM72.2135 23.19C67.3235 23.19 63.3335 19.14 63.3335 14.34C63.3335 9.53999 67.2035 5.42999 72.2135 5.42999C77.2535 5.42999 81.0335 9.47999 81.0335 14.28C81.0335 19.26 77.3135 23.19 72.2135 23.19ZM72.2135 19.53C75.0335 19.53 77.0435 17.13 77.0435 14.37C77.0435 11.64 75.0035 9.08999 72.1835 9.08999C69.5135 9.08999 67.3235 11.55 67.3235 14.34C67.3235 17.13 69.3635 19.53 72.2135 19.53ZM108.383 22.65H104.393V13.29C104.393 10.65 103.373 9.08999 101.363 9.08999C100.013 9.08999 97.8829 9.71999 97.8829 13.53V22.65H93.8929V13.29C93.8929 10.8 92.7829 9.08999 90.5929 9.08999C88.4629 9.08999 87.3829 10.44 87.3829 14.16V22.65H83.3929V5.99999H87.0529V7.40999H87.1129C87.9229 6.11999 89.5129 5.42999 91.4629 5.42999C93.4729 5.42999 95.183 6.35999 96.2629 8.03999C97.6129 6.14999 99.3829 5.42999 101.633 5.42999C105.173 5.42999 108.383 7.52999 108.383 12.63V22.65ZM128.046 16.11H115.116C115.416 17.58 117.246 19.53 119.706 19.53C121.356 19.53 122.736 18.87 123.546 17.4H127.746C126.666 20.76 123.246 23.19 119.706 23.19C114.696 23.19 110.916 19.29 110.916 14.37C110.916 9.44999 114.606 5.42999 119.676 5.42999C124.506 5.42999 128.286 9.23999 128.286 14.1C128.286 14.73 128.196 15.39 128.046 16.11ZM114.996 12.9H124.206C123.816 10.5 122.166 9.08999 119.676 9.08999C117.486 9.08999 115.626 10.35 114.996 12.9ZM135.055 22.65H131.065V5.99999H134.725V7.46999H134.785C135.835 5.90999 136.705 5.42999 138.595 5.42999H138.685V9.29999C136.285 9.38999 135.055 10.68 135.055 13.17V22.65ZM154.693 12.03H154.093V8.24999H154.723C156.643 8.24999 157.573 7.28999 157.573 5.87999C157.573 4.58999 156.913 3.77999 155.593 3.77999C154.513 3.77999 153.703 4.61999 153.613 5.81999H149.623C149.923 1.97999 152.653 -7.7486e-06 155.593 -7.7486e-06C158.803 -7.7486e-06 161.563 2.72999 161.563 5.99999C161.563 7.64999 160.993 8.96999 159.643 9.92999C161.953 10.92 163.153 13.02 163.153 15.66C163.153 19.89 159.763 23.1 155.533 23.1C151.513 23.1 148.333 20.16 148.033 15.96H152.023C152.233 17.91 153.733 19.32 155.623 19.32C157.543 19.32 159.163 17.61 159.163 15.72C159.163 13.56 157.603 12.03 154.693 12.03ZM177.33 0.479993L172.41 7.97999C172.68 7.88999 172.98 7.88999 173.34 7.88999C177.21 7.88999 180.06 11.25 180.06 15.12C180.06 19.56 176.67 23.1 172.38 23.1C167.94 23.1 164.67 19.5 164.67 15.15C164.67 13.32 165.3 11.7 166.5 9.86999L172.65 0.479993H177.33ZM172.38 19.32C174.45 19.32 176.07 17.58 176.07 15.48C176.07 13.41 174.45 11.58 172.26 11.58C170.31 11.58 168.66 13.29 168.66 15.33C168.66 17.52 170.31 19.32 172.38 19.32ZM204.977 11.61C204.977 17.91 199.817 23.1 193.367 23.1C187.277 23.1 181.757 18.24 181.757 11.61C181.757 5.45999 186.617 -7.7486e-06 193.367 -7.7486e-06C199.847 -7.7486e-06 204.977 5.21999 204.977 11.61ZM193.367 19.26C197.657 19.26 200.867 15.66 200.867 11.58C200.867 7.43999 197.627 3.83999 193.337 3.83999C189.227 3.83999 185.867 7.37999 185.867 11.58C185.867 15.69 189.137 19.26 193.367 19.26Z" fill="#001E5B"/>
</svg>
