<svg width="126" height="24" viewBox="0 0 126 24" fill="none" xmlns="http://www.w3.org/2000/svg">
<path d="M5.33999 22.65H-1.4618e-05V0.450024H5.30999C9.08999 0.450024 12.75 1.29002 14.91 3.75002C17.49 6.66002 17.82 10.08 17.82 11.34C17.82 14.73 16.65 17.4 14.94 19.26C12.78 21.6 10.08 22.65 5.33999 22.65ZM4.10999 18.81H5.42999C8.36999 18.81 10.5 18.03 11.82 16.62C13.26 15.09 13.71 13.08 13.71 11.61C13.71 9.78002 13.05 7.98002 11.76 6.57002C10.41 5.10002 8.33999 4.29002 5.30999 4.29002H4.10999V18.81ZM37.5058 22.65H33.8458V20.58C32.5258 22.14 30.0658 23.19 27.9958 23.19C23.3158 23.19 19.9258 19.26 19.9258 14.22C19.9258 9.39002 23.4358 5.43002 28.2658 5.43002C30.6058 5.43002 32.9158 6.81002 33.7858 8.10002H33.8458V6.00002H37.5058V22.65ZM28.8658 19.53C31.7758 19.53 33.7258 17.13 33.7258 14.28C33.7258 11.37 31.7158 9.09002 28.8358 9.09002C26.0458 9.09002 23.9158 11.43 23.9158 14.4C23.9158 17.19 26.0458 19.53 28.8658 19.53ZM45.4905 22.65H41.5005V9.54002H39.5505V6.00002H41.5005V0.450024H45.4905V6.00002H47.8905V9.54002H45.4905V22.65ZM66.3047 22.65H62.6447V20.58C61.3247 22.14 58.8647 23.19 56.7947 23.19C52.1147 23.19 48.7247 19.26 48.7247 14.22C48.7247 9.39002 52.2347 5.43002 57.0647 5.43002C59.4047 5.43002 61.7147 6.81002 62.5847 8.10002H62.6447V6.00002H66.3047V22.65ZM57.6647 19.53C60.5747 19.53 62.5247 17.13 62.5247 14.28C62.5247 11.37 60.5147 9.09002 57.6347 9.09002C54.8447 9.09002 52.7147 11.43 52.7147 14.4C52.7147 17.19 54.8447 19.53 57.6647 19.53ZM83.6276 12.03H83.0276V8.25002H83.6576C85.5776 8.25002 86.5076 7.29002 86.5076 5.88002C86.5076 4.59002 85.8476 3.78002 84.5276 3.78002C83.4476 3.78002 82.6376 4.62002 82.5476 5.82002H78.5576C78.8576 1.98002 81.5876 2.2769e-05 84.5276 2.2769e-05C87.7376 2.2769e-05 90.4976 2.73002 90.4976 6.00002C90.4976 7.65002 89.9276 8.97002 88.5776 9.93002C90.8876 10.92 92.0876 13.02 92.0876 15.66C92.0876 19.89 88.6976 23.1 84.4676 23.1C80.4476 23.1 77.2676 20.16 76.9676 15.96H80.9576C81.1676 17.91 82.6676 19.32 84.5576 19.32C86.4776 19.32 88.0976 17.61 88.0976 15.72C88.0976 13.56 86.5376 12.03 83.6276 12.03ZM106.265 0.480024L101.345 7.98002C101.615 7.89002 101.915 7.89002 102.275 7.89002C106.145 7.89002 108.995 11.25 108.995 15.12C108.995 19.56 105.605 23.1 101.315 23.1C96.8747 23.1 93.6047 19.5 93.6047 15.15C93.6047 13.32 94.2347 11.7 95.4347 9.87002L101.585 0.480024H106.265ZM101.315 19.32C103.385 19.32 105.005 17.58 105.005 15.48C105.005 13.41 103.385 11.58 101.195 11.58C99.2447 11.58 97.5947 13.29 97.5947 15.33C97.5947 17.52 99.2447 19.32 101.315 19.32ZM125.572 7.35002V15.78C125.572 19.98 122.542 23.1 118.042 23.1C114.502 23.1 110.662 20.58 110.662 15.81V7.38002C110.662 3.09002 113.752 2.2769e-05 118.252 2.2769e-05C122.542 2.2769e-05 125.572 3.36002 125.572 7.35002ZM121.582 15.39V7.41002C121.582 5.46002 120.172 3.78002 118.132 3.78002C116.002 3.78002 114.652 5.49002 114.652 7.56002V15.3C114.652 17.61 115.912 19.32 118.132 19.32C120.322 19.32 121.582 17.67 121.582 15.39Z" fill="#001E5B"/>
</svg>
