<svg width="143" height="23" viewBox="0 0 143 23" fill="none" xmlns="http://www.w3.org/2000/svg">
<path d="M11.94 22.2002H-1.69873e-06V0.000195026H11.94V3.84019H4.11V9.27019H11.61V13.1102H4.11V18.3602H11.94V22.2002ZM32.2959 22.2002H28.6359V20.1602H28.5759C27.4959 21.8402 25.4559 22.7402 23.2659 22.7402C18.6159 22.7402 14.7759 18.8402 14.7759 13.8902C14.7759 8.6102 18.9459 4.9802 23.3559 4.9802C25.3659 4.9802 26.8359 5.5502 28.3059 7.02019V0.000195026H32.2959V22.2002ZM23.6859 19.0802C26.3859 19.0802 28.6059 16.7102 28.6059 13.8602C28.6059 11.1002 26.4759 8.64019 23.6559 8.64019C21.1359 8.64019 18.7659 10.9802 18.7659 13.7402C18.7659 16.6802 20.9259 19.0802 23.6859 19.0802ZM49.8806 22.2002H46.2206V20.5202H46.1606C45.0506 22.0502 43.6406 22.7402 42.1106 22.7402C38.1206 22.7402 35.0606 20.6402 35.0606 15.3302V5.5502H39.0506V14.1602C39.0506 17.4002 40.1306 19.0802 42.5306 19.0802C44.8406 19.0802 45.8906 17.1002 45.8906 14.1902V5.5502H49.8806V22.2002ZM65.3489 16.7702H69.8489C68.4389 20.5802 65.3189 22.7402 61.5089 22.7402C56.5889 22.7402 52.6589 18.6902 52.6589 13.8002C52.6589 9.00019 56.5889 4.9802 61.4789 4.9802C65.2289 4.9802 68.5589 7.23019 69.8489 11.0702H65.3489C64.4789 9.5102 63.3089 8.64019 61.4789 8.64019C58.6589 8.64019 56.6489 10.8902 56.6489 13.8602C56.6489 16.8302 58.8089 19.0802 61.6589 19.0802C63.3089 19.0802 64.5089 18.1202 65.3489 16.7702ZM89.1284 22.2002H85.4684V20.1302C84.1484 21.6902 81.6884 22.7402 79.6184 22.7402C74.9384 22.7402 71.5484 18.8102 71.5484 13.7702C71.5484 8.94019 75.0584 4.9802 79.8884 4.9802C82.2284 4.9802 84.5384 6.3602 85.4084 7.65019H85.4684V5.5502H89.1284V22.2002ZM80.4884 19.0802C83.3984 19.0802 85.3484 16.6802 85.3484 13.8302C85.3484 10.9202 83.3384 8.64019 80.4584 8.64019C77.6684 8.64019 75.5384 10.9802 75.5384 13.9502C75.5384 16.7402 77.6684 19.0802 80.4884 19.0802ZM97.113 22.2002H93.123V9.0902H91.173V5.5502H93.123V0.000195026H97.113V5.5502H99.513V9.0902H97.113V22.2002ZM105.117 3.66019H101.127V0.000195026H105.117V3.66019ZM105.117 22.2002H101.127V5.5502H105.117V22.2002ZM116.374 22.7402C111.484 22.7402 107.494 18.6902 107.494 13.8902C107.494 9.0902 111.364 4.9802 116.374 4.9802C121.414 4.9802 125.194 9.03019 125.194 13.8302C125.194 18.8102 121.474 22.7402 116.374 22.7402ZM116.374 19.0802C119.194 19.0802 121.204 16.6802 121.204 13.9202C121.204 11.1902 119.164 8.64019 116.344 8.64019C113.674 8.64019 111.484 11.1002 111.484 13.8902C111.484 16.6802 113.524 19.0802 116.374 19.0802ZM142.344 22.2002H138.354V13.8302C138.354 10.4402 137.244 8.64019 134.994 8.64019C133.764 8.64019 131.544 9.45019 131.544 13.1102V22.2002H127.554V5.5502H131.244V6.99019C132.564 5.70019 133.914 4.9802 135.834 4.9802C137.994 4.9802 142.344 6.33019 142.344 12.3602V22.2002Z" fill="#001E5B"/>
</svg>
