<svg width="232" height="30" viewBox="0 0 232 30" fill="none" xmlns="http://www.w3.org/2000/svg">
<path d="M11.94 22.6499H-1.69575e-05V0.449902H11.94V4.2899H4.10998V9.7199H11.61V13.5599H4.10998V18.8099H11.94V22.6499ZM30.1659 22.6499H26.1759V14.2799C26.1759 10.8899 25.0659 9.0899 22.8159 9.0899C21.5859 9.0899 19.3659 9.8999 19.3659 13.5599V22.6499H15.3759V5.9999H19.0659V7.4399C20.3859 6.1499 21.7359 5.4299 23.6559 5.4299C25.8159 5.4299 30.1659 6.7799 30.1659 12.8099V22.6499ZM49.8042 16.1099H36.8742C37.1742 17.5799 39.0042 19.5299 41.4642 19.5299C43.1142 19.5299 44.4942 18.8699 45.3042 17.3999H49.5042C48.4242 20.7599 45.0042 23.1899 41.4642 23.1899C36.4542 23.1899 32.6742 19.2899 32.6742 14.3699C32.6742 9.4499 36.3642 5.4299 41.4342 5.4299C46.2642 5.4299 50.0442 9.2399 50.0442 14.0999C50.0442 14.7299 49.9542 15.3899 49.8042 16.1099ZM36.7542 12.8999H45.9642C45.5742 10.4999 43.9242 9.0899 41.4342 9.0899C39.2442 9.0899 37.3842 10.3499 36.7542 12.8999ZM56.8137 22.6499H52.8237V5.9999H56.4837V7.4699H56.5437C57.5937 5.9099 58.4637 5.4299 60.3537 5.4299H60.4437V9.2999C58.0437 9.3899 56.8137 10.6799 56.8137 13.1699V22.6499ZM74.7227 20.5799L74.6627 20.5199C73.3427 22.4099 71.4527 23.1899 69.2027 23.1899C64.9127 23.1899 60.6827 19.4399 60.6827 14.1599C60.6827 9.4499 64.4927 5.4299 69.1727 5.4299C71.3327 5.4299 73.2827 6.2399 74.4827 8.0399H74.5427V5.9999H78.4127V19.8899C78.4127 25.9199 74.2127 29.4299 69.3227 29.4299C65.6027 29.4299 62.2727 27.2999 60.9527 23.9099H65.5127C66.6227 25.2299 67.9427 25.7699 69.6227 25.7699C72.3827 25.7699 74.5127 23.7299 74.7227 20.5799ZM69.6527 19.5299C72.4427 19.5299 74.4227 17.0099 74.4227 14.1599C74.4227 11.5499 72.2627 9.0899 69.5027 9.0899C66.8927 9.0899 64.6727 11.3099 64.6727 14.1899C64.6727 17.0699 66.7727 19.5299 69.6527 19.5299ZM87.0874 28.1999H82.7974L85.8574 21.1199L79.7674 5.9999H84.3274L88.1074 16.6799L92.1274 5.9999H96.6574L87.0874 28.1999ZM125.288 20.5199L122.378 23.0999L119.318 19.7699C117.728 22.0199 115.868 23.0999 113.678 23.0999C109.628 23.0999 106.358 19.9199 106.358 16.0499C106.358 13.4699 107.558 11.5499 110.528 9.7799C109.088 8.0999 108.668 7.0199 108.668 5.6099C108.668 2.4299 111.128 -9.93013e-05 114.308 -9.93013e-05C117.548 -9.93013e-05 120.038 2.4299 120.038 5.4899C120.038 7.7999 119.018 9.5399 116.528 10.9499L118.568 13.2299L120.728 9.5399H125.168L121.358 16.2599L125.288 20.5199ZM114.038 8.1899C115.718 7.3799 116.258 6.6299 116.258 5.6699C116.258 4.4999 115.478 3.7799 114.278 3.7799C113.288 3.7799 112.448 4.6199 112.448 5.6099C112.448 6.3599 112.868 7.1099 114.038 8.1899ZM116.528 16.7399L113.048 12.9599C111.038 13.8899 110.348 14.9099 110.348 16.2299C110.348 17.9999 111.728 19.1999 113.408 19.1999C114.608 19.1999 115.568 18.5099 116.528 16.7399ZM147.577 14.6699V0.449902H151.687V15.0899C151.687 21.0299 147.127 23.0999 143.767 23.0999C140.497 23.0999 135.787 21.1199 135.787 15.0299V0.449902H139.897V14.6699C139.897 17.6699 141.187 19.2599 143.737 19.2599C146.347 19.2599 147.577 17.5799 147.577 14.6699ZM159.896 22.6499H155.906V9.5399H153.956V5.9999H155.906V0.449902H159.896V5.9999H162.296V9.5399H159.896V22.6499ZM167.9 4.1099H163.91V0.449902H167.9V4.1099ZM167.9 22.6499H163.91V5.9999H167.9V22.6499ZM175.137 22.6499H171.147V0.449902H175.137V22.6499ZM182.314 4.1099H178.324V0.449902H182.314V4.1099ZM182.314 22.6499H178.324V5.9999H182.314V22.6499ZM190.511 22.6499H186.521V9.5399H184.571V5.9999H186.521V0.449902H190.511V5.9999H192.911V9.5399H190.511V22.6499ZM198.516 4.1099H194.526V0.449902H198.516V4.1099ZM198.516 22.6499H194.526V5.9999H198.516V22.6499ZM218.203 16.1099H205.273C205.573 17.5799 207.403 19.5299 209.863 19.5299C211.513 19.5299 212.893 18.8699 213.703 17.3999H217.903C216.823 20.7599 213.403 23.1899 209.863 23.1899C204.853 23.1899 201.073 19.2899 201.073 14.3699C201.073 9.4499 204.763 5.4299 209.833 5.4299C214.663 5.4299 218.443 9.2399 218.443 14.0999C218.443 14.7299 218.353 15.3899 218.203 16.1099ZM205.153 12.8999H214.363C213.973 10.4999 212.323 9.0899 209.833 9.0899C207.643 9.0899 205.783 10.3499 205.153 12.8999ZM231.512 10.5299H227.612C227.402 9.6599 226.952 9.0899 226.022 9.0899C225.182 9.0899 224.492 9.6899 224.492 10.5299C224.492 11.3099 224.822 11.6699 227.222 12.3599C231.122 13.4999 231.962 15.2399 231.962 17.3699C231.962 20.6999 229.412 23.1899 226.142 23.1899C223.022 23.1899 220.142 21.3899 219.902 17.3999H223.982C224.312 18.9299 225.032 19.5299 226.172 19.5299C227.222 19.5299 227.972 18.8099 227.972 17.8499C227.972 16.6799 227.102 16.3199 224.822 15.5699C221.492 14.5199 220.502 12.6599 220.502 10.5899C220.502 7.6499 223.082 5.4299 226.082 5.4299C228.872 5.4299 231.362 7.4699 231.512 10.5299Z" fill="#001E5B"/>
</svg>
