<svg width="435" height="56" viewBox="0 0 435 56" fill="none" xmlns="http://www.w3.org/2000/svg">
<path d="M11.94 22.6499H4.40776e-05V0.449902H11.94V4.2899H4.11004V9.7199H11.61V13.5599H4.11004V18.8099H11.94V22.6499ZM30.166 22.6499H26.176V14.2799C26.176 10.8899 25.066 9.0899 22.816 9.0899C21.586 9.0899 19.366 9.8999 19.366 13.5599V22.6499H15.376V5.9999H19.066V7.4399C20.386 6.1499 21.736 5.4299 23.656 5.4299C25.816 5.4299 30.166 6.7799 30.166 12.8099V22.6499ZM46.7443 20.5799L46.6843 20.5199C45.3643 22.4099 43.4743 23.1899 41.2243 23.1899C36.9343 23.1899 32.7043 19.4399 32.7043 14.1599C32.7043 9.4499 36.5143 5.4299 41.1943 5.4299C43.3543 5.4299 45.3043 6.2399 46.5043 8.0399H46.5643V5.9999H50.4343V19.8899C50.4343 25.9199 46.2343 29.4299 41.3443 29.4299C37.6243 29.4299 34.2943 27.2999 32.9743 23.9099H37.5343C38.6443 25.2299 39.9643 25.7699 41.6443 25.7699C44.4043 25.7699 46.5343 23.7299 46.7443 20.5799ZM41.6743 19.5299C44.4643 19.5299 46.4443 17.0099 46.4443 14.1599C46.4443 11.5499 44.2843 9.0899 41.5243 9.0899C38.9143 9.0899 36.6943 11.3099 36.6943 14.1899C36.6943 17.0699 38.7943 19.5299 41.6743 19.5299ZM57.129 4.1099H53.139V0.449902H57.129V4.1099ZM57.129 22.6499H53.139V5.9999H57.129V22.6499ZM75.166 22.6499H71.176V14.2799C71.176 10.8899 70.066 9.0899 67.816 9.0899C66.586 9.0899 64.366 9.8999 64.366 13.5599V22.6499H60.376V5.9999H64.066V7.4399C65.386 6.1499 66.736 5.4299 68.656 5.4299C70.816 5.4299 75.166 6.7799 75.166 12.8099V22.6499ZM94.8043 16.1099H81.8743C82.1743 17.5799 84.0043 19.5299 86.4643 19.5299C88.1143 19.5299 89.4943 18.8699 90.3043 17.3999H94.5043C93.4243 20.7599 90.0043 23.1899 86.4643 23.1899C81.4543 23.1899 77.6743 19.2899 77.6743 14.3699C77.6743 9.4499 81.3643 5.4299 86.4343 5.4299C91.2643 5.4299 95.0443 9.2399 95.0443 14.0999C95.0443 14.7299 94.9543 15.3899 94.8043 16.1099ZM81.7543 12.8999H90.9643C90.5743 10.4999 88.9243 9.0899 86.4343 9.0899C84.2443 9.0899 82.3843 10.3499 81.7543 12.8999ZM113.994 16.1099H101.064C101.364 17.5799 103.194 19.5299 105.654 19.5299C107.304 19.5299 108.684 18.8699 109.494 17.3999H113.694C112.614 20.7599 109.194 23.1899 105.654 23.1899C100.644 23.1899 96.8637 19.2899 96.8637 14.3699C96.8637 9.4499 100.554 5.4299 105.624 5.4299C110.454 5.4299 114.234 9.2399 114.234 14.0999C114.234 14.7299 114.144 15.3899 113.994 16.1099ZM100.944 12.8999H110.154C109.764 10.4999 108.114 9.0899 105.624 9.0899C103.434 9.0899 101.574 10.3499 100.944 12.8999ZM121.003 22.6499H117.013V5.9999H120.673V7.4699H120.733C121.783 5.9099 122.653 5.4299 124.543 5.4299H124.633V9.2999C122.233 9.3899 121.003 10.6799 121.003 13.1699V22.6499ZM130.313 4.1099H126.323V0.449902H130.313V4.1099ZM130.313 22.6499H126.323V5.9999H130.313V22.6499ZM148.35 22.6499H144.36V14.2799C144.36 10.8899 143.25 9.0899 141 9.0899C139.77 9.0899 137.55 9.8999 137.55 13.5599V22.6499H133.56V5.9999H137.25V7.4399C138.57 6.1499 139.92 5.4299 141.84 5.4299C144 5.4299 148.35 6.7799 148.35 12.8099V22.6499ZM164.928 20.5799L164.868 20.5199C163.548 22.4099 161.658 23.1899 159.408 23.1899C155.118 23.1899 150.888 19.4399 150.888 14.1599C150.888 9.4499 154.698 5.4299 159.378 5.4299C161.538 5.4299 163.488 6.2399 164.688 8.0399H164.748V5.9999H168.618V19.8899C168.618 25.9199 164.418 29.4299 159.528 29.4299C155.808 29.4299 152.478 27.2999 151.158 23.9099H155.718C156.828 25.2299 158.148 25.7699 159.828 25.7699C162.588 25.7699 164.718 23.7299 164.928 20.5799ZM159.858 19.5299C162.648 19.5299 164.628 17.0099 164.628 14.1599C164.628 11.5499 162.468 9.0899 159.708 9.0899C157.098 9.0899 154.878 11.3099 154.878 14.1899C154.878 17.0699 156.978 19.5299 159.858 19.5299ZM171.953 26.8799V24.8699C173.363 24.5999 173.693 24.1799 173.693 22.6499H171.923V18.6599H175.913V22.9799C175.913 25.1699 174.503 26.8799 171.953 26.8799ZM204.639 16.4699H209.409C207.699 20.4599 203.469 23.0999 199.149 23.0999C192.969 23.0999 187.569 17.9399 187.569 11.4599C187.569 5.2799 192.729 -9.93013e-05 199.059 -9.93013e-05C203.469 -9.93013e-05 207.699 2.5499 209.529 6.7799H204.849C203.259 4.9499 201.399 3.8399 198.909 3.8399C194.889 3.8399 191.679 7.5899 191.679 11.5199C191.679 15.5099 194.979 19.2599 199.059 19.2599C201.129 19.2599 202.809 18.5099 204.639 16.4699ZM219.587 23.1899C214.697 23.1899 210.707 19.1399 210.707 14.3399C210.707 9.5399 214.577 5.4299 219.587 5.4299C224.627 5.4299 228.407 9.4799 228.407 14.2799C228.407 19.2599 224.687 23.1899 219.587 23.1899ZM219.587 19.5299C222.407 19.5299 224.417 17.1299 224.417 14.3699C224.417 11.6399 222.377 9.0899 219.557 9.0899C216.887 9.0899 214.697 11.5499 214.697 14.3399C214.697 17.1299 216.737 19.5299 219.587 19.5299ZM245.557 22.6499H241.567V14.2799C241.567 10.8899 240.457 9.0899 238.207 9.0899C236.977 9.0899 234.757 9.8999 234.757 13.5599V22.6499H230.767V5.9999H234.457V7.4399C235.777 6.1499 237.127 5.4299 239.047 5.4299C241.207 5.4299 245.557 6.7799 245.557 12.8099V22.6499ZM259.315 10.5299H255.415C255.205 9.6599 254.755 9.0899 253.825 9.0899C252.985 9.0899 252.295 9.6899 252.295 10.5299C252.295 11.3099 252.625 11.6699 255.025 12.3599C258.925 13.4999 259.765 15.2399 259.765 17.3699C259.765 20.6999 257.215 23.1899 253.945 23.1899C250.825 23.1899 247.945 21.3899 247.705 17.3999H251.785C252.115 18.9299 252.835 19.5299 253.975 19.5299C255.025 19.5299 255.775 18.8099 255.775 17.8499C255.775 16.6799 254.905 16.3199 252.625 15.5699C249.295 14.5199 248.305 12.6599 248.305 10.5899C248.305 7.6499 250.885 5.4299 253.885 5.4299C256.675 5.4299 259.165 7.4699 259.315 10.5299ZM266.918 22.6499H262.928V9.5399H260.978V5.9999H262.928V0.449902H266.918V5.9999H269.318V9.5399H266.918V22.6499ZM275.222 22.6499H271.232V5.9999H274.892V7.4699H274.952C276.002 5.9099 276.872 5.4299 278.762 5.4299H278.852V9.2999C276.452 9.3899 275.222 10.6799 275.222 13.1699V22.6499ZM295.857 22.6499H292.197V20.9699H292.137C291.027 22.4999 289.617 23.1899 288.087 23.1899C284.097 23.1899 281.037 21.0899 281.037 15.7799V5.9999H285.027V14.6099C285.027 17.8499 286.107 19.5299 288.507 19.5299C290.817 19.5299 291.867 17.5499 291.867 14.6399V5.9999H295.857V22.6499ZM311.326 17.2199H315.826C314.416 21.0299 311.296 23.1899 307.486 23.1899C302.566 23.1899 298.636 19.1399 298.636 14.2499C298.636 9.4499 302.566 5.4299 307.456 5.4299C311.206 5.4299 314.536 7.6799 315.826 11.5199H311.326C310.456 9.9599 309.286 9.0899 307.456 9.0899C304.636 9.0899 302.626 11.3399 302.626 14.3099C302.626 17.2799 304.786 19.5299 307.636 19.5299C309.286 19.5299 310.486 18.5699 311.326 17.2199ZM323.285 22.6499H319.295V9.5399H317.345V5.9999H319.295V0.449902H323.285V5.9999H325.685V9.5399H323.285V22.6499ZM331.289 4.1099H327.299V0.449902H331.289V4.1099ZM331.289 22.6499H327.299V5.9999H331.289V22.6499ZM342.546 23.1899C337.656 23.1899 333.666 19.1399 333.666 14.3399C333.666 9.5399 337.536 5.4299 342.546 5.4299C347.586 5.4299 351.366 9.4799 351.366 14.2799C351.366 19.2599 347.646 23.1899 342.546 23.1899ZM342.546 19.5299C345.366 19.5299 347.376 17.1299 347.376 14.3699C347.376 11.6399 345.336 9.0899 342.516 9.0899C339.846 9.0899 337.656 11.5499 337.656 14.3399C337.656 17.1299 339.696 19.5299 342.546 19.5299ZM368.516 22.6499H364.526V14.2799C364.526 10.8899 363.416 9.0899 361.166 9.0899C359.936 9.0899 357.716 9.8999 357.716 13.5599V22.6499H353.726V5.9999H357.416V7.4399C358.736 6.1499 360.086 5.4299 362.006 5.4299C364.166 5.4299 368.516 6.7799 368.516 12.8099V22.6499ZM396.892 22.6499H393.232V20.5799C391.912 22.1399 389.452 23.1899 387.382 23.1899C382.702 23.1899 379.312 19.2599 379.312 14.2199C379.312 9.3899 382.822 5.4299 387.652 5.4299C389.992 5.4299 392.302 6.8099 393.172 8.0999H393.232V5.9999H396.892V22.6499ZM388.252 19.5299C391.162 19.5299 393.112 17.1299 393.112 14.2799C393.112 11.3699 391.102 9.0899 388.222 9.0899C385.432 9.0899 383.302 11.4299 383.302 14.3999C383.302 17.1899 385.432 19.5299 388.252 19.5299ZM414.717 22.6499H410.727V14.2799C410.727 10.8899 409.617 9.0899 407.367 9.0899C406.137 9.0899 403.917 9.8999 403.917 13.5599V22.6499H399.927V5.9999H403.617V7.4399C404.937 6.1499 406.287 5.4299 408.207 5.4299C410.367 5.4299 414.717 6.7799 414.717 12.8099V22.6499ZM434.835 22.6499H431.175V20.6099H431.115C430.035 22.2899 427.995 23.1899 425.805 23.1899C421.155 23.1899 417.315 19.2899 417.315 14.3399C417.315 9.0599 421.485 5.4299 425.895 5.4299C427.905 5.4299 429.375 5.9999 430.845 7.4699V0.449902H434.835V22.6499ZM426.225 19.5299C428.925 19.5299 431.145 17.1599 431.145 14.3099C431.145 11.5499 429.015 9.0899 426.195 9.0899C423.675 9.0899 421.305 11.4299 421.305 14.1899C421.305 17.1299 423.465 19.5299 426.225 19.5299ZM15.12 54.6499H10.14L4.26004 46.1599H4.20004V54.6499H0.090044V32.4499H7.62004C12 32.4499 14.91 35.5699 14.91 39.3799C14.91 41.4499 13.83 45.5599 9.09004 46.4599L15.12 54.6499ZM4.20004 43.0699H6.93004C9.24004 43.0699 10.8 41.8399 10.8 39.6499C10.8 37.4899 9.06004 36.2899 6.93004 36.2899H4.20004V43.0699ZM33.6324 48.1099H20.7024C21.0024 49.5799 22.8324 51.5299 25.2924 51.5299C26.9424 51.5299 28.3224 50.8699 29.1324 49.3999H33.3324C32.2524 52.7599 28.8324 55.1899 25.2924 55.1899C20.2824 55.1899 16.5024 51.2899 16.5024 46.3699C16.5024 41.4499 20.1924 37.4299 25.2624 37.4299C30.0924 37.4299 33.8724 41.2399 33.8724 46.0999C33.8724 46.7299 33.7824 47.3899 33.6324 48.1099ZM20.5824 44.8999H29.7924C29.4024 42.4999 27.7524 41.0899 25.2624 41.0899C23.0724 41.0899 21.2124 42.3499 20.5824 44.8999ZM53.1518 54.6499H49.4918V52.5799C48.1718 54.1399 45.7118 55.1899 43.6418 55.1899C38.9618 55.1899 35.5718 51.2599 35.5718 46.2199C35.5718 41.3899 39.0818 37.4299 43.9118 37.4299C46.2518 37.4299 48.5618 38.8099 49.4318 40.0999H49.4918V37.9999H53.1518V54.6499ZM44.5118 51.5299C47.4218 51.5299 49.3718 49.1299 49.3718 46.2799C49.3718 43.3699 47.3618 41.0899 44.4818 41.0899C41.6918 41.0899 39.5618 43.4299 39.5618 46.3999C39.5618 49.1899 41.6918 51.5299 44.5118 51.5299ZM60.1765 54.6499H56.1865V32.4499H60.1765V54.6499ZM83.9518 54.6499H72.0118V32.4499H83.9518V36.2899H76.1218V41.7199H83.6218V45.5599H76.1218V50.8099H83.9518V54.6499ZM97.9477 42.5299H94.0477C93.8377 41.6599 93.3877 41.0899 92.4577 41.0899C91.6177 41.0899 90.9277 41.6899 90.9277 42.5299C90.9277 43.3099 91.2577 43.6699 93.6577 44.3599C97.5577 45.4999 98.3977 47.2399 98.3977 49.3699C98.3977 52.6999 95.8477 55.1899 92.5777 55.1899C89.4577 55.1899 86.5777 53.3899 86.3377 49.3999H90.4177C90.7477 50.9299 91.4677 51.5299 92.6077 51.5299C93.6577 51.5299 94.4077 50.8099 94.4077 49.8499C94.4077 48.6799 93.5377 48.3199 91.2577 47.5699C87.9277 46.5199 86.9377 44.6599 86.9377 42.5899C86.9377 39.6499 89.5177 37.4299 92.5177 37.4299C95.3077 37.4299 97.7977 39.4699 97.9477 42.5299ZM105.551 54.6499H101.561V41.5399H99.6106V37.9999H101.561V32.4499H105.551V37.9999H107.951V41.5399H105.551V54.6499ZM126.365 54.6499H122.705V52.5799C121.385 54.1399 118.925 55.1899 116.855 55.1899C112.175 55.1899 108.785 51.2599 108.785 46.2199C108.785 41.3899 112.295 37.4299 117.125 37.4299C119.465 37.4299 121.775 38.8099 122.645 40.0999H122.705V37.9999H126.365V54.6499ZM117.725 51.5299C120.635 51.5299 122.585 49.1299 122.585 46.2799C122.585 43.3699 120.575 41.0899 117.695 41.0899C114.905 41.0899 112.775 43.4299 112.775 46.3999C112.775 49.1899 114.905 51.5299 117.725 51.5299ZM134.349 54.6499H130.359V41.5399H128.409V37.9999H130.359V32.4499H134.349V37.9999H136.749V41.5399H134.349V54.6499ZM154.834 48.1099H141.904C142.204 49.5799 144.034 51.5299 146.494 51.5299C148.144 51.5299 149.524 50.8699 150.334 49.3999H154.534C153.454 52.7599 150.034 55.1899 146.494 55.1899C141.484 55.1899 137.704 51.2899 137.704 46.3699C137.704 41.4499 141.394 37.4299 146.464 37.4299C151.294 37.4299 155.074 41.2399 155.074 46.0999C155.074 46.7299 154.984 47.3899 154.834 48.1099ZM141.784 44.8999H150.994C150.604 42.4999 148.954 41.0899 146.464 41.0899C144.274 41.0899 142.414 42.3499 141.784 44.8999Z" fill="#001E5B"/>
</svg>
