<svg width="182" height="24" viewBox="0 0 182 24" fill="none" xmlns="http://www.w3.org/2000/svg">
<path d="M4.11 22.6499H-1.69873e-06V0.449902H11.31V4.2899H4.11V9.7199H10.98V13.5599H4.11V22.6499ZM18.1641 4.1099H14.1741V0.449902H18.1641V4.1099ZM18.1641 22.6499H14.1741V5.9999H18.1641V22.6499ZM37.8511 16.1099H24.9211C25.2211 17.5799 27.0511 19.5299 29.5111 19.5299C31.1611 19.5299 32.5411 18.8699 33.3511 17.3999H37.5511C36.4711 20.7599 33.0511 23.1899 29.5111 23.1899C24.5011 23.1899 20.7211 19.2899 20.7211 14.3699C20.7211 9.4499 24.4111 5.4299 29.4811 5.4299C34.3111 5.4299 38.0911 9.2399 38.0911 14.0999C38.0911 14.7299 38.0011 15.3899 37.8511 16.1099ZM24.8011 12.8999H34.0111C33.6211 10.4999 31.9711 9.0899 29.4811 9.0899C27.2911 9.0899 25.4311 10.3499 24.8011 12.8999ZM44.5905 22.6499H40.6005V0.449902H44.5905V22.6499ZM64.7276 22.6499H61.0676V20.6099H61.0076C59.9276 22.2899 57.8876 23.1899 55.6976 23.1899C51.0476 23.1899 47.2076 19.2899 47.2076 14.3399C47.2076 9.0599 51.3776 5.4299 55.7876 5.4299C57.7976 5.4299 59.2676 5.9999 60.7376 7.4699V0.449902H64.7276V22.6499ZM56.1176 19.5299C58.8176 19.5299 61.0376 17.1599 61.0376 14.3099C61.0376 11.5499 58.9076 9.0899 56.0876 9.0899C53.5676 9.0899 51.1976 11.4299 51.1976 14.1899C51.1976 17.1299 53.3576 19.5299 56.1176 19.5299ZM88.6505 6.3299H84.4505V6.2999C84.3305 4.8599 83.5205 3.8399 81.9605 3.8399C80.6705 3.8399 79.6805 4.7699 79.6805 6.0899C79.6805 7.5299 80.6405 8.3699 82.5305 8.9099C87.2105 10.2899 89.1905 12.3899 89.1905 16.0199C89.1905 20.3699 86.0405 23.0999 81.9905 23.0999C78.1205 23.0999 75.0005 20.3099 74.7605 16.2899H79.0805C79.2905 18.1199 80.3705 19.2599 82.0205 19.2599C83.7005 19.2599 85.0805 18.0299 85.0805 16.4399C85.0805 14.8199 84.0005 13.8599 82.2305 13.2299C78.7205 11.9699 75.5705 10.9799 75.5705 6.3299C75.5705 2.5499 78.5705 -9.93013e-05 82.0805 -9.93013e-05C85.5005 -9.93013e-05 88.4405 2.5799 88.6505 6.3299ZM108.808 16.1099H95.8781C96.1781 17.5799 98.0081 19.5299 100.468 19.5299C102.118 19.5299 103.498 18.8699 104.308 17.3999H108.508C107.428 20.7599 104.008 23.1899 100.468 23.1899C95.4581 23.1899 91.6781 19.2899 91.6781 14.3699C91.6781 9.4499 95.3681 5.4299 100.438 5.4299C105.268 5.4299 109.048 9.2399 109.048 14.0999C109.048 14.7299 108.958 15.3899 108.808 16.1099ZM95.7581 12.8999H104.968C104.578 10.4999 102.928 9.0899 100.438 9.0899C98.2481 9.0899 96.3881 10.3499 95.7581 12.8999ZM115.818 22.6499H111.828V5.9999H115.488V7.4699H115.548C116.598 5.9099 117.468 5.4299 119.358 5.4299H119.448V9.2999C117.048 9.3899 115.818 10.6799 115.818 13.1699V22.6499ZM130.063 22.6499H126.943L120.223 5.9999H124.543L128.563 17.0399H128.653L132.433 5.9999H136.813L130.063 22.6499ZM142.5 4.1099H138.51V0.449902H142.5V4.1099ZM142.5 22.6499H138.51V5.9999H142.5V22.6499ZM157.927 17.2199H162.427C161.017 21.0299 157.897 23.1899 154.087 23.1899C149.167 23.1899 145.237 19.1399 145.237 14.2499C145.237 9.4499 149.167 5.4299 154.057 5.4299C157.807 5.4299 161.137 7.6799 162.427 11.5199H157.927C157.057 9.9599 155.887 9.0899 154.057 9.0899C151.237 9.0899 149.227 11.3399 149.227 14.3099C149.227 17.2799 151.387 19.5299 154.237 19.5299C155.887 19.5299 157.087 18.5699 157.927 17.2199ZM181.376 16.1099H168.446C168.746 17.5799 170.576 19.5299 173.036 19.5299C174.686 19.5299 176.066 18.8699 176.876 17.3999H181.076C179.996 20.7599 176.576 23.1899 173.036 23.1899C168.026 23.1899 164.246 19.2899 164.246 14.3699C164.246 9.4499 167.936 5.4299 173.006 5.4299C177.836 5.4299 181.616 9.2399 181.616 14.0999C181.616 14.7299 181.526 15.3899 181.376 16.1099ZM168.326 12.8999H177.536C177.146 10.4999 175.496 9.0899 173.006 9.0899C170.816 9.0899 168.956 10.3499 168.326 12.8999Z" fill="#032D60"/>
</svg>
