<svg width="259" height="24" viewBox="0 0 259 24" fill="none" xmlns="http://www.w3.org/2000/svg">
<path d="M4.11 22.6499H-1.69873e-06V0.449902H11.31V4.2899H4.11V9.7199H10.98V13.5599H4.11V22.6499ZM18.1641 4.1099H14.1741V0.449902H18.1641V4.1099ZM18.1641 22.6499H14.1741V5.9999H18.1641V22.6499ZM36.2011 22.6499H32.2111V14.2799C32.2111 10.8899 31.1011 9.0899 28.8511 9.0899C27.6211 9.0899 25.4011 9.8999 25.4011 13.5599V22.6499H21.4111V5.9999H25.1011V7.4399C26.4211 6.1499 27.7711 5.4299 29.6911 5.4299C31.8511 5.4299 36.2011 6.7799 36.2011 12.8099V22.6499ZM56.1694 22.6499H52.5094V20.5799C51.1894 22.1399 48.7294 23.1899 46.6594 23.1899C41.9794 23.1899 38.5894 19.2599 38.5894 14.2199C38.5894 9.3899 42.0994 5.4299 46.9294 5.4299C49.2694 5.4299 51.5794 6.8099 52.4494 8.0999H52.5094V5.9999H56.1694V22.6499ZM47.5294 19.5299C50.4394 19.5299 52.3894 17.1299 52.3894 14.2799C52.3894 11.3699 50.3794 9.0899 47.4994 9.0899C44.7094 9.0899 42.5794 11.4299 42.5794 14.3999C42.5794 17.1899 44.7094 19.5299 47.5294 19.5299ZM73.9941 22.6499H70.0041V14.2799C70.0041 10.8899 68.8941 9.0899 66.6441 9.0899C65.4141 9.0899 63.1941 9.8999 63.1941 13.5599V22.6499H59.2041V5.9999H62.8941V7.4399C64.2141 6.1499 65.5641 5.4299 67.4841 5.4299C69.6441 5.4299 73.9941 6.7799 73.9941 12.8099V22.6499ZM89.3723 17.2199H93.8723C92.4623 21.0299 89.3423 23.1899 85.5323 23.1899C80.6123 23.1899 76.6823 19.1399 76.6823 14.2499C76.6823 9.4499 80.6123 5.4299 85.5023 5.4299C89.2523 5.4299 92.5823 7.6799 93.8723 11.5199H89.3723C88.5023 9.9599 87.3323 9.0899 85.5023 9.0899C82.6823 9.0899 80.6723 11.3399 80.6723 14.3099C80.6723 17.2799 82.8323 19.5299 85.6823 19.5299C87.3323 19.5299 88.5323 18.5699 89.3723 17.2199ZM100.342 4.1099H96.3518V0.449902H100.342V4.1099ZM100.342 22.6499H96.3518V5.9999H100.342V22.6499ZM120.359 22.6499H116.699V20.5799C115.379 22.1399 112.919 23.1899 110.849 23.1899C106.169 23.1899 102.779 19.2599 102.779 14.2199C102.779 9.3899 106.289 5.4299 111.119 5.4299C113.459 5.4299 115.769 6.8099 116.639 8.0999H116.699V5.9999H120.359V22.6499ZM111.719 19.5299C114.629 19.5299 116.579 17.1299 116.579 14.2799C116.579 11.3699 114.569 9.0899 111.689 9.0899C108.899 9.0899 106.769 11.4299 106.769 14.3999C106.769 17.1899 108.899 19.5299 111.719 19.5299ZM127.384 22.6499H123.394V0.449902H127.384V22.6499ZM151.639 6.3299H147.439V6.2999C147.319 4.8599 146.509 3.8399 144.949 3.8399C143.659 3.8399 142.669 4.7699 142.669 6.0899C142.669 7.5299 143.629 8.3699 145.519 8.9099C150.199 10.2899 152.179 12.3899 152.179 16.0199C152.179 20.3699 149.029 23.0999 144.979 23.0999C141.109 23.0999 137.989 20.3099 137.749 16.2899H142.069C142.279 18.1199 143.359 19.2599 145.009 19.2599C146.689 19.2599 148.069 18.0299 148.069 16.4399C148.069 14.8199 146.989 13.8599 145.219 13.2299C141.709 11.9699 138.559 10.9799 138.559 6.3299C138.559 2.5499 141.559 -9.93013e-05 145.069 -9.93013e-05C148.489 -9.93013e-05 151.429 2.5799 151.639 6.3299ZM171.796 16.1099H158.866C159.166 17.5799 160.996 19.5299 163.456 19.5299C165.106 19.5299 166.486 18.8699 167.296 17.3999H171.496C170.416 20.7599 166.996 23.1899 163.456 23.1899C158.446 23.1899 154.666 19.2899 154.666 14.3699C154.666 9.4499 158.356 5.4299 163.426 5.4299C168.256 5.4299 172.036 9.2399 172.036 14.0999C172.036 14.7299 171.946 15.3899 171.796 16.1099ZM158.746 12.8999H167.956C167.566 10.4999 165.916 9.0899 163.426 9.0899C161.236 9.0899 159.376 10.3499 158.746 12.8999ZM178.806 22.6499H174.816V5.9999H178.476V7.4699H178.536C179.586 5.9099 180.456 5.4299 182.346 5.4299H182.436V9.2999C180.036 9.3899 178.806 10.6799 178.806 13.1699V22.6499ZM193.051 22.6499H189.931L183.211 5.9999H187.531L191.551 17.0399H191.641L195.421 5.9999H199.801L193.051 22.6499ZM205.488 4.1099H201.498V0.449902H205.488V4.1099ZM205.488 22.6499H201.498V5.9999H205.488V22.6499ZM220.915 17.2199H225.415C224.005 21.0299 220.885 23.1899 217.075 23.1899C212.155 23.1899 208.225 19.1399 208.225 14.2499C208.225 9.4499 212.155 5.4299 217.045 5.4299C220.795 5.4299 224.125 7.6799 225.415 11.5199H220.915C220.045 9.9599 218.875 9.0899 217.045 9.0899C214.225 9.0899 212.215 11.3399 212.215 14.3099C212.215 17.2799 214.375 19.5299 217.225 19.5299C218.875 19.5299 220.075 18.5699 220.915 17.2199ZM244.365 16.1099H231.435C231.735 17.5799 233.565 19.5299 236.025 19.5299C237.675 19.5299 239.055 18.8699 239.865 17.3999H244.065C242.985 20.7599 239.565 23.1899 236.025 23.1899C231.015 23.1899 227.235 19.2899 227.235 14.3699C227.235 9.4499 230.925 5.4299 235.995 5.4299C240.825 5.4299 244.605 9.2399 244.605 14.0999C244.605 14.7299 244.515 15.3899 244.365 16.1099ZM231.315 12.8999H240.525C240.135 10.4999 238.485 9.0899 235.995 9.0899C233.805 9.0899 231.945 10.3499 231.315 12.8999ZM257.674 10.5299H253.774C253.564 9.6599 253.114 9.0899 252.184 9.0899C251.344 9.0899 250.654 9.6899 250.654 10.5299C250.654 11.3099 250.984 11.6699 253.384 12.3599C257.284 13.4999 258.124 15.2399 258.124 17.3699C258.124 20.6999 255.574 23.1899 252.304 23.1899C249.184 23.1899 246.304 21.3899 246.064 17.3999H250.144C250.474 18.9299 251.194 19.5299 252.334 19.5299C253.384 19.5299 254.134 18.8099 254.134 17.8499C254.134 16.6799 253.264 16.3199 250.984 15.5699C247.654 14.5199 246.664 12.6599 246.664 10.5899C246.664 7.6499 249.244 5.4299 252.244 5.4299C255.034 5.4299 257.524 7.4699 257.674 10.5299Z" fill="#001E5B"/>
</svg>
