<svg width="182" height="24" viewBox="0 0 182 24" fill="none" xmlns="http://www.w3.org/2000/svg">
<path d="M23.7 11.3399V11.6999C23.7 14.6699 22.53 17.6099 20.16 19.8299C17.82 22.0199 14.85 23.0999 11.94 23.0999C5.76 23.0999 2.46242e-06 18.3599 2.46242e-06 11.5499C2.46242e-06 5.2199 5.37 -9.93013e-05 11.82 -9.93013e-05C16.08 -9.93013e-05 21 2.6099 22.59 6.9599H17.67C16.38 5.0099 14.04 3.8399 11.73 3.8399C7.44 3.8399 4.11 7.3499 4.11 11.5799C4.11 15.2399 6.93 19.2599 11.94 19.2599C14.7 19.2599 17.22 17.7299 18.51 15.1799H9.21V11.3399H23.7ZM34.0153 23.1899C29.1253 23.1899 25.1353 19.1399 25.1353 14.3399C25.1353 9.5399 29.0053 5.4299 34.0153 5.4299C39.0553 5.4299 42.8353 9.4799 42.8353 14.2799C42.8353 19.2599 39.1153 23.1899 34.0153 23.1899ZM34.0153 19.5299C36.8353 19.5299 38.8453 17.1299 38.8453 14.3699C38.8453 11.6399 36.8053 9.0899 33.9853 9.0899C31.3153 9.0899 29.1253 11.5499 29.1253 14.3399C29.1253 17.1299 31.1653 19.5299 34.0153 19.5299ZM53.5048 22.6499H50.3848L43.6648 5.9999H47.9848L52.0048 17.0399H52.0948L55.8748 5.9999H60.2548L53.5048 22.6499ZM78.4219 16.1099H65.4919C65.7919 17.5799 67.6219 19.5299 70.0819 19.5299C71.7319 19.5299 73.1119 18.8699 73.9219 17.3999H78.1219C77.0419 20.7599 73.6219 23.1899 70.0819 23.1899C65.0719 23.1899 61.2919 19.2899 61.2919 14.3699C61.2919 9.4499 64.9819 5.4299 70.0519 5.4299C74.8819 5.4299 78.6619 9.2399 78.6619 14.0999C78.6619 14.7299 78.5719 15.3899 78.4219 16.1099ZM65.3719 12.8999H74.5819C74.1919 10.4999 72.5419 9.0899 70.0519 9.0899C67.8619 9.0899 66.0019 10.3499 65.3719 12.8999ZM85.4313 22.6499H81.4413V5.9999H85.1013V7.4699H85.1613C86.2113 5.9099 87.0813 5.4299 88.9713 5.4299H89.0613V9.2999C86.6613 9.3899 85.4313 10.6799 85.4313 13.1699V22.6499ZM105.717 22.6499H101.727V14.2799C101.727 10.8899 100.617 9.0899 98.3672 9.0899C97.1372 9.0899 94.9172 9.8999 94.9172 13.5599V22.6499H90.9272V5.9999H94.6172V7.4399C95.9372 6.1499 97.2872 5.4299 99.2072 5.4299C101.367 5.4299 105.717 6.7799 105.717 12.8099V22.6499ZM133.905 22.6499H129.915V13.2899C129.915 10.6499 128.895 9.0899 126.885 9.0899C125.535 9.0899 123.405 9.7199 123.405 13.5299V22.6499H119.415V13.2899C119.415 10.7999 118.305 9.0899 116.115 9.0899C113.985 9.0899 112.905 10.4399 112.905 14.1599V22.6499H108.915V5.9999H112.575V7.4099H112.635C113.445 6.1199 115.035 5.4299 116.985 5.4299C118.995 5.4299 120.705 6.3599 121.785 8.0399C123.135 6.1499 124.905 5.4299 127.155 5.4299C130.695 5.4299 133.905 7.5299 133.905 12.6299V22.6499ZM153.568 16.1099H140.638C140.938 17.5799 142.768 19.5299 145.228 19.5299C146.878 19.5299 148.258 18.8699 149.068 17.3999H153.268C152.188 20.7599 148.768 23.1899 145.228 23.1899C140.218 23.1899 136.438 19.2899 136.438 14.3699C136.438 9.4499 140.128 5.4299 145.198 5.4299C150.028 5.4299 153.808 9.2399 153.808 14.0999C153.808 14.7299 153.718 15.3899 153.568 16.1099ZM140.518 12.8999H149.728C149.338 10.4999 147.688 9.0899 145.198 9.0899C143.008 9.0899 141.148 10.3499 140.518 12.8999ZM171.108 22.6499H167.118V14.2799C167.118 10.8899 166.008 9.0899 163.758 9.0899C162.528 9.0899 160.308 9.8999 160.308 13.5599V22.6499H156.318V5.9999H160.008V7.4399C161.328 6.1499 162.678 5.4299 164.598 5.4299C166.758 5.4299 171.108 6.7799 171.108 12.8099V22.6499ZM179.256 22.6499H175.266V9.5399H173.316V5.9999H175.266V0.449902H179.256V5.9999H181.656V9.5399H179.256V22.6499Z" fill="#001E5B"/>
</svg>
