<svg width="532" height="170" viewBox="0 0 532 170" fill="none" xmlns="http://www.w3.org/2000/svg">
<rect width="170" height="170" rx="12.3636" fill="#EAF5FE"/>
<path d="M67.3788 97H63.1443V78.0836H58.9097V74.1273H71.6443V78.0836H67.3788V97ZM80.42 97H73.8673V74.1273H79.2764C82.3364 74.1273 84.3146 74.7455 85.551 76.0127C86.7564 77.2491 87.3746 78.64 87.3746 80.1855C87.3746 82.1327 86.54 83.5545 84.8091 84.5127C87.4982 85.5018 88.7346 87.3255 88.7346 90.2C88.7346 93.5382 86.5091 97 80.42 97ZM78.1019 83.0291H79.5855C82.0273 83.0291 83.14 82.1327 83.14 80.5564C83.14 78.98 81.9037 78.0836 79.9564 78.0836H78.1019V83.0291ZM78.1019 93.0436H80.3273C82.9237 93.0436 84.5 92.0855 84.5 90.0145C84.5 88.0673 82.7691 86.9855 80.42 86.9855H78.1019V93.0436ZM97.0825 97H91.5806V74.1273H97.0516C100.946 74.1273 104.717 74.9927 106.942 77.5273C109.601 80.5255 109.941 84.0491 109.941 85.3473C109.941 88.84 108.735 91.5909 106.973 93.5073C104.748 95.9182 101.966 97 97.0825 97ZM95.8152 93.0436H97.1752C100.204 93.0436 102.399 92.24 103.759 90.7873C105.242 89.2109 105.706 87.14 105.706 85.6255C105.706 83.74 105.026 81.8855 103.697 80.4327C102.306 78.9182 100.173 78.0836 97.0516 78.0836H95.8152V93.0436Z" fill="#1AB9FF"/>
<rect x="181" width="170" height="170" rx="12.3636" fill="#EAF5FE"/>
<path d="M248.379 97H244.144V78.0836H239.91V74.1273H252.644V78.0836H248.379V97ZM261.42 97H254.867V74.1273H260.276C263.336 74.1273 265.315 74.7455 266.551 76.0127C267.756 77.2491 268.375 78.64 268.375 80.1855C268.375 82.1327 267.54 83.5545 265.809 84.5127C268.498 85.5018 269.735 87.3255 269.735 90.2C269.735 93.5382 267.509 97 261.42 97ZM259.102 83.0291H260.586C263.027 83.0291 264.14 82.1327 264.14 80.5564C264.14 78.98 262.904 78.0836 260.956 78.0836H259.102V83.0291ZM259.102 93.0436H261.327C263.924 93.0436 265.5 92.0855 265.5 90.0145C265.5 88.0673 263.769 86.9855 261.42 86.9855H259.102V93.0436ZM278.082 97H272.581V74.1273H278.052C281.946 74.1273 285.717 74.9927 287.942 77.5273C290.601 80.5255 290.941 84.0491 290.941 85.3473C290.941 88.84 289.735 91.5909 287.973 93.5073C285.748 95.9182 282.966 97 278.082 97ZM276.815 93.0436H278.175C281.204 93.0436 283.399 92.24 284.759 90.7873C286.242 89.2109 286.706 87.14 286.706 85.6255C286.706 83.74 286.026 81.8855 284.697 80.4327C283.306 78.9182 281.173 78.0836 278.052 78.0836H276.815V93.0436Z" fill="#1AB9FF"/>
<rect x="362" width="170" height="170" rx="12.3636" fill="#EAF5FE"/>
<path d="M429.379 97H425.144V78.0836H420.91V74.1273H433.644V78.0836H429.379V97ZM442.42 97H435.867V74.1273H441.276C444.336 74.1273 446.315 74.7455 447.551 76.0127C448.756 77.2491 449.375 78.64 449.375 80.1855C449.375 82.1327 448.54 83.5545 446.809 84.5127C449.498 85.5018 450.735 87.3255 450.735 90.2C450.735 93.5382 448.509 97 442.42 97ZM440.102 83.0291H441.586C444.027 83.0291 445.14 82.1327 445.14 80.5564C445.14 78.98 443.904 78.0836 441.956 78.0836H440.102V83.0291ZM440.102 93.0436H442.327C444.924 93.0436 446.5 92.0855 446.5 90.0145C446.5 88.0673 444.769 86.9855 442.42 86.9855H440.102V93.0436ZM459.082 97H453.581V74.1273H459.052C462.946 74.1273 466.717 74.9927 468.942 77.5273C471.601 80.5255 471.941 84.0491 471.941 85.3473C471.941 88.84 470.735 91.5909 468.973 93.5073C466.748 95.9182 463.966 97 459.082 97ZM457.815 93.0436H459.175C462.204 93.0436 464.399 92.24 465.759 90.7873C467.242 89.2109 467.706 87.14 467.706 85.6255C467.706 83.74 467.026 81.8855 465.697 80.4327C464.306 78.9182 462.173 78.0836 459.052 78.0836H457.815V93.0436Z" fill="#1AB9FF"/>
</svg>
