<svg width="158" height="23" viewBox="0 0 158 23" fill="none" xmlns="http://www.w3.org/2000/svg">
<path d="M16.17 22.2002H12.06V12.8702H4.11V22.2002H-4.81308e-06V0.000195026H4.11V9.03019H12.06V0.000195026H16.17V22.2002ZM36.3206 15.6602H23.3906C23.6906 17.1302 25.5206 19.0802 27.9806 19.0802C29.6306 19.0802 31.0106 18.4202 31.8206 16.9502H36.0206C34.9406 20.3102 31.5206 22.7402 27.9806 22.7402C22.9706 22.7402 19.1906 18.8402 19.1906 13.9202C19.1906 9.00019 22.8806 4.9802 27.9506 4.9802C32.7806 4.9802 36.5606 8.79019 36.5606 13.6502C36.5606 14.2802 36.4706 14.9402 36.3206 15.6602ZM23.2706 12.4502H32.4806C32.0906 10.0502 30.4406 8.64019 27.9506 8.64019C25.7606 8.64019 23.9006 9.90019 23.2706 12.4502ZM55.8401 22.2002H52.1801V20.1302C50.8601 21.6902 48.4001 22.7402 46.3301 22.7402C41.6501 22.7402 38.2601 18.8102 38.2601 13.7702C38.2601 8.94019 41.7701 4.9802 46.6001 4.9802C48.9401 4.9802 51.2501 6.3602 52.1201 7.65019H52.1801V5.5502H55.8401V22.2002ZM47.2001 19.0802C50.1101 19.0802 52.0601 16.6802 52.0601 13.8302C52.0601 10.9202 50.0501 8.64019 47.1701 8.64019C44.3801 8.64019 42.2501 10.9802 42.2501 13.9502C42.2501 16.7402 44.3801 19.0802 47.2001 19.0802ZM62.8648 22.2002H58.8748V0.000195026H62.8648V22.2002ZM71.0318 22.2002H67.0418V9.0902H65.0918V5.5502H67.0418V0.000195026H71.0318V5.5502H73.4318V9.0902H71.0318V22.2002ZM89.8359 22.2002H85.8459V13.5302C85.8459 10.0802 84.7059 8.64019 82.4259 8.64019C80.1459 8.64019 79.0659 10.2602 79.0659 13.5902V22.2002H75.0759V0.000195026H79.0659V6.72019C80.2959 5.5502 81.6759 4.9802 83.3859 4.9802C85.3959 4.9802 89.8359 6.3902 89.8359 12.0302V22.2002ZM105.244 16.7702H109.744C108.334 20.5802 105.214 22.7402 101.404 22.7402C96.4842 22.7402 92.5542 18.6902 92.5542 13.8002C92.5542 9.00019 96.4842 4.9802 101.374 4.9802C105.124 4.9802 108.454 7.23019 109.744 11.0702H105.244C104.374 9.5102 103.204 8.64019 101.374 8.64019C98.5542 8.64019 96.5442 10.8902 96.5442 13.8602C96.5442 16.8302 98.7042 19.0802 101.554 19.0802C103.204 19.0802 104.404 18.1202 105.244 16.7702ZM129.024 22.2002H125.364V20.1302C124.044 21.6902 121.584 22.7402 119.514 22.7402C114.834 22.7402 111.444 18.8102 111.444 13.7702C111.444 8.94019 114.954 4.9802 119.784 4.9802C122.124 4.9802 124.434 6.3602 125.304 7.65019H125.364V5.5502H129.024V22.2002ZM120.384 19.0802C123.294 19.0802 125.244 16.6802 125.244 13.8302C125.244 10.9202 123.234 8.64019 120.354 8.64019C117.564 8.64019 115.434 10.9802 115.434 13.9502C115.434 16.7402 117.564 19.0802 120.384 19.0802ZM136.318 22.2002H132.328V5.5502H135.988V7.02019H136.048C137.098 5.46019 137.968 4.9802 139.858 4.9802H139.948V8.85019C137.548 8.94019 136.318 10.2302 136.318 12.7202V22.2002ZM157.287 15.6602H144.357C144.657 17.1302 146.487 19.0802 148.947 19.0802C150.597 19.0802 151.977 18.4202 152.787 16.9502H156.987C155.907 20.3102 152.487 22.7402 148.947 22.7402C143.937 22.7402 140.157 18.8402 140.157 13.9202C140.157 9.00019 143.847 4.9802 148.917 4.9802C153.747 4.9802 157.527 8.79019 157.527 13.6502C157.527 14.2802 157.437 14.9402 157.287 15.6602ZM144.237 12.4502H153.447C153.057 10.0502 151.407 8.64019 148.917 8.64019C146.727 8.64019 144.867 9.90019 144.237 12.4502Z" fill="#001E5B"/>
</svg>
