<svg width="98" height="23" viewBox="0 0 98 23" fill="none" xmlns="http://www.w3.org/2000/svg">
<path d="M16.17 22.2H12.06V12.87H4.11V22.2H-4.81308e-06V-4.91142e-05H4.11V9.02995H12.06V-4.91142e-05H16.17V22.2ZM36.3206 15.66H23.3906C23.6906 17.13 25.5206 19.08 27.9806 19.08C29.6306 19.08 31.0106 18.42 31.8206 16.95H36.0206C34.9406 20.31 31.5206 22.74 27.9806 22.74C22.9706 22.74 19.1906 18.84 19.1906 13.92C19.1906 8.99995 22.8806 4.97995 27.9506 4.97995C32.7806 4.97995 36.5606 8.78995 36.5606 13.65C36.5606 14.28 36.4706 14.94 36.3206 15.66ZM23.2706 12.45H32.4806C32.0906 10.05 30.4406 8.63995 27.9506 8.63995C25.7606 8.63995 23.9006 9.89995 23.2706 12.45ZM43.3301 22.2H39.3401V5.54995H43.0001V7.01995H43.0601C44.1101 5.45995 44.9801 4.97995 46.8701 4.97995H46.9601V8.84995C44.5601 8.93995 43.3301 10.23 43.3301 12.72V22.2ZM55.8691 22.74C50.9791 22.74 46.9891 18.69 46.9891 13.89C46.9891 9.08995 50.8591 4.97995 55.8691 4.97995C60.9091 4.97995 64.6891 9.02995 64.6891 13.83C64.6891 18.81 60.9691 22.74 55.8691 22.74ZM55.8691 19.08C58.6891 19.08 60.6991 16.68 60.6991 13.92C60.6991 11.19 58.6591 8.63995 55.8391 8.63995C53.1691 8.63995 50.9791 11.1 50.9791 13.89C50.9791 16.68 53.0191 19.08 55.8691 19.08ZM82.5586 22.2H77.5186L71.8786 14.4H71.8186V22.2H67.8286V-4.91142e-05H71.8186V13.38H71.8786L77.1886 5.54995H81.7786L75.7786 13.71L82.5586 22.2ZM97.9498 22.2H94.2898V20.52H94.2298C93.1198 22.05 91.7098 22.74 90.1798 22.74C86.1898 22.74 83.1298 20.64 83.1298 15.33V5.54995H87.1198V14.16C87.1198 17.4 88.1998 19.08 90.5998 19.08C92.9098 19.08 93.9598 17.1 93.9598 14.19V5.54995H97.9498V22.2Z" fill="#001E5B"/>
</svg>
