<svg width="208" height="24" viewBox="0 0 208 24" fill="none" xmlns="http://www.w3.org/2000/svg">
<path d="M16.17 22.6499H12.06V13.3199H4.11V22.6499H-4.81308e-06V0.449902H4.11V9.4799H12.06V0.449902H16.17V22.6499ZM35.2106 22.6499H30.2306L24.3506 14.1599H24.2906V22.6499H20.1806V0.449902H27.7106C32.0906 0.449902 35.0006 3.5699 35.0006 7.3799C35.0006 9.4499 33.9206 13.5599 29.1806 14.4599L35.2106 22.6499ZM24.2906 11.0699H27.0206C29.3306 11.0699 30.8906 9.8399 30.8906 7.6499C30.8906 5.4899 29.1506 4.2899 27.0206 4.2899H24.2906V11.0699ZM54.8712 22.6499H51.2712V16.8599H45.5112V13.2599H51.2712V7.4699H54.8712V13.2599H60.6312V16.8599H54.8712V22.6499ZM76.7377 22.6499H72.6277V0.449902H76.7377V22.6499ZM87.2759 22.6499H83.1659V4.2899H79.0559V0.449902H91.4159V4.2899H87.2759V22.6499ZM114.132 6.3299H109.932V6.2999C109.812 4.8599 109.002 3.8399 107.442 3.8399C106.152 3.8399 105.162 4.7699 105.162 6.0899C105.162 7.5299 106.122 8.3699 108.012 8.9099C112.692 10.2899 114.672 12.3899 114.672 16.0199C114.672 20.3699 111.522 23.0999 107.472 23.0999C103.602 23.0999 100.482 20.3099 100.242 16.2899H104.562C104.772 18.1199 105.852 19.2599 107.502 19.2599C109.182 19.2599 110.562 18.0299 110.562 16.4399C110.562 14.8199 109.482 13.8599 107.712 13.2299C104.202 11.9699 101.052 10.9799 101.052 6.3299C101.052 2.5499 104.052 -9.93013e-05 107.562 -9.93013e-05C110.982 -9.93013e-05 113.922 2.5799 114.132 6.3299ZM134.289 16.1099H121.359C121.659 17.5799 123.489 19.5299 125.949 19.5299C127.599 19.5299 128.979 18.8699 129.789 17.3999H133.989C132.909 20.7599 129.489 23.1899 125.949 23.1899C120.939 23.1899 117.159 19.2899 117.159 14.3699C117.159 9.4499 120.849 5.4299 125.919 5.4299C130.749 5.4299 134.529 9.2399 134.529 14.0999C134.529 14.7299 134.439 15.3899 134.289 16.1099ZM121.239 12.8999H130.449C130.059 10.4999 128.409 9.0899 125.919 9.0899C123.729 9.0899 121.869 10.3499 121.239 12.8999ZM141.299 22.6499H137.309V5.9999H140.969V7.4699H141.029C142.079 5.9099 142.949 5.4299 144.839 5.4299H144.929V9.2999C142.529 9.3899 141.299 10.6799 141.299 13.1699V22.6499ZM155.544 22.6499H152.424L145.704 5.9999H150.024L154.044 17.0399H154.134L157.914 5.9999H162.294L155.544 22.6499ZM167.981 4.1099H163.991V0.449902H167.981V4.1099ZM167.981 22.6499H163.991V5.9999H167.981V22.6499ZM183.408 17.2199H187.908C186.498 21.0299 183.378 23.1899 179.568 23.1899C174.648 23.1899 170.718 19.1399 170.718 14.2499C170.718 9.4499 174.648 5.4299 179.538 5.4299C183.288 5.4299 186.618 7.6799 187.908 11.5199H183.408C182.538 9.9599 181.368 9.0899 179.538 9.0899C176.718 9.0899 174.708 11.3399 174.708 14.3099C174.708 17.2799 176.868 19.5299 179.718 19.5299C181.368 19.5299 182.568 18.5699 183.408 17.2199ZM206.858 16.1099H193.928C194.228 17.5799 196.058 19.5299 198.518 19.5299C200.168 19.5299 201.548 18.8699 202.358 17.3999H206.558C205.478 20.7599 202.058 23.1899 198.518 23.1899C193.508 23.1899 189.728 19.2899 189.728 14.3699C189.728 9.4499 193.418 5.4299 198.488 5.4299C203.318 5.4299 207.098 9.2399 207.098 14.0999C207.098 14.7299 207.008 15.3899 206.858 16.1099ZM193.808 12.8999H203.018C202.628 10.4999 200.978 9.0899 198.488 9.0899C196.298 9.0899 194.438 10.3499 193.808 12.8999Z" fill="#001E5B"/>
</svg>
