<svg width="344" height="81" viewBox="0 0 344 81" fill="none" xmlns="http://www.w3.org/2000/svg">
<path d="M7.24001 29.6H1.76001V-1.90735e-06H7.24001V29.6ZM28.4909 22.36H34.4909C32.6109 27.44 28.4509 30.32 23.3709 30.32C16.8109 30.32 11.5709 24.92 11.5709 18.4C11.5709 12 16.8109 6.64 23.3309 6.64C28.3309 6.64 32.7709 9.64 34.4909 14.76H28.4909C27.3309 12.68 25.7709 11.52 23.3309 11.52C19.5709 11.52 16.8909 14.52 16.8909 18.48C16.8909 22.44 19.7709 25.44 23.5709 25.44C25.7709 25.44 27.3709 24.16 28.4909 22.36ZM48.5169 30.32C41.9969 30.32 36.6769 24.92 36.6769 18.52C36.6769 12.12 41.8369 6.64 48.5169 6.64C55.2369 6.64 60.2769 12.04 60.2769 18.44C60.2769 25.08 55.3169 30.32 48.5169 30.32ZM48.5169 25.44C52.2769 25.44 54.9569 22.24 54.9569 18.56C54.9569 14.92 52.2369 11.52 48.4769 11.52C44.9169 11.52 41.9969 14.8 41.9969 18.52C41.9969 22.24 44.7169 25.44 48.5169 25.44ZM83.1428 29.6H77.8228V18.44C77.8228 13.92 76.3428 11.52 73.3428 11.52C71.7028 11.52 68.7428 12.6 68.7428 17.48V29.6H63.4228V7.4H68.3428V9.32C70.1028 7.6 71.9028 6.64 74.4628 6.64C77.3428 6.64 83.1428 8.44 83.1428 16.48V29.6ZM98.0872 30.32C91.5672 30.32 86.2472 24.92 86.2472 18.52C86.2472 12.12 91.4072 6.64 98.0872 6.64C104.807 6.64 109.847 12.04 109.847 18.44C109.847 25.08 104.887 30.32 98.0872 30.32ZM98.0872 25.44C101.847 25.44 104.527 22.24 104.527 18.56C104.527 14.92 101.807 11.52 98.0472 11.52C94.4872 11.52 91.5672 14.8 91.5672 18.52C91.5672 22.24 94.2872 25.44 98.0872 25.44ZM130.833 26.84L130.753 26.76C128.993 29.28 126.473 30.32 123.473 30.32C117.753 30.32 112.113 25.32 112.113 18.28C112.113 12 117.193 6.64 123.433 6.64C126.313 6.64 128.913 7.72 130.513 10.12H130.593V7.4H135.753V25.92C135.753 33.96 130.153 38.64 123.633 38.64C118.673 38.64 114.233 35.8 112.473 31.28H118.553C120.033 33.04 121.793 33.76 124.033 33.76C127.713 33.76 130.553 31.04 130.833 26.84ZM124.073 25.44C127.793 25.44 130.433 22.08 130.433 18.28C130.433 14.8 127.553 11.52 123.873 11.52C120.393 11.52 117.433 14.48 117.433 18.32C117.433 22.16 120.233 25.44 124.073 25.44ZM145.079 29.6H139.759V7.4H144.639V9.36H144.719C146.119 7.28 147.279 6.64 149.799 6.64H149.919V11.8C146.719 11.92 145.079 13.64 145.079 16.96V29.6ZM173.478 29.6H168.598V26.84C166.838 28.92 163.558 30.32 160.798 30.32C154.558 30.32 150.038 25.08 150.038 18.36C150.038 11.92 154.718 6.64 161.158 6.64C164.278 6.64 167.358 8.48 168.518 10.2H168.598V7.4H173.478V29.6ZM161.958 25.44C165.838 25.44 168.438 22.24 168.438 18.44C168.438 14.56 165.758 11.52 161.918 11.52C158.198 11.52 155.358 14.64 155.358 18.6C155.358 22.32 158.198 25.44 161.958 25.44ZM182.564 37H177.244V7.4H182.124V10H182.204C184.084 7.64 186.484 6.64 189.404 6.64C195.924 6.64 200.524 12.12 200.524 18.4C200.524 24.92 195.684 30.32 189.404 30.32C186.564 30.32 184.684 29.56 182.564 27.48V37ZM188.724 25.44C192.364 25.44 195.204 22.16 195.204 18.48C195.204 14.88 192.524 11.52 188.764 11.52C185.084 11.52 182.244 14.64 182.244 18.48C182.244 23.16 185.924 25.44 188.724 25.44ZM223.611 29.6H218.291V18.04C218.291 13.44 216.771 11.52 213.731 11.52C210.691 11.52 209.251 13.68 209.251 18.12V29.6H203.931V-1.90735e-06H209.251V8.96C210.891 7.4 212.731 6.64 215.011 6.64C217.691 6.64 223.611 8.52 223.611 16.04V29.6ZM235.835 37H230.115L234.195 27.56L226.075 7.4H232.155L237.195 21.64L242.555 7.4H248.595L235.835 37Z" fill="#001E5B"/>
<path d="M8.88 59.44H8.08001V54.4H8.92001C11.48 54.4 12.72 53.12 12.72 51.24C12.72 49.52 11.84 48.44 10.08 48.44C8.64001 48.44 7.56001 49.56 7.44001 51.16H2.12C2.52001 46.04 6.16001 43.4 10.08 43.4C14.36 43.4 18.04 47.04 18.04 51.4C18.04 53.6 17.28 55.36 15.48 56.64C18.56 57.96 20.16 60.76 20.16 64.28C20.16 69.92 15.64 74.2 10 74.2C4.64001 74.2 0.400005 70.28 4.91738e-06 64.68H5.32001C5.60001 67.28 7.60001 69.16 10.12 69.16C12.68 69.16 14.84 66.88 14.84 64.36C14.84 61.48 12.76 59.44 8.88 59.44ZM30.9028 73.6H23.7828V44H30.8628C35.9028 44 40.7828 45.12 43.6628 48.4C47.1028 52.28 47.5428 56.84 47.5428 58.52C47.5428 63.04 45.9828 66.6 43.7028 69.08C40.8228 72.2 37.2228 73.6 30.9028 73.6ZM29.2628 68.48H31.0228C34.9428 68.48 37.7828 67.44 39.5428 65.56C41.4628 63.52 42.0628 60.84 42.0628 58.88C42.0628 56.44 41.1828 54.04 39.4628 52.16C37.6628 50.2 34.9028 49.12 30.8628 49.12H29.2628V68.48ZM67.6816 81H62.3616V51.4H67.2416V54H67.3216C69.2016 51.64 71.6016 50.64 74.5216 50.64C81.0416 50.64 85.6416 56.12 85.6416 62.4C85.6416 68.92 80.8016 74.32 74.5216 74.32C71.6816 74.32 69.8016 73.56 67.6816 71.48V81ZM73.8416 69.44C77.4816 69.44 80.3216 66.16 80.3216 62.48C80.3216 58.88 77.6416 55.52 73.8816 55.52C70.2016 55.52 67.3616 58.64 67.3616 62.48C67.3616 67.16 71.0416 69.44 73.8416 69.44ZM94.7278 73.6H89.4078V51.4H94.2878V53.36H94.3678C95.7678 51.28 96.9278 50.64 99.4478 50.64H99.5678V55.8C96.3678 55.92 94.7278 57.64 94.7278 60.96V73.6ZM111.447 74.32C104.927 74.32 99.6066 68.92 99.6066 62.52C99.6066 56.12 104.767 50.64 111.447 50.64C118.167 50.64 123.207 56.04 123.207 62.44C123.207 69.08 118.247 74.32 111.447 74.32ZM111.447 69.44C115.207 69.44 117.887 66.24 117.887 62.56C117.887 58.92 115.167 55.52 111.407 55.52C107.847 55.52 104.927 58.8 104.927 62.52C104.927 66.24 107.647 69.44 111.447 69.44ZM148.913 73.6H144.033V70.88H143.953C142.513 73.12 139.793 74.32 136.873 74.32C130.673 74.32 125.553 69.12 125.553 62.52C125.553 55.48 131.113 50.64 136.993 50.64C139.673 50.64 141.633 51.4 143.593 53.36V44H148.913V73.6ZM137.433 69.44C141.033 69.44 143.993 66.28 143.993 62.48C143.993 58.8 141.153 55.52 137.393 55.52C134.033 55.52 130.873 58.64 130.873 62.32C130.873 66.24 133.753 69.44 137.433 69.44ZM172.359 73.6H167.479V71.36H167.399C165.919 73.4 164.039 74.32 161.999 74.32C156.679 74.32 152.599 71.52 152.599 64.44V51.4H157.919V62.88C157.919 67.2 159.359 69.44 162.559 69.44C165.639 69.44 167.039 66.8 167.039 62.92V51.4H172.359V73.6ZM192.983 66.36H198.983C197.103 71.44 192.943 74.32 187.863 74.32C181.303 74.32 176.063 68.92 176.063 62.4C176.063 56 181.303 50.64 187.823 50.64C192.823 50.64 197.263 53.64 198.983 58.76H192.983C191.823 56.68 190.263 55.52 187.823 55.52C184.063 55.52 181.383 58.52 181.383 62.48C181.383 66.44 184.263 69.44 188.063 69.44C190.263 69.44 191.863 68.16 192.983 66.36ZM208.929 73.6H203.609V56.12H201.009V51.4H203.609V44H208.929V51.4H212.129V56.12H208.929V73.6ZM230.852 73.6H225.532V44H230.852V73.6ZM240.422 48.88H235.102V44H240.422V48.88ZM240.422 73.6H235.102V51.4H240.422V73.6ZM249.351 73.6H244.471V44H249.791V53.4C251.551 51.64 254.151 50.64 256.711 50.64C263.191 50.64 267.871 56.24 267.871 62.16C267.871 68.4 263.791 74.32 256.831 74.32C253.631 74.32 251.471 73.36 249.351 70.92V73.6ZM256.151 69.44C259.911 69.44 262.551 66.48 262.551 62.44C262.551 58.56 259.791 55.52 256.031 55.52C252.431 55.52 249.471 58.56 249.471 62.2C249.471 66.2 252.191 69.44 256.151 69.44ZM276.837 73.6H271.517V51.4H276.397V53.36H276.477C277.877 51.28 279.037 50.64 281.557 50.64H281.677V55.8C278.477 55.92 276.837 57.64 276.837 60.96V73.6ZM305.236 73.6H300.356V70.84C298.596 72.92 295.316 74.32 292.556 74.32C286.316 74.32 281.796 69.08 281.796 62.36C281.796 55.92 286.476 50.64 292.916 50.64C296.036 50.64 299.116 52.48 300.276 54.2H300.356V51.4H305.236V73.6ZM293.716 69.44C297.596 69.44 300.196 66.24 300.196 62.44C300.196 58.56 297.516 55.52 293.676 55.52C289.956 55.52 287.116 58.64 287.116 62.6C287.116 66.32 289.956 69.44 293.716 69.44ZM314.962 73.6H309.642V51.4H314.522V53.36H314.602C316.002 51.28 317.162 50.64 319.682 50.64H319.802V55.8C316.602 55.92 314.962 57.64 314.962 60.96V73.6ZM330.796 81H325.076L329.156 71.56L321.036 51.4H327.116L332.156 65.64L337.516 51.4H343.556L330.796 81Z" fill="#066AFE"/>
</svg>
