<svg width="133" height="23" viewBox="0 0 133 23" fill="none" xmlns="http://www.w3.org/2000/svg">
<path d="M4.11 22.2H-3.53158e-06V-4.91142e-05H4.11V22.2ZM22.6582 22.2H18.6682V13.83C18.6682 10.44 17.5582 8.63995 15.3082 8.63995C14.0782 8.63995 11.8582 9.44995 11.8582 13.11V22.2H7.8682V5.54995H11.5582V6.98995C12.8782 5.69995 14.2282 4.97995 16.1482 4.97995C18.3082 4.97995 22.6582 6.32995 22.6582 12.36V22.2ZM42.7765 22.2H39.1165V20.16H39.0565C37.9765 21.84 35.9365 22.74 33.7465 22.74C29.0965 22.74 25.2565 18.84 25.2565 13.89C25.2565 8.60995 29.4265 4.97995 33.8365 4.97995C35.8465 4.97995 37.3165 5.54995 38.7865 7.01995V-4.91142e-05H42.7765V22.2ZM34.1665 19.08C36.8665 19.08 39.0865 16.71 39.0865 13.86C39.0865 11.1 36.9565 8.63995 34.1365 8.63995C31.6165 8.63995 29.2465 10.98 29.2465 13.74C29.2465 16.68 31.4065 19.08 34.1665 19.08ZM60.3612 22.2H56.7012V20.52H56.6412C55.5312 22.05 54.1212 22.74 52.5912 22.74C48.6012 22.74 45.5412 20.64 45.5412 15.33V5.54995H49.5312V14.16C49.5312 17.4 50.6112 19.08 53.0112 19.08C55.3212 19.08 56.3712 17.1 56.3712 14.19V5.54995H60.3612V22.2ZM74.2095 10.08H70.3095C70.0995 9.20995 69.6494 8.63995 68.7194 8.63995C67.8794 8.63995 67.1894 9.23995 67.1894 10.08C67.1894 10.86 67.5194 11.22 69.9194 11.91C73.8194 13.05 74.6595 14.79 74.6595 16.92C74.6595 20.25 72.1095 22.74 68.8394 22.74C65.7194 22.74 62.8394 20.94 62.5994 16.95H66.6794C67.0094 18.48 67.7294 19.08 68.8694 19.08C69.9194 19.08 70.6694 18.36 70.6694 17.4C70.6694 16.23 69.7994 15.87 67.5194 15.12C64.1894 14.07 63.1994 12.21 63.1994 10.14C63.1994 7.19995 65.7794 4.97995 68.7794 4.97995C71.5695 4.97995 74.0595 7.01995 74.2095 10.08ZM81.8123 22.2H77.8223V9.08995H75.8723V5.54995H77.8223V-4.91142e-05H81.8123V5.54995H84.2123V9.08995H81.8123V22.2ZM90.1165 22.2H86.1265V5.54995H89.7865V7.01995H89.8465C90.8965 5.45995 91.7665 4.97995 93.6565 4.97995H93.7465V8.84995C91.3465 8.93995 90.1165 10.23 90.1165 12.72V22.2ZM99.4259 3.65995H95.4359V-4.91142e-05H99.4259V3.65995ZM99.4259 22.2H95.4359V5.54995H99.4259V22.2ZM119.113 15.66H106.183C106.483 17.13 108.313 19.08 110.773 19.08C112.423 19.08 113.803 18.42 114.613 16.95H118.813C117.733 20.31 114.313 22.74 110.773 22.74C105.763 22.74 101.983 18.84 101.983 13.92C101.983 8.99995 105.673 4.97995 110.743 4.97995C115.573 4.97995 119.353 8.78995 119.353 13.65C119.353 14.28 119.263 14.94 119.113 15.66ZM106.063 12.45H115.273C114.883 10.05 113.233 8.63995 110.743 8.63995C108.553 8.63995 106.693 9.89995 106.063 12.45ZM132.422 10.08H128.522C128.312 9.20995 127.862 8.63995 126.932 8.63995C126.092 8.63995 125.402 9.23995 125.402 10.08C125.402 10.86 125.732 11.22 128.132 11.91C132.032 13.05 132.872 14.79 132.872 16.92C132.872 20.25 130.322 22.74 127.052 22.74C123.932 22.74 121.052 20.94 120.812 16.95H124.892C125.222 18.48 125.942 19.08 127.082 19.08C128.132 19.08 128.882 18.36 128.882 17.4C128.882 16.23 128.012 15.87 125.732 15.12C122.402 14.07 121.412 12.21 121.412 10.14C121.412 7.19995 123.992 4.97995 126.992 4.97995C129.782 4.97995 132.272 7.01995 132.422 10.08Z" fill="#001E5B"/>
</svg>
