<svg width="181" height="24" viewBox="0 0 181 24" fill="none" xmlns="http://www.w3.org/2000/svg">
<path d="M4.11003 22.6499H2.6986e-05V0.449902H4.11003V22.6499ZM14.6482 22.6499H10.5382V4.2899H6.42823V0.449902H18.7882V4.2899H14.6482V22.6499ZM33.1041 22.6499H29.1141V9.5399H27.7041V5.9999H29.1141C29.4141 1.2899 32.5941 -9.93013e-05 34.5741 -9.93013e-05H35.6541V3.9299C33.6141 3.9299 33.1941 4.4699 33.1041 5.9999H35.4441V9.5399H33.1041V22.6499ZM45.2923 23.1899C40.4023 23.1899 36.4123 19.1399 36.4123 14.3399C36.4123 9.5399 40.2823 5.4299 45.2923 5.4299C50.3323 5.4299 54.1123 9.4799 54.1123 14.2799C54.1123 19.2599 50.3923 23.1899 45.2923 23.1899ZM45.2923 19.5299C48.1123 19.5299 50.1223 17.1299 50.1223 14.3699C50.1223 11.6399 48.0823 9.0899 45.2623 9.0899C42.5923 9.0899 40.4023 11.5499 40.4023 14.3399C40.4023 17.1299 42.4423 19.5299 45.2923 19.5299ZM60.7317 22.6499H56.7417V5.9999H60.4017V7.4699H60.4617C61.5117 5.9099 62.3817 5.4299 64.2717 5.4299H64.3617V9.2999C61.9617 9.3899 60.7317 10.6799 60.7317 13.1699V22.6499ZM87.1193 6.3299H82.9193V6.2999C82.7993 4.8599 81.9893 3.8399 80.4293 3.8399C79.1393 3.8399 78.1493 4.7699 78.1493 6.0899C78.1493 7.5299 79.1093 8.3699 80.9993 8.9099C85.6793 10.2899 87.6593 12.3899 87.6593 16.0199C87.6593 20.3699 84.5093 23.0999 80.4593 23.0999C76.5893 23.0999 73.4693 20.3099 73.2293 16.2899H77.5493C77.7593 18.1199 78.8393 19.2599 80.4893 19.2599C82.1693 19.2599 83.5493 18.0299 83.5493 16.4399C83.5493 14.8199 82.4693 13.8599 80.6993 13.2299C77.1893 11.9699 74.0393 10.9799 74.0393 6.3299C74.0393 2.5499 77.0393 -9.93013e-05 80.5493 -9.93013e-05C83.9693 -9.93013e-05 86.9093 2.5799 87.1193 6.3299ZM107.277 16.1099H94.347C94.647 17.5799 96.477 19.5299 98.937 19.5299C100.587 19.5299 101.967 18.8699 102.777 17.3999H106.977C105.897 20.7599 102.477 23.1899 98.937 23.1899C93.927 23.1899 90.147 19.2899 90.147 14.3699C90.147 9.4499 93.837 5.4299 98.907 5.4299C103.737 5.4299 107.517 9.2399 107.517 14.0999C107.517 14.7299 107.427 15.3899 107.277 16.1099ZM94.227 12.8999H103.437C103.047 10.4999 101.397 9.0899 98.907 9.0899C96.717 9.0899 94.857 10.3499 94.227 12.8999ZM114.286 22.6499H110.296V5.9999H113.956V7.4699H114.016C115.066 5.9099 115.936 5.4299 117.826 5.4299H117.916V9.2999C115.516 9.3899 114.286 10.6799 114.286 13.1699V22.6499ZM128.532 22.6499H125.412L118.692 5.9999H123.012L127.032 17.0399H127.122L130.902 5.9999H135.282L128.532 22.6499ZM140.969 4.1099H136.979V0.449902H140.969V4.1099ZM140.969 22.6499H136.979V5.9999H140.969V22.6499ZM156.396 17.2199H160.896C159.486 21.0299 156.366 23.1899 152.556 23.1899C147.636 23.1899 143.706 19.1399 143.706 14.2499C143.706 9.4499 147.636 5.4299 152.526 5.4299C156.276 5.4299 159.606 7.6799 160.896 11.5199H156.396C155.526 9.9599 154.356 9.0899 152.526 9.0899C149.706 9.0899 147.696 11.3399 147.696 14.3099C147.696 17.2799 149.856 19.5299 152.706 19.5299C154.356 19.5299 155.556 18.5699 156.396 17.2199ZM179.845 16.1099H166.915C167.215 17.5799 169.045 19.5299 171.505 19.5299C173.155 19.5299 174.535 18.8699 175.345 17.3999H179.545C178.465 20.7599 175.045 23.1899 171.505 23.1899C166.495 23.1899 162.715 19.2899 162.715 14.3699C162.715 9.4499 166.405 5.4299 171.475 5.4299C176.305 5.4299 180.085 9.2399 180.085 14.0999C180.085 14.7299 179.995 15.3899 179.845 16.1099ZM166.795 12.8999H176.005C175.615 10.4999 173.965 9.0899 171.475 9.0899C169.285 9.0899 167.425 10.3499 166.795 12.8999Z" fill="#001E5B"/>
</svg>
