<svg width="186" height="24" viewBox="0 0 186 24" fill="none" xmlns="http://www.w3.org/2000/svg">
<path d="M10.89 22.6499H-3.53158e-06V0.449902H4.11V18.8099H10.89V22.6499ZM16.6329 4.1099H12.6429V0.449902H16.6329V4.1099ZM16.6329 22.6499H12.6429V5.9999H16.6329V22.6499ZM24.1099 22.6499H20.1199V9.5399H18.7099V5.9999H20.1199C20.4199 1.2899 23.5999 -9.93013e-05 25.5799 -9.93013e-05H26.6599V3.9299C24.6199 3.9299 24.1999 4.4699 24.1099 5.9999H26.4499V9.5399H24.1099V22.6499ZM44.7281 16.1099H31.7981C32.0981 17.5799 33.9281 19.5299 36.3881 19.5299C38.0381 19.5299 39.4181 18.8699 40.2281 17.3999H44.4281C43.3481 20.7599 39.9281 23.1899 36.3881 23.1899C31.3781 23.1899 27.5981 19.2899 27.5981 14.3699C27.5981 9.4499 31.2881 5.4299 36.3581 5.4299C41.1881 5.4299 44.9681 9.2399 44.9681 14.0999C44.9681 14.7299 44.8781 15.3899 44.7281 16.1099ZM31.6781 12.8999H40.8881C40.4981 10.4999 38.8481 9.0899 36.3581 9.0899C34.1681 9.0899 32.3081 10.3499 31.6781 12.8999ZM68.5158 6.3299H64.3158V6.2999C64.1958 4.8599 63.3858 3.8399 61.8258 3.8399C60.5358 3.8399 59.5458 4.7699 59.5458 6.0899C59.5458 7.5299 60.5058 8.3699 62.3958 8.9099C67.0758 10.2899 69.0558 12.3899 69.0558 16.0199C69.0558 20.3699 65.9058 23.0999 61.8558 23.0999C57.9858 23.0999 54.8658 20.3099 54.6258 16.2899H58.9458C59.1558 18.1199 60.2358 19.2599 61.8858 19.2599C63.5658 19.2599 64.9458 18.0299 64.9458 16.4399C64.9458 14.8199 63.8658 13.8599 62.0958 13.2299C58.5858 11.9699 55.4358 10.9799 55.4358 6.3299C55.4358 2.5499 58.4358 -9.93013e-05 61.9458 -9.93013e-05C65.3658 -9.93013e-05 68.3058 2.5799 68.5158 6.3299ZM84.4134 17.2199H88.9134C87.5034 21.0299 84.3834 23.1899 80.5734 23.1899C75.6534 23.1899 71.7234 19.1399 71.7234 14.2499C71.7234 9.4499 75.6534 5.4299 80.5434 5.4299C84.2934 5.4299 87.6234 7.6799 88.9134 11.5199H84.4134C83.5434 9.9599 82.3734 9.0899 80.5434 9.0899C77.7234 9.0899 75.7134 11.3399 75.7134 14.3099C75.7134 17.2799 77.8734 19.5299 80.7234 19.5299C82.3734 19.5299 83.5734 18.5699 84.4134 17.2199ZM95.3829 4.1099H91.3929V0.449902H95.3829V4.1099ZM95.3829 22.6499H91.3929V5.9999H95.3829V22.6499ZM115.07 16.1099H102.14C102.44 17.5799 104.27 19.5299 106.73 19.5299C108.38 19.5299 109.76 18.8699 110.57 17.3999H114.77C113.69 20.7599 110.27 23.1899 106.73 23.1899C101.72 23.1899 97.9399 19.2899 97.9399 14.3699C97.9399 9.4499 101.63 5.4299 106.7 5.4299C111.53 5.4299 115.31 9.2399 115.31 14.0999C115.31 14.7299 115.22 15.3899 115.07 16.1099ZM102.02 12.8999H111.23C110.84 10.4999 109.19 9.0899 106.7 9.0899C104.51 9.0899 102.65 10.3499 102.02 12.8999ZM132.609 22.6499H128.619V14.2799C128.619 10.8899 127.509 9.0899 125.259 9.0899C124.029 9.0899 121.809 9.8999 121.809 13.5599V22.6499H117.819V5.9999H121.509V7.4399C122.829 6.1499 124.179 5.4299 126.099 5.4299C128.259 5.4299 132.609 6.7799 132.609 12.8099V22.6499ZM147.988 17.2199H152.488C151.078 21.0299 147.958 23.1899 144.148 23.1899C139.228 23.1899 135.298 19.1399 135.298 14.2499C135.298 9.4499 139.228 5.4299 144.118 5.4299C147.868 5.4299 151.198 7.6799 152.488 11.5199H147.988C147.118 9.9599 145.948 9.0899 144.118 9.0899C141.298 9.0899 139.288 11.3399 139.288 14.3099C139.288 17.2799 141.448 19.5299 144.298 19.5299C145.948 19.5299 147.148 18.5699 147.988 17.2199ZM171.437 16.1099H158.507C158.807 17.5799 160.637 19.5299 163.097 19.5299C164.747 19.5299 166.127 18.8699 166.937 17.3999H171.137C170.057 20.7599 166.637 23.1899 163.097 23.1899C158.087 23.1899 154.307 19.2899 154.307 14.3699C154.307 9.4499 157.997 5.4299 163.067 5.4299C167.897 5.4299 171.677 9.2399 171.677 14.0999C171.677 14.7299 171.587 15.3899 171.437 16.1099ZM158.387 12.8999H167.597C167.207 10.4999 165.557 9.0899 163.067 9.0899C160.877 9.0899 159.017 10.3499 158.387 12.8999ZM184.747 10.5299H180.847C180.637 9.6599 180.187 9.0899 179.257 9.0899C178.417 9.0899 177.727 9.6899 177.727 10.5299C177.727 11.3099 178.057 11.6699 180.457 12.3599C184.357 13.4999 185.197 15.2399 185.197 17.3699C185.197 20.6999 182.647 23.1899 179.377 23.1899C176.257 23.1899 173.377 21.3899 173.137 17.3999H177.217C177.547 18.9299 178.267 19.5299 179.407 19.5299C180.457 19.5299 181.207 18.8099 181.207 17.8499C181.207 16.6799 180.337 16.3199 178.057 15.5699C174.727 14.5199 173.737 12.6599 173.737 10.5899C173.737 7.6499 176.317 5.4299 179.317 5.4299C182.107 5.4299 184.597 7.4699 184.747 10.5299Z" fill="#001E5B"/>
</svg>
