<svg width="209" height="30" viewBox="0 0 209 30" fill="none" xmlns="http://www.w3.org/2000/svg">
<path d="M23.22 22.6499H19.11V5.9999H19.02L13.35 22.6499H9.86999L4.16999 5.9999H4.10999V22.6499H-1.4618e-05V0.449902H5.69999L11.61 17.2499H11.67L17.52 0.449902H23.22V22.6499ZM43.5117 22.6499H39.8517V20.5799C38.5317 22.1399 36.0717 23.1899 34.0017 23.1899C29.3217 23.1899 25.9317 19.2599 25.9317 14.2199C25.9317 9.3899 29.4417 5.4299 34.2717 5.4299C36.6117 5.4299 38.9217 6.8099 39.7917 8.0999H39.8517V5.9999H43.5117V22.6499ZM34.8717 19.5299C37.7817 19.5299 39.7317 17.1299 39.7317 14.2799C39.7317 11.3699 37.7217 9.0899 34.8417 9.0899C32.0517 9.0899 29.9217 11.4299 29.9217 14.3999C29.9217 17.1899 32.0517 19.5299 34.8717 19.5299ZM61.3364 22.6499H57.3464V14.2799C57.3464 10.8899 56.2364 9.0899 53.9864 9.0899C52.7564 9.0899 50.5364 9.8999 50.5364 13.5599V22.6499H46.5464V5.9999H50.2364V7.4399C51.5564 6.1499 52.9064 5.4299 54.8264 5.4299C56.9864 5.4299 61.3364 6.7799 61.3364 12.8099V22.6499ZM79.2347 22.6499H75.5747V20.9699H75.5147C74.4047 22.4999 72.9947 23.1899 71.4647 23.1899C67.4747 23.1899 64.4147 21.0899 64.4147 15.7799V5.9999H68.4047V14.6099C68.4047 17.8499 69.4847 19.5299 71.8847 19.5299C74.1947 19.5299 75.2447 17.5499 75.2447 14.6399V5.9999H79.2347V22.6499ZM86.753 22.6499H82.763V9.5399H81.353V5.9999H82.763C83.063 1.2899 86.243 -9.93013e-05 88.223 -9.93013e-05H89.303V3.9299C87.263 3.9299 86.843 4.4699 86.753 5.9999H89.093V9.5399H86.753V22.6499ZM107.701 22.6499H104.041V20.5799C102.721 22.1399 100.261 23.1899 98.1912 23.1899C93.5112 23.1899 90.1212 19.2599 90.1212 14.2199C90.1212 9.3899 93.6312 5.4299 98.4612 5.4299C100.801 5.4299 103.111 6.8099 103.981 8.0999H104.041V5.9999H107.701V22.6499ZM99.0612 19.5299C101.971 19.5299 103.921 17.1299 103.921 14.2799C103.921 11.3699 101.911 9.0899 99.0312 9.0899C96.2412 9.0899 94.1112 11.4299 94.1112 14.3999C94.1112 17.1899 96.2412 19.5299 99.0612 19.5299ZM122.916 17.2199H127.416C126.006 21.0299 122.886 23.1899 119.076 23.1899C114.156 23.1899 110.226 19.1399 110.226 14.2499C110.226 9.4499 114.156 5.4299 119.046 5.4299C122.796 5.4299 126.126 7.6799 127.416 11.5199H122.916C122.046 9.9599 120.876 9.0899 119.046 9.0899C116.226 9.0899 114.216 11.3399 114.216 14.3099C114.216 17.2799 116.376 19.5299 119.226 19.5299C120.876 19.5299 122.076 18.5699 122.916 17.2199ZM134.875 22.6499H130.885V9.5399H128.935V5.9999H130.885V0.449902H134.875V5.9999H137.275V9.5399H134.875V22.6499ZM153.619 22.6499H149.959V20.9699H149.899C148.789 22.4999 147.379 23.1899 145.849 23.1899C141.859 23.1899 138.799 21.0899 138.799 15.7799V5.9999H142.789V14.6099C142.789 17.8499 143.869 19.5299 146.269 19.5299C148.579 19.5299 149.629 17.5499 149.629 14.6399V5.9999H153.619V22.6499ZM161.168 22.6499H157.178V5.9999H160.838V7.4699H160.898C161.948 5.9099 162.818 5.4299 164.708 5.4299H164.798V9.2999C162.398 9.3899 161.168 10.6799 161.168 13.1699V22.6499ZM170.477 4.1099H166.487V0.449902H170.477V4.1099ZM170.477 22.6499H166.487V5.9999H170.477V22.6499ZM188.514 22.6499H184.524V14.2799C184.524 10.8899 183.414 9.0899 181.164 9.0899C179.934 9.0899 177.714 9.8999 177.714 13.5599V22.6499H173.724V5.9999H177.414V7.4399C178.734 6.1499 180.084 5.4299 182.004 5.4299C184.164 5.4299 188.514 6.7799 188.514 12.8099V22.6499ZM205.092 20.5799L205.032 20.5199C203.712 22.4099 201.822 23.1899 199.572 23.1899C195.282 23.1899 191.052 19.4399 191.052 14.1599C191.052 9.4499 194.862 5.4299 199.542 5.4299C201.702 5.4299 203.652 6.2399 204.852 8.0399H204.912V5.9999H208.782V19.8899C208.782 25.9199 204.582 29.4299 199.692 29.4299C195.972 29.4299 192.642 27.2999 191.322 23.9099H195.882C196.992 25.2299 198.312 25.7699 199.992 25.7699C202.752 25.7699 204.882 23.7299 205.092 20.5799ZM200.022 19.5299C202.812 19.5299 204.792 17.0099 204.792 14.1599C204.792 11.5499 202.632 9.0899 199.872 9.0899C197.262 9.0899 195.042 11.3099 195.042 14.1899C195.042 17.0699 197.142 19.5299 200.022 19.5299Z" fill="#001E5B"/>
</svg>
