<svg width="144" height="29" viewBox="0 0 144 29" fill="none" xmlns="http://www.w3.org/2000/svg">
<path d="M23.22 22.2H19.11V5.55001H19.02L13.35 22.2H9.86999L4.16999 5.55001H4.10999V22.2H-1.4618e-05V1.19209e-05H5.69999L11.61 16.8H11.67L17.52 1.19209e-05H23.22V22.2ZM43.5117 22.2H39.8517V20.13C38.5317 21.69 36.0717 22.74 34.0017 22.74C29.3217 22.74 25.9317 18.81 25.9317 13.77C25.9317 8.94001 29.4417 4.98001 34.2717 4.98001C36.6117 4.98001 38.9217 6.36001 39.7917 7.65001H39.8517V5.55001H43.5117V22.2ZM34.8717 19.08C37.7817 19.08 39.7317 16.68 39.7317 13.83C39.7317 10.92 37.7217 8.64001 34.8417 8.64001C32.0517 8.64001 29.9217 10.98 29.9217 13.95C29.9217 16.74 32.0517 19.08 34.8717 19.08ZM50.8064 22.2H46.8164V5.55001H50.4764V7.02001H50.5364C51.5864 5.46001 52.4564 4.98001 54.3464 4.98001H54.4364V8.85001C52.0364 8.94001 50.8064 10.23 50.8064 12.72V22.2ZM71.6658 22.2H66.6258L60.9858 14.4H60.9258V22.2H56.9358V1.19209e-05H60.9258V13.38H60.9858L66.2958 5.55001H70.8858L64.8858 13.71L71.6658 22.2ZM89.0899 15.66H76.1599C76.4599 17.13 78.2899 19.08 80.7499 19.08C82.3999 19.08 83.7799 18.42 84.5899 16.95H88.7899C87.7099 20.31 84.2899 22.74 80.7499 22.74C75.7399 22.74 71.9599 18.84 71.9599 13.92C71.9599 9.00001 75.6499 4.98001 80.7199 4.98001C85.5499 4.98001 89.3299 8.79001 89.3299 13.65C89.3299 14.28 89.2399 14.94 89.0899 15.66ZM76.0399 12.45H85.2499C84.8599 10.05 83.2099 8.64001 80.7199 8.64001C78.5299 8.64001 76.6699 9.90001 76.0399 12.45ZM96.7894 22.2H92.7994V9.09001H90.8494V5.55001H92.7994V1.19209e-05H96.7894V5.55001H99.1894V9.09001H96.7894V22.2ZM104.794 3.66001H100.804V1.19209e-05H104.794V3.66001ZM104.794 22.2H100.804V5.55001H104.794V22.2ZM122.831 22.2H118.841V13.83C118.841 10.44 117.731 8.64001 115.481 8.64001C114.251 8.64001 112.031 9.45001 112.031 13.11V22.2H108.041V5.55001H111.731V6.99001C113.051 5.70001 114.401 4.98001 116.321 4.98001C118.481 4.98001 122.831 6.33001 122.831 12.36V22.2ZM139.409 20.13L139.349 20.07C138.029 21.96 136.139 22.74 133.889 22.74C129.599 22.74 125.369 18.99 125.369 13.71C125.369 9.00001 129.179 4.98001 133.859 4.98001C136.019 4.98001 137.969 5.79001 139.169 7.59001H139.229V5.55001H143.099V19.44C143.099 25.47 138.899 28.98 134.009 28.98C130.289 28.98 126.959 26.85 125.639 23.46H130.199C131.309 24.78 132.629 25.32 134.309 25.32C137.069 25.32 139.199 23.28 139.409 20.13ZM134.339 19.08C137.129 19.08 139.109 16.56 139.109 13.71C139.109 11.1 136.949 8.64001 134.189 8.64001C131.579 8.64001 129.359 10.86 129.359 13.74C129.359 16.62 131.459 19.08 134.339 19.08Z" fill="#001E5B"/>
</svg>
