<svg width="90" height="23" viewBox="0 0 90 23" fill="none" xmlns="http://www.w3.org/2000/svg">
<path d="M23.22 22.2002H19.11V5.5502H19.02L13.35 22.2002H9.86999L4.16999 5.5502H4.10999V22.2002H-1.4618e-05V0.000195026H5.69999L11.61 16.8002H11.67L17.52 0.000195026H23.22V22.2002ZM43.1817 15.6602H30.2517C30.5517 17.1302 32.3817 19.0802 34.8417 19.0802C36.4917 19.0802 37.8717 18.4202 38.6817 16.9502H42.8817C41.8017 20.3102 38.3817 22.7402 34.8417 22.7402C29.8317 22.7402 26.0517 18.8402 26.0517 13.9202C26.0517 9.00019 29.7417 4.9802 34.8117 4.9802C39.6417 4.9802 43.4217 8.79019 43.4217 13.6502C43.4217 14.2802 43.3317 14.9402 43.1817 15.6602ZM30.1317 12.4502H39.3417C38.9517 10.0502 37.3017 8.64019 34.8117 8.64019C32.6217 8.64019 30.7617 9.90019 30.1317 12.4502ZM62.8512 22.2002H59.1912V20.1602H59.1312C58.0512 21.8402 56.0112 22.7402 53.8212 22.7402C49.1712 22.7402 45.3312 18.8402 45.3312 13.8902C45.3312 8.6102 49.5012 4.9802 53.9112 4.9802C55.9212 4.9802 57.3912 5.5502 58.8612 7.02019V0.000195026H62.8512V22.2002ZM54.2412 19.0802C56.9412 19.0802 59.1612 16.7102 59.1612 13.8602C59.1612 11.1002 57.0312 8.64019 54.2112 8.64019C51.6912 8.64019 49.3212 10.9802 49.3212 13.7402C49.3212 16.6802 51.4812 19.0802 54.2412 19.0802ZM69.6958 3.66019H65.7058V0.000195026H69.6958V3.66019ZM69.6958 22.2002H65.7058V5.5502H69.6958V22.2002ZM89.7129 22.2002H86.0529V20.1302C84.7329 21.6902 82.2729 22.7402 80.2029 22.7402C75.5229 22.7402 72.1329 18.8102 72.1329 13.7702C72.1329 8.94019 75.6429 4.9802 80.4729 4.9802C82.8129 4.9802 85.1229 6.3602 85.9929 7.65019H86.0529V5.5502H89.7129V22.2002ZM81.0729 19.0802C83.9829 19.0802 85.9329 16.6802 85.9329 13.8302C85.9329 10.9202 83.9229 8.64019 81.0429 8.64019C78.2529 8.64019 76.1229 10.9802 76.1229 13.9502C76.1229 16.7402 78.2529 19.0802 81.0729 19.0802Z" fill="#001E5B"/>
</svg>
