<svg width="121" height="24" viewBox="0 0 121 24" fill="none" xmlns="http://www.w3.org/2000/svg">
<path d="M23.22 22.6499H19.11V5.9999H19.02L13.35 22.6499H9.87L4.17 5.9999H4.11V22.6499H6.4075e-07V0.449902H5.7L11.61 17.2499H11.67L17.52 0.449902H23.22V22.6499ZM41.4417 22.6499H37.7817V20.9699H37.7217C36.6117 22.4999 35.2017 23.1899 33.6717 23.1899C29.6817 23.1899 26.6217 21.0899 26.6217 15.7799V5.9999H30.6117V14.6099C30.6117 17.8499 31.6917 19.5299 34.0917 19.5299C36.4017 19.5299 37.4517 17.5499 37.4517 14.6399V5.9999H41.4417V22.6499ZM48.72 22.6499H44.73V0.449902H48.72V22.6499ZM68.377 16.1099H55.447C55.747 17.5799 57.577 19.5299 60.037 19.5299C61.687 19.5299 63.067 18.8699 63.877 17.3999H68.077C66.997 20.7599 63.577 23.1899 60.037 23.1899C55.027 23.1899 51.247 19.2899 51.247 14.3699C51.247 9.4499 54.937 5.4299 60.007 5.4299C64.837 5.4299 68.617 9.2399 68.617 14.0999C68.617 14.7299 68.527 15.3899 68.377 16.1099ZM55.327 12.8999H64.537C64.147 10.4999 62.497 9.0899 60.007 9.0899C57.817 9.0899 55.957 10.3499 55.327 12.8999ZM83.7565 6.3299H79.5565V6.2999C79.4365 4.8599 78.6265 3.8399 77.0665 3.8399C75.7765 3.8399 74.7865 4.7699 74.7865 6.0899C74.7865 7.5299 75.7465 8.3699 77.6365 8.9099C82.3165 10.2899 84.2965 12.3899 84.2965 16.0199C84.2965 20.3699 81.1465 23.0999 77.0965 23.0999C73.2265 23.0999 70.1065 20.3099 69.8665 16.2899H74.1865C74.3965 18.1199 75.4765 19.2599 77.1265 19.2599C78.8065 19.2599 80.1865 18.0299 80.1865 16.4399C80.1865 14.8199 79.1065 13.8599 77.3365 13.2299C73.8265 11.9699 70.6765 10.9799 70.6765 6.3299C70.6765 2.5499 73.6765 -9.93013e-05 77.1865 -9.93013e-05C80.6065 -9.93013e-05 83.5465 2.5799 83.7565 6.3299ZM95.4841 23.1899C90.5941 23.1899 86.6041 19.1399 86.6041 14.3399C86.6041 9.5399 90.4741 5.4299 95.4841 5.4299C100.524 5.4299 104.304 9.4799 104.304 14.2799C104.304 19.2599 100.584 23.1899 95.4841 23.1899ZM95.4841 19.5299C98.3041 19.5299 100.314 17.1299 100.314 14.3699C100.314 11.6399 98.2741 9.0899 95.4541 9.0899C92.7841 9.0899 90.5941 11.5499 90.5941 14.3399C90.5941 17.1299 92.6341 19.5299 95.4841 19.5299ZM118.574 22.6499H114.584V9.5399H110.894V22.6499H106.904V9.5399H105.494V5.9999H106.904C107.144 3.0299 109.154 0.449902 112.484 0.449902H113.444V4.3799H113.324C111.674 4.3799 111.194 4.6799 110.924 5.9999H114.584V0.449902H118.574V5.9999H120.974V9.5399H118.574V22.6499Z" fill="#001E5B"/>
</svg>
