<svg width="119" height="23" viewBox="0 0 119 23" fill="none" xmlns="http://www.w3.org/2000/svg">
<path d="M18.03 22.2H13.44L4.17002 6.05995H4.11002V22.2H2.4423e-05V-4.91142e-05H4.68002L13.86 16.14H13.92V-4.91142e-05H18.03V22.2ZM38.1671 15.66H25.2371C25.5371 17.13 27.3671 19.08 29.8271 19.08C31.4771 19.08 32.8571 18.42 33.6671 16.95H37.8671C36.7871 20.31 33.3671 22.74 29.8271 22.74C24.8171 22.74 21.0371 18.84 21.0371 13.92C21.0371 8.99995 24.7271 4.97995 29.7971 4.97995C34.6271 4.97995 38.4071 8.78995 38.4071 13.65C38.4071 14.28 38.3171 14.94 38.1671 15.66ZM25.1171 12.45H34.3271C33.9371 10.05 32.2871 8.63995 29.7971 8.63995C27.6071 8.63995 25.7471 9.89995 25.1171 12.45ZM45.8665 22.2H41.8765V9.08995H39.9265V5.54995H41.8765V-4.91142e-05H45.8665V5.54995H48.2665V9.08995H45.8665V22.2ZM71.1289 22.2H57.2689V18.84L65.7589 3.83995H57.7189V-4.91142e-05H70.5589V3.56995L62.1289 18.36H71.1289V22.2ZM89.7589 15.66H76.8289C77.1289 17.13 78.9589 19.08 81.4189 19.08C83.0689 19.08 84.4489 18.42 85.2589 16.95H89.4589C88.3789 20.31 84.9589 22.74 81.4189 22.74C76.4089 22.74 72.6289 18.84 72.6289 13.92C72.6289 8.99995 76.3189 4.97995 81.3889 4.97995C86.2189 4.97995 89.9989 8.78995 89.9989 13.65C89.9989 14.28 89.9089 14.94 89.7589 15.66ZM76.7089 12.45H85.9189C85.5289 10.05 83.8789 8.63995 81.3889 8.63995C79.1989 8.63995 77.3389 9.89995 76.7089 12.45ZM96.7683 22.2H92.7783V5.54995H96.4383V7.01995H96.4983C97.5483 5.45995 98.4183 4.97995 100.308 4.97995H100.398V8.84995C97.9983 8.93995 96.7683 10.23 96.7683 12.72V22.2ZM109.307 22.74C104.417 22.74 100.427 18.69 100.427 13.89C100.427 9.08995 104.297 4.97995 109.307 4.97995C114.347 4.97995 118.127 9.02995 118.127 13.83C118.127 18.81 114.407 22.74 109.307 22.74ZM109.307 19.08C112.127 19.08 114.137 16.68 114.137 13.92C114.137 11.19 112.097 8.63995 109.277 8.63995C106.607 8.63995 104.417 11.1 104.417 13.89C104.417 16.68 106.457 19.08 109.307 19.08Z" fill="#001E5B"/>
</svg>
