<svg width="130" height="28" viewBox="0 0 130 28" fill="none" xmlns="http://www.w3.org/2000/svg">
<path d="M18.03 22.2002H13.44L4.16999 6.06019H4.10999V22.2002H-6.09457e-06V0.000195026H4.67999L13.86 16.1402H13.92V0.000195026H18.03V22.2002ZM29.737 22.7402C24.847 22.7402 20.857 18.6902 20.857 13.8902C20.857 9.0902 24.727 4.9802 29.737 4.9802C34.777 4.9802 38.557 9.03019 38.557 13.8302C38.557 18.8102 34.837 22.7402 29.737 22.7402ZM29.737 19.0802C32.557 19.0802 34.567 16.6802 34.567 13.9202C34.567 11.1902 32.527 8.64019 29.707 8.64019C27.037 8.64019 24.847 11.1002 24.847 13.8902C24.847 16.6802 26.887 19.0802 29.737 19.0802ZM55.7065 22.2002H51.7165V13.8302C51.7165 10.4402 50.6065 8.64019 48.3565 8.64019C47.1265 8.64019 44.9065 9.45019 44.9065 13.1102V22.2002H40.9165V5.5502H44.6065V6.99019C45.9265 5.70019 47.2765 4.9802 49.1965 4.9802C51.3565 4.9802 55.7065 6.33019 55.7065 12.3602V22.2002ZM62.6848 27.7502H58.6948V5.5502H62.3548V7.5002H62.4148C63.8248 5.73019 65.6248 4.9802 67.8148 4.9802C72.7048 4.9802 76.1548 9.0902 76.1548 13.8002C76.1548 18.6902 72.5248 22.7402 67.8148 22.7402C65.6848 22.7402 64.2748 22.1702 62.6848 20.6102V27.7502ZM67.3048 19.0802C70.0348 19.0802 72.1648 16.6202 72.1648 13.8602C72.1648 11.1602 70.1548 8.64019 67.3348 8.64019C64.5748 8.64019 62.4448 10.9802 62.4448 13.8602C62.4448 17.3702 65.2048 19.0802 67.3048 19.0802ZM82.9694 22.2002H78.9794V5.5502H82.6394V7.02019H82.6994C83.7494 5.46019 84.6194 4.9802 86.5094 4.9802H86.5994V8.85019C84.1994 8.94019 82.9694 10.2302 82.9694 12.7202V22.2002ZM95.5085 22.7402C90.6185 22.7402 86.6285 18.6902 86.6285 13.8902C86.6285 9.0902 90.4985 4.9802 95.5085 4.9802C100.549 4.9802 104.329 9.03019 104.329 13.8302C104.329 18.8102 100.609 22.7402 95.5085 22.7402ZM95.5085 19.0802C98.3285 19.0802 100.339 16.6802 100.339 13.9202C100.339 11.1902 98.2985 8.64019 95.4785 8.64019C92.8085 8.64019 90.6185 11.1002 90.6185 13.8902C90.6185 16.6802 92.6585 19.0802 95.5085 19.0802ZM118.898 22.2002H114.908V9.0902H111.218V22.2002H107.228V9.0902H105.818V5.5502H107.228C107.468 2.58019 109.478 0.000195026 112.808 0.000195026H113.768V3.93019H113.648C111.998 3.93019 111.518 4.23019 111.248 5.5502H118.898V22.2002ZM118.898 3.66019H114.908V0.000195026H118.898V3.66019ZM127.224 22.2002H123.234V9.0902H121.284V5.5502H123.234V0.000195026H127.224V5.5502H129.624V9.0902H127.224V22.2002Z" fill="#001E5B"/>
</svg>
