<svg width="325" height="29" viewBox="0 0 325 29" fill="none" xmlns="http://www.w3.org/2000/svg">
<path d="M4.10997 22.65H-3.40492e-05V0.450024H6.74997C11.7 0.450024 14.19 3.39002 14.19 7.32002C14.19 11.4 11.61 14.19 6.77997 14.19H4.10997V22.65ZM4.10997 10.35H5.54997C9.35997 10.35 10.08 8.94002 10.08 7.32002C10.08 5.58002 9.29997 4.29002 5.57997 4.29002H4.10997V10.35ZM33.0171 22.65H29.3571V20.58C28.0371 22.14 25.5771 23.19 23.5071 23.19C18.8271 23.19 15.4371 19.26 15.4371 14.22C15.4371 9.39002 18.9471 5.43002 23.7771 5.43002C26.1171 5.43002 28.4271 6.81002 29.2971 8.10002H29.3571V6.00002H33.0171V22.65ZM24.3771 19.53C27.2871 19.53 29.2371 17.13 29.2371 14.28C29.2371 11.37 27.2271 9.09002 24.3471 9.09002C21.5571 9.09002 19.4271 11.43 19.4271 14.4C19.4271 17.19 21.5571 19.53 24.3771 19.53ZM40.3118 22.65H36.3218V6.00002H39.9818V7.47002H40.0418C41.0918 5.91002 41.9618 5.43002 43.8518 5.43002H43.9418V9.30002C41.5418 9.39002 40.3118 10.68 40.3118 13.17V22.65ZM51.1971 22.65H47.2071V9.54002H45.2571V6.00002H47.2071V0.450024H51.1971V6.00002H53.5971V9.54002H51.1971V22.65ZM70.0312 22.65H66.0412V14.28C66.0412 10.89 64.9312 9.09002 62.6812 9.09002C61.4512 9.09002 59.2312 9.90002 59.2312 13.56V22.65H55.2412V6.00002H58.9312V7.44002C60.2512 6.15002 61.6012 5.43002 63.5212 5.43002C65.6812 5.43002 70.0312 6.78002 70.0312 12.81V22.65ZM89.6695 16.11H76.7395C77.0395 17.58 78.8695 19.53 81.3295 19.53C82.9795 19.53 84.3595 18.87 85.1695 17.4H89.3695C88.2895 20.76 84.8695 23.19 81.3295 23.19C76.3195 23.19 72.5395 19.29 72.5395 14.37C72.5395 9.45002 76.2295 5.43002 81.2995 5.43002C86.1295 5.43002 89.9095 9.24002 89.9095 14.1C89.9095 14.73 89.8195 15.39 89.6695 16.11ZM76.6195 12.9H85.8295C85.4395 10.5 83.7895 9.09002 81.2995 9.09002C79.1095 9.09002 77.2495 10.35 76.6195 12.9ZM96.679 22.65H92.689V6.00002H96.349V7.47002H96.409C97.459 5.91002 98.329 5.43002 100.219 5.43002H100.309V9.30002C97.909 9.39002 96.679 10.68 96.679 13.17V22.65ZM130.777 22.65H126.247L123.877 16.92H115.927L113.557 22.65H109.027L118.267 0.450024H121.477L130.777 22.65ZM122.407 13.05L119.887 6.24002H119.827L117.307 13.05H122.407ZM136.424 28.2H132.434V6.00002H136.094V7.95002H136.154C137.564 6.18002 139.364 5.43002 141.554 5.43002C146.444 5.43002 149.894 9.54002 149.894 14.25C149.894 19.14 146.264 23.19 141.554 23.19C139.424 23.19 138.014 22.62 136.424 21.06V28.2ZM141.044 19.53C143.774 19.53 145.904 17.07 145.904 14.31C145.904 11.61 143.894 9.09002 141.074 9.09002C138.314 9.09002 136.184 11.43 136.184 14.31C136.184 17.82 138.944 19.53 141.044 19.53ZM156.228 28.2H152.238V6.00002H155.898V7.95002H155.958C157.368 6.18002 159.168 5.43002 161.358 5.43002C166.248 5.43002 169.698 9.54002 169.698 14.25C169.698 19.14 166.068 23.19 161.358 23.19C159.228 23.19 157.818 22.62 156.228 21.06V28.2ZM160.848 19.53C163.578 19.53 165.708 17.07 165.708 14.31C165.708 11.61 163.698 9.09002 160.878 9.09002C158.118 9.09002 155.988 11.43 155.988 14.31C155.988 17.82 158.748 19.53 160.848 19.53ZM182.813 10.53H178.913C178.703 9.66002 178.253 9.09002 177.323 9.09002C176.483 9.09002 175.793 9.69002 175.793 10.53C175.793 11.31 176.123 11.67 178.523 12.36C182.423 13.5 183.263 15.24 183.263 17.37C183.263 20.7 180.713 23.19 177.443 23.19C174.323 23.19 171.443 21.39 171.203 17.4H175.283C175.613 18.93 176.333 19.53 177.473 19.53C178.523 19.53 179.273 18.81 179.273 17.85C179.273 16.68 178.403 16.32 176.123 15.57C172.793 14.52 171.803 12.66 171.803 10.59C171.803 7.65002 174.383 5.43002 177.383 5.43002C180.173 5.43002 182.663 7.47002 182.813 10.53ZM212.204 20.52L209.294 23.1L206.234 19.77C204.644 22.02 202.784 23.1 200.594 23.1C196.544 23.1 193.274 19.92 193.274 16.05C193.274 13.47 194.474 11.55 197.444 9.78002C196.004 8.10002 195.584 7.02002 195.584 5.61002C195.584 2.43002 198.044 2.2769e-05 201.224 2.2769e-05C204.464 2.2769e-05 206.954 2.43002 206.954 5.49002C206.954 7.80002 205.934 9.54002 203.444 10.95L205.484 13.23L207.644 9.54002H212.084L208.274 16.26L212.204 20.52ZM200.954 8.19002C202.634 7.38002 203.174 6.63002 203.174 5.67002C203.174 4.50002 202.394 3.78002 201.194 3.78002C200.204 3.78002 199.364 4.62002 199.364 5.61002C199.364 6.36002 199.784 7.11002 200.954 8.19002ZM203.444 16.74L199.964 12.96C197.954 13.89 197.264 14.91 197.264 16.23C197.264 18 198.644 19.2 200.324 19.2C201.524 19.2 202.484 18.51 203.444 16.74ZM234.823 22.65H222.883V0.450024H234.823V4.29002H226.993V9.72002H234.493V13.56H226.993V18.81H234.823V22.65ZM253.319 22.65H248.579L245.009 16.95L241.469 22.65H236.729L242.639 14.07L237.479 6.00002H241.949L245.009 11.01L248.039 6.00002H252.509L247.349 14.07L253.319 22.65ZM258.826 28.2H254.836V6.00002H258.496V7.95002H258.556C259.966 6.18002 261.766 5.43002 263.956 5.43002C268.846 5.43002 272.296 9.54002 272.296 14.25C272.296 19.14 268.666 23.19 263.956 23.19C261.826 23.19 260.416 22.62 258.826 21.06V28.2ZM263.446 19.53C266.176 19.53 268.306 17.07 268.306 14.31C268.306 11.61 266.296 9.09002 263.476 9.09002C260.716 9.09002 258.586 11.43 258.586 14.31C258.586 17.82 261.346 19.53 263.446 19.53ZM291.291 16.11H278.361C278.661 17.58 280.491 19.53 282.951 19.53C284.601 19.53 285.981 18.87 286.791 17.4H290.991C289.911 20.76 286.491 23.19 282.951 23.19C277.941 23.19 274.161 19.29 274.161 14.37C274.161 9.45002 277.851 5.43002 282.921 5.43002C287.751 5.43002 291.531 9.24002 291.531 14.1C291.531 14.73 291.441 15.39 291.291 16.11ZM278.241 12.9H287.451C287.061 10.5 285.411 9.09002 282.921 9.09002C280.731 9.09002 278.871 10.35 278.241 12.9ZM298.3 22.65H294.31V6.00002H297.97V7.47002H298.03C299.08 5.91002 299.95 5.43002 301.84 5.43002H301.93V9.30002C299.53 9.39002 298.3 10.68 298.3 13.17V22.65ZM309.185 22.65H305.195V9.54002H303.245V6.00002H305.195V0.450024H309.185V6.00002H311.585V9.54002H309.185V22.65ZM323.789 10.53H319.889C319.679 9.66002 319.229 9.09002 318.299 9.09002C317.459 9.09002 316.769 9.69002 316.769 10.53C316.769 11.31 317.099 11.67 319.499 12.36C323.399 13.5 324.239 15.24 324.239 17.37C324.239 20.7 321.689 23.19 318.419 23.19C315.299 23.19 312.419 21.39 312.179 17.4H316.259C316.589 18.93 317.309 19.53 318.449 19.53C319.499 19.53 320.249 18.81 320.249 17.85C320.249 16.68 319.379 16.32 317.099 15.57C313.769 14.52 312.779 12.66 312.779 10.59C312.779 7.65002 315.359 5.43002 318.359 5.43002C321.149 5.43002 323.639 7.47002 323.789 10.53Z" fill="#001E5B"/>
</svg>
