<svg width="115" height="24" viewBox="0 0 115 24" fill="none" xmlns="http://www.w3.org/2000/svg">
<path d="M4.10997 22.65H-3.40492e-05V0.450024H6.74997C11.7 0.450024 14.19 3.39002 14.19 7.32002C14.19 11.4 11.61 14.19 6.77997 14.19H4.10997V22.65ZM4.10997 10.35H5.54997C9.35997 10.35 10.08 8.94002 10.08 7.32002C10.08 5.58002 9.29997 4.29002 5.57997 4.29002H4.10997V10.35ZM20.2371 22.65H16.2471V0.450024H20.2371V22.65ZM40.2241 22.65H36.5641V20.58C35.2441 22.14 32.7841 23.19 30.7141 23.19C26.0341 23.19 22.6441 19.26 22.6441 14.22C22.6441 9.39002 26.1541 5.43002 30.9841 5.43002C33.3241 5.43002 35.6341 6.81002 36.5041 8.10002H36.5641V6.00002H40.2241V22.65ZM31.5841 19.53C34.4941 19.53 36.4441 17.13 36.4441 14.28C36.4441 11.37 34.4341 9.09002 31.5541 9.09002C28.7641 9.09002 26.6341 11.43 26.6341 14.4C26.6341 17.19 28.7641 19.53 31.5841 19.53ZM48.2088 22.65H44.2188V9.54002H42.2688V6.00002H44.2188V0.450024H48.2088V6.00002H50.6088V9.54002H48.2088V22.65ZM56.4829 22.65H52.4929V9.54002H51.0829V6.00002H52.4929C52.7929 1.29002 55.9729 2.2769e-05 57.9529 2.2769e-05H59.0329V3.93002C56.9929 3.93002 56.5729 4.47002 56.4829 6.00002H58.8229V9.54002H56.4829V22.65ZM68.6711 23.19C63.7811 23.19 59.7911 19.14 59.7911 14.34C59.7911 9.54002 63.6611 5.43002 68.6711 5.43002C73.7111 5.43002 77.4911 9.48002 77.4911 14.28C77.4911 19.26 73.7711 23.19 68.6711 23.19ZM68.6711 19.53C71.4911 19.53 73.5011 17.13 73.5011 14.37C73.5011 11.64 71.4611 9.09002 68.6411 9.09002C65.9711 9.09002 63.7811 11.55 63.7811 14.34C63.7811 17.13 65.8211 19.53 68.6711 19.53ZM84.1106 22.65H80.1206V6.00002H83.7806V7.47002H83.8406C84.8906 5.91002 85.7606 5.43002 87.6506 5.43002H87.7406V9.30002C85.3406 9.39002 84.1106 10.68 84.1106 13.17V22.65ZM114.596 22.65H110.606V13.29C110.606 10.65 109.586 9.09002 107.576 9.09002C106.226 9.09002 104.096 9.72002 104.096 13.53V22.65H100.106V13.29C100.106 10.8 98.9965 9.09002 96.8065 9.09002C94.6765 9.09002 93.5965 10.44 93.5965 14.16V22.65H89.6065V6.00002H93.2665V7.41002H93.3265C94.1365 6.12002 95.7265 5.43002 97.6765 5.43002C99.6865 5.43002 101.396 6.36002 102.476 8.04002C103.826 6.15002 105.596 5.43002 107.846 5.43002C111.386 5.43002 114.596 7.53002 114.596 12.63V22.65Z" fill="#001E5B"/>
</svg>
