<svg width="298" height="24" viewBox="0 0 298 24" fill="none" xmlns="http://www.w3.org/2000/svg">
<path d="M4.11003 22.6499H2.6986e-05V0.449902H6.75003C11.7 0.449902 14.19 3.3899 14.19 7.3199C14.19 11.3999 11.61 14.1899 6.78003 14.1899H4.11003V22.6499ZM4.11003 10.3499H5.55003C9.36003 10.3499 10.08 8.9399 10.08 7.3199C10.08 5.5799 9.30003 4.2899 5.58003 4.2899H4.11003V10.3499ZM20.5071 22.6499H16.5171V5.9999H20.1771V7.4699H20.2371C21.2871 5.9099 22.1571 5.4299 24.0471 5.4299H24.1371V9.2999C21.7371 9.3899 20.5071 10.6799 20.5071 13.1699V22.6499ZM33.0462 23.1899C28.1562 23.1899 24.1662 19.1399 24.1662 14.3399C24.1662 9.5399 28.0362 5.4299 33.0462 5.4299C38.0862 5.4299 41.8662 9.4799 41.8662 14.2799C41.8662 19.2599 38.1462 23.1899 33.0462 23.1899ZM33.0462 19.5299C35.8662 19.5299 37.8762 17.1299 37.8762 14.3699C37.8762 11.6399 35.8362 9.0899 33.0162 9.0899C30.3462 9.0899 28.1562 11.5499 28.1562 14.3399C28.1562 17.1299 30.1962 19.5299 33.0462 19.5299ZM48.4557 22.6499H44.4657V9.5399H43.0557V5.9999H44.4657C44.7657 1.2899 47.9457 -9.93013e-05 49.9257 -9.93013e-05H51.0057V3.9299C48.9657 3.9299 48.5457 4.4699 48.4557 5.9999H50.7957V9.5399H48.4557V22.6499ZM69.0739 16.1099H56.1439C56.4439 17.5799 58.2739 19.5299 60.7339 19.5299C62.3839 19.5299 63.7639 18.8699 64.5739 17.3999H68.7739C67.6939 20.7599 64.2739 23.1899 60.7339 23.1899C55.7239 23.1899 51.9439 19.2899 51.9439 14.3699C51.9439 9.4499 55.6339 5.4299 60.7039 5.4299C65.5339 5.4299 69.3139 9.2399 69.3139 14.0999C69.3139 14.7299 69.2239 15.3899 69.0739 16.1099ZM56.0239 12.8999H65.2339C64.8439 10.4999 63.1939 9.0899 60.7039 9.0899C58.5139 9.0899 56.6539 10.3499 56.0239 12.8999ZM82.3833 10.5299H78.4833C78.2733 9.6599 77.8233 9.0899 76.8933 9.0899C76.0533 9.0899 75.3633 9.6899 75.3633 10.5299C75.3633 11.3099 75.6933 11.6699 78.0933 12.3599C81.9933 13.4999 82.8333 15.2399 82.8333 17.3699C82.8333 20.6999 80.2833 23.1899 77.0133 23.1899C73.8933 23.1899 71.0133 21.3899 70.7733 17.3999H74.8533C75.1833 18.9299 75.9033 19.5299 77.0433 19.5299C78.0933 19.5299 78.8433 18.8099 78.8433 17.8499C78.8433 16.6799 77.9733 16.3199 75.6933 15.5699C72.3633 14.5199 71.3733 12.6599 71.3733 10.5899C71.3733 7.6499 73.9533 5.4299 76.9533 5.4299C79.7433 5.4299 82.2333 7.4699 82.3833 10.5299ZM95.5962 10.5299H91.6962C91.4862 9.6599 91.0362 9.0899 90.1062 9.0899C89.2662 9.0899 88.5762 9.6899 88.5762 10.5299C88.5762 11.3099 88.9062 11.6699 91.3062 12.3599C95.2062 13.4999 96.0462 15.2399 96.0462 17.3699C96.0462 20.6999 93.4962 23.1899 90.2262 23.1899C87.1062 23.1899 84.2262 21.3899 83.9862 17.3999H88.0662C88.3962 18.9299 89.1162 19.5299 90.2562 19.5299C91.3062 19.5299 92.0562 18.8099 92.0562 17.8499C92.0562 16.6799 91.1862 16.3199 88.9062 15.5699C85.5762 14.5199 84.5862 12.6599 84.5862 10.5899C84.5862 7.6499 87.1662 5.4299 90.1662 5.4299C92.9562 5.4299 95.4462 7.4699 95.5962 10.5299ZM102.209 4.1099H98.2191V0.449902H102.209V4.1099ZM102.209 22.6499H98.2191V5.9999H102.209V22.6499ZM113.466 23.1899C108.576 23.1899 104.586 19.1399 104.586 14.3399C104.586 9.5399 108.456 5.4299 113.466 5.4299C118.506 5.4299 122.286 9.4799 122.286 14.2799C122.286 19.2599 118.566 23.1899 113.466 23.1899ZM113.466 19.5299C116.286 19.5299 118.296 17.1299 118.296 14.3699C118.296 11.6399 116.256 9.0899 113.436 9.0899C110.766 9.0899 108.576 11.5499 108.576 14.3399C108.576 17.1299 110.616 19.5299 113.466 19.5299ZM139.436 22.6499H135.446V14.2799C135.446 10.8899 134.336 9.0899 132.086 9.0899C130.856 9.0899 128.636 9.8999 128.636 13.5599V22.6499H124.646V5.9999H128.336V7.4399C129.656 6.1499 131.006 5.4299 132.926 5.4299C135.086 5.4299 139.436 6.7799 139.436 12.8099V22.6499ZM159.404 22.6499H155.744V20.5799C154.424 22.1399 151.964 23.1899 149.894 23.1899C145.214 23.1899 141.824 19.2599 141.824 14.2199C141.824 9.3899 145.334 5.4299 150.164 5.4299C152.504 5.4299 154.814 6.8099 155.684 8.0999H155.744V5.9999H159.404V22.6499ZM150.764 19.5299C153.674 19.5299 155.624 17.1299 155.624 14.2799C155.624 11.3699 153.614 9.0899 150.734 9.0899C147.944 9.0899 145.814 11.4299 145.814 14.3999C145.814 17.1899 147.944 19.5299 150.764 19.5299ZM166.429 22.6499H162.439V0.449902H166.429V22.6499ZM190.684 6.3299H186.484V6.2999C186.364 4.8599 185.554 3.8399 183.994 3.8399C182.704 3.8399 181.714 4.7699 181.714 6.0899C181.714 7.5299 182.674 8.3699 184.564 8.9099C189.244 10.2899 191.224 12.3899 191.224 16.0199C191.224 20.3699 188.074 23.0999 184.024 23.0999C180.154 23.0999 177.034 20.3099 176.794 16.2899H181.114C181.324 18.1199 182.404 19.2599 184.054 19.2599C185.734 19.2599 187.114 18.0299 187.114 16.4399C187.114 14.8199 186.034 13.8599 184.264 13.2299C180.754 11.9699 177.604 10.9799 177.604 6.3299C177.604 2.5499 180.604 -9.93013e-05 184.114 -9.93013e-05C187.534 -9.93013e-05 190.474 2.5799 190.684 6.3299ZM210.841 16.1099H197.911C198.211 17.5799 200.041 19.5299 202.501 19.5299C204.151 19.5299 205.531 18.8699 206.341 17.3999H210.541C209.461 20.7599 206.041 23.1899 202.501 23.1899C197.491 23.1899 193.711 19.2899 193.711 14.3699C193.711 9.4499 197.401 5.4299 202.471 5.4299C207.301 5.4299 211.081 9.2399 211.081 14.0999C211.081 14.7299 210.991 15.3899 210.841 16.1099ZM197.791 12.8999H207.001C206.611 10.4999 204.961 9.0899 202.471 9.0899C200.281 9.0899 198.421 10.3499 197.791 12.8999ZM217.851 22.6499H213.861V5.9999H217.521V7.4699H217.581C218.631 5.9099 219.501 5.4299 221.391 5.4299H221.481V9.2999C219.081 9.3899 217.851 10.6799 217.851 13.1699V22.6499ZM232.096 22.6499H228.976L222.256 5.9999H226.576L230.596 17.0399H230.686L234.466 5.9999H238.846L232.096 22.6499ZM244.533 4.1099H240.543V0.449902H244.533V4.1099ZM244.533 22.6499H240.543V5.9999H244.533V22.6499ZM259.96 17.2199H264.46C263.05 21.0299 259.93 23.1899 256.12 23.1899C251.2 23.1899 247.27 19.1399 247.27 14.2499C247.27 9.4499 251.2 5.4299 256.09 5.4299C259.84 5.4299 263.17 7.6799 264.46 11.5199H259.96C259.09 9.9599 257.92 9.0899 256.09 9.0899C253.27 9.0899 251.26 11.3399 251.26 14.3099C251.26 17.2799 253.42 19.5299 256.27 19.5299C257.92 19.5299 259.12 18.5699 259.96 17.2199ZM283.41 16.1099H270.48C270.78 17.5799 272.61 19.5299 275.07 19.5299C276.72 19.5299 278.1 18.8699 278.91 17.3999H283.11C282.03 20.7599 278.61 23.1899 275.07 23.1899C270.06 23.1899 266.28 19.2899 266.28 14.3699C266.28 9.4499 269.97 5.4299 275.04 5.4299C279.87 5.4299 283.65 9.2399 283.65 14.0999C283.65 14.7299 283.56 15.3899 283.41 16.1099ZM270.36 12.8999H279.57C279.18 10.4999 277.53 9.0899 275.04 9.0899C272.85 9.0899 270.99 10.3499 270.36 12.8999ZM296.719 10.5299H292.819C292.609 9.6599 292.159 9.0899 291.229 9.0899C290.389 9.0899 289.699 9.6899 289.699 10.5299C289.699 11.3099 290.029 11.6699 292.429 12.3599C296.329 13.4999 297.169 15.2399 297.169 17.3699C297.169 20.6999 294.619 23.1899 291.349 23.1899C288.229 23.1899 285.349 21.3899 285.109 17.3999H289.189C289.519 18.9299 290.239 19.5299 291.379 19.5299C292.429 19.5299 293.179 18.8099 293.179 17.8499C293.179 16.6799 292.309 16.3199 290.029 15.5699C286.699 14.5199 285.709 12.6599 285.709 10.5899C285.709 7.6499 288.289 5.4299 291.289 5.4299C294.079 5.4299 296.569 7.4699 296.719 10.5299Z" fill="#001E5B"/>
</svg>
