<svg width="187" height="24" viewBox="0 0 187 24" fill="none" xmlns="http://www.w3.org/2000/svg">
<path d="M4.10997 22.6499H-3.40492e-05V0.449902H6.74997C11.7 0.449902 14.19 3.3899 14.19 7.3199C14.19 11.3999 11.61 14.1899 6.77997 14.1899H4.10997V22.6499ZM4.10997 10.3499H5.54997C9.35997 10.3499 10.08 8.9399 10.08 7.3199C10.08 5.5799 9.29997 4.2899 5.57997 4.2899H4.10997V10.3499ZM30.9471 22.6499H27.2871V20.9699H27.2271C26.1171 22.4999 24.7071 23.1899 23.1771 23.1899C19.1871 23.1899 16.1271 21.0899 16.1271 15.7799V5.9999H20.1171V14.6099C20.1171 17.8499 21.1971 19.5299 23.5971 19.5299C25.9071 19.5299 26.9571 17.5499 26.9571 14.6399V5.9999H30.9471V22.6499ZM37.6854 22.6499H34.0254V0.449902H38.0154V7.4999C39.3354 6.1799 41.2854 5.4299 43.2054 5.4299C48.0654 5.4299 51.5754 9.6299 51.5754 14.0699C51.5754 18.7499 48.5154 23.1899 43.2954 23.1899C40.8954 23.1899 39.2754 22.4699 37.6854 20.6399V22.6499ZM42.7854 19.5299C45.6054 19.5299 47.5854 17.3099 47.5854 14.2799C47.5854 11.3699 45.5154 9.0899 42.6954 9.0899C39.9954 9.0899 37.7754 11.3699 37.7754 14.0999C37.7754 17.0999 39.8154 19.5299 42.7854 19.5299ZM58.03 22.6499H54.04V0.449902H58.03V22.6499ZM65.2071 4.1099H61.2171V0.449902H65.2071V4.1099ZM65.2071 22.6499H61.2171V5.9999H65.2071V22.6499ZM80.6341 17.2199H85.1341C83.7241 21.0299 80.6041 23.1899 76.7941 23.1899C71.8741 23.1899 67.9441 19.1399 67.9441 14.2499C67.9441 9.4499 71.8741 5.4299 76.7641 5.4299C80.5141 5.4299 83.8441 7.6799 85.1341 11.5199H80.6341C79.7641 9.9599 78.5941 9.0899 76.7641 9.0899C73.9441 9.0899 71.9341 11.3399 71.9341 14.3099C71.9341 17.2799 74.0941 19.5299 76.9441 19.5299C78.5941 19.5299 79.7941 18.5699 80.6341 17.2199ZM108.682 6.3299H104.482V6.2999C104.362 4.8599 103.552 3.8399 101.992 3.8399C100.702 3.8399 99.7118 4.7699 99.7118 6.0899C99.7118 7.5299 100.672 8.3699 102.562 8.9099C107.242 10.2899 109.222 12.3899 109.222 16.0199C109.222 20.3699 106.072 23.0999 102.022 23.0999C98.1518 23.0999 95.0318 20.3099 94.7918 16.2899H99.1118C99.3218 18.1199 100.402 19.2599 102.052 19.2599C103.732 19.2599 105.112 18.0299 105.112 16.4399C105.112 14.8199 104.032 13.8599 102.262 13.2299C98.7518 11.9699 95.6018 10.9799 95.6018 6.3299C95.6018 2.5499 98.6018 -9.93013e-05 102.112 -9.93013e-05C105.532 -9.93013e-05 108.472 2.5799 108.682 6.3299ZM128.839 16.1099H115.909C116.209 17.5799 118.039 19.5299 120.499 19.5299C122.149 19.5299 123.529 18.8699 124.339 17.3999H128.539C127.459 20.7599 124.039 23.1899 120.499 23.1899C115.489 23.1899 111.709 19.2899 111.709 14.3699C111.709 9.4499 115.399 5.4299 120.469 5.4299C125.299 5.4299 129.079 9.2399 129.079 14.0999C129.079 14.7299 128.989 15.3899 128.839 16.1099ZM115.789 12.8999H124.999C124.609 10.4999 122.959 9.0899 120.469 9.0899C118.279 9.0899 116.419 10.3499 115.789 12.8999ZM143.769 17.2199H148.269C146.859 21.0299 143.739 23.1899 139.929 23.1899C135.009 23.1899 131.079 19.1399 131.079 14.2499C131.079 9.4499 135.009 5.4299 139.899 5.4299C143.649 5.4299 146.979 7.6799 148.269 11.5199H143.769C142.899 9.9599 141.729 9.0899 139.899 9.0899C137.079 9.0899 135.069 11.3399 135.069 14.3099C135.069 17.2799 137.229 19.5299 140.079 19.5299C141.729 19.5299 142.929 18.5699 143.769 17.2199ZM155.728 22.6499H151.738V9.5399H149.788V5.9999H151.738V0.449902H155.728V5.9999H158.128V9.5399H155.728V22.6499ZM167.782 23.1899C162.892 23.1899 158.902 19.1399 158.902 14.3399C158.902 9.5399 162.772 5.4299 167.782 5.4299C172.822 5.4299 176.602 9.4799 176.602 14.2799C176.602 19.2599 172.882 23.1899 167.782 23.1899ZM167.782 19.5299C170.602 19.5299 172.612 17.1299 172.612 14.3699C172.612 11.6399 170.572 9.0899 167.752 9.0899C165.082 9.0899 162.892 11.5499 162.892 14.3399C162.892 17.1299 164.932 19.5299 167.782 19.5299ZM183.222 22.6499H179.232V5.9999H182.892V7.4699H182.952C184.002 5.9099 184.872 5.4299 186.762 5.4299H186.852V9.2999C184.452 9.3899 183.222 10.6799 183.222 13.1699V22.6499Z" fill="#001E5B"/>
</svg>
