<svg width="77" height="23" viewBox="0 0 77 23" fill="none" xmlns="http://www.w3.org/2000/svg">
<path d="M15.03 22.2002H10.05L4.17 13.7102H4.11V22.2002H1.92225e-06V0.000195026H7.53C11.91 0.000195026 14.82 3.12019 14.82 6.9302C14.82 9.00019 13.74 13.1102 9 14.0102L15.03 22.2002ZM4.11 10.6202H6.84C9.15 10.6202 10.71 9.39019 10.71 7.2002C10.71 5.04019 8.97 3.84019 6.84 3.84019H4.11V10.6202ZM33.5423 15.6602H20.6123C20.9123 17.1302 22.7423 19.0802 25.2023 19.0802C26.8523 19.0802 28.2323 18.4202 29.0423 16.9502H33.2423C32.1623 20.3102 28.7423 22.7402 25.2023 22.7402C20.1923 22.7402 16.4123 18.8402 16.4123 13.9202C16.4123 9.00019 20.1023 4.9802 25.1723 4.9802C30.0023 4.9802 33.7823 8.79019 33.7823 13.6502C33.7823 14.2802 33.6923 14.9402 33.5423 15.6602ZM20.4923 12.4502H29.7023C29.3123 10.0502 27.6623 8.64019 25.1723 8.64019C22.9823 8.64019 21.1223 9.90019 20.4923 12.4502ZM41.2418 22.2002H37.2518V9.0902H35.3018V5.5502H37.2518V0.000195026H41.2418V5.5502H43.6418V9.0902H41.2418V22.2002ZM62.0559 22.2002H58.3959V20.1302C57.0759 21.6902 54.6159 22.7402 52.5459 22.7402C47.8659 22.7402 44.4759 18.8102 44.4759 13.7702C44.4759 8.94019 47.9859 4.9802 52.8159 4.9802C55.1559 4.9802 57.4659 6.3602 58.3359 7.65019H58.3959V5.5502H62.0559V22.2002ZM53.4159 19.0802C56.3259 19.0802 58.2759 16.6802 58.2759 13.8302C58.2759 10.9202 56.2659 8.64019 53.3859 8.64019C50.5959 8.64019 48.4659 10.9802 48.4659 13.9502C48.4659 16.7402 50.5959 19.0802 53.4159 19.0802ZM69.0506 3.66019H65.0606V0.000195026H69.0506V3.66019ZM69.0506 22.2002H65.0606V5.5502H69.0506V22.2002ZM76.2877 22.2002H72.2977V0.000195026H76.2877V22.2002Z" fill="#001E5B"/>
</svg>
