<svg width="211" height="24" viewBox="0 0 211 24" fill="none" xmlns="http://www.w3.org/2000/svg">
<path d="M13.89 6.3299H9.69V6.2999C9.57 4.8599 8.76 3.8399 7.2 3.8399C5.91 3.8399 4.92 4.7699 4.92 6.0899C4.92 7.5299 5.88 8.3699 7.77 8.9099C12.45 10.2899 14.43 12.3899 14.43 16.0199C14.43 20.3699 11.28 23.0999 7.23 23.0999C3.36 23.0999 0.239999 20.3099 -6.07222e-07 16.2899H4.32C4.53 18.1199 5.61 19.2599 7.26 19.2599C8.94 19.2599 10.32 18.0299 10.32 16.4399C10.32 14.8199 9.24 13.8599 7.47 13.2299C3.96 11.9699 0.809999 10.9799 0.809999 6.3299C0.809999 2.5499 3.81 -9.93013e-05 7.32 -9.93013e-05C10.74 -9.93013e-05 13.68 2.5799 13.89 6.3299ZM34.3777 22.6499H30.7177V20.5799C29.3977 22.1399 26.9377 23.1899 24.8677 23.1899C20.1877 23.1899 16.7977 19.2599 16.7977 14.2199C16.7977 9.3899 20.3077 5.4299 25.1377 5.4299C27.4777 5.4299 29.7877 6.8099 30.6577 8.0999H30.7177V5.9999H34.3777V22.6499ZM25.7377 19.5299C28.6477 19.5299 30.5977 17.1299 30.5977 14.2799C30.5977 11.3699 28.5877 9.0899 25.7077 9.0899C22.9177 9.0899 20.7877 11.4299 20.7877 14.3999C20.7877 17.1899 22.9177 19.5299 25.7377 19.5299ZM41.4023 22.6499H37.4123V0.449902H41.4023V22.6499ZM61.0594 16.1099H48.1294C48.4294 17.5799 50.2594 19.5299 52.7194 19.5299C54.3694 19.5299 55.7494 18.8699 56.5594 17.3999H60.7594C59.6794 20.7599 56.2594 23.1899 52.7194 23.1899C47.7094 23.1899 43.9294 19.2899 43.9294 14.3699C43.9294 9.4499 47.6194 5.4299 52.6894 5.4299C57.5194 5.4299 61.2994 9.2399 61.2994 14.0999C61.2994 14.7299 61.2094 15.3899 61.0594 16.1099ZM48.0094 12.8999H57.2194C56.8294 10.4999 55.1794 9.0899 52.6894 9.0899C50.4994 9.0899 48.6394 10.3499 48.0094 12.8999ZM74.3688 10.5299H70.4688C70.2588 9.6599 69.8088 9.0899 68.8788 9.0899C68.0388 9.0899 67.3488 9.6899 67.3488 10.5299C67.3488 11.3099 67.6788 11.6699 70.0788 12.3599C73.9788 13.4999 74.8188 15.2399 74.8188 17.3699C74.8188 20.6999 72.2688 23.1899 68.9988 23.1899C65.8788 23.1899 62.9988 21.3899 62.7588 17.3999H66.8388C67.1688 18.9299 67.8888 19.5299 69.0288 19.5299C70.0788 19.5299 70.8288 18.8099 70.8288 17.8499C70.8288 16.6799 69.9588 16.3199 67.6788 15.5699C64.3488 14.5199 63.3588 12.6599 63.3588 10.5899C63.3588 7.6499 65.9388 5.4299 68.9388 5.4299C71.7288 5.4299 74.2188 7.4699 74.3688 10.5299ZM100.76 22.6499H95.7799L89.8999 14.1599H89.8399V22.6499H85.7299V0.449902H93.2599C97.6399 0.449902 100.55 3.5699 100.55 7.3799C100.55 9.4499 99.4699 13.5599 94.7299 14.4599L100.76 22.6499ZM89.8399 11.0699H92.5699C94.8799 11.0699 96.4399 9.8399 96.4399 7.6499C96.4399 5.4899 94.6999 4.2899 92.5699 4.2899H89.8399V11.0699ZM119.272 16.1099H106.342C106.642 17.5799 108.472 19.5299 110.932 19.5299C112.582 19.5299 113.962 18.8699 114.772 17.3999H118.972C117.892 20.7599 114.472 23.1899 110.932 23.1899C105.922 23.1899 102.142 19.2899 102.142 14.3699C102.142 9.4499 105.832 5.4299 110.902 5.4299C115.732 5.4299 119.512 9.2399 119.512 14.0999C119.512 14.7299 119.422 15.3899 119.272 16.1099ZM106.222 12.8999H115.432C115.042 10.4999 113.392 9.0899 110.902 9.0899C108.712 9.0899 106.852 10.3499 106.222 12.8999ZM130.332 22.6499H127.212L120.492 5.9999H124.812L128.832 17.0399H128.922L132.702 5.9999H137.082L130.332 22.6499ZM155.249 16.1099H142.319C142.619 17.5799 144.449 19.5299 146.909 19.5299C148.559 19.5299 149.939 18.8699 150.749 17.3999H154.949C153.869 20.7599 150.449 23.1899 146.909 23.1899C141.899 23.1899 138.119 19.2899 138.119 14.3699C138.119 9.4499 141.809 5.4299 146.879 5.4299C151.709 5.4299 155.489 9.2399 155.489 14.0999C155.489 14.7299 155.399 15.3899 155.249 16.1099ZM142.199 12.8999H151.409C151.019 10.4999 149.369 9.0899 146.879 9.0899C144.689 9.0899 142.829 10.3499 142.199 12.8999ZM172.788 22.6499H168.798V14.2799C168.798 10.8899 167.688 9.0899 165.438 9.0899C164.208 9.0899 161.988 9.8999 161.988 13.5599V22.6499H157.998V5.9999H161.688V7.4399C163.008 6.1499 164.358 5.4299 166.278 5.4299C168.438 5.4299 172.788 6.7799 172.788 12.8099V22.6499ZM190.687 22.6499H187.027V20.9699H186.967C185.857 22.4999 184.447 23.1899 182.917 23.1899C178.927 23.1899 175.867 21.0899 175.867 15.7799V5.9999H179.857V14.6099C179.857 17.8499 180.937 19.5299 183.337 19.5299C185.647 19.5299 186.697 17.5499 186.697 14.6399V5.9999H190.687V22.6499ZM210.415 16.1099H197.485C197.785 17.5799 199.615 19.5299 202.075 19.5299C203.725 19.5299 205.105 18.8699 205.915 17.3999H210.115C209.035 20.7599 205.615 23.1899 202.075 23.1899C197.065 23.1899 193.285 19.2899 193.285 14.3699C193.285 9.4499 196.975 5.4299 202.045 5.4299C206.875 5.4299 210.655 9.2399 210.655 14.0999C210.655 14.7299 210.565 15.3899 210.415 16.1099ZM197.365 12.8999H206.575C206.185 10.4999 204.535 9.0899 202.045 9.0899C199.855 9.0899 197.995 10.3499 197.365 12.8999Z" fill="#001E5B"/>
</svg>
