<svg width="75" height="24" viewBox="0 0 75 24" fill="none" xmlns="http://www.w3.org/2000/svg">
<path d="M13.89 6.33002H9.69V6.30002C9.57 4.86002 8.76 3.84002 7.2 3.84002C5.91 3.84002 4.92 4.77002 4.92 6.09002C4.92 7.53002 5.88 8.37002 7.77 8.91002C12.45 10.29 14.43 12.39 14.43 16.02C14.43 20.37 11.28 23.1 7.23 23.1C3.36 23.1 0.239999 20.31 -6.07222e-07 16.29H4.32C4.53 18.12 5.61 19.26 7.26 19.26C8.94 19.26 10.32 18.03 10.32 16.44C10.32 14.82 9.24 13.86 7.47 13.23C3.96 11.97 0.809999 10.98 0.809999 6.33002C0.809999 2.55002 3.81 2.2769e-05 7.32 2.2769e-05C10.74 2.2769e-05 13.68 2.58002 13.89 6.33002ZM34.3777 22.65H30.7177V20.58C29.3977 22.14 26.9377 23.19 24.8677 23.19C20.1877 23.19 16.7977 19.26 16.7977 14.22C16.7977 9.39002 20.3077 5.43002 25.1377 5.43002C27.4777 5.43002 29.7877 6.81002 30.6577 8.10002H30.7177V6.00002H34.3777V22.65ZM25.7377 19.53C28.6477 19.53 30.5977 17.13 30.5977 14.28C30.5977 11.37 28.5877 9.09002 25.7077 9.09002C22.9177 9.09002 20.7877 11.43 20.7877 14.4C20.7877 17.19 22.9177 19.53 25.7377 19.53ZM41.4023 22.65H37.4123V0.450024H41.4023V22.65ZM61.0594 16.11H48.1294C48.4294 17.58 50.2594 19.53 52.7194 19.53C54.3694 19.53 55.7494 18.87 56.5594 17.4H60.7594C59.6794 20.76 56.2594 23.19 52.7194 23.19C47.7094 23.19 43.9294 19.29 43.9294 14.37C43.9294 9.45002 47.6194 5.43002 52.6894 5.43002C57.5194 5.43002 61.2994 9.24002 61.2994 14.1C61.2994 14.73 61.2094 15.39 61.0594 16.11ZM48.0094 12.9H57.2194C56.8294 10.5 55.1794 9.09002 52.6894 9.09002C50.4994 9.09002 48.6394 10.35 48.0094 12.9ZM74.3688 10.53H70.4688C70.2588 9.66002 69.8088 9.09002 68.8788 9.09002C68.0388 9.09002 67.3488 9.69002 67.3488 10.53C67.3488 11.31 67.6788 11.67 70.0788 12.36C73.9788 13.5 74.8188 15.24 74.8188 17.37C74.8188 20.7 72.2688 23.19 68.9988 23.19C65.8788 23.19 62.9988 21.39 62.7588 17.4H66.8388C67.1688 18.93 67.8888 19.53 69.0288 19.53C70.0788 19.53 70.8288 18.81 70.8288 17.85C70.8288 16.68 69.9588 16.32 67.6788 15.57C64.3488 14.52 63.3588 12.66 63.3588 10.59C63.3588 7.65002 65.9388 5.43002 68.9388 5.43002C71.7288 5.43002 74.2188 7.47002 74.3688 10.53Z" fill="#001E5B"/>
</svg>
