<svg width="107" height="24" viewBox="0 0 107 24" fill="none" xmlns="http://www.w3.org/2000/svg">
<path d="M13.89 6.33002H9.69001V6.30002C9.57002 4.86002 8.76002 3.84002 7.20001 3.84002C5.91001 3.84002 4.92002 4.77002 4.92002 6.09002C4.92002 7.53002 5.88001 8.37002 7.77002 8.91002C12.45 10.29 14.43 12.39 14.43 16.02C14.43 20.37 11.28 23.1 7.23002 23.1C3.36001 23.1 0.240015 20.31 1.46516e-05 16.29H4.32001C4.53001 18.12 5.61002 19.26 7.26001 19.26C8.94001 19.26 10.32 18.03 10.32 16.44C10.32 14.82 9.24002 13.86 7.47001 13.23C3.96001 11.97 0.810015 10.98 0.810015 6.33002C0.810015 2.55002 3.81002 2.2769e-05 7.32002 2.2769e-05C10.74 2.2769e-05 13.68 2.58002 13.89 6.33002ZM34.0477 16.11H21.1177C21.4177 17.58 23.2477 19.53 25.7077 19.53C27.3577 19.53 28.7377 18.87 29.5477 17.4H33.7477C32.6677 20.76 29.2477 23.19 25.7077 23.19C20.6977 23.19 16.9177 19.29 16.9177 14.37C16.9177 9.45002 20.6077 5.43002 25.6777 5.43002C30.5077 5.43002 34.2877 9.24002 34.2877 14.1C34.2877 14.73 34.1977 15.39 34.0477 16.11ZM20.9977 12.9H30.2077C29.8177 10.5 28.1677 9.09002 25.6777 9.09002C23.4877 9.09002 21.6277 10.35 20.9977 12.9ZM41.0571 22.65H37.0671V6.00002H40.7271V7.47002H40.7871C41.8371 5.91002 42.7071 5.43002 44.5971 5.43002H44.6871V9.30002C42.2871 9.39002 41.0571 10.68 41.0571 13.17V22.65ZM55.3024 22.65H52.1824L45.4624 6.00002H49.7824L53.8024 17.04H53.8924L57.6724 6.00002H62.0524L55.3024 22.65ZM67.7395 4.11002H63.7495V0.450024H67.7395V4.11002ZM67.7395 22.65H63.7495V6.00002H67.7395V22.65ZM83.1666 17.22H87.6666C86.2566 21.03 83.1366 23.19 79.3266 23.19C74.4066 23.19 70.4766 19.14 70.4766 14.25C70.4766 9.45002 74.4066 5.43002 79.2966 5.43002C83.0466 5.43002 86.3766 7.68002 87.6666 11.52H83.1666C82.2966 9.96002 81.1266 9.09002 79.2966 9.09002C76.4766 9.09002 74.4666 11.34 74.4666 14.31C74.4666 17.28 76.6266 19.53 79.4766 19.53C81.1266 19.53 82.3266 18.57 83.1666 17.22ZM106.616 16.11H93.686C93.986 17.58 95.816 19.53 98.276 19.53C99.926 19.53 101.306 18.87 102.116 17.4H106.316C105.236 20.76 101.816 23.19 98.276 23.19C93.266 23.19 89.486 19.29 89.486 14.37C89.486 9.45002 93.176 5.43002 98.246 5.43002C103.076 5.43002 106.856 9.24002 106.856 14.1C106.856 14.73 106.766 15.39 106.616 16.11ZM93.566 12.9H102.776C102.386 10.5 100.736 9.09002 98.246 9.09002C96.056 9.09002 94.196 10.35 93.566 12.9Z" fill="#001E5B"/>
</svg>
