<svg width="79" height="24" viewBox="0 0 79 24" fill="none" xmlns="http://www.w3.org/2000/svg">
<path d="M13.89 6.33002H9.69001V6.30002C9.57002 4.86002 8.76002 3.84002 7.20001 3.84002C5.91001 3.84002 4.92002 4.77002 4.92002 6.09002C4.92002 7.53002 5.88001 8.37002 7.77002 8.91002C12.45 10.29 14.43 12.39 14.43 16.02C14.43 20.37 11.28 23.1 7.23002 23.1C3.36001 23.1 0.240015 20.31 1.46516e-05 16.29H4.32001C4.53001 18.12 5.61002 19.26 7.26001 19.26C8.94001 19.26 10.32 18.03 10.32 16.44C10.32 14.82 9.24002 13.86 7.47001 13.23C3.96001 11.97 0.810015 10.98 0.810015 6.33002C0.810015 2.55002 3.81002 2.2769e-05 7.32002 2.2769e-05C10.74 2.2769e-05 13.68 2.58002 13.89 6.33002ZM20.836 22.65H16.846V0.450024H20.836V22.65ZM40.823 22.65H37.163V20.58C35.843 22.14 33.383 23.19 31.313 23.19C26.633 23.19 23.243 19.26 23.243 14.22C23.243 9.39002 26.753 5.43002 31.583 5.43002C33.923 5.43002 36.233 6.81002 37.103 8.10002H37.163V6.00002H40.823V22.65ZM32.183 19.53C35.093 19.53 37.043 17.13 37.043 14.28C37.043 11.37 35.033 9.09002 32.153 9.09002C29.363 9.09002 27.233 11.43 27.233 14.4C27.233 17.19 29.363 19.53 32.183 19.53ZM56.0377 17.22H60.5377C59.1277 21.03 56.0077 23.19 52.1977 23.19C47.2777 23.19 43.3477 19.14 43.3477 14.25C43.3477 9.45002 47.2777 5.43002 52.1677 5.43002C55.9177 5.43002 59.2477 7.68002 60.5377 11.52H56.0377C55.1677 9.96002 53.9977 9.09002 52.1677 9.09002C49.3477 9.09002 47.3377 11.34 47.3377 14.31C47.3377 17.28 49.4977 19.53 52.3477 19.53C53.9977 19.53 55.1977 18.57 56.0377 17.22ZM78.5571 22.65H73.5171L67.8771 14.85H67.8171V22.65H63.8271V0.450024H67.8171V13.83H67.8771L73.1871 6.00002H77.7771L71.7771 14.16L78.5571 22.65Z" fill="#001E5B"/>
</svg>
