<svg width="205" height="24" viewBox="0 0 205 24" fill="none" xmlns="http://www.w3.org/2000/svg">
<path d="M13.89 6.33002H9.69V6.30002C9.57 4.86002 8.76 3.84002 7.2 3.84002C5.91 3.84002 4.92 4.77002 4.92 6.09002C4.92 7.53002 5.88 8.37002 7.77 8.91002C12.45 10.29 14.43 12.39 14.43 16.02C14.43 20.37 11.28 23.1 7.23 23.1C3.36 23.1 0.239999 20.31 -6.07222e-07 16.29H4.32C4.53 18.12 5.61 19.26 7.26 19.26C8.94 19.26 10.32 18.03 10.32 16.44C10.32 14.82 9.24 13.86 7.47 13.23C3.96 11.97 0.809999 10.98 0.809999 6.33002C0.809999 2.55002 3.81 2.2769e-05 7.32 2.2769e-05C10.74 2.2769e-05 13.68 2.58002 13.89 6.33002ZM41.8359 22.65H37.8459V13.29C37.8459 10.65 36.8259 9.09002 34.8159 9.09002C33.4659 9.09002 31.3359 9.72002 31.3359 13.53V22.65H27.3459V13.29C27.3459 10.8 26.2359 9.09002 24.0459 9.09002C21.9159 9.09002 20.8359 10.44 20.8359 14.16V22.65H16.8459V6.00002H20.5059V7.41002H20.5659C21.3759 6.12002 22.9659 5.43002 24.9159 5.43002C26.9259 5.43002 28.6359 6.36002 29.7159 8.04002C31.0659 6.15002 32.8359 5.43002 35.0859 5.43002C38.6259 5.43002 41.8359 7.53002 41.8359 12.63V22.65ZM61.8288 22.65H58.1688V20.58C56.8488 22.14 54.3888 23.19 52.3188 23.19C47.6388 23.19 44.2488 19.26 44.2488 14.22C44.2488 9.39002 47.7588 5.43002 52.5888 5.43002C54.9288 5.43002 57.2388 6.81002 58.1088 8.10002H58.1688V6.00002H61.8288V22.65ZM53.1888 19.53C56.0988 19.53 58.0488 17.13 58.0488 14.28C58.0488 11.37 56.0388 9.09002 53.1588 9.09002C50.3688 9.09002 48.2388 11.43 48.2388 14.4C48.2388 17.19 50.3688 19.53 53.1888 19.53ZM68.8535 22.65H64.8635V0.450024H68.8535V22.65ZM76.0605 22.65H72.0705V0.450024H76.0605V22.65ZM94.5258 22.65H88.1658V0.450024H93.4158C96.3858 0.450024 98.3058 1.05002 99.5058 2.28002C100.676 3.48002 101.276 4.83002 101.276 6.33002C101.276 8.22002 100.466 9.60002 98.7858 10.53C101.396 11.49 102.596 13.26 102.596 16.05C102.596 19.29 100.436 22.65 94.5258 22.65ZM92.2758 9.09002H93.7158C96.0858 9.09002 97.1658 8.22002 97.1658 6.69002C97.1658 5.16002 95.9658 4.29002 94.0758 4.29002H92.2758V9.09002ZM92.2758 18.81H94.4358C96.9558 18.81 98.4858 17.88 98.4858 15.87C98.4858 13.98 96.8058 12.93 94.5258 12.93H92.2758V18.81ZM119.788 22.65H116.128V20.97H116.068C114.958 22.5 113.548 23.19 112.018 23.19C108.028 23.19 104.968 21.09 104.968 15.78V6.00002H108.958V14.61C108.958 17.85 110.038 19.53 112.438 19.53C114.748 19.53 115.798 17.55 115.798 14.64V6.00002H119.788V22.65ZM133.636 10.53H129.736C129.526 9.66002 129.076 9.09002 128.146 9.09002C127.306 9.09002 126.616 9.69002 126.616 10.53C126.616 11.31 126.946 11.67 129.346 12.36C133.246 13.5 134.086 15.24 134.086 17.37C134.086 20.7 131.536 23.19 128.266 23.19C125.146 23.19 122.266 21.39 122.026 17.4H126.106C126.436 18.93 127.156 19.53 128.296 19.53C129.346 19.53 130.096 18.81 130.096 17.85C130.096 16.68 129.226 16.32 126.946 15.57C123.616 14.52 122.626 12.66 122.626 10.59C122.626 7.65002 125.206 5.43002 128.206 5.43002C130.996 5.43002 133.486 7.47002 133.636 10.53ZM140.249 4.11002H136.259V0.450024H140.249V4.11002ZM140.249 22.65H136.259V6.00002H140.249V22.65ZM158.286 22.65H154.296V14.28C154.296 10.89 153.186 9.09002 150.936 9.09002C149.706 9.09002 147.486 9.90002 147.486 13.56V22.65H143.496V6.00002H147.186V7.44002C148.506 6.15002 149.856 5.43002 151.776 5.43002C153.936 5.43002 158.286 6.78002 158.286 12.81V22.65ZM177.925 16.11H164.995C165.295 17.58 167.125 19.53 169.585 19.53C171.235 19.53 172.615 18.87 173.425 17.4H177.625C176.545 20.76 173.125 23.19 169.585 23.19C164.575 23.19 160.795 19.29 160.795 14.37C160.795 9.45002 164.485 5.43002 169.555 5.43002C174.385 5.43002 178.165 9.24002 178.165 14.1C178.165 14.73 178.075 15.39 177.925 16.11ZM164.875 12.9H174.085C173.695 10.5 172.045 9.09002 169.555 9.09002C167.365 9.09002 165.505 10.35 164.875 12.9ZM191.234 10.53H187.334C187.124 9.66002 186.674 9.09002 185.744 9.09002C184.904 9.09002 184.214 9.69002 184.214 10.53C184.214 11.31 184.544 11.67 186.944 12.36C190.844 13.5 191.684 15.24 191.684 17.37C191.684 20.7 189.134 23.19 185.864 23.19C182.744 23.19 179.864 21.39 179.624 17.4H183.704C184.034 18.93 184.754 19.53 185.894 19.53C186.944 19.53 187.694 18.81 187.694 17.85C187.694 16.68 186.824 16.32 184.544 15.57C181.214 14.52 180.224 12.66 180.224 10.59C180.224 7.65002 182.804 5.43002 185.804 5.43002C188.594 5.43002 191.084 7.47002 191.234 10.53ZM204.447 10.53H200.547C200.337 9.66002 199.887 9.09002 198.957 9.09002C198.117 9.09002 197.427 9.69002 197.427 10.53C197.427 11.31 197.757 11.67 200.157 12.36C204.057 13.5 204.897 15.24 204.897 17.37C204.897 20.7 202.347 23.19 199.077 23.19C195.957 23.19 193.077 21.39 192.837 17.4H196.917C197.247 18.93 197.967 19.53 199.107 19.53C200.157 19.53 200.907 18.81 200.907 17.85C200.907 16.68 200.037 16.32 197.757 15.57C194.427 14.52 193.437 12.66 193.437 10.59C193.437 7.65002 196.017 5.43002 199.017 5.43002C201.807 5.43002 204.297 7.47002 204.447 10.53Z" fill="#001E5B"/>
</svg>
