<svg width="170" height="170" viewBox="0 0 170 170" fill="none" xmlns="http://www.w3.org/2000/svg">
<rect width="170" height="170" rx="12.3636" fill="#EAF5FE"/>
<path d="M54.475 77.262H58.132C56.821 80.321 53.578 82.345 50.266 82.345C45.528 82.345 41.388 78.389 41.388 73.421C41.388 68.683 45.344 64.635 50.197 64.635C53.578 64.635 56.821 66.59 58.224 69.833H54.636C53.417 68.43 51.991 67.579 50.082 67.579C47 67.579 44.539 70.454 44.539 73.467C44.539 76.526 47.069 79.401 50.197 79.401C51.784 79.401 53.072 78.826 54.475 77.262ZM65.9353 82.414C62.1863 82.414 59.1273 79.309 59.1273 75.629C59.1273 71.949 62.0943 68.798 65.9353 68.798C69.7993 68.798 72.6973 71.903 72.6973 75.583C72.6973 79.401 69.8453 82.414 65.9353 82.414ZM65.9353 79.608C68.0973 79.608 69.6383 77.768 69.6383 75.652C69.6383 73.559 68.0743 71.604 65.9123 71.604C63.8653 71.604 62.1863 73.49 62.1863 75.629C62.1863 77.768 63.7503 79.608 65.9353 79.608ZM93.6652 82H90.6062V74.824C90.6062 72.8 89.8242 71.604 88.2832 71.604C87.2482 71.604 85.6152 72.087 85.6152 75.008V82H82.5562V74.824C82.5562 72.915 81.7052 71.604 80.0262 71.604C78.3932 71.604 77.5652 72.639 77.5652 75.491V82H74.5062V69.235H77.3122V70.316H77.3582C77.9792 69.327 79.1982 68.798 80.6932 68.798C82.2342 68.798 83.5452 69.511 84.3732 70.799C85.4082 69.35 86.7652 68.798 88.4902 68.798C91.2042 68.798 93.6652 70.408 93.6652 74.318V82ZM99.1721 67.786H96.1131V64.98H99.1721V67.786ZM99.1721 82H96.1131V69.235H99.1721V82ZM113 82H109.941V75.583C109.941 72.984 109.09 71.604 107.365 71.604C106.422 71.604 104.72 72.225 104.72 75.031V82H101.661V69.235H104.49V70.339C105.502 69.35 106.537 68.798 108.009 68.798C109.665 68.798 113 69.833 113 74.456V82ZM125.71 80.413L125.664 80.367C124.652 81.816 123.203 82.414 121.478 82.414C118.189 82.414 114.946 79.539 114.946 75.491C114.946 71.88 117.867 68.798 121.455 68.798C123.111 68.798 124.606 69.419 125.526 70.799H125.572V69.235H128.539V79.884C128.539 84.507 125.319 87.198 121.57 87.198C118.718 87.198 116.165 85.565 115.153 82.966H118.649C119.5 83.978 120.512 84.392 121.8 84.392C123.916 84.392 125.549 82.828 125.71 80.413ZM121.823 79.608C123.962 79.608 125.48 77.676 125.48 75.491C125.48 73.49 123.824 71.604 121.708 71.604C119.707 71.604 118.005 73.306 118.005 75.514C118.005 77.722 119.615 79.608 121.823 79.608ZM68.051 92.488H64.831V92.465C64.739 91.361 64.118 90.579 62.922 90.579C61.933 90.579 61.174 91.292 61.174 92.304C61.174 93.408 61.91 94.052 63.359 94.466C66.947 95.524 68.465 97.134 68.465 99.917C68.465 103.252 66.05 105.345 62.945 105.345C59.978 105.345 57.586 103.206 57.402 100.124H60.714C60.875 101.527 61.703 102.401 62.968 102.401C64.256 102.401 65.314 101.458 65.314 100.239C65.314 98.997 64.486 98.261 63.129 97.778C60.438 96.812 58.023 96.053 58.023 92.488C58.023 89.59 60.323 87.635 63.014 87.635C65.636 87.635 67.89 89.613 68.051 92.488ZM77.0422 105.414C73.2932 105.414 70.2342 102.309 70.2342 98.629C70.2342 94.949 73.2012 91.798 77.0422 91.798C80.9062 91.798 83.8042 94.903 83.8042 98.583C83.8042 102.401 80.9522 105.414 77.0422 105.414ZM77.0422 102.608C79.2042 102.608 80.7452 100.768 80.7452 98.652C80.7452 96.559 79.1812 94.604 77.0192 94.604C74.9722 94.604 73.2932 96.49 73.2932 98.629C73.2932 100.768 74.8572 102.608 77.0422 102.608ZM91.7541 105.414C88.0051 105.414 84.9461 102.309 84.9461 98.629C84.9461 94.949 87.9131 91.798 91.7541 91.798C95.6181 91.798 98.5161 94.903 98.5161 98.583C98.5161 102.401 95.6641 105.414 91.7541 105.414ZM91.7541 102.608C93.9161 102.608 95.4571 100.768 95.4571 98.652C95.4571 96.559 93.8931 94.604 91.7311 94.604C89.6841 94.604 88.0051 96.49 88.0051 98.629C88.0051 100.768 89.5691 102.608 91.7541 102.608ZM111.664 105H108.605V98.583C108.605 95.984 107.754 94.604 106.029 94.604C105.086 94.604 103.384 95.225 103.384 98.031V105H100.325V92.235H103.154V93.339C104.166 92.35 105.201 91.798 106.673 91.798C108.329 91.798 111.664 92.833 111.664 97.456V105Z" fill="#1AB9FF"/>
</svg>
