<svg width="188" height="29" viewBox="0 0 188 29" fill="none" xmlns="http://www.w3.org/2000/svg">
<path d="M13.89 6.3299H9.69001V6.2999C9.57002 4.8599 8.76002 3.8399 7.20001 3.8399C5.91001 3.8399 4.92002 4.7699 4.92002 6.0899C4.92002 7.5299 5.88001 8.3699 7.77002 8.9099C12.45 10.2899 14.43 12.3899 14.43 16.0199C14.43 20.3699 11.28 23.0999 7.23002 23.0999C3.36001 23.0999 0.240015 20.3099 1.46516e-05 16.2899H4.32001C4.53001 18.1199 5.61002 19.2599 7.26001 19.2599C8.94001 19.2599 10.32 18.0299 10.32 16.4399C10.32 14.8199 9.24002 13.8599 7.47001 13.2299C3.96001 11.9699 0.810015 10.9799 0.810015 6.3299C0.810015 2.5499 3.81002 -9.93013e-05 7.32002 -9.93013e-05C10.74 -9.93013e-05 13.68 2.5799 13.89 6.3299ZM31.546 22.6499H27.886V20.9699H27.826C26.716 22.4999 25.306 23.1899 23.776 23.1899C19.786 23.1899 16.726 21.0899 16.726 15.7799V5.9999H20.716V14.6099C20.716 17.8499 21.796 19.5299 24.196 19.5299C26.506 19.5299 27.556 17.5499 27.556 14.6399V5.9999H31.546V22.6499ZM45.3942 10.5299H41.4942C41.2842 9.6599 40.8342 9.0899 39.9042 9.0899C39.0642 9.0899 38.3742 9.6899 38.3742 10.5299C38.3742 11.3099 38.7042 11.6699 41.1042 12.3599C45.0042 13.4999 45.8442 15.2399 45.8442 17.3699C45.8442 20.6999 43.2942 23.1899 40.0242 23.1899C36.9042 23.1899 34.0242 21.3899 33.7842 17.3999H37.8642C38.1942 18.9299 38.9142 19.5299 40.0542 19.5299C41.1042 19.5299 41.8542 18.8099 41.8542 17.8499C41.8542 16.6799 40.9842 16.3199 38.7042 15.5699C35.3742 14.5199 34.3842 12.6599 34.3842 10.5899C34.3842 7.6499 36.9642 5.4299 39.9642 5.4299C42.7542 5.4299 45.2442 7.4699 45.3942 10.5299ZM52.9971 22.6499H49.0071V9.5399H47.0571V5.9999H49.0071V0.449902H52.9971V5.9999H55.3971V9.5399H52.9971V22.6499ZM73.8113 22.6499H70.1513V20.5799C68.8313 22.1399 66.3713 23.1899 64.3013 23.1899C59.6213 23.1899 56.2313 19.2599 56.2313 14.2199C56.2313 9.3899 59.7413 5.4299 64.5713 5.4299C66.9113 5.4299 69.2213 6.8099 70.0913 8.0999H70.1513V5.9999H73.8113V22.6499ZM65.1713 19.5299C68.0813 19.5299 70.0313 17.1299 70.0313 14.2799C70.0313 11.3699 68.0213 9.0899 65.1413 9.0899C62.3513 9.0899 60.2213 11.4299 60.2213 14.3999C60.2213 17.1899 62.3513 19.5299 65.1713 19.5299ZM80.806 4.1099H76.816V0.449902H80.806V4.1099ZM80.806 22.6499H76.816V5.9999H80.806V22.6499ZM98.843 22.6499H94.853V14.2799C94.853 10.8899 93.743 9.0899 91.493 9.0899C90.263 9.0899 88.043 9.8999 88.043 13.5599V22.6499H84.053V5.9999H87.743V7.4399C89.063 6.1499 90.413 5.4299 92.333 5.4299C94.493 5.4299 98.843 6.7799 98.843 12.8099V22.6499ZM118.811 22.6499H115.151V20.5799C113.831 22.1399 111.371 23.1899 109.301 23.1899C104.621 23.1899 101.231 19.2599 101.231 14.2199C101.231 9.3899 104.741 5.4299 109.571 5.4299C111.911 5.4299 114.221 6.8099 115.091 8.0999H115.151V5.9999H118.811V22.6499ZM110.171 19.5299C113.081 19.5299 115.031 17.1299 115.031 14.2799C115.031 11.3699 113.021 9.0899 110.141 9.0899C107.351 9.0899 105.221 11.4299 105.221 14.3999C105.221 17.1899 107.351 19.5299 110.171 19.5299ZM125.296 22.6499H121.636V0.449902H125.626V7.4999C126.946 6.1799 128.896 5.4299 130.816 5.4299C135.676 5.4299 139.186 9.6299 139.186 14.0699C139.186 18.7499 136.126 23.1899 130.906 23.1899C128.506 23.1899 126.886 22.4699 125.296 20.6399V22.6499ZM130.396 19.5299C133.216 19.5299 135.196 17.3099 135.196 14.2799C135.196 11.3699 133.126 9.0899 130.306 9.0899C127.606 9.0899 125.386 11.3699 125.386 14.0999C125.386 17.0999 127.426 19.5299 130.396 19.5299ZM145.611 4.1099H141.621V0.449902H145.611V4.1099ZM145.611 22.6499H141.621V5.9999H145.611V22.6499ZM152.848 22.6499H148.858V0.449902H152.848V22.6499ZM160.025 4.1099H156.035V0.449902H160.025V4.1099ZM160.025 22.6499H156.035V5.9999H160.025V22.6499ZM168.222 22.6499H164.232V9.5399H162.282V5.9999H164.232V0.449902H168.222V5.9999H170.622V9.5399H168.222V22.6499ZM178.206 28.1999H173.916L176.976 21.1199L170.886 5.9999H175.446L179.226 16.6799L183.246 5.9999H187.776L178.206 28.1999Z" fill="#001E5B"/>
</svg>
