<svg width="169" height="29" viewBox="0 0 169 29" fill="none" xmlns="http://www.w3.org/2000/svg">
<path d="M8.21995 22.2002H4.10995V3.84019H-5.37094e-05V0.000195026H12.3599V3.84019H8.21995V22.2002ZM29.2764 15.6602H16.3464C16.6464 17.1302 18.4764 19.0802 20.9364 19.0802C22.5864 19.0802 23.9664 18.4202 24.7764 16.9502H28.9764C27.8964 20.3102 24.4764 22.7402 20.9364 22.7402C15.9264 22.7402 12.1464 18.8402 12.1464 13.9202C12.1464 9.00019 15.8364 4.9802 20.9064 4.9802C25.7364 4.9802 29.5164 8.79019 29.5164 13.6502C29.5164 14.2802 29.4264 14.9402 29.2764 15.6602ZM16.2264 12.4502H25.4364C25.0464 10.0502 23.3964 8.64019 20.9064 8.64019C18.7164 8.64019 16.8564 9.90019 16.2264 12.4502ZM44.2059 16.7702H48.7059C47.2959 20.5802 44.1759 22.7402 40.3659 22.7402C35.4459 22.7402 31.5159 18.6902 31.5159 13.8002C31.5159 9.00019 35.4459 4.9802 40.3359 4.9802C44.0859 4.9802 47.4159 7.23019 48.7059 11.0702H44.2059C43.3359 9.5102 42.1659 8.64019 40.3359 8.64019C37.5159 8.64019 35.5059 10.8902 35.5059 13.8602C35.5059 16.8302 37.6659 19.0802 40.5159 19.0802C42.1659 19.0802 43.3659 18.1202 44.2059 16.7702ZM65.9753 22.2002H61.9853V13.5302C61.9853 10.0802 60.8453 8.64019 58.5653 8.64019C56.2853 8.64019 55.2053 10.2602 55.2053 13.5902V22.2002H51.2153V0.000195026H55.2053V6.72019C56.4353 5.5502 57.8153 4.9802 59.5253 4.9802C61.5353 4.9802 65.9753 6.3902 65.9753 12.0302V22.2002ZM83.9936 22.2002H80.0036V13.8302C80.0036 10.4402 78.8936 8.64019 76.6436 8.64019C75.4136 8.64019 73.1936 9.45019 73.1936 13.1102V22.2002H69.2036V5.5502H72.8936V6.99019C74.2136 5.70019 75.5636 4.9802 77.4836 4.9802C79.6436 4.9802 83.9936 6.33019 83.9936 12.3602V22.2002ZM95.2019 22.7402C90.3119 22.7402 86.3219 18.6902 86.3219 13.8902C86.3219 9.0902 90.1919 4.9802 95.2019 4.9802C100.242 4.9802 104.022 9.03019 104.022 13.8302C104.022 18.8102 100.302 22.7402 95.2019 22.7402ZM95.2019 19.0802C98.0219 19.0802 100.032 16.6802 100.032 13.9202C100.032 11.1902 97.9919 8.64019 95.1719 8.64019C92.5019 8.64019 90.3119 11.1002 90.3119 13.8902C90.3119 16.6802 92.3519 19.0802 95.2019 19.0802ZM110.371 22.2002H106.381V0.000195026H110.371V22.2002ZM121.598 22.7402C116.708 22.7402 112.718 18.6902 112.718 13.8902C112.718 9.0902 116.588 4.9802 121.598 4.9802C126.638 4.9802 130.418 9.03019 130.418 13.8302C130.418 18.8102 126.698 22.7402 121.598 22.7402ZM121.598 19.0802C124.418 19.0802 126.428 16.6802 126.428 13.9202C126.428 11.1902 124.388 8.64019 121.568 8.64019C118.898 8.64019 116.708 11.1002 116.708 13.8902C116.708 16.6802 118.748 19.0802 121.598 19.0802ZM146.158 20.1302L146.098 20.0702C144.778 21.9602 142.888 22.7402 140.638 22.7402C136.348 22.7402 132.118 18.9902 132.118 13.7102C132.118 9.00019 135.928 4.9802 140.608 4.9802C142.768 4.9802 144.718 5.79019 145.918 7.59019H145.978V5.5502H149.848V19.4402C149.848 25.4702 145.648 28.9802 140.758 28.9802C137.038 28.9802 133.708 26.8502 132.388 23.4602H136.948C138.058 24.7802 139.378 25.3202 141.058 25.3202C143.818 25.3202 145.948 23.2802 146.158 20.1302ZM141.088 19.0802C143.878 19.0802 145.858 16.5602 145.858 13.7102C145.858 11.1002 143.698 8.64019 140.938 8.64019C138.328 8.64019 136.108 10.8602 136.108 13.7402C136.108 16.6202 138.208 19.0802 141.088 19.0802ZM158.523 27.7502H154.233L157.293 20.6702L151.203 5.5502H155.763L159.543 16.2302L163.563 5.5502H168.093L158.523 27.7502Z" fill="#001E5B"/>
</svg>
