<svg width="422" height="75" viewBox="0 0 422 75" fill="none" xmlns="http://www.w3.org/2000/svg">
<path d="M11.792 2.288H6.886V16.214H4.928V2.288H2.56766e-06V0.638004H11.792V2.288ZM13.8143 0.638004H15.6843V6.578H15.7283C16.095 6.02067 16.5936 5.57334 17.2243 5.236C17.855 4.884 18.6323 4.708 19.5563 4.708C20.9643 4.708 22.0056 5.11867 22.6803 5.94C23.355 6.74667 23.6923 7.75867 23.6923 8.976V16.214H21.8223V9.35C21.8223 8.45534 21.6023 7.722 21.1623 7.15C20.7223 6.56334 20.011 6.27 19.0283 6.27C18.0163 6.27 17.2023 6.60734 16.5863 7.282C15.985 7.942 15.6843 8.778 15.6843 9.79V16.214H13.8143V0.638004ZM36.7434 11.286H28.4274C28.5008 12.43 28.8454 13.3393 29.4614 14.014C30.0774 14.6887 30.9574 15.026 32.1014 15.026C32.7761 15.026 33.3774 14.938 33.9054 14.762C34.4481 14.5713 34.9908 14.2927 35.5334 13.926L36.3694 15.136C35.7388 15.5907 35.0641 15.9353 34.3454 16.17C33.6414 16.4047 32.8568 16.522 31.9914 16.522C30.2754 16.522 28.9334 15.9793 27.9654 14.894C27.0121 13.8087 26.5354 12.364 26.5354 10.56C26.5354 9.40134 26.7408 8.382 27.1514 7.502C27.5621 6.622 28.1561 5.94 28.9334 5.456C29.7254 4.95734 30.6714 4.708 31.7714 4.708C33.3994 4.708 34.6388 5.236 35.4894 6.292C36.3548 7.348 36.7874 8.74867 36.7874 10.494C36.7874 10.846 36.7728 11.11 36.7434 11.286ZM34.9614 9.834C34.9321 8.71934 34.6461 7.82467 34.1034 7.15C33.5608 6.47534 32.7761 6.138 31.7494 6.138C30.7081 6.138 29.9014 6.49 29.3294 7.194C28.7574 7.88334 28.4494 8.76334 28.4054 9.834H34.9614ZM46.5429 5.896L45.7069 7.062C44.8416 6.46067 43.9029 6.16 42.8909 6.16C42.1869 6.16 41.6369 6.29934 41.2409 6.578C40.8449 6.842 40.6469 7.22334 40.6469 7.722C40.6469 8.08867 40.7276 8.38934 40.8889 8.624C41.0502 8.85867 41.3216 9.05667 41.7029 9.218C42.0842 9.37934 42.6416 9.548 43.3749 9.724C44.5189 10.0027 45.3622 10.4133 45.9049 10.956C46.4622 11.484 46.7409 12.1807 46.7409 13.046C46.7409 14.146 46.3302 15.004 45.5089 15.62C44.6876 16.2213 43.6756 16.522 42.4729 16.522C40.8596 16.522 39.5102 16.0893 38.4249 15.224L39.2829 14.058C39.7816 14.3953 40.2729 14.6447 40.7569 14.806C41.2409 14.9673 41.7909 15.048 42.4069 15.048C43.1549 15.048 43.7416 14.8867 44.1669 14.564C44.6069 14.2413 44.8269 13.7793 44.8269 13.178C44.8269 12.782 44.7462 12.4667 44.5849 12.232C44.4236 11.9827 44.1522 11.7773 43.7709 11.616C43.4042 11.4547 42.8469 11.2787 42.0989 11.088C40.9402 10.7947 40.0969 10.3987 39.5689 9.9C39.0409 9.40134 38.7769 8.712 38.7769 7.832C38.7769 6.87867 39.1436 6.12334 39.8769 5.566C40.6249 4.994 41.6076 4.708 42.8249 4.708C44.2622 4.708 45.5016 5.104 46.5429 5.896ZM58.9153 11.286H50.5993C50.6726 12.43 51.0173 13.3393 51.6333 14.014C52.2493 14.6887 53.1293 15.026 54.2733 15.026C54.948 15.026 55.5493 14.938 56.0773 14.762C56.62 14.5713 57.1626 14.2927 57.7053 13.926L58.5413 15.136C57.9106 15.5907 57.236 15.9353 56.5173 16.17C55.8133 16.4047 55.0286 16.522 54.1633 16.522C52.4473 16.522 51.1053 15.9793 50.1373 14.894C49.184 13.8087 48.7073 12.364 48.7073 10.56C48.7073 9.40134 48.9126 8.382 49.3233 7.502C49.734 6.622 50.328 5.94 51.1053 5.456C51.8973 4.95734 52.8433 4.708 53.9433 4.708C55.5713 4.708 56.8106 5.236 57.6613 6.292C58.5266 7.348 58.9593 8.74867 58.9593 10.494C58.9593 10.846 58.9446 11.11 58.9153 11.286ZM57.1333 9.834C57.104 8.71934 56.818 7.82467 56.2753 7.15C55.7326 6.47534 54.948 6.138 53.9213 6.138C52.88 6.138 52.0733 6.49 51.5013 7.194C50.9293 7.88334 50.6213 8.76334 50.5773 9.834H57.1333ZM69.5026 16.214H67.6326V5.016H69.5026V16.214ZM67.3466 1.188C67.3466 0.396004 67.7573 3.45707e-06 68.5786 3.45707e-06C69.3853 3.45707e-06 69.7886 0.396004 69.7886 1.188C69.7886 1.52534 69.6933 1.804 69.5026 2.024C69.312 2.22934 69.004 2.332 68.5786 2.332C68.1386 2.332 67.8233 2.22934 67.6326 2.024C67.442 1.804 67.3466 1.52534 67.3466 1.188ZM78.0345 4.708C78.7385 4.708 79.4059 4.818 80.0365 5.038C80.6819 5.24334 81.2539 5.53667 81.7525 5.918L81.0045 7.216C80.1539 6.58534 79.1639 6.27 78.0345 6.27C76.8319 6.27 75.9225 6.666 75.3065 7.458C74.6905 8.23534 74.3825 9.284 74.3825 10.604C74.3825 11.8947 74.6905 12.9433 75.3065 13.75C75.9225 14.542 76.8245 14.938 78.0125 14.938C79.0245 14.938 80.0292 14.6227 81.0265 13.992L81.7085 15.312C80.5939 16.1187 79.3179 16.522 77.8805 16.522C76.6192 16.522 75.5852 16.2433 74.7785 15.686C73.9719 15.114 73.3852 14.3807 73.0185 13.486C72.6665 12.5913 72.4905 11.6307 72.4905 10.604C72.4905 8.81467 72.9819 7.38467 73.9645 6.314C74.9472 5.24334 76.3039 4.708 78.0345 4.708ZM94.4532 10.582C94.4532 11.7407 94.2259 12.7747 93.7712 13.684C93.3312 14.5787 92.6859 15.2753 91.8352 15.774C90.9992 16.2727 89.9946 16.522 88.8212 16.522C87.6626 16.522 86.6579 16.2727 85.8072 15.774C84.9566 15.2607 84.3112 14.5567 83.8712 13.662C83.4312 12.7673 83.2112 11.7407 83.2112 10.582C83.2112 8.79267 83.7026 7.37 84.6852 6.314C85.6679 5.24334 87.0466 4.708 88.8212 4.708C90.0092 4.708 91.0212 4.95734 91.8572 5.456C92.7079 5.94 93.3532 6.622 93.7932 7.502C94.2332 8.382 94.4532 9.40867 94.4532 10.582ZM85.1472 10.582C85.1472 11.9167 85.4479 12.9947 86.0492 13.816C86.6652 14.6227 87.5892 15.026 88.8212 15.026C90.0679 15.026 90.9992 14.6227 91.6152 13.816C92.2312 12.9947 92.5392 11.9167 92.5392 10.582C92.5392 9.24734 92.2312 8.184 91.6152 7.392C90.9992 6.6 90.0679 6.204 88.8212 6.204C87.5746 6.204 86.6506 6.6 86.0492 7.392C85.4479 8.184 85.1472 9.24734 85.1472 10.582ZM97.4524 7.524C97.4524 6.70267 97.4011 5.86667 97.2984 5.016H99.0804C99.1538 5.412 99.2051 5.94 99.2344 6.6H99.2784C99.6451 6.028 100.158 5.57334 100.818 5.236C101.478 4.884 102.263 4.708 103.172 4.708C104.58 4.708 105.622 5.11867 106.296 5.94C106.986 6.74667 107.33 7.75867 107.33 8.976V16.214H105.46V9.35C105.46 8.45534 105.24 7.722 104.8 7.15C104.36 6.56334 103.649 6.27 102.666 6.27C101.654 6.27 100.84 6.60734 100.224 7.282C99.6231 7.942 99.3224 8.778 99.3224 9.79V16.214H97.4524V7.524ZM117.742 5.896L116.906 7.062C116.041 6.46067 115.102 6.16 114.09 6.16C113.386 6.16 112.836 6.29934 112.44 6.578C112.044 6.842 111.846 7.22334 111.846 7.722C111.846 8.08867 111.927 8.38934 112.088 8.624C112.249 8.85867 112.521 9.05667 112.902 9.218C113.283 9.37934 113.841 9.548 114.574 9.724C115.718 10.0027 116.561 10.4133 117.104 10.956C117.661 11.484 117.94 12.1807 117.94 13.046C117.94 14.146 117.529 15.004 116.708 15.62C115.887 16.2213 114.875 16.522 113.672 16.522C112.059 16.522 110.709 16.0893 109.624 15.224L110.482 14.058C110.981 14.3953 111.472 14.6447 111.956 14.806C112.44 14.9673 112.99 15.048 113.606 15.048C114.354 15.048 114.941 14.8867 115.366 14.564C115.806 14.2413 116.026 13.7793 116.026 13.178C116.026 12.782 115.945 12.4667 115.784 12.232C115.623 11.9827 115.351 11.7773 114.97 11.616C114.603 11.4547 114.046 11.2787 113.298 11.088C112.139 10.7947 111.296 10.3987 110.768 9.9C110.24 9.40134 109.976 8.712 109.976 7.832C109.976 6.87867 110.343 6.12334 111.076 5.566C111.824 4.994 112.807 4.708 114.024 4.708C115.461 4.708 116.701 5.104 117.742 5.896ZM125.402 13.156C125.402 11.704 125.923 10.6993 126.964 10.142C128.02 9.57 129.604 9.284 131.716 9.284C132.23 9.284 132.618 9.29134 132.882 9.306V8.668C132.882 7.832 132.655 7.20867 132.2 6.798C131.746 6.38734 131.049 6.182 130.11 6.182C128.922 6.182 127.8 6.49734 126.744 7.128L126.084 5.874C127.346 5.09667 128.724 4.708 130.22 4.708C131.79 4.708 132.934 5.07467 133.652 5.808C134.386 6.54134 134.752 7.656 134.752 9.152V13.728C134.752 14.5347 134.804 15.3633 134.906 16.214H133.19C133.088 15.5687 133.036 15.0627 133.036 14.696H132.97C132.56 15.2973 132.039 15.752 131.408 16.06C130.792 16.368 129.993 16.522 129.01 16.522C127.925 16.522 127.052 16.236 126.392 15.664C125.732 15.0773 125.402 14.2413 125.402 13.156ZM132.882 12.078V10.626L131.892 10.604C130.792 10.604 129.912 10.6773 129.252 10.824C128.607 10.9707 128.123 11.22 127.8 11.572C127.492 11.924 127.338 12.4153 127.338 13.046C127.338 13.6913 127.529 14.19 127.91 14.542C128.292 14.8793 128.82 15.048 129.494 15.048C130.198 15.048 130.807 14.9013 131.32 14.608C131.834 14.3 132.222 13.9187 132.486 13.464C132.75 13.0093 132.882 12.5473 132.882 12.078ZM138.38 7.524C138.38 6.70267 138.329 5.86667 138.226 5.016H140.008C140.082 5.51467 140.133 6.10867 140.162 6.798H140.206C140.852 5.40467 142.025 4.708 143.726 4.708C143.844 4.708 144.056 4.73 144.364 4.774L144.254 6.38C144.108 6.35067 143.88 6.336 143.572 6.336C142.502 6.336 141.68 6.69534 141.108 7.414C140.536 8.13267 140.25 9.064 140.25 10.208V16.214H138.38V7.524ZM155.402 11.286H147.086C147.159 12.43 147.504 13.3393 148.12 14.014C148.736 14.6887 149.616 15.026 150.76 15.026C151.434 15.026 152.036 14.938 152.564 14.762C153.106 14.5713 153.649 14.2927 154.192 13.926L155.028 15.136C154.397 15.5907 153.722 15.9353 153.004 16.17C152.3 16.4047 151.515 16.522 150.65 16.522C148.934 16.522 147.592 15.9793 146.624 14.894C145.67 13.8087 145.194 12.364 145.194 10.56C145.194 9.40134 145.399 8.382 145.81 7.502C146.22 6.622 146.814 5.94 147.592 5.456C148.384 4.95734 149.33 4.708 150.43 4.708C152.058 4.708 153.297 5.236 154.148 6.292C155.013 7.348 155.446 8.74867 155.446 10.494C155.446 10.846 155.431 11.11 155.402 11.286ZM153.62 9.834C153.59 8.71934 153.304 7.82467 152.762 7.15C152.219 6.47534 151.434 6.138 150.408 6.138C149.366 6.138 148.56 6.49 147.988 7.194C147.416 7.88334 147.108 8.76334 147.064 9.834H153.62ZM174.063 14.586V16.214H164.515V14.608H168.739V2.64L164.537 4.818L163.767 3.41L168.959 0.638004H170.675V14.586H174.063ZM188.151 12.21C188.151 13.0607 187.916 13.816 187.447 14.476C186.977 15.136 186.303 15.6567 185.423 16.038C184.543 16.4047 183.501 16.588 182.299 16.588C181.096 16.588 180.062 16.4047 179.197 16.038C178.331 15.6567 177.671 15.136 177.217 14.476C176.762 13.816 176.535 13.068 176.535 12.232C176.535 11.176 176.813 10.3107 177.371 9.636C177.928 8.94667 178.801 8.36 179.989 7.876C179.021 7.45067 178.324 6.96667 177.899 6.424C177.488 5.86667 177.283 5.14067 177.283 4.246C177.283 3.46867 177.51 2.77934 177.965 2.178C178.419 1.562 179.035 1.09267 179.813 0.770004C180.59 0.432671 181.441 0.264004 182.365 0.264004C183.289 0.264004 184.132 0.418004 184.895 0.726003C185.672 1.034 186.288 1.48867 186.743 2.09C187.197 2.67667 187.425 3.37334 187.425 4.18C187.425 5.00134 187.197 5.72 186.743 6.336C186.303 6.952 185.606 7.524 184.653 8.052C185.929 8.52134 186.831 9.064 187.359 9.68C187.887 10.296 188.151 11.1393 188.151 12.21ZM181.947 7.128L183.091 7.524C183.941 7.04 184.55 6.556 184.917 6.072C185.298 5.57334 185.489 4.98667 185.489 4.312C185.489 3.52 185.195 2.88934 184.609 2.42C184.022 1.95067 183.274 1.716 182.365 1.716C181.47 1.716 180.715 1.95067 180.099 2.42C179.497 2.88934 179.197 3.52 179.197 4.312C179.197 4.972 179.402 5.51467 179.813 5.94C180.223 6.36534 180.935 6.76134 181.947 7.128ZM186.171 12.1C186.171 11.528 186.061 11.0587 185.841 10.692C185.621 10.3253 185.269 10.01 184.785 9.746C184.315 9.482 183.633 9.18867 182.739 8.866L181.551 8.448C180.48 8.82934 179.71 9.31334 179.241 9.9C178.771 10.472 178.537 11.1907 178.537 12.056C178.537 13.0093 178.867 13.75 179.527 14.278C180.201 14.7913 181.14 15.048 182.343 15.048C183.545 15.048 184.484 14.784 185.159 14.256C185.833 13.728 186.171 13.0093 186.171 12.1ZM190.006 8.426C190.006 5.83 190.483 3.82067 191.436 2.398C192.404 0.975337 193.842 0.264004 195.748 0.264004C197.67 0.264004 199.114 0.975337 200.082 2.398C201.05 3.82067 201.534 5.83 201.534 8.426C201.534 11.022 201.05 13.0313 200.082 14.454C199.114 15.8767 197.67 16.588 195.748 16.588C193.842 16.588 192.404 15.8767 191.436 14.454C190.483 13.0313 190.006 11.022 190.006 8.426ZM199.576 8.426C199.576 6.29934 199.276 4.686 198.674 3.586C198.088 2.47134 197.12 1.914 195.77 1.914C194.406 1.914 193.424 2.464 192.822 3.564C192.236 4.664 191.942 6.28467 191.942 8.426C191.942 10.5527 192.236 12.1733 192.822 13.288C193.424 14.388 194.406 14.938 195.77 14.938C197.12 14.938 198.088 14.388 198.674 13.288C199.276 12.1733 199.576 10.5527 199.576 8.426ZM203.434 8.426C203.434 5.83 203.911 3.82067 204.864 2.398C205.832 0.975337 207.27 0.264004 209.176 0.264004C211.098 0.264004 212.542 0.975337 213.51 2.398C214.478 3.82067 214.962 5.83 214.962 8.426C214.962 11.022 214.478 13.0313 213.51 14.454C212.542 15.8767 211.098 16.588 209.176 16.588C207.27 16.588 205.832 15.8767 204.864 14.454C203.911 13.0313 203.434 11.022 203.434 8.426ZM213.004 8.426C213.004 6.29934 212.704 4.686 212.102 3.586C211.516 2.47134 210.548 1.914 209.198 1.914C207.834 1.914 206.852 2.464 206.25 3.564C205.664 4.664 205.37 6.28467 205.37 8.426C205.37 10.5527 205.664 12.1733 206.25 13.288C206.852 14.388 207.834 14.938 209.198 14.938C210.548 14.938 211.516 14.388 212.102 13.288C212.704 12.1733 213.004 10.5527 213.004 8.426ZM228.522 10.604C228.522 11.7187 228.317 12.7233 227.906 13.618C227.495 14.5127 226.894 15.224 226.102 15.752C225.325 16.2653 224.408 16.522 223.352 16.522C221.929 16.522 220.705 16.06 219.678 15.136V21.582H217.808V7.524C217.808 6.70267 217.757 5.86667 217.654 5.016H219.436C219.509 5.5 219.561 6.072 219.59 6.732H219.634C220.001 6.116 220.514 5.62467 221.174 5.258C221.834 4.89134 222.641 4.708 223.594 4.708C224.665 4.708 225.567 4.972 226.3 5.5C227.033 6.01334 227.583 6.71734 227.95 7.612C228.331 8.492 228.522 9.48934 228.522 10.604ZM226.586 10.604C226.586 9.25467 226.285 8.184 225.684 7.392C225.097 6.6 224.276 6.204 223.22 6.204C222.531 6.204 221.915 6.36534 221.372 6.688C220.829 7.01067 220.411 7.45067 220.118 8.008C219.825 8.56534 219.678 9.174 219.678 9.834V13.552C220.191 14.0653 220.697 14.4393 221.196 14.674C221.709 14.9087 222.296 15.026 222.956 15.026C224.129 15.026 225.024 14.6227 225.64 13.816C226.271 12.9947 226.586 11.924 226.586 10.604ZM240.395 16.214H238.151L234.719 11.506L231.419 16.214H229.219L233.575 10.34L229.703 5.016H231.837L234.807 9.262L237.755 5.016H239.779L235.951 10.34L240.395 16.214ZM257.647 16.214H255.403L251.971 11.506L248.671 16.214H246.471L250.827 10.34L246.955 5.016H249.089L252.059 9.262L255.007 5.016H257.031L253.203 10.34L257.647 16.214ZM275.383 14.586V16.214H265.835V14.608H270.059V2.64L265.857 4.818L265.087 3.41L270.279 0.638004H271.995V14.586H275.383ZM289.471 12.21C289.471 13.0607 289.236 13.816 288.767 14.476C288.298 15.136 287.623 15.6567 286.743 16.038C285.863 16.4047 284.822 16.588 283.619 16.588C282.416 16.588 281.382 16.4047 280.517 16.038C279.652 15.6567 278.992 15.136 278.537 14.476C278.082 13.816 277.855 13.068 277.855 12.232C277.855 11.176 278.134 10.3107 278.691 9.636C279.248 8.94667 280.121 8.36 281.309 7.876C280.341 7.45067 279.644 6.96667 279.219 6.424C278.808 5.86667 278.603 5.14067 278.603 4.246C278.603 3.46867 278.83 2.77934 279.285 2.178C279.74 1.562 280.356 1.09267 281.133 0.770004C281.91 0.432671 282.761 0.264004 283.685 0.264004C284.609 0.264004 285.452 0.418004 286.215 0.726003C286.992 1.034 287.608 1.48867 288.063 2.09C288.518 2.67667 288.745 3.37334 288.745 4.18C288.745 5.00134 288.518 5.72 288.063 6.336C287.623 6.952 286.926 7.524 285.973 8.052C287.249 8.52134 288.151 9.064 288.679 9.68C289.207 10.296 289.471 11.1393 289.471 12.21ZM283.267 7.128L284.411 7.524C285.262 7.04 285.87 6.556 286.237 6.072C286.618 5.57334 286.809 4.98667 286.809 4.312C286.809 3.52 286.516 2.88934 285.929 2.42C285.342 1.95067 284.594 1.716 283.685 1.716C282.79 1.716 282.035 1.95067 281.419 2.42C280.818 2.88934 280.517 3.52 280.517 4.312C280.517 4.972 280.722 5.51467 281.133 5.94C281.544 6.36534 282.255 6.76134 283.267 7.128ZM287.491 12.1C287.491 11.528 287.381 11.0587 287.161 10.692C286.941 10.3253 286.589 10.01 286.105 9.746C285.636 9.482 284.954 9.18867 284.059 8.866L282.871 8.448C281.8 8.82934 281.03 9.31334 280.561 9.9C280.092 10.472 279.857 11.1907 279.857 12.056C279.857 13.0093 280.187 13.75 280.847 14.278C281.522 14.7913 282.46 15.048 283.663 15.048C284.866 15.048 285.804 14.784 286.479 14.256C287.154 13.728 287.491 13.0093 287.491 12.1ZM291.327 8.426C291.327 5.83 291.803 3.82067 292.757 2.398C293.725 0.975337 295.162 0.264004 297.069 0.264004C298.99 0.264004 300.435 0.975337 301.403 2.398C302.371 3.82067 302.855 5.83 302.855 8.426C302.855 11.022 302.371 13.0313 301.403 14.454C300.435 15.8767 298.99 16.588 297.069 16.588C295.162 16.588 293.725 15.8767 292.757 14.454C291.803 13.0313 291.327 11.022 291.327 8.426ZM300.897 8.426C300.897 6.29934 300.596 4.686 299.995 3.586C299.408 2.47134 298.44 1.914 297.091 1.914C295.727 1.914 294.744 2.464 294.143 3.564C293.556 4.664 293.263 6.28467 293.263 8.426C293.263 10.5527 293.556 12.1733 294.143 13.288C294.744 14.388 295.727 14.938 297.091 14.938C298.44 14.938 299.408 14.388 299.995 13.288C300.596 12.1733 300.897 10.5527 300.897 8.426ZM304.754 8.426C304.754 5.83 305.231 3.82067 306.184 2.398C307.152 0.975337 308.59 0.264004 310.496 0.264004C312.418 0.264004 313.862 0.975337 314.83 2.398C315.798 3.82067 316.282 5.83 316.282 8.426C316.282 11.022 315.798 13.0313 314.83 14.454C313.862 15.8767 312.418 16.588 310.496 16.588C308.59 16.588 307.152 15.8767 306.184 14.454C305.231 13.0313 304.754 11.022 304.754 8.426ZM314.324 8.426C314.324 6.29934 314.024 4.686 313.422 3.586C312.836 2.47134 311.868 1.914 310.518 1.914C309.154 1.914 308.172 2.464 307.57 3.564C306.984 4.664 306.69 6.28467 306.69 8.426C306.69 10.5527 306.984 12.1733 307.57 13.288C308.172 14.388 309.154 14.938 310.518 14.938C311.868 14.938 312.836 14.388 313.422 13.288C314.024 12.1733 314.324 10.5527 314.324 8.426ZM329.842 10.604C329.842 11.7187 329.637 12.7233 329.226 13.618C328.816 14.5127 328.214 15.224 327.422 15.752C326.645 16.2653 325.728 16.522 324.672 16.522C323.25 16.522 322.025 16.06 320.998 15.136V21.582H319.128V7.524C319.128 6.70267 319.077 5.86667 318.974 5.016H320.756C320.83 5.5 320.881 6.072 320.91 6.732H320.954C321.321 6.116 321.834 5.62467 322.494 5.258C323.154 4.89134 323.961 4.708 324.914 4.708C325.985 4.708 326.887 4.972 327.62 5.5C328.354 6.01334 328.904 6.71734 329.27 7.612C329.652 8.492 329.842 9.48934 329.842 10.604ZM327.906 10.604C327.906 9.25467 327.606 8.184 327.004 7.392C326.418 6.6 325.596 6.204 324.54 6.204C323.851 6.204 323.235 6.36534 322.692 6.688C322.15 7.01067 321.732 7.45067 321.438 8.008C321.145 8.56534 320.998 9.174 320.998 9.834V13.552C321.512 14.0653 322.018 14.4393 322.516 14.674C323.03 14.9087 323.616 15.026 324.276 15.026C325.45 15.026 326.344 14.6227 326.96 13.816C327.591 12.9947 327.906 11.924 327.906 10.604ZM341.716 16.214H339.472L336.04 11.506L332.74 16.214H330.54L334.896 10.34L331.024 5.016H333.158L336.128 9.262L339.076 5.016H341.1L337.272 10.34L341.716 16.214ZM343.638 15.18C343.638 14.3587 344.048 13.948 344.87 13.948C345.676 13.948 346.08 14.3587 346.08 15.18C346.08 15.5467 345.984 15.84 345.794 16.06C345.603 16.28 345.295 16.39 344.87 16.39C344.43 16.39 344.114 16.28 343.924 16.06C343.733 15.84 343.638 15.5467 343.638 15.18ZM367.759 16.214H365.801V8.976H357.397V16.214H355.439V0.638004H357.397V7.392H365.801V0.638004H367.759V16.214ZM373.507 16.214H371.637V5.016H373.507V16.214ZM371.351 1.188C371.351 0.396004 371.761 3.45707e-06 372.583 3.45707e-06C373.389 3.45707e-06 373.793 0.396004 373.793 1.188C373.793 1.52534 373.697 1.804 373.507 2.024C373.316 2.22934 373.008 2.332 372.583 2.332C372.143 2.332 371.827 2.22934 371.637 2.024C371.446 1.804 371.351 1.52534 371.351 1.188ZM375.834 18.502C375.834 17.8713 376.01 17.2993 376.362 16.786C376.729 16.2873 377.323 15.8327 378.144 15.422C377.426 15.0993 377.066 14.608 377.066 13.948C377.066 13.552 377.206 13.2 377.484 12.892C377.778 12.584 378.181 12.3567 378.694 12.21C378.005 11.9313 377.462 11.506 377.066 10.934C376.685 10.362 376.494 9.636 376.494 8.756C376.494 7.50934 376.905 6.52667 377.726 5.808C378.548 5.08934 379.692 4.73 381.158 4.73C381.554 4.73 381.884 4.752 382.148 4.796C382.427 4.84 382.757 4.91334 383.138 5.016H387.032V6.512L384.546 6.248C384.898 6.49734 385.184 6.84934 385.404 7.304C385.624 7.75867 385.734 8.30134 385.734 8.932C385.734 10.12 385.331 11.0513 384.524 11.726C383.718 12.386 382.588 12.716 381.136 12.716C380.403 12.716 379.824 12.8113 379.398 13.002C378.988 13.1927 378.782 13.4567 378.782 13.794C378.782 14.3953 379.494 14.7033 380.916 14.718C382.984 14.7473 384.48 15.026 385.404 15.554C386.343 16.0673 386.812 16.852 386.812 17.908C386.812 19.1693 386.284 20.1447 385.228 20.834C384.187 21.5233 382.72 21.868 380.828 21.868C379.186 21.868 377.939 21.5747 377.088 20.988C376.252 20.4013 375.834 19.5727 375.834 18.502ZM383.996 8.778C383.996 7.97134 383.754 7.326 383.27 6.842C382.786 6.358 382.068 6.116 381.114 6.116C380.234 6.116 379.53 6.35067 379.002 6.82C378.489 7.28934 378.232 7.92 378.232 8.712C378.232 9.548 378.467 10.2007 378.936 10.67C379.42 11.1393 380.146 11.374 381.114 11.374C383.036 11.374 383.996 10.5087 383.996 8.778ZM384.964 18.062C384.964 17.622 384.796 17.2627 384.458 16.984C384.136 16.7053 383.578 16.4927 382.786 16.346C381.994 16.1993 380.909 16.126 379.53 16.126C378.87 16.4193 378.394 16.7493 378.1 17.116C377.807 17.4973 377.66 17.93 377.66 18.414C377.66 19.778 378.738 20.46 380.894 20.46C382.229 20.46 383.241 20.2547 383.93 19.844C384.62 19.4333 384.964 18.8393 384.964 18.062ZM389.447 0.638004H391.317V6.578H391.361C391.728 6.02067 392.226 5.57334 392.857 5.236C393.488 4.884 394.265 4.708 395.189 4.708C396.597 4.708 397.638 5.11867 398.313 5.94C398.988 6.74667 399.325 7.75867 399.325 8.976V16.214H397.455V9.35C397.455 8.45534 397.235 7.722 396.795 7.15C396.355 6.56334 395.644 6.27 394.661 6.27C393.649 6.27 392.835 6.60734 392.219 7.282C391.618 7.942 391.317 8.778 391.317 9.79V16.214H389.447V0.638004ZM412.376 11.286H404.06C404.134 12.43 404.478 13.3393 405.094 14.014C405.71 14.6887 406.59 15.026 407.734 15.026C408.409 15.026 409.01 14.938 409.538 14.762C410.081 14.5713 410.624 14.2927 411.166 13.926L412.002 15.136C411.372 15.5907 410.697 15.9353 409.978 16.17C409.274 16.4047 408.49 16.522 407.624 16.522C405.908 16.522 404.566 15.9793 403.598 14.894C402.645 13.8087 402.168 12.364 402.168 10.56C402.168 9.40134 402.374 8.382 402.784 7.502C403.195 6.622 403.789 5.94 404.566 5.456C405.358 4.95734 406.304 4.708 407.404 4.708C409.032 4.708 410.272 5.236 411.122 6.292C411.988 7.348 412.42 8.74867 412.42 10.494C412.42 10.846 412.406 11.11 412.376 11.286ZM410.594 9.834C410.565 8.71934 410.279 7.82467 409.736 7.15C409.194 6.47534 408.409 6.138 407.382 6.138C406.341 6.138 405.534 6.49 404.962 7.194C404.39 7.88334 404.082 8.76334 404.038 9.834H410.594ZM415.4 7.524C415.4 6.70267 415.348 5.86667 415.246 5.016H417.028C417.101 5.51467 417.152 6.10867 417.182 6.798H417.226C417.871 5.40467 419.044 4.708 420.746 4.708C420.863 4.708 421.076 4.73 421.384 4.774L421.274 6.38C421.127 6.35067 420.9 6.336 420.592 6.336C419.521 6.336 418.7 6.69534 418.128 7.414C417.556 8.13267 417.27 9.064 417.27 10.208V16.214H415.4V7.524ZM1.804 36.524C1.804 35.7027 1.75267 34.8667 1.65 34.016H3.432C3.50534 34.5147 3.55667 35.1087 3.586 35.798H3.63C4.27534 34.4047 5.44867 33.708 7.15 33.708C7.26734 33.708 7.48 33.73 7.788 33.774L7.678 35.38C7.53134 35.3507 7.304 35.336 6.996 35.336C5.92534 35.336 5.104 35.6953 4.532 36.414C3.96 37.1327 3.674 38.064 3.674 39.208V45.214H1.804V36.524ZM18.8255 40.286H10.5095C10.5828 41.43 10.9275 42.3393 11.5435 43.014C12.1595 43.6887 13.0395 44.026 14.1835 44.026C14.8581 44.026 15.4595 43.938 15.9875 43.762C16.5301 43.5713 17.0728 43.2927 17.6155 42.926L18.4515 44.136C17.8208 44.5907 17.1461 44.9353 16.4275 45.17C15.7235 45.4047 14.9388 45.522 14.0735 45.522C12.3575 45.522 11.0155 44.9793 10.0475 43.894C9.09414 42.8087 8.61747 41.364 8.61747 39.56C8.61747 38.4013 8.8228 37.382 9.23347 36.502C9.64414 35.622 10.2381 34.94 11.0155 34.456C11.8075 33.9573 12.7535 33.708 13.8535 33.708C15.4815 33.708 16.7208 34.236 17.5715 35.292C18.4368 36.348 18.8695 37.7487 18.8695 39.494C18.8695 39.846 18.8548 40.11 18.8255 40.286ZM17.0435 38.834C17.0141 37.7193 16.7281 36.8247 16.1855 36.15C15.6428 35.4753 14.8581 35.138 13.8315 35.138C12.7901 35.138 11.9835 35.49 11.4115 36.194C10.8395 36.8833 10.5315 37.7633 10.4875 38.834H17.0435ZM28.6249 34.896L27.7889 36.062C26.9236 35.4607 25.9849 35.16 24.9729 35.16C24.2689 35.16 23.7189 35.2993 23.3229 35.578C22.9269 35.842 22.7289 36.2233 22.7289 36.722C22.7289 37.0887 22.8096 37.3893 22.9709 37.624C23.1323 37.8587 23.4036 38.0567 23.7849 38.218C24.1663 38.3793 24.7236 38.548 25.4569 38.724C26.6009 39.0027 27.4443 39.4133 27.9869 39.956C28.5443 40.484 28.8229 41.1807 28.8229 42.046C28.8229 43.146 28.4123 44.004 27.5909 44.62C26.7696 45.2213 25.7576 45.522 24.5549 45.522C22.9416 45.522 21.5923 45.0893 20.5069 44.224L21.3649 43.058C21.8636 43.3953 22.3549 43.6447 22.8389 43.806C23.3229 43.9673 23.8729 44.048 24.4889 44.048C25.2369 44.048 25.8236 43.8867 26.2489 43.564C26.6889 43.2413 26.9089 42.7793 26.9089 42.178C26.9089 41.782 26.8283 41.4667 26.6669 41.232C26.5056 40.9827 26.2343 40.7773 25.8529 40.616C25.4863 40.4547 24.9289 40.2787 24.1809 40.088C23.0223 39.7947 22.1789 39.3987 21.6509 38.9C21.1229 38.4013 20.8589 37.712 20.8589 36.832C20.8589 35.8787 21.2256 35.1233 21.9589 34.566C22.7069 33.994 23.6896 33.708 24.9069 33.708C26.3443 33.708 27.5836 34.104 28.6249 34.896ZM42.0313 39.582C42.0313 40.7407 41.804 41.7747 41.3493 42.684C40.9093 43.5787 40.264 44.2753 39.4133 44.774C38.5773 45.2727 37.5727 45.522 36.3993 45.522C35.2407 45.522 34.236 45.2727 33.3853 44.774C32.5347 44.2607 31.8893 43.5567 31.4493 42.662C31.0093 41.7673 30.7893 40.7407 30.7893 39.582C30.7893 37.7927 31.2807 36.37 32.2633 35.314C33.246 34.2433 34.6247 33.708 36.3993 33.708C37.5873 33.708 38.5993 33.9573 39.4353 34.456C40.286 34.94 40.9313 35.622 41.3713 36.502C41.8113 37.382 42.0313 38.4087 42.0313 39.582ZM32.7253 39.582C32.7253 40.9167 33.026 41.9947 33.6273 42.816C34.2433 43.6227 35.1673 44.026 36.3993 44.026C37.646 44.026 38.5773 43.6227 39.1933 42.816C39.8093 41.9947 40.1173 40.9167 40.1173 39.582C40.1173 38.2473 39.8093 37.184 39.1933 36.392C38.5773 35.6 37.646 35.204 36.3993 35.204C35.1527 35.204 34.2287 35.6 33.6273 36.392C33.026 37.184 32.7253 38.2473 32.7253 39.582ZM46.9226 29.638V45.214H45.0526V29.638H46.9226ZM50.5484 40.88V34.016H52.4404V40.616C52.4404 41.6427 52.6604 42.4713 53.1004 43.102C53.5551 43.718 54.2518 44.026 55.1904 44.026C56.2171 44.026 57.0384 43.6447 57.6544 42.882C58.2704 42.1047 58.5784 41.144 58.5784 40V34.016H60.4484V42.728C60.4484 43.5347 60.4998 44.3633 60.6024 45.214H58.8204C58.7471 44.7447 58.6958 44.1507 58.6664 43.432H58.6224C57.8158 44.8253 56.5251 45.522 54.7504 45.522C53.3571 45.522 52.3084 45.0967 51.6044 44.246C50.9004 43.3807 50.5484 42.2587 50.5484 40.88ZM66.5256 34.016H69.4956V35.446H66.5256V42.2C66.5256 43.4027 67.0756 44.004 68.1756 44.004C68.5716 44.004 68.9383 43.9527 69.2756 43.85L69.5616 45.236C69.0629 45.4267 68.4836 45.522 67.8236 45.522C66.8409 45.522 66.0636 45.2507 65.4916 44.708C64.9343 44.1507 64.6556 43.366 64.6556 42.354V35.446H62.6756V34.236L64.6336 34.016V31.266L66.5256 30.606V34.016ZM73.9929 45.214H72.1229V34.016H73.9929V45.214ZM71.8369 30.188C71.8369 29.396 72.2475 29 73.0689 29C73.8755 29 74.2789 29.396 74.2789 30.188C74.2789 30.5253 74.1835 30.804 73.9929 31.024C73.8022 31.2293 73.4942 31.332 73.0689 31.332C72.6289 31.332 72.3135 31.2293 72.1229 31.024C71.9322 30.804 71.8369 30.5253 71.8369 30.188ZM88.2228 39.582C88.2228 40.7407 87.9954 41.7747 87.5408 42.684C87.1008 43.5787 86.4554 44.2753 85.6048 44.774C84.7688 45.2727 83.7641 45.522 82.5908 45.522C81.4321 45.522 80.4274 45.2727 79.5768 44.774C78.7261 44.2607 78.0808 43.5567 77.6408 42.662C77.2008 41.7673 76.9808 40.7407 76.9808 39.582C76.9808 37.7927 77.4721 36.37 78.4548 35.314C79.4374 34.2433 80.8161 33.708 82.5908 33.708C83.7788 33.708 84.7908 33.9573 85.6268 34.456C86.4774 34.94 87.1228 35.622 87.5628 36.502C88.0028 37.382 88.2228 38.4087 88.2228 39.582ZM78.9168 39.582C78.9168 40.9167 79.2174 41.9947 79.8188 42.816C80.4348 43.6227 81.3588 44.026 82.5908 44.026C83.8374 44.026 84.7688 43.6227 85.3848 42.816C86.0008 41.9947 86.3088 40.9167 86.3088 39.582C86.3088 38.2473 86.0008 37.184 85.3848 36.392C84.7688 35.6 83.8374 35.204 82.5908 35.204C81.3441 35.204 80.4201 35.6 79.8188 36.392C79.2174 37.184 78.9168 38.2473 78.9168 39.582ZM91.222 36.524C91.222 35.7027 91.1706 34.8667 91.068 34.016H92.85C92.9233 34.412 92.9746 34.94 93.004 35.6H93.048C93.4146 35.028 93.928 34.5733 94.588 34.236C95.248 33.884 96.0326 33.708 96.942 33.708C98.35 33.708 99.3913 34.1187 100.066 34.94C100.755 35.7467 101.1 36.7587 101.1 37.976V45.214H99.23V38.35C99.23 37.4553 99.01 36.722 98.57 36.15C98.13 35.5633 97.4186 35.27 96.436 35.27C95.424 35.27 94.61 35.6073 93.994 36.282C93.3926 36.942 93.092 37.778 93.092 38.79V45.214H91.222V36.524ZM111.512 34.896L110.676 36.062C109.81 35.4607 108.872 35.16 107.86 35.16C107.156 35.16 106.606 35.2993 106.21 35.578C105.814 35.842 105.616 36.2233 105.616 36.722C105.616 37.0887 105.696 37.3893 105.858 37.624C106.019 37.8587 106.29 38.0567 106.672 38.218C107.053 38.3793 107.61 38.548 108.344 38.724C109.488 39.0027 110.331 39.4133 110.874 39.956C111.431 40.484 111.71 41.1807 111.71 42.046C111.71 43.146 111.299 44.004 110.478 44.62C109.656 45.2213 108.644 45.522 107.442 45.522C105.828 45.522 104.479 45.0893 103.394 44.224L104.252 43.058C104.75 43.3953 105.242 43.6447 105.726 43.806C106.21 43.9673 106.76 44.048 107.376 44.048C108.124 44.048 108.71 43.8867 109.136 43.564C109.576 43.2413 109.796 42.7793 109.796 42.178C109.796 41.782 109.715 41.4667 109.554 41.232C109.392 40.9827 109.121 40.7773 108.74 40.616C108.373 40.4547 107.816 40.2787 107.068 40.088C105.909 39.7947 105.066 39.3987 104.538 38.9C104.01 38.4013 103.746 37.712 103.746 36.832C103.746 35.8787 104.112 35.1233 104.846 34.566C105.594 33.994 106.576 33.708 107.794 33.708C109.231 33.708 110.47 34.104 111.512 34.896ZM119.172 42.156C119.172 40.704 119.693 39.6993 120.734 39.142C121.79 38.57 123.374 38.284 125.486 38.284C125.999 38.284 126.388 38.2913 126.652 38.306V37.668C126.652 36.832 126.425 36.2087 125.97 35.798C125.515 35.3873 124.819 35.182 123.88 35.182C122.692 35.182 121.57 35.4973 120.514 36.128L119.854 34.874C121.115 34.0967 122.494 33.708 123.99 33.708C125.559 33.708 126.703 34.0747 127.422 34.808C128.155 35.5413 128.522 36.656 128.522 38.152V42.728C128.522 43.5347 128.573 44.3633 128.676 45.214H126.96C126.857 44.5687 126.806 44.0627 126.806 43.696H126.74C126.329 44.2973 125.809 44.752 125.178 45.06C124.562 45.368 123.763 45.522 122.78 45.522C121.695 45.522 120.822 45.236 120.162 44.664C119.502 44.0773 119.172 43.2413 119.172 42.156ZM126.652 41.078V39.626L125.662 39.604C124.562 39.604 123.682 39.6773 123.022 39.824C122.377 39.9707 121.893 40.22 121.57 40.572C121.262 40.924 121.108 41.4153 121.108 42.046C121.108 42.6913 121.299 43.19 121.68 43.542C122.061 43.8793 122.589 44.048 123.264 44.048C123.968 44.048 124.577 43.9013 125.09 43.608C125.603 43.3 125.992 42.9187 126.256 42.464C126.52 42.0093 126.652 41.5473 126.652 41.078ZM136.124 45.214H134.034L129.766 34.016H131.768L135.09 43.344H135.156L138.368 34.016H140.304L136.124 45.214ZM141 42.156C141 40.704 141.521 39.6993 142.562 39.142C143.618 38.57 145.202 38.284 147.314 38.284C147.827 38.284 148.216 38.2913 148.48 38.306V37.668C148.48 36.832 148.253 36.2087 147.798 35.798C147.343 35.3873 146.647 35.182 145.708 35.182C144.52 35.182 143.398 35.4973 142.342 36.128L141.682 34.874C142.943 34.0967 144.322 33.708 145.818 33.708C147.387 33.708 148.531 34.0747 149.25 34.808C149.983 35.5413 150.35 36.656 150.35 38.152V42.728C150.35 43.5347 150.401 44.3633 150.504 45.214H148.788C148.685 44.5687 148.634 44.0627 148.634 43.696H148.568C148.157 44.2973 147.637 44.752 147.006 45.06C146.39 45.368 145.591 45.522 144.608 45.522C143.523 45.522 142.65 45.236 141.99 44.664C141.33 44.0773 141 43.2413 141 42.156ZM148.48 41.078V39.626L147.49 39.604C146.39 39.604 145.51 39.6773 144.85 39.824C144.205 39.9707 143.721 40.22 143.398 40.572C143.09 40.924 142.936 41.4153 142.936 42.046C142.936 42.6913 143.127 43.19 143.508 43.542C143.889 43.8793 144.417 44.048 145.092 44.048C145.796 44.048 146.405 43.9013 146.918 43.608C147.431 43.3 147.82 42.9187 148.084 42.464C148.348 42.0093 148.48 41.5473 148.48 41.078ZM155.87 45.214H154V34.016H155.87V45.214ZM153.714 30.188C153.714 29.396 154.124 29 154.946 29C155.752 29 156.156 29.396 156.156 30.188C156.156 30.5253 156.06 30.804 155.87 31.024C155.679 31.2293 155.371 31.332 154.946 31.332C154.506 31.332 154.19 31.2293 154 31.024C153.809 30.804 153.714 30.5253 153.714 30.188ZM161.542 29.638V45.214H159.672V29.638H161.542ZM164.354 42.156C164.354 40.704 164.874 39.6993 165.916 39.142C166.972 38.57 168.556 38.284 170.668 38.284C171.181 38.284 171.57 38.2913 171.834 38.306V37.668C171.834 36.832 171.606 36.2087 171.152 35.798C170.697 35.3873 170 35.182 169.062 35.182C167.874 35.182 166.752 35.4973 165.696 36.128L165.036 34.874C166.297 34.0967 167.676 33.708 169.172 33.708C170.741 33.708 171.885 34.0747 172.604 34.808C173.337 35.5413 173.704 36.656 173.704 38.152V42.728C173.704 43.5347 173.755 44.3633 173.858 45.214H172.142C172.039 44.5687 171.988 44.0627 171.988 43.696H171.922C171.511 44.2973 170.99 44.752 170.36 45.06C169.744 45.368 168.944 45.522 167.962 45.522C166.876 45.522 166.004 45.236 165.344 44.664C164.684 44.0773 164.354 43.2413 164.354 42.156ZM171.834 41.078V39.626L170.844 39.604C169.744 39.604 168.864 39.6773 168.204 39.824C167.558 39.9707 167.074 40.22 166.752 40.572C166.444 40.924 166.29 41.4153 166.29 42.046C166.29 42.6913 166.48 43.19 166.862 43.542C167.243 43.8793 167.771 44.048 168.446 44.048C169.15 44.048 169.758 43.9013 170.272 43.608C170.785 43.3 171.174 42.9187 171.438 42.464C171.702 42.0093 171.834 41.5473 171.834 41.078ZM188.045 39.604C188.045 40.7187 187.84 41.7233 187.429 42.618C187.019 43.5127 186.41 44.224 185.603 44.752C184.797 45.2653 183.836 45.522 182.721 45.522C181.313 45.522 180.096 45.0307 179.069 44.048L178.893 45.214H177.353V29.638H179.223V35.622H179.289C179.656 35.0207 180.162 34.5513 180.807 34.214C181.453 33.8767 182.215 33.708 183.095 33.708C184.166 33.708 185.075 33.972 185.823 34.5C186.571 35.0133 187.129 35.7173 187.495 36.612C187.862 37.492 188.045 38.4893 188.045 39.604ZM186.131 39.604C186.131 38.2547 185.831 37.184 185.229 36.392C184.643 35.6 183.821 35.204 182.765 35.204C182.076 35.204 181.46 35.3653 180.917 35.688C180.375 36.0107 179.957 36.4507 179.663 37.008C179.37 37.5653 179.223 38.174 179.223 38.834V42.552C179.722 43.0507 180.228 43.4247 180.741 43.674C181.269 43.9087 181.856 44.026 182.501 44.026C183.66 44.026 184.555 43.6227 185.185 42.816C185.816 41.9947 186.131 40.924 186.131 39.604ZM192.909 29.638V45.214H191.039V29.638H192.909ZM206.105 40.286H197.789C197.862 41.43 198.207 42.3393 198.823 43.014C199.439 43.6887 200.319 44.026 201.463 44.026C202.137 44.026 202.739 43.938 203.267 43.762C203.809 43.5713 204.352 43.2927 204.895 42.926L205.731 44.136C205.1 44.5907 204.425 44.9353 203.707 45.17C203.003 45.4047 202.218 45.522 201.353 45.522C199.637 45.522 198.295 44.9793 197.327 43.894C196.373 42.8087 195.897 41.364 195.897 39.56C195.897 38.4013 196.102 37.382 196.513 36.502C196.923 35.622 197.517 34.94 198.295 34.456C199.087 33.9573 200.033 33.708 201.133 33.708C202.761 33.708 204 34.236 204.851 35.292C205.716 36.348 206.149 37.7487 206.149 39.494C206.149 39.846 206.134 40.11 206.105 40.286ZM204.323 38.834C204.293 37.7193 204.007 36.8247 203.465 36.15C202.922 35.4753 202.137 35.138 201.111 35.138C200.069 35.138 199.263 35.49 198.691 36.194C198.119 36.8833 197.811 37.7633 197.767 38.834H204.323ZM220.916 29.616L220.498 30.958C220.029 30.8553 219.574 30.8113 219.134 30.826C217.755 30.8407 217.066 31.596 217.066 33.092V34.016H219.882V35.446H217.066V45.214H215.196V35.446H213.238V34.258L215.196 34.016V33.048C215.196 31.86 215.511 30.9507 216.142 30.32C216.773 29.6747 217.711 29.3447 218.958 29.33C219.677 29.33 220.329 29.4253 220.916 29.616ZM232.512 39.582C232.512 40.7407 232.284 41.7747 231.83 42.684C231.39 43.5787 230.744 44.2753 229.894 44.774C229.058 45.2727 228.053 45.522 226.88 45.522C225.721 45.522 224.716 45.2727 223.866 44.774C223.015 44.2607 222.37 43.5567 221.93 42.662C221.49 41.7673 221.27 40.7407 221.27 39.582C221.27 37.7927 221.761 36.37 222.744 35.314C223.726 34.2433 225.105 33.708 226.88 33.708C228.068 33.708 229.08 33.9573 229.916 34.456C230.766 34.94 231.412 35.622 231.852 36.502C232.292 37.382 232.512 38.4087 232.512 39.582ZM223.206 39.582C223.206 40.9167 223.506 41.9947 224.108 42.816C224.724 43.6227 225.648 44.026 226.88 44.026C228.126 44.026 229.058 43.6227 229.674 42.816C230.29 41.9947 230.598 40.9167 230.598 39.582C230.598 38.2473 230.29 37.184 229.674 36.392C229.058 35.6 228.126 35.204 226.88 35.204C225.633 35.204 224.709 35.6 224.108 36.392C223.506 37.184 223.206 38.2473 223.206 39.582ZM235.511 36.524C235.511 35.7027 235.46 34.8667 235.357 34.016H237.139C237.212 34.5147 237.264 35.1087 237.293 35.798H237.337C237.982 34.4047 239.156 33.708 240.857 33.708C240.974 33.708 241.187 33.73 241.495 33.774L241.385 35.38C241.238 35.3507 241.011 35.336 240.703 35.336C239.632 35.336 238.811 35.6953 238.239 36.414C237.667 37.1327 237.381 38.064 237.381 39.208V45.214H235.511V36.524ZM258.613 40.286H250.297C250.37 41.43 250.715 42.3393 251.331 43.014C251.947 43.6887 252.827 44.026 253.971 44.026C254.645 44.026 255.247 43.938 255.775 43.762C256.317 43.5713 256.86 43.2927 257.403 42.926L258.239 44.136C257.608 44.5907 256.933 44.9353 256.215 45.17C255.511 45.4047 254.726 45.522 253.861 45.522C252.145 45.522 250.803 44.9793 249.835 43.894C248.881 42.8087 248.405 41.364 248.405 39.56C248.405 38.4013 248.61 37.382 249.021 36.502C249.431 35.622 250.025 34.94 250.803 34.456C251.595 33.9573 252.541 33.708 253.641 33.708C255.269 33.708 256.508 34.236 257.359 35.292C258.224 36.348 258.657 37.7487 258.657 39.494C258.657 39.846 258.642 40.11 258.613 40.286ZM256.831 38.834C256.801 37.7193 256.515 36.8247 255.973 36.15C255.43 35.4753 254.645 35.138 253.619 35.138C252.577 35.138 251.771 35.49 251.199 36.194C250.627 36.8833 250.319 37.7633 250.275 38.834H256.831ZM260.668 42.156C260.668 40.704 261.189 39.6993 262.23 39.142C263.286 38.57 264.87 38.284 266.982 38.284C267.495 38.284 267.884 38.2913 268.148 38.306V37.668C268.148 36.832 267.921 36.2087 267.466 35.798C267.011 35.3873 266.315 35.182 265.376 35.182C264.188 35.182 263.066 35.4973 262.01 36.128L261.35 34.874C262.611 34.0967 263.99 33.708 265.486 33.708C267.055 33.708 268.199 34.0747 268.918 34.808C269.651 35.5413 270.018 36.656 270.018 38.152V42.728C270.018 43.5347 270.069 44.3633 270.172 45.214H268.456C268.353 44.5687 268.302 44.0627 268.302 43.696H268.236C267.825 44.2973 267.305 44.752 266.674 45.06C266.058 45.368 265.259 45.522 264.276 45.522C263.191 45.522 262.318 45.236 261.658 44.664C260.998 44.0773 260.668 43.2413 260.668 42.156ZM268.148 41.078V39.626L267.158 39.604C266.058 39.604 265.178 39.6773 264.518 39.824C263.873 39.9707 263.389 40.22 263.066 40.572C262.758 40.924 262.604 41.4153 262.604 42.046C262.604 42.6913 262.795 43.19 263.176 43.542C263.557 43.8793 264.085 44.048 264.76 44.048C265.464 44.048 266.073 43.9013 266.586 43.608C267.099 43.3 267.488 42.9187 267.752 42.464C268.016 42.0093 268.148 41.5473 268.148 41.078ZM278.398 33.708C279.102 33.708 279.769 33.818 280.4 34.038C281.045 34.2433 281.617 34.5367 282.116 34.918L281.368 36.216C280.517 35.5853 279.527 35.27 278.398 35.27C277.195 35.27 276.286 35.666 275.67 36.458C275.054 37.2353 274.746 38.284 274.746 39.604C274.746 40.8947 275.054 41.9433 275.67 42.75C276.286 43.542 277.188 43.938 278.376 43.938C279.388 43.938 280.392 43.6227 281.39 42.992L282.072 44.312C280.957 45.1187 279.681 45.522 278.244 45.522C276.982 45.522 275.948 45.2433 275.142 44.686C274.335 44.114 273.748 43.3807 273.382 42.486C273.03 41.5913 272.854 40.6307 272.854 39.604C272.854 37.8147 273.345 36.3847 274.328 35.314C275.31 34.2433 276.667 33.708 278.398 33.708ZM284.732 29.638H286.602V35.578H286.646C287.013 35.0207 287.512 34.5733 288.142 34.236C288.773 33.884 289.55 33.708 290.474 33.708C291.882 33.708 292.924 34.1187 293.598 34.94C294.273 35.7467 294.61 36.7587 294.61 37.976V45.214H292.74V38.35C292.74 37.4553 292.52 36.722 292.08 36.15C291.64 35.5633 290.929 35.27 289.946 35.27C288.934 35.27 288.12 35.6073 287.504 36.282C286.903 36.942 286.602 37.778 286.602 38.79V45.214H284.732V29.638ZM314.367 39.582C314.367 40.7407 314.14 41.7747 313.685 42.684C313.245 43.5787 312.6 44.2753 311.749 44.774C310.913 45.2727 309.909 45.522 308.735 45.522C307.577 45.522 306.572 45.2727 305.721 44.774C304.871 44.2607 304.225 43.5567 303.785 42.662C303.345 41.7673 303.125 40.7407 303.125 39.582C303.125 37.7927 303.617 36.37 304.599 35.314C305.582 34.2433 306.961 33.708 308.735 33.708C309.923 33.708 310.935 33.9573 311.771 34.456C312.622 34.94 313.267 35.622 313.707 36.502C314.147 37.382 314.367 38.4087 314.367 39.582ZM305.061 39.582C305.061 40.9167 305.362 41.9947 305.963 42.816C306.579 43.6227 307.503 44.026 308.735 44.026C309.982 44.026 310.913 43.6227 311.529 42.816C312.145 41.9947 312.453 40.9167 312.453 39.582C312.453 38.2473 312.145 37.184 311.529 36.392C310.913 35.6 309.982 35.204 308.735 35.204C307.489 35.204 306.565 35.6 305.963 36.392C305.362 37.184 305.061 38.2473 305.061 39.582ZM317.367 36.524C317.367 35.7027 317.315 34.8667 317.213 34.016H318.995C319.068 34.412 319.119 34.94 319.149 35.6H319.193C319.559 35.028 320.073 34.5733 320.733 34.236C321.393 33.884 322.177 33.708 323.087 33.708C324.495 33.708 325.536 34.1187 326.211 34.94C326.9 35.7467 327.245 36.7587 327.245 37.976V45.214H325.375V38.35C325.375 37.4553 325.155 36.722 324.715 36.15C324.275 35.5633 323.563 35.27 322.581 35.27C321.569 35.27 320.755 35.6073 320.139 36.282C319.537 36.942 319.237 37.778 319.237 38.79V45.214H317.367V36.524ZM338.84 34.016H341.81V35.446H338.84V42.2C338.84 43.4027 339.39 44.004 340.49 44.004C340.886 44.004 341.253 43.9527 341.59 43.85L341.876 45.236C341.377 45.4267 340.798 45.522 340.138 45.522C339.155 45.522 338.378 45.2507 337.806 44.708C337.249 44.1507 336.97 43.366 336.97 42.354V35.446H334.99V34.236L336.948 34.016V31.266L338.84 30.606V34.016ZM344.437 29.638H346.307V35.578H346.351C346.718 35.0207 347.217 34.5733 347.847 34.236C348.478 33.884 349.255 33.708 350.179 33.708C351.587 33.708 352.629 34.1187 353.303 34.94C353.978 35.7467 354.315 36.7587 354.315 37.976V45.214H352.445V38.35C352.445 37.4553 352.225 36.722 351.785 36.15C351.345 35.5633 350.634 35.27 349.651 35.27C348.639 35.27 347.825 35.6073 347.209 36.282C346.608 36.942 346.307 37.778 346.307 38.79V45.214H344.437V29.638ZM367.366 40.286H359.05C359.124 41.43 359.468 42.3393 360.084 43.014C360.7 43.6887 361.58 44.026 362.724 44.026C363.399 44.026 364 43.938 364.528 43.762C365.071 43.5713 365.614 43.2927 366.156 42.926L366.992 44.136C366.362 44.5907 365.687 44.9353 364.968 45.17C364.264 45.4047 363.48 45.522 362.614 45.522C360.898 45.522 359.556 44.9793 358.588 43.894C357.635 42.8087 357.158 41.364 357.158 39.56C357.158 38.4013 357.364 37.382 357.774 36.502C358.185 35.622 358.779 34.94 359.556 34.456C360.348 33.9573 361.294 33.708 362.394 33.708C364.022 33.708 365.262 34.236 366.112 35.292C366.978 36.348 367.41 37.7487 367.41 39.494C367.41 39.846 367.396 40.11 367.366 40.286ZM365.584 38.834C365.555 37.7193 365.269 36.8247 364.726 36.15C364.184 35.4753 363.399 35.138 362.372 35.138C361.331 35.138 360.524 35.49 359.952 36.194C359.38 36.8833 359.072 37.7633 359.028 38.834H365.584ZM14.938 66.404C14.938 68.9413 14.2267 70.8773 12.804 72.212C11.396 73.5467 9.43067 74.214 6.908 74.214H1.892V58.638H6.864C9.44534 58.638 11.4327 59.2833 12.826 60.574C14.234 61.85 14.938 63.7933 14.938 66.404ZM3.828 60.244V72.586H6.71C8.734 72.586 10.274 72.08 11.33 71.068C12.4007 70.056 12.936 68.5013 12.936 66.404C12.936 62.2973 10.868 60.244 6.732 60.244H3.828ZM26.4856 70.43H19.1816L17.7296 74.214H15.6836L21.8436 58.638H23.8896L30.0056 74.214H27.8936L26.4856 70.43ZM19.7316 68.912H25.9356L22.8336 60.486L19.7316 68.912ZM48.467 74.214H46.553L46.597 60.904H46.553L40.965 74.214H39.491L33.925 60.904H33.881L33.925 74.214H32.099V58.638H34.981L40.239 71.596H40.283L45.563 58.638H48.467V74.214ZM52.1378 73.18C52.1378 72.3587 52.5484 71.948 53.3698 71.948C54.1764 71.948 54.5798 72.3587 54.5798 73.18C54.5798 73.5467 54.4844 73.84 54.2938 74.06C54.1031 74.28 53.7951 74.39 53.3698 74.39C52.9298 74.39 52.6144 74.28 52.4238 74.06C52.2331 73.84 52.1378 73.5467 52.1378 73.18Z" fill="#001E5B"/>
</svg>
