<svg width="130" height="23" viewBox="0 0 130 23" fill="none" xmlns="http://www.w3.org/2000/svg">
<path d="M8.22001 22.2H4.11001V3.83995H7.32578e-06V-4.91142e-05H12.36V3.83995H8.22001V22.2ZM17.0379 22.2H13.0479V5.54995H16.7079V7.01995H16.7679C17.8179 5.45995 18.6879 4.97995 20.5779 4.97995H20.6679V8.84995C18.2679 8.93995 17.0379 10.23 17.0379 12.72V22.2ZM38.337 22.2H34.677V20.13C33.357 21.69 30.897 22.74 28.827 22.74C24.147 22.74 20.757 18.81 20.757 13.77C20.757 8.93995 24.267 4.97995 29.097 4.97995C31.437 4.97995 33.747 6.35995 34.617 7.64995H34.677V5.54995H38.337V22.2ZM29.697 19.08C32.607 19.08 34.557 16.68 34.557 13.83C34.557 10.92 32.547 8.63995 29.667 8.63995C26.877 8.63995 24.747 10.98 24.747 13.95C24.747 16.74 26.877 19.08 29.697 19.08ZM45.3316 3.65995H41.3416V-4.91142e-05H45.3316V3.65995ZM45.3316 22.2H41.3416V5.54995H45.3316V22.2ZM52.5687 22.2H48.5787V-4.91142e-05H52.5687V22.2ZM70.5457 22.2H66.5557V13.53C66.5557 10.08 65.4157 8.63995 63.1357 8.63995C60.8557 8.63995 59.7757 10.26 59.7757 13.59V22.2H55.7857V-4.91142e-05H59.7757V6.71995C61.0057 5.54995 62.3857 4.97995 64.0957 4.97995C66.1057 4.97995 70.5457 6.38995 70.5457 12.03V22.2ZM90.214 15.66H77.284C77.584 17.13 79.414 19.08 81.874 19.08C83.524 19.08 84.904 18.42 85.714 16.95H89.914C88.834 20.31 85.414 22.74 81.874 22.74C76.864 22.74 73.084 18.84 73.084 13.92C73.084 8.99995 76.774 4.97995 81.844 4.97995C86.674 4.97995 90.454 8.78995 90.454 13.65C90.454 14.28 90.364 14.94 90.214 15.66ZM77.164 12.45H86.374C85.984 10.05 84.334 8.63995 81.844 8.63995C79.654 8.63995 77.794 9.89995 77.164 12.45ZM109.733 22.2H106.073V20.13C104.753 21.69 102.293 22.74 100.223 22.74C95.5434 22.74 92.1534 18.81 92.1534 13.77C92.1534 8.93995 95.6634 4.97995 100.493 4.97995C102.833 4.97995 105.143 6.35995 106.013 7.64995H106.073V5.54995H109.733V22.2ZM101.093 19.08C104.003 19.08 105.953 16.68 105.953 13.83C105.953 10.92 103.943 8.63995 101.063 8.63995C98.2734 8.63995 96.1434 10.98 96.1434 13.95C96.1434 16.74 98.2734 19.08 101.093 19.08ZM129.688 22.2H126.028V20.16H125.968C124.888 21.84 122.848 22.74 120.658 22.74C116.008 22.74 112.168 18.84 112.168 13.89C112.168 8.60995 116.338 4.97995 120.748 4.97995C122.758 4.97995 124.228 5.54995 125.698 7.01995V-4.91142e-05H129.688V22.2ZM121.078 19.08C123.778 19.08 125.998 16.71 125.998 13.86C125.998 11.1 123.868 8.63995 121.048 8.63995C118.528 8.63995 116.158 10.98 116.158 13.74C116.158 16.68 118.318 19.08 121.078 19.08Z" fill="#001E5B"/>
</svg>
